%TF.GenerationSoftware,KiCad,Pcbnew,7.0.11*%
%TF.CreationDate,2024-05-21T02:15:50+02:00*%
%TF.ProjectId,Untitled,556e7469-746c-4656-942e-6b696361645f,1.0*%
%TF.SameCoordinates,Original*%
%TF.FileFunction,Legend,Bot*%
%TF.FilePolarity,Positive*%
%FSLAX46Y46*%
G04 Gerber Fmt 4.6, Leading zero omitted, Abs format (unit mm)*
G04 Created by KiCad (PCBNEW 7.0.11) date 2024-05-21 02:15:50*
%MOMM*%
%LPD*%
G01*
G04 APERTURE LIST*
%ADD10C,0.100000*%
G04 APERTURE END LIST*
D10*
X73884419Y-45881027D02*
X73884419Y-46452455D01*
X74884419Y-46166741D02*
X73884419Y-46166741D01*
X74360609Y-46785789D02*
X74360609Y-47119122D01*
X74884419Y-47261979D02*
X74884419Y-46785789D01*
X74884419Y-46785789D02*
X73884419Y-46785789D01*
X73884419Y-46785789D02*
X73884419Y-47261979D01*
X73932038Y-48214360D02*
X73884419Y-48119122D01*
X73884419Y-48119122D02*
X73884419Y-47976265D01*
X73884419Y-47976265D02*
X73932038Y-47833408D01*
X73932038Y-47833408D02*
X74027276Y-47738170D01*
X74027276Y-47738170D02*
X74122514Y-47690551D01*
X74122514Y-47690551D02*
X74312990Y-47642932D01*
X74312990Y-47642932D02*
X74455847Y-47642932D01*
X74455847Y-47642932D02*
X74646323Y-47690551D01*
X74646323Y-47690551D02*
X74741561Y-47738170D01*
X74741561Y-47738170D02*
X74836800Y-47833408D01*
X74836800Y-47833408D02*
X74884419Y-47976265D01*
X74884419Y-47976265D02*
X74884419Y-48071503D01*
X74884419Y-48071503D02*
X74836800Y-48214360D01*
X74836800Y-48214360D02*
X74789180Y-48261979D01*
X74789180Y-48261979D02*
X74455847Y-48261979D01*
X74455847Y-48261979D02*
X74455847Y-48071503D01*
X74884419Y-49261979D02*
X74408228Y-48928646D01*
X74884419Y-48690551D02*
X73884419Y-48690551D01*
X73884419Y-48690551D02*
X73884419Y-49071503D01*
X73884419Y-49071503D02*
X73932038Y-49166741D01*
X73932038Y-49166741D02*
X73979657Y-49214360D01*
X73979657Y-49214360D02*
X74074895Y-49261979D01*
X74074895Y-49261979D02*
X74217752Y-49261979D01*
X74217752Y-49261979D02*
X74312990Y-49214360D01*
X74312990Y-49214360D02*
X74360609Y-49166741D01*
X74360609Y-49166741D02*
X74408228Y-49071503D01*
X74408228Y-49071503D02*
X74408228Y-48690551D01*
X74598704Y-49642932D02*
X74598704Y-50119122D01*
X74884419Y-49547694D02*
X73884419Y-49881027D01*
X73884419Y-49881027D02*
X74884419Y-50214360D01*
X73932038Y-51833408D02*
X73884419Y-51738170D01*
X73884419Y-51738170D02*
X73884419Y-51595313D01*
X73884419Y-51595313D02*
X73932038Y-51452456D01*
X73932038Y-51452456D02*
X74027276Y-51357218D01*
X74027276Y-51357218D02*
X74122514Y-51309599D01*
X74122514Y-51309599D02*
X74312990Y-51261980D01*
X74312990Y-51261980D02*
X74455847Y-51261980D01*
X74455847Y-51261980D02*
X74646323Y-51309599D01*
X74646323Y-51309599D02*
X74741561Y-51357218D01*
X74741561Y-51357218D02*
X74836800Y-51452456D01*
X74836800Y-51452456D02*
X74884419Y-51595313D01*
X74884419Y-51595313D02*
X74884419Y-51690551D01*
X74884419Y-51690551D02*
X74836800Y-51833408D01*
X74836800Y-51833408D02*
X74789180Y-51881027D01*
X74789180Y-51881027D02*
X74455847Y-51881027D01*
X74455847Y-51881027D02*
X74455847Y-51690551D01*
X74884419Y-52309599D02*
X73884419Y-52309599D01*
X73884419Y-52309599D02*
X73884419Y-52690551D01*
X73884419Y-52690551D02*
X73932038Y-52785789D01*
X73932038Y-52785789D02*
X73979657Y-52833408D01*
X73979657Y-52833408D02*
X74074895Y-52881027D01*
X74074895Y-52881027D02*
X74217752Y-52881027D01*
X74217752Y-52881027D02*
X74312990Y-52833408D01*
X74312990Y-52833408D02*
X74360609Y-52785789D01*
X74360609Y-52785789D02*
X74408228Y-52690551D01*
X74408228Y-52690551D02*
X74408228Y-52309599D01*
X74884419Y-53309599D02*
X73884419Y-53309599D01*
X73884419Y-53976265D02*
X73884419Y-54166741D01*
X73884419Y-54166741D02*
X73932038Y-54261979D01*
X73932038Y-54261979D02*
X74027276Y-54357217D01*
X74027276Y-54357217D02*
X74217752Y-54404836D01*
X74217752Y-54404836D02*
X74551085Y-54404836D01*
X74551085Y-54404836D02*
X74741561Y-54357217D01*
X74741561Y-54357217D02*
X74836800Y-54261979D01*
X74836800Y-54261979D02*
X74884419Y-54166741D01*
X74884419Y-54166741D02*
X74884419Y-53976265D01*
X74884419Y-53976265D02*
X74836800Y-53881027D01*
X74836800Y-53881027D02*
X74741561Y-53785789D01*
X74741561Y-53785789D02*
X74551085Y-53738170D01*
X74551085Y-53738170D02*
X74217752Y-53738170D01*
X74217752Y-53738170D02*
X74027276Y-53785789D01*
X74027276Y-53785789D02*
X73932038Y-53881027D01*
X73932038Y-53881027D02*
X73884419Y-53976265D01*
X74217752Y-55452456D02*
X74217752Y-55833408D01*
X73884419Y-55595313D02*
X74741561Y-55595313D01*
X74741561Y-55595313D02*
X74836800Y-55642932D01*
X74836800Y-55642932D02*
X74884419Y-55738170D01*
X74884419Y-55738170D02*
X74884419Y-55833408D01*
X74884419Y-56309599D02*
X74836800Y-56214361D01*
X74836800Y-56214361D02*
X74789180Y-56166742D01*
X74789180Y-56166742D02*
X74693942Y-56119123D01*
X74693942Y-56119123D02*
X74408228Y-56119123D01*
X74408228Y-56119123D02*
X74312990Y-56166742D01*
X74312990Y-56166742D02*
X74265371Y-56214361D01*
X74265371Y-56214361D02*
X74217752Y-56309599D01*
X74217752Y-56309599D02*
X74217752Y-56452456D01*
X74217752Y-56452456D02*
X74265371Y-56547694D01*
X74265371Y-56547694D02*
X74312990Y-56595313D01*
X74312990Y-56595313D02*
X74408228Y-56642932D01*
X74408228Y-56642932D02*
X74693942Y-56642932D01*
X74693942Y-56642932D02*
X74789180Y-56595313D01*
X74789180Y-56595313D02*
X74836800Y-56547694D01*
X74836800Y-56547694D02*
X74884419Y-56452456D01*
X74884419Y-56452456D02*
X74884419Y-56309599D01*
X73884419Y-57690552D02*
X74884419Y-58023885D01*
X74884419Y-58023885D02*
X73884419Y-58357218D01*
X74884419Y-58690552D02*
X73884419Y-58690552D01*
X73884419Y-58690552D02*
X74598704Y-59023885D01*
X74598704Y-59023885D02*
X73884419Y-59357218D01*
X73884419Y-59357218D02*
X74884419Y-59357218D01*
X74598704Y-59785790D02*
X74598704Y-60261980D01*
X74884419Y-59690552D02*
X73884419Y-60023885D01*
X73884419Y-60023885D02*
X74884419Y-60357218D01*
X74217752Y-61119123D02*
X74884419Y-61119123D01*
X73836800Y-60881028D02*
X74551085Y-60642933D01*
X74551085Y-60642933D02*
X74551085Y-61261980D01*
X73884419Y-61547695D02*
X73884419Y-62166742D01*
X73884419Y-62166742D02*
X74265371Y-61833409D01*
X74265371Y-61833409D02*
X74265371Y-61976266D01*
X74265371Y-61976266D02*
X74312990Y-62071504D01*
X74312990Y-62071504D02*
X74360609Y-62119123D01*
X74360609Y-62119123D02*
X74455847Y-62166742D01*
X74455847Y-62166742D02*
X74693942Y-62166742D01*
X74693942Y-62166742D02*
X74789180Y-62119123D01*
X74789180Y-62119123D02*
X74836800Y-62071504D01*
X74836800Y-62071504D02*
X74884419Y-61976266D01*
X74884419Y-61976266D02*
X74884419Y-61690552D01*
X74884419Y-61690552D02*
X74836800Y-61595314D01*
X74836800Y-61595314D02*
X74789180Y-61547695D01*
X73884419Y-63023885D02*
X73884419Y-62833409D01*
X73884419Y-62833409D02*
X73932038Y-62738171D01*
X73932038Y-62738171D02*
X73979657Y-62690552D01*
X73979657Y-62690552D02*
X74122514Y-62595314D01*
X74122514Y-62595314D02*
X74312990Y-62547695D01*
X74312990Y-62547695D02*
X74693942Y-62547695D01*
X74693942Y-62547695D02*
X74789180Y-62595314D01*
X74789180Y-62595314D02*
X74836800Y-62642933D01*
X74836800Y-62642933D02*
X74884419Y-62738171D01*
X74884419Y-62738171D02*
X74884419Y-62928647D01*
X74884419Y-62928647D02*
X74836800Y-63023885D01*
X74836800Y-63023885D02*
X74789180Y-63071504D01*
X74789180Y-63071504D02*
X74693942Y-63119123D01*
X74693942Y-63119123D02*
X74455847Y-63119123D01*
X74455847Y-63119123D02*
X74360609Y-63071504D01*
X74360609Y-63071504D02*
X74312990Y-63023885D01*
X74312990Y-63023885D02*
X74265371Y-62928647D01*
X74265371Y-62928647D02*
X74265371Y-62738171D01*
X74265371Y-62738171D02*
X74312990Y-62642933D01*
X74312990Y-62642933D02*
X74360609Y-62595314D01*
X74360609Y-62595314D02*
X74455847Y-62547695D01*
X74884419Y-64309600D02*
X74217752Y-64309600D01*
X73884419Y-64309600D02*
X73932038Y-64261981D01*
X73932038Y-64261981D02*
X73979657Y-64309600D01*
X73979657Y-64309600D02*
X73932038Y-64357219D01*
X73932038Y-64357219D02*
X73884419Y-64309600D01*
X73884419Y-64309600D02*
X73979657Y-64309600D01*
X74217752Y-64785790D02*
X74884419Y-64785790D01*
X74312990Y-64785790D02*
X74265371Y-64833409D01*
X74265371Y-64833409D02*
X74217752Y-64928647D01*
X74217752Y-64928647D02*
X74217752Y-65071504D01*
X74217752Y-65071504D02*
X74265371Y-65166742D01*
X74265371Y-65166742D02*
X74360609Y-65214361D01*
X74360609Y-65214361D02*
X74884419Y-65214361D01*
X74217752Y-65547695D02*
X74217752Y-65928647D01*
X73884419Y-65690552D02*
X74741561Y-65690552D01*
X74741561Y-65690552D02*
X74836800Y-65738171D01*
X74836800Y-65738171D02*
X74884419Y-65833409D01*
X74884419Y-65833409D02*
X74884419Y-65928647D01*
X74836800Y-66642933D02*
X74884419Y-66547695D01*
X74884419Y-66547695D02*
X74884419Y-66357219D01*
X74884419Y-66357219D02*
X74836800Y-66261981D01*
X74836800Y-66261981D02*
X74741561Y-66214362D01*
X74741561Y-66214362D02*
X74360609Y-66214362D01*
X74360609Y-66214362D02*
X74265371Y-66261981D01*
X74265371Y-66261981D02*
X74217752Y-66357219D01*
X74217752Y-66357219D02*
X74217752Y-66547695D01*
X74217752Y-66547695D02*
X74265371Y-66642933D01*
X74265371Y-66642933D02*
X74360609Y-66690552D01*
X74360609Y-66690552D02*
X74455847Y-66690552D01*
X74455847Y-66690552D02*
X74551085Y-66214362D01*
X74884419Y-67119124D02*
X74217752Y-67119124D01*
X74408228Y-67119124D02*
X74312990Y-67166743D01*
X74312990Y-67166743D02*
X74265371Y-67214362D01*
X74265371Y-67214362D02*
X74217752Y-67309600D01*
X74217752Y-67309600D02*
X74217752Y-67404838D01*
X74217752Y-67595315D02*
X74217752Y-67976267D01*
X74884419Y-67738172D02*
X74027276Y-67738172D01*
X74027276Y-67738172D02*
X73932038Y-67785791D01*
X73932038Y-67785791D02*
X73884419Y-67881029D01*
X73884419Y-67881029D02*
X73884419Y-67976267D01*
X74884419Y-68738172D02*
X74360609Y-68738172D01*
X74360609Y-68738172D02*
X74265371Y-68690553D01*
X74265371Y-68690553D02*
X74217752Y-68595315D01*
X74217752Y-68595315D02*
X74217752Y-68404839D01*
X74217752Y-68404839D02*
X74265371Y-68309601D01*
X74836800Y-68738172D02*
X74884419Y-68642934D01*
X74884419Y-68642934D02*
X74884419Y-68404839D01*
X74884419Y-68404839D02*
X74836800Y-68309601D01*
X74836800Y-68309601D02*
X74741561Y-68261982D01*
X74741561Y-68261982D02*
X74646323Y-68261982D01*
X74646323Y-68261982D02*
X74551085Y-68309601D01*
X74551085Y-68309601D02*
X74503466Y-68404839D01*
X74503466Y-68404839D02*
X74503466Y-68642934D01*
X74503466Y-68642934D02*
X74455847Y-68738172D01*
X74836800Y-69642934D02*
X74884419Y-69547696D01*
X74884419Y-69547696D02*
X74884419Y-69357220D01*
X74884419Y-69357220D02*
X74836800Y-69261982D01*
X74836800Y-69261982D02*
X74789180Y-69214363D01*
X74789180Y-69214363D02*
X74693942Y-69166744D01*
X74693942Y-69166744D02*
X74408228Y-69166744D01*
X74408228Y-69166744D02*
X74312990Y-69214363D01*
X74312990Y-69214363D02*
X74265371Y-69261982D01*
X74265371Y-69261982D02*
X74217752Y-69357220D01*
X74217752Y-69357220D02*
X74217752Y-69547696D01*
X74217752Y-69547696D02*
X74265371Y-69642934D01*
X74836800Y-70452458D02*
X74884419Y-70357220D01*
X74884419Y-70357220D02*
X74884419Y-70166744D01*
X74884419Y-70166744D02*
X74836800Y-70071506D01*
X74836800Y-70071506D02*
X74741561Y-70023887D01*
X74741561Y-70023887D02*
X74360609Y-70023887D01*
X74360609Y-70023887D02*
X74265371Y-70071506D01*
X74265371Y-70071506D02*
X74217752Y-70166744D01*
X74217752Y-70166744D02*
X74217752Y-70357220D01*
X74217752Y-70357220D02*
X74265371Y-70452458D01*
X74265371Y-70452458D02*
X74360609Y-70500077D01*
X74360609Y-70500077D02*
X74455847Y-70500077D01*
X74455847Y-70500077D02*
X74551085Y-70023887D01*
X75494419Y-45881027D02*
X76494419Y-46214360D01*
X76494419Y-46214360D02*
X75494419Y-46547693D01*
X76446800Y-47261979D02*
X76494419Y-47166741D01*
X76494419Y-47166741D02*
X76494419Y-46976265D01*
X76494419Y-46976265D02*
X76446800Y-46881027D01*
X76446800Y-46881027D02*
X76351561Y-46833408D01*
X76351561Y-46833408D02*
X75970609Y-46833408D01*
X75970609Y-46833408D02*
X75875371Y-46881027D01*
X75875371Y-46881027D02*
X75827752Y-46976265D01*
X75827752Y-46976265D02*
X75827752Y-47166741D01*
X75827752Y-47166741D02*
X75875371Y-47261979D01*
X75875371Y-47261979D02*
X75970609Y-47309598D01*
X75970609Y-47309598D02*
X76065847Y-47309598D01*
X76065847Y-47309598D02*
X76161085Y-46833408D01*
X76494419Y-47738170D02*
X75827752Y-47738170D01*
X76018228Y-47738170D02*
X75922990Y-47785789D01*
X75922990Y-47785789D02*
X75875371Y-47833408D01*
X75875371Y-47833408D02*
X75827752Y-47928646D01*
X75827752Y-47928646D02*
X75827752Y-48023884D01*
X76446800Y-48309599D02*
X76494419Y-48404837D01*
X76494419Y-48404837D02*
X76494419Y-48595313D01*
X76494419Y-48595313D02*
X76446800Y-48690551D01*
X76446800Y-48690551D02*
X76351561Y-48738170D01*
X76351561Y-48738170D02*
X76303942Y-48738170D01*
X76303942Y-48738170D02*
X76208704Y-48690551D01*
X76208704Y-48690551D02*
X76161085Y-48595313D01*
X76161085Y-48595313D02*
X76161085Y-48452456D01*
X76161085Y-48452456D02*
X76113466Y-48357218D01*
X76113466Y-48357218D02*
X76018228Y-48309599D01*
X76018228Y-48309599D02*
X75970609Y-48309599D01*
X75970609Y-48309599D02*
X75875371Y-48357218D01*
X75875371Y-48357218D02*
X75827752Y-48452456D01*
X75827752Y-48452456D02*
X75827752Y-48595313D01*
X75827752Y-48595313D02*
X75875371Y-48690551D01*
X76494419Y-49166742D02*
X75827752Y-49166742D01*
X75494419Y-49166742D02*
X75542038Y-49119123D01*
X75542038Y-49119123D02*
X75589657Y-49166742D01*
X75589657Y-49166742D02*
X75542038Y-49214361D01*
X75542038Y-49214361D02*
X75494419Y-49166742D01*
X75494419Y-49166742D02*
X75589657Y-49166742D01*
X76494419Y-49785789D02*
X76446800Y-49690551D01*
X76446800Y-49690551D02*
X76399180Y-49642932D01*
X76399180Y-49642932D02*
X76303942Y-49595313D01*
X76303942Y-49595313D02*
X76018228Y-49595313D01*
X76018228Y-49595313D02*
X75922990Y-49642932D01*
X75922990Y-49642932D02*
X75875371Y-49690551D01*
X75875371Y-49690551D02*
X75827752Y-49785789D01*
X75827752Y-49785789D02*
X75827752Y-49928646D01*
X75827752Y-49928646D02*
X75875371Y-50023884D01*
X75875371Y-50023884D02*
X75922990Y-50071503D01*
X75922990Y-50071503D02*
X76018228Y-50119122D01*
X76018228Y-50119122D02*
X76303942Y-50119122D01*
X76303942Y-50119122D02*
X76399180Y-50071503D01*
X76399180Y-50071503D02*
X76446800Y-50023884D01*
X76446800Y-50023884D02*
X76494419Y-49928646D01*
X76494419Y-49928646D02*
X76494419Y-49785789D01*
X75827752Y-50547694D02*
X76494419Y-50547694D01*
X75922990Y-50547694D02*
X75875371Y-50595313D01*
X75875371Y-50595313D02*
X75827752Y-50690551D01*
X75827752Y-50690551D02*
X75827752Y-50833408D01*
X75827752Y-50833408D02*
X75875371Y-50928646D01*
X75875371Y-50928646D02*
X75970609Y-50976265D01*
X75970609Y-50976265D02*
X76494419Y-50976265D01*
X76494419Y-52738170D02*
X76494419Y-52166742D01*
X76494419Y-52452456D02*
X75494419Y-52452456D01*
X75494419Y-52452456D02*
X75637276Y-52357218D01*
X75637276Y-52357218D02*
X75732514Y-52261980D01*
X75732514Y-52261980D02*
X75780133Y-52166742D01*
X76399180Y-53166742D02*
X76446800Y-53214361D01*
X76446800Y-53214361D02*
X76494419Y-53166742D01*
X76494419Y-53166742D02*
X76446800Y-53119123D01*
X76446800Y-53119123D02*
X76399180Y-53166742D01*
X76399180Y-53166742D02*
X76494419Y-53166742D01*
X75494419Y-53833408D02*
X75494419Y-53928646D01*
X75494419Y-53928646D02*
X75542038Y-54023884D01*
X75542038Y-54023884D02*
X75589657Y-54071503D01*
X75589657Y-54071503D02*
X75684895Y-54119122D01*
X75684895Y-54119122D02*
X75875371Y-54166741D01*
X75875371Y-54166741D02*
X76113466Y-54166741D01*
X76113466Y-54166741D02*
X76303942Y-54119122D01*
X76303942Y-54119122D02*
X76399180Y-54071503D01*
X76399180Y-54071503D02*
X76446800Y-54023884D01*
X76446800Y-54023884D02*
X76494419Y-53928646D01*
X76494419Y-53928646D02*
X76494419Y-53833408D01*
X76494419Y-53833408D02*
X76446800Y-53738170D01*
X76446800Y-53738170D02*
X76399180Y-53690551D01*
X76399180Y-53690551D02*
X76303942Y-53642932D01*
X76303942Y-53642932D02*
X76113466Y-53595313D01*
X76113466Y-53595313D02*
X75875371Y-53595313D01*
X75875371Y-53595313D02*
X75684895Y-53642932D01*
X75684895Y-53642932D02*
X75589657Y-53690551D01*
X75589657Y-53690551D02*
X75542038Y-53738170D01*
X75542038Y-53738170D02*
X75494419Y-53833408D01*
X77152038Y-46547693D02*
X77104419Y-46452455D01*
X77104419Y-46452455D02*
X77104419Y-46309598D01*
X77104419Y-46309598D02*
X77152038Y-46166741D01*
X77152038Y-46166741D02*
X77247276Y-46071503D01*
X77247276Y-46071503D02*
X77342514Y-46023884D01*
X77342514Y-46023884D02*
X77532990Y-45976265D01*
X77532990Y-45976265D02*
X77675847Y-45976265D01*
X77675847Y-45976265D02*
X77866323Y-46023884D01*
X77866323Y-46023884D02*
X77961561Y-46071503D01*
X77961561Y-46071503D02*
X78056800Y-46166741D01*
X78056800Y-46166741D02*
X78104419Y-46309598D01*
X78104419Y-46309598D02*
X78104419Y-46404836D01*
X78104419Y-46404836D02*
X78056800Y-46547693D01*
X78056800Y-46547693D02*
X78009180Y-46595312D01*
X78009180Y-46595312D02*
X77675847Y-46595312D01*
X77675847Y-46595312D02*
X77675847Y-46404836D01*
X78104419Y-47023884D02*
X77437752Y-47023884D01*
X77104419Y-47023884D02*
X77152038Y-46976265D01*
X77152038Y-46976265D02*
X77199657Y-47023884D01*
X77199657Y-47023884D02*
X77152038Y-47071503D01*
X77152038Y-47071503D02*
X77104419Y-47023884D01*
X77104419Y-47023884D02*
X77199657Y-47023884D01*
X78104419Y-47642931D02*
X78056800Y-47547693D01*
X78056800Y-47547693D02*
X77961561Y-47500074D01*
X77961561Y-47500074D02*
X77104419Y-47500074D01*
X78104419Y-48023884D02*
X77104419Y-48023884D01*
X77485371Y-48023884D02*
X77437752Y-48119122D01*
X77437752Y-48119122D02*
X77437752Y-48309598D01*
X77437752Y-48309598D02*
X77485371Y-48404836D01*
X77485371Y-48404836D02*
X77532990Y-48452455D01*
X77532990Y-48452455D02*
X77628228Y-48500074D01*
X77628228Y-48500074D02*
X77913942Y-48500074D01*
X77913942Y-48500074D02*
X78009180Y-48452455D01*
X78009180Y-48452455D02*
X78056800Y-48404836D01*
X78056800Y-48404836D02*
X78104419Y-48309598D01*
X78104419Y-48309598D02*
X78104419Y-48119122D01*
X78104419Y-48119122D02*
X78056800Y-48023884D01*
X78056800Y-49309598D02*
X78104419Y-49214360D01*
X78104419Y-49214360D02*
X78104419Y-49023884D01*
X78104419Y-49023884D02*
X78056800Y-48928646D01*
X78056800Y-48928646D02*
X77961561Y-48881027D01*
X77961561Y-48881027D02*
X77580609Y-48881027D01*
X77580609Y-48881027D02*
X77485371Y-48928646D01*
X77485371Y-48928646D02*
X77437752Y-49023884D01*
X77437752Y-49023884D02*
X77437752Y-49214360D01*
X77437752Y-49214360D02*
X77485371Y-49309598D01*
X77485371Y-49309598D02*
X77580609Y-49357217D01*
X77580609Y-49357217D02*
X77675847Y-49357217D01*
X77675847Y-49357217D02*
X77771085Y-48881027D01*
X78104419Y-49785789D02*
X77437752Y-49785789D01*
X77628228Y-49785789D02*
X77532990Y-49833408D01*
X77532990Y-49833408D02*
X77485371Y-49881027D01*
X77485371Y-49881027D02*
X77437752Y-49976265D01*
X77437752Y-49976265D02*
X77437752Y-50071503D01*
X77437752Y-50261980D02*
X77437752Y-50642932D01*
X77104419Y-50404837D02*
X77961561Y-50404837D01*
X77961561Y-50404837D02*
X78056800Y-50452456D01*
X78056800Y-50452456D02*
X78104419Y-50547694D01*
X78104419Y-50547694D02*
X78104419Y-50642932D01*
X77580609Y-52071504D02*
X77580609Y-51738171D01*
X78104419Y-51738171D02*
X77104419Y-51738171D01*
X77104419Y-51738171D02*
X77104419Y-52214361D01*
X78104419Y-52595314D02*
X77437752Y-52595314D01*
X77628228Y-52595314D02*
X77532990Y-52642933D01*
X77532990Y-52642933D02*
X77485371Y-52690552D01*
X77485371Y-52690552D02*
X77437752Y-52785790D01*
X77437752Y-52785790D02*
X77437752Y-52881028D01*
X78104419Y-53642933D02*
X77580609Y-53642933D01*
X77580609Y-53642933D02*
X77485371Y-53595314D01*
X77485371Y-53595314D02*
X77437752Y-53500076D01*
X77437752Y-53500076D02*
X77437752Y-53309600D01*
X77437752Y-53309600D02*
X77485371Y-53214362D01*
X78056800Y-53642933D02*
X78104419Y-53547695D01*
X78104419Y-53547695D02*
X78104419Y-53309600D01*
X78104419Y-53309600D02*
X78056800Y-53214362D01*
X78056800Y-53214362D02*
X77961561Y-53166743D01*
X77961561Y-53166743D02*
X77866323Y-53166743D01*
X77866323Y-53166743D02*
X77771085Y-53214362D01*
X77771085Y-53214362D02*
X77723466Y-53309600D01*
X77723466Y-53309600D02*
X77723466Y-53547695D01*
X77723466Y-53547695D02*
X77675847Y-53642933D01*
X77437752Y-54119124D02*
X78104419Y-54119124D01*
X77532990Y-54119124D02*
X77485371Y-54166743D01*
X77485371Y-54166743D02*
X77437752Y-54261981D01*
X77437752Y-54261981D02*
X77437752Y-54404838D01*
X77437752Y-54404838D02*
X77485371Y-54500076D01*
X77485371Y-54500076D02*
X77580609Y-54547695D01*
X77580609Y-54547695D02*
X78104419Y-54547695D01*
X78056800Y-55452457D02*
X78104419Y-55357219D01*
X78104419Y-55357219D02*
X78104419Y-55166743D01*
X78104419Y-55166743D02*
X78056800Y-55071505D01*
X78056800Y-55071505D02*
X78009180Y-55023886D01*
X78009180Y-55023886D02*
X77913942Y-54976267D01*
X77913942Y-54976267D02*
X77628228Y-54976267D01*
X77628228Y-54976267D02*
X77532990Y-55023886D01*
X77532990Y-55023886D02*
X77485371Y-55071505D01*
X77485371Y-55071505D02*
X77437752Y-55166743D01*
X77437752Y-55166743D02*
X77437752Y-55357219D01*
X77437752Y-55357219D02*
X77485371Y-55452457D01*
X78152038Y-55261981D02*
X78199657Y-55357219D01*
X78199657Y-55357219D02*
X78294895Y-55404838D01*
X78294895Y-55404838D02*
X78390133Y-55357219D01*
X78390133Y-55357219D02*
X78437752Y-55261981D01*
X78437752Y-55261981D02*
X78437752Y-55119124D01*
X78104419Y-56023886D02*
X78056800Y-55928648D01*
X78056800Y-55928648D02*
X78009180Y-55881029D01*
X78009180Y-55881029D02*
X77913942Y-55833410D01*
X77913942Y-55833410D02*
X77628228Y-55833410D01*
X77628228Y-55833410D02*
X77532990Y-55881029D01*
X77532990Y-55881029D02*
X77485371Y-55928648D01*
X77485371Y-55928648D02*
X77437752Y-56023886D01*
X77437752Y-56023886D02*
X77437752Y-56166743D01*
X77437752Y-56166743D02*
X77485371Y-56261981D01*
X77485371Y-56261981D02*
X77532990Y-56309600D01*
X77532990Y-56309600D02*
X77628228Y-56357219D01*
X77628228Y-56357219D02*
X77913942Y-56357219D01*
X77913942Y-56357219D02*
X78009180Y-56309600D01*
X78009180Y-56309600D02*
X78056800Y-56261981D01*
X78056800Y-56261981D02*
X78104419Y-56166743D01*
X78104419Y-56166743D02*
X78104419Y-56023886D01*
X78104419Y-56785791D02*
X77437752Y-56785791D01*
X77104419Y-56785791D02*
X77152038Y-56738172D01*
X77152038Y-56738172D02*
X77199657Y-56785791D01*
X77199657Y-56785791D02*
X77152038Y-56833410D01*
X77152038Y-56833410D02*
X77104419Y-56785791D01*
X77104419Y-56785791D02*
X77199657Y-56785791D01*
X78056800Y-57214362D02*
X78104419Y-57309600D01*
X78104419Y-57309600D02*
X78104419Y-57500076D01*
X78104419Y-57500076D02*
X78056800Y-57595314D01*
X78056800Y-57595314D02*
X77961561Y-57642933D01*
X77961561Y-57642933D02*
X77913942Y-57642933D01*
X77913942Y-57642933D02*
X77818704Y-57595314D01*
X77818704Y-57595314D02*
X77771085Y-57500076D01*
X77771085Y-57500076D02*
X77771085Y-57357219D01*
X77771085Y-57357219D02*
X77723466Y-57261981D01*
X77723466Y-57261981D02*
X77628228Y-57214362D01*
X77628228Y-57214362D02*
X77580609Y-57214362D01*
X77580609Y-57214362D02*
X77485371Y-57261981D01*
X77485371Y-57261981D02*
X77437752Y-57357219D01*
X77437752Y-57357219D02*
X77437752Y-57500076D01*
X77437752Y-57500076D02*
X77485371Y-57595314D01*
X78104419Y-58833410D02*
X77104419Y-58833410D01*
X77104419Y-58833410D02*
X77104419Y-59071505D01*
X77104419Y-59071505D02*
X77152038Y-59214362D01*
X77152038Y-59214362D02*
X77247276Y-59309600D01*
X77247276Y-59309600D02*
X77342514Y-59357219D01*
X77342514Y-59357219D02*
X77532990Y-59404838D01*
X77532990Y-59404838D02*
X77675847Y-59404838D01*
X77675847Y-59404838D02*
X77866323Y-59357219D01*
X77866323Y-59357219D02*
X77961561Y-59309600D01*
X77961561Y-59309600D02*
X78056800Y-59214362D01*
X78056800Y-59214362D02*
X78104419Y-59071505D01*
X78104419Y-59071505D02*
X78104419Y-58833410D01*
X77437752Y-60261981D02*
X78104419Y-60261981D01*
X77437752Y-59833410D02*
X77961561Y-59833410D01*
X77961561Y-59833410D02*
X78056800Y-59881029D01*
X78056800Y-59881029D02*
X78104419Y-59976267D01*
X78104419Y-59976267D02*
X78104419Y-60119124D01*
X78104419Y-60119124D02*
X78056800Y-60214362D01*
X78056800Y-60214362D02*
X78009180Y-60261981D01*
X78104419Y-60738172D02*
X77437752Y-60738172D01*
X77104419Y-60738172D02*
X77152038Y-60690553D01*
X77152038Y-60690553D02*
X77199657Y-60738172D01*
X77199657Y-60738172D02*
X77152038Y-60785791D01*
X77152038Y-60785791D02*
X77104419Y-60738172D01*
X77104419Y-60738172D02*
X77199657Y-60738172D01*
X77437752Y-61119124D02*
X78104419Y-61357219D01*
X78104419Y-61357219D02*
X77437752Y-61595314D01*
X78056800Y-62357219D02*
X78104419Y-62261981D01*
X78104419Y-62261981D02*
X78104419Y-62071505D01*
X78104419Y-62071505D02*
X78056800Y-61976267D01*
X78056800Y-61976267D02*
X77961561Y-61928648D01*
X77961561Y-61928648D02*
X77580609Y-61928648D01*
X77580609Y-61928648D02*
X77485371Y-61976267D01*
X77485371Y-61976267D02*
X77437752Y-62071505D01*
X77437752Y-62071505D02*
X77437752Y-62261981D01*
X77437752Y-62261981D02*
X77485371Y-62357219D01*
X77485371Y-62357219D02*
X77580609Y-62404838D01*
X77580609Y-62404838D02*
X77675847Y-62404838D01*
X77675847Y-62404838D02*
X77771085Y-61928648D01*
X78056800Y-62785791D02*
X78104419Y-62881029D01*
X78104419Y-62881029D02*
X78104419Y-63071505D01*
X78104419Y-63071505D02*
X78056800Y-63166743D01*
X78056800Y-63166743D02*
X77961561Y-63214362D01*
X77961561Y-63214362D02*
X77913942Y-63214362D01*
X77913942Y-63214362D02*
X77818704Y-63166743D01*
X77818704Y-63166743D02*
X77771085Y-63071505D01*
X77771085Y-63071505D02*
X77771085Y-62928648D01*
X77771085Y-62928648D02*
X77723466Y-62833410D01*
X77723466Y-62833410D02*
X77628228Y-62785791D01*
X77628228Y-62785791D02*
X77580609Y-62785791D01*
X77580609Y-62785791D02*
X77485371Y-62833410D01*
X77485371Y-62833410D02*
X77437752Y-62928648D01*
X77437752Y-62928648D02*
X77437752Y-63071505D01*
X77437752Y-63071505D02*
X77485371Y-63166743D01*
X77437752Y-63500077D02*
X77437752Y-63881029D01*
X77104419Y-63642934D02*
X77961561Y-63642934D01*
X77961561Y-63642934D02*
X78056800Y-63690553D01*
X78056800Y-63690553D02*
X78104419Y-63785791D01*
X78104419Y-63785791D02*
X78104419Y-63881029D01*
X78056800Y-64595315D02*
X78104419Y-64500077D01*
X78104419Y-64500077D02*
X78104419Y-64309601D01*
X78104419Y-64309601D02*
X78056800Y-64214363D01*
X78056800Y-64214363D02*
X77961561Y-64166744D01*
X77961561Y-64166744D02*
X77580609Y-64166744D01*
X77580609Y-64166744D02*
X77485371Y-64214363D01*
X77485371Y-64214363D02*
X77437752Y-64309601D01*
X77437752Y-64309601D02*
X77437752Y-64500077D01*
X77437752Y-64500077D02*
X77485371Y-64595315D01*
X77485371Y-64595315D02*
X77580609Y-64642934D01*
X77580609Y-64642934D02*
X77675847Y-64642934D01*
X77675847Y-64642934D02*
X77771085Y-64166744D01*
X78104419Y-65071506D02*
X77437752Y-65071506D01*
X77104419Y-65071506D02*
X77152038Y-65023887D01*
X77152038Y-65023887D02*
X77199657Y-65071506D01*
X77199657Y-65071506D02*
X77152038Y-65119125D01*
X77152038Y-65119125D02*
X77104419Y-65071506D01*
X77104419Y-65071506D02*
X77199657Y-65071506D01*
X77437752Y-65547696D02*
X78294895Y-65547696D01*
X78294895Y-65547696D02*
X78390133Y-65500077D01*
X78390133Y-65500077D02*
X78437752Y-65404839D01*
X78437752Y-65404839D02*
X78437752Y-65357220D01*
X77104419Y-65547696D02*
X77152038Y-65500077D01*
X77152038Y-65500077D02*
X77199657Y-65547696D01*
X77199657Y-65547696D02*
X77152038Y-65595315D01*
X77152038Y-65595315D02*
X77104419Y-65547696D01*
X77104419Y-65547696D02*
X77199657Y-65547696D01*
X77437752Y-66023886D02*
X78104419Y-66023886D01*
X77532990Y-66023886D02*
X77485371Y-66071505D01*
X77485371Y-66071505D02*
X77437752Y-66166743D01*
X77437752Y-66166743D02*
X77437752Y-66309600D01*
X77437752Y-66309600D02*
X77485371Y-66404838D01*
X77485371Y-66404838D02*
X77580609Y-66452457D01*
X77580609Y-66452457D02*
X78104419Y-66452457D01*
X77628228Y-68309600D02*
X77580609Y-68261981D01*
X77580609Y-68261981D02*
X77532990Y-68166743D01*
X77532990Y-68166743D02*
X77532990Y-68071505D01*
X77532990Y-68071505D02*
X77580609Y-67976267D01*
X77580609Y-67976267D02*
X77628228Y-67928648D01*
X77628228Y-67928648D02*
X77723466Y-67881029D01*
X77723466Y-67881029D02*
X77818704Y-67881029D01*
X77818704Y-67881029D02*
X77913942Y-67928648D01*
X77913942Y-67928648D02*
X77961561Y-67976267D01*
X77961561Y-67976267D02*
X78009180Y-68071505D01*
X78009180Y-68071505D02*
X78009180Y-68166743D01*
X78009180Y-68166743D02*
X77961561Y-68261981D01*
X77961561Y-68261981D02*
X77913942Y-68309600D01*
X77532990Y-68309600D02*
X77913942Y-68309600D01*
X77913942Y-68309600D02*
X77961561Y-68357219D01*
X77961561Y-68357219D02*
X77961561Y-68404838D01*
X77961561Y-68404838D02*
X77913942Y-68500077D01*
X77913942Y-68500077D02*
X77818704Y-68547696D01*
X77818704Y-68547696D02*
X77580609Y-68547696D01*
X77580609Y-68547696D02*
X77437752Y-68452458D01*
X77437752Y-68452458D02*
X77342514Y-68309600D01*
X77342514Y-68309600D02*
X77294895Y-68119124D01*
X77294895Y-68119124D02*
X77342514Y-67928648D01*
X77342514Y-67928648D02*
X77437752Y-67785791D01*
X77437752Y-67785791D02*
X77580609Y-67690553D01*
X77580609Y-67690553D02*
X77771085Y-67642934D01*
X77771085Y-67642934D02*
X77961561Y-67690553D01*
X77961561Y-67690553D02*
X78104419Y-67785791D01*
X78104419Y-67785791D02*
X78199657Y-67928648D01*
X78199657Y-67928648D02*
X78247276Y-68119124D01*
X78247276Y-68119124D02*
X78199657Y-68309600D01*
X78199657Y-68309600D02*
X78104419Y-68452458D01*
X77818704Y-69690553D02*
X77818704Y-70166743D01*
X78104419Y-69595315D02*
X77104419Y-69928648D01*
X77104419Y-69928648D02*
X78104419Y-70261981D01*
X77104419Y-70452458D02*
X78104419Y-70785791D01*
X78104419Y-70785791D02*
X77104419Y-71119124D01*
X77818704Y-71404839D02*
X77818704Y-71881029D01*
X78104419Y-71309601D02*
X77104419Y-71642934D01*
X77104419Y-71642934D02*
X78104419Y-71976267D01*
X77723466Y-72309601D02*
X77723466Y-73071506D01*
X77104419Y-73452458D02*
X78104419Y-74119124D01*
X77104419Y-74119124D02*
X78104419Y-73452458D01*
%TO.C,G\u002A\u002A\u002A*%
G36*
X77733972Y-96311065D02*
G01*
X77765744Y-96319758D01*
X77792085Y-96334574D01*
X77816489Y-96354553D01*
X77842452Y-96378735D01*
X77847311Y-96383428D01*
X77895963Y-96461070D01*
X77913820Y-96554420D01*
X77900262Y-96646135D01*
X77854664Y-96718872D01*
X77850000Y-96722271D01*
X77805240Y-96745002D01*
X77720499Y-96782449D01*
X77600329Y-96832777D01*
X77449283Y-96894153D01*
X77271915Y-96964740D01*
X77072777Y-97042704D01*
X76856422Y-97126211D01*
X76627404Y-97213426D01*
X76520875Y-97253727D01*
X76252487Y-97355314D01*
X76025040Y-97441595D01*
X75835038Y-97514021D01*
X75678984Y-97574047D01*
X75553380Y-97623123D01*
X75454731Y-97662703D01*
X75379539Y-97694239D01*
X75324307Y-97719183D01*
X75285539Y-97738988D01*
X75259738Y-97755106D01*
X75243407Y-97768990D01*
X75233048Y-97782093D01*
X75225166Y-97795866D01*
X75206154Y-97845339D01*
X75203866Y-97936526D01*
X75241395Y-98015488D01*
X75249945Y-98022278D01*
X75302772Y-98049839D01*
X75400188Y-98092795D01*
X75541089Y-98150707D01*
X75724373Y-98223136D01*
X75948938Y-98309644D01*
X76213681Y-98409792D01*
X76517500Y-98523142D01*
X76629161Y-98564649D01*
X76859695Y-98650922D01*
X77075896Y-98732594D01*
X77273262Y-98807920D01*
X77447288Y-98875151D01*
X77593472Y-98932544D01*
X77707310Y-98978349D01*
X77784298Y-99010823D01*
X77819933Y-99028217D01*
X77821014Y-99028966D01*
X77875417Y-99077595D01*
X77910244Y-99127740D01*
X77922961Y-99183026D01*
X77910392Y-99275894D01*
X77864500Y-99363519D01*
X77793144Y-99432825D01*
X77704180Y-99470733D01*
X77636413Y-99471085D01*
X77526860Y-99449087D01*
X77391315Y-99405295D01*
X77237981Y-99341973D01*
X77223511Y-99335851D01*
X77161865Y-99311462D01*
X77061253Y-99272697D01*
X76926285Y-99221295D01*
X76761571Y-99158999D01*
X76571721Y-99087550D01*
X76361345Y-99008688D01*
X76135054Y-98924154D01*
X75897456Y-98835691D01*
X75750670Y-98781111D01*
X75482593Y-98681125D01*
X75255021Y-98595347D01*
X75064393Y-98521924D01*
X74907150Y-98458998D01*
X74779731Y-98404717D01*
X74678577Y-98357226D01*
X74600128Y-98314668D01*
X74540824Y-98275191D01*
X74497105Y-98236938D01*
X74465410Y-98198056D01*
X74442181Y-98156689D01*
X74423857Y-98110983D01*
X74406877Y-98059083D01*
X74401987Y-98042895D01*
X74377707Y-97884500D01*
X74400725Y-97735540D01*
X74471714Y-97591150D01*
X74496756Y-97557166D01*
X74567148Y-97483718D01*
X74638113Y-97432816D01*
X74642351Y-97430775D01*
X74689809Y-97410673D01*
X74777968Y-97375271D01*
X74902657Y-97326184D01*
X75059707Y-97265025D01*
X75244946Y-97193406D01*
X75454205Y-97112942D01*
X75683314Y-97025245D01*
X75928102Y-96931929D01*
X76184398Y-96834608D01*
X76348701Y-96772331D01*
X76626995Y-96666939D01*
X76864911Y-96577279D01*
X77065942Y-96502391D01*
X77233584Y-96441314D01*
X77371332Y-96393087D01*
X77482680Y-96356748D01*
X77571124Y-96331337D01*
X77640157Y-96315894D01*
X77693275Y-96309457D01*
X77733972Y-96311065D01*
G37*
G36*
X74653268Y-106751615D02*
G01*
X74708664Y-106777938D01*
X74717730Y-106783453D01*
X74767412Y-106823509D01*
X74844535Y-106894093D01*
X74944825Y-106991022D01*
X75064011Y-107110111D01*
X75197818Y-107247178D01*
X75341973Y-107398038D01*
X75414104Y-107473949D01*
X75545828Y-107610800D01*
X75667679Y-107735165D01*
X75774972Y-107842392D01*
X75863025Y-107927828D01*
X75927156Y-107986822D01*
X75962682Y-108014721D01*
X76066845Y-108049725D01*
X76190412Y-108052895D01*
X76306213Y-108020798D01*
X76324045Y-108008677D01*
X76377294Y-107962810D01*
X76456459Y-107888540D01*
X76556936Y-107790391D01*
X76674119Y-107672888D01*
X76803403Y-107540557D01*
X76940184Y-107397920D01*
X77025111Y-107308968D01*
X77157247Y-107172294D01*
X77278702Y-107048724D01*
X77384933Y-106942767D01*
X77471400Y-106858934D01*
X77533560Y-106801733D01*
X77566871Y-106775675D01*
X77628116Y-106756527D01*
X77720378Y-106764971D01*
X77805973Y-106811338D01*
X77871806Y-106890690D01*
X77893834Y-106935204D01*
X77906490Y-106977396D01*
X77906815Y-107021022D01*
X77892094Y-107070278D01*
X77859610Y-107129363D01*
X77806647Y-107202472D01*
X77730488Y-107293804D01*
X77628417Y-107407556D01*
X77497717Y-107547925D01*
X77335673Y-107719108D01*
X77271919Y-107786349D01*
X77140887Y-107925463D01*
X77020437Y-108054537D01*
X76915212Y-108168524D01*
X76829854Y-108262380D01*
X76769005Y-108331057D01*
X76737308Y-108369511D01*
X76727619Y-108384144D01*
X76687211Y-108487321D01*
X76672975Y-108609149D01*
X76685431Y-108730066D01*
X76725097Y-108830512D01*
X76735031Y-108844028D01*
X76778385Y-108895643D01*
X76848829Y-108975176D01*
X76941849Y-109077677D01*
X77052934Y-109198197D01*
X77177572Y-109331786D01*
X77311250Y-109473495D01*
X77376809Y-109542942D01*
X77506174Y-109681958D01*
X77623844Y-109810986D01*
X77725373Y-109924994D01*
X77806313Y-110018954D01*
X77862218Y-110087836D01*
X77888641Y-110126608D01*
X77899396Y-110150461D01*
X77915431Y-110201041D01*
X77910532Y-110247176D01*
X77884114Y-110312868D01*
X77851338Y-110368695D01*
X77774357Y-110436051D01*
X77679914Y-110463002D01*
X77577725Y-110445347D01*
X77577125Y-110445098D01*
X77537212Y-110417207D01*
X77467786Y-110356124D01*
X77371949Y-110264874D01*
X77252802Y-110146478D01*
X77113448Y-110003961D01*
X76956988Y-109840346D01*
X76886476Y-109766194D01*
X76753586Y-109628103D01*
X76630024Y-109501797D01*
X76520591Y-109392060D01*
X76430085Y-109303679D01*
X76363306Y-109241440D01*
X76325051Y-109210129D01*
X76276300Y-109185382D01*
X76159778Y-109161966D01*
X76037809Y-109177133D01*
X75925982Y-109230102D01*
X75912152Y-109241283D01*
X75861364Y-109288400D01*
X75784323Y-109364074D01*
X75685775Y-109463490D01*
X75570467Y-109581838D01*
X75443146Y-109714305D01*
X75308558Y-109856077D01*
X75300538Y-109864576D01*
X75140420Y-110033639D01*
X75009215Y-110169946D01*
X74902855Y-110276466D01*
X74817275Y-110356171D01*
X74748407Y-110412031D01*
X74692185Y-110447017D01*
X74644542Y-110464100D01*
X74601411Y-110466250D01*
X74558725Y-110456438D01*
X74512418Y-110437634D01*
X74467077Y-110414175D01*
X74419134Y-110368631D01*
X74390803Y-110297366D01*
X74386865Y-110281280D01*
X74376275Y-110202623D01*
X74379819Y-110139578D01*
X74387855Y-110123719D01*
X74425886Y-110071811D01*
X74490172Y-109994021D01*
X74575731Y-109896127D01*
X74677578Y-109783907D01*
X74790730Y-109663140D01*
X74959616Y-109485342D01*
X75115800Y-109319982D01*
X75243622Y-109183225D01*
X75346033Y-109071677D01*
X75425986Y-108981945D01*
X75486432Y-108910636D01*
X75530322Y-108854357D01*
X75560607Y-108809714D01*
X75580240Y-108773315D01*
X75592172Y-108741766D01*
X75600428Y-108708133D01*
X75607191Y-108584050D01*
X75583794Y-108460204D01*
X75533486Y-108357841D01*
X75524922Y-108347135D01*
X75482387Y-108298388D01*
X75412687Y-108221329D01*
X75320431Y-108120957D01*
X75210228Y-108002270D01*
X75086689Y-107870266D01*
X74954423Y-107729945D01*
X74896568Y-107668614D01*
X74769091Y-107532257D01*
X74653371Y-107406824D01*
X74553810Y-107297189D01*
X74474809Y-107208227D01*
X74420772Y-107144811D01*
X74396101Y-107111814D01*
X74375427Y-107041121D01*
X74383899Y-106949128D01*
X74404675Y-106882511D01*
X74442414Y-106835310D01*
X74511590Y-106790621D01*
X74569504Y-106759759D01*
X74613691Y-106745117D01*
X74653268Y-106751615D01*
G37*
G36*
X77701199Y-85591172D02*
G01*
X77759901Y-85618130D01*
X77823285Y-85664030D01*
X77838388Y-85677512D01*
X77884803Y-85728156D01*
X77905123Y-85780944D01*
X77909616Y-85859068D01*
X77909067Y-85899408D01*
X77900592Y-85957959D01*
X77873684Y-85997578D01*
X77818029Y-86038466D01*
X77808171Y-86044047D01*
X77752143Y-86069982D01*
X77656722Y-86110414D01*
X77526559Y-86163499D01*
X77366308Y-86227391D01*
X77180624Y-86300245D01*
X76974159Y-86380216D01*
X76751566Y-86465459D01*
X76517500Y-86554129D01*
X76433205Y-86585924D01*
X76150760Y-86693103D01*
X75911438Y-86785077D01*
X75712962Y-86862775D01*
X75553057Y-86927125D01*
X75429445Y-86979056D01*
X75339850Y-87019497D01*
X75281996Y-87049375D01*
X75253606Y-87069620D01*
X75250411Y-87073191D01*
X75207343Y-87153528D01*
X75204071Y-87240282D01*
X75241395Y-87317276D01*
X75260517Y-87329995D01*
X75325384Y-87361190D01*
X75432930Y-87407317D01*
X75581185Y-87467591D01*
X75768181Y-87541230D01*
X75991948Y-87627450D01*
X76250519Y-87725469D01*
X76541923Y-87834504D01*
X76633824Y-87868770D01*
X76877833Y-87960504D01*
X77103640Y-88046487D01*
X77307288Y-88125153D01*
X77484821Y-88194937D01*
X77632281Y-88254272D01*
X77745713Y-88301593D01*
X77821160Y-88335336D01*
X77854664Y-88353933D01*
X77874204Y-88374973D01*
X77901821Y-88432869D01*
X77909616Y-88518688D01*
X77901441Y-88592596D01*
X77858143Y-88684132D01*
X77781582Y-88742725D01*
X77676260Y-88763648D01*
X77668197Y-88763105D01*
X77615217Y-88751520D01*
X77524085Y-88724584D01*
X77393759Y-88681933D01*
X77223195Y-88623204D01*
X77011352Y-88548033D01*
X76757187Y-88456057D01*
X76459656Y-88346912D01*
X76117719Y-88220235D01*
X75882156Y-88132606D01*
X75601645Y-88027987D01*
X75361191Y-87937569D01*
X75157515Y-87859703D01*
X74987337Y-87792743D01*
X74847378Y-87735039D01*
X74734357Y-87684945D01*
X74644996Y-87640811D01*
X74576014Y-87600991D01*
X74524132Y-87563836D01*
X74486071Y-87527699D01*
X74458550Y-87490931D01*
X74438290Y-87451884D01*
X74422011Y-87408912D01*
X74406434Y-87360364D01*
X74384995Y-87261624D01*
X74386430Y-87110472D01*
X74426298Y-86968399D01*
X74501202Y-86845665D01*
X74607744Y-86752526D01*
X74613923Y-86749084D01*
X74664383Y-86726034D01*
X74753773Y-86688689D01*
X74877401Y-86638825D01*
X75030575Y-86578218D01*
X75208602Y-86508646D01*
X75406791Y-86431885D01*
X75620448Y-86349711D01*
X75844881Y-86263902D01*
X76075398Y-86176235D01*
X76307306Y-86088485D01*
X76535913Y-86002430D01*
X76756527Y-85919846D01*
X76964456Y-85842509D01*
X77155006Y-85772198D01*
X77323486Y-85710688D01*
X77465203Y-85659755D01*
X77575464Y-85621178D01*
X77649578Y-85596731D01*
X77682852Y-85588193D01*
X77701199Y-85591172D01*
G37*
G36*
X74609272Y-90958856D02*
G01*
X74673358Y-90970930D01*
X74756072Y-90992877D01*
X74860804Y-91025611D01*
X74990938Y-91070044D01*
X75149864Y-91127090D01*
X75340966Y-91197663D01*
X75567633Y-91282675D01*
X75833251Y-91383040D01*
X76141208Y-91499671D01*
X76303092Y-91560994D01*
X76596153Y-91672241D01*
X76848362Y-91768608D01*
X77062964Y-91851663D01*
X77243201Y-91922975D01*
X77392317Y-91984113D01*
X77513556Y-92036645D01*
X77610161Y-92082140D01*
X77685376Y-92122166D01*
X77742443Y-92158293D01*
X77784606Y-92192088D01*
X77815110Y-92225121D01*
X77837196Y-92258960D01*
X77854110Y-92295174D01*
X77869093Y-92335331D01*
X77900428Y-92471995D01*
X77897399Y-92627785D01*
X77855310Y-92773221D01*
X77777019Y-92899034D01*
X77665385Y-92995951D01*
X77660719Y-92998431D01*
X77615814Y-93017812D01*
X77530253Y-93052210D01*
X77408074Y-93100078D01*
X77253315Y-93159869D01*
X77070012Y-93230035D01*
X76862204Y-93309029D01*
X76633929Y-93395304D01*
X76389223Y-93487312D01*
X76132125Y-93583507D01*
X75903620Y-93668800D01*
X75626857Y-93771927D01*
X75390029Y-93859592D01*
X75189743Y-93932678D01*
X75022605Y-93992067D01*
X74885223Y-94038641D01*
X74774204Y-94073284D01*
X74686156Y-94096877D01*
X74617684Y-94110304D01*
X74565396Y-94114447D01*
X74525899Y-94110188D01*
X74495800Y-94098410D01*
X74471707Y-94079995D01*
X74450226Y-94055827D01*
X74427964Y-94026787D01*
X74413986Y-94007192D01*
X74372683Y-93908696D01*
X74379851Y-93812257D01*
X74435433Y-93720306D01*
X74446176Y-93709679D01*
X74472838Y-93689687D01*
X74512867Y-93666362D01*
X74569878Y-93638220D01*
X74647487Y-93603777D01*
X74749309Y-93561549D01*
X74878960Y-93510054D01*
X75040056Y-93447807D01*
X75236214Y-93373326D01*
X75471047Y-93285127D01*
X75748173Y-93181726D01*
X75863684Y-93138638D01*
X76161059Y-93026796D01*
X76416264Y-92929350D01*
X76628635Y-92846564D01*
X76797507Y-92778704D01*
X76922217Y-92726035D01*
X77002100Y-92688822D01*
X77036491Y-92667331D01*
X77044795Y-92656291D01*
X77073395Y-92579744D01*
X77073675Y-92492826D01*
X77044811Y-92420009D01*
X77040206Y-92416212D01*
X76997050Y-92393834D01*
X76913032Y-92356480D01*
X76791880Y-92305652D01*
X76637325Y-92242856D01*
X76453097Y-92169592D01*
X76242925Y-92087366D01*
X76010539Y-91997679D01*
X75759669Y-91902036D01*
X75585102Y-91835725D01*
X75311648Y-91731089D01*
X75080288Y-91641408D01*
X74888552Y-91565669D01*
X74733972Y-91502862D01*
X74614079Y-91451977D01*
X74526404Y-91412001D01*
X74468478Y-91381925D01*
X74437831Y-91360736D01*
X74404970Y-91322266D01*
X74368685Y-91230790D01*
X74376946Y-91132874D01*
X74429987Y-91038246D01*
X74449739Y-91014617D01*
X74471483Y-90991025D01*
X74494921Y-90972740D01*
X74523441Y-90960674D01*
X74560429Y-90955742D01*
X74609272Y-90958856D01*
G37*
G36*
X76175277Y-102870857D02*
G01*
X76307959Y-102898275D01*
X76413523Y-102965620D01*
X76495777Y-103075154D01*
X76528195Y-103164086D01*
X76537857Y-103290789D01*
X76514594Y-103417210D01*
X76459900Y-103524618D01*
X76443749Y-103544997D01*
X76350156Y-103631616D01*
X76243297Y-103675142D01*
X76112286Y-103680455D01*
X76027204Y-103665721D01*
X75913915Y-103615051D01*
X75829504Y-103537750D01*
X75773612Y-103441396D01*
X75745880Y-103333568D01*
X75745947Y-103221843D01*
X75773456Y-103113801D01*
X75828046Y-103017019D01*
X75909358Y-102939075D01*
X76017033Y-102887548D01*
X76150712Y-102870016D01*
X76175277Y-102870857D01*
G37*
%TD*%
M02*
