%TF.GenerationSoftware,KiCad,Pcbnew,7.0.11*%
%TF.CreationDate,2024-05-20T00:03:04+02:00*%
%TF.ProjectId,Power supply,506f7765-7220-4737-9570-706c792e6b69,rev?*%
%TF.SameCoordinates,Original*%
%TF.FileFunction,Copper,L1,Top*%
%TF.FilePolarity,Positive*%
%FSLAX46Y46*%
G04 Gerber Fmt 4.6, Leading zero omitted, Abs format (unit mm)*
G04 Created by KiCad (PCBNEW 7.0.11) date 2024-05-20 00:03:04*
%MOMM*%
%LPD*%
G01*
G04 APERTURE LIST*
G04 Aperture macros list*
%AMRoundRect*
0 Rectangle with rounded corners*
0 $1 Rounding radius*
0 $2 $3 $4 $5 $6 $7 $8 $9 X,Y pos of 4 corners*
0 Add a 4 corners polygon primitive as box body*
4,1,4,$2,$3,$4,$5,$6,$7,$8,$9,$2,$3,0*
0 Add four circle primitives for the rounded corners*
1,1,$1+$1,$2,$3*
1,1,$1+$1,$4,$5*
1,1,$1+$1,$6,$7*
1,1,$1+$1,$8,$9*
0 Add four rect primitives between the rounded corners*
20,1,$1+$1,$2,$3,$4,$5,0*
20,1,$1+$1,$4,$5,$6,$7,0*
20,1,$1+$1,$6,$7,$8,$9,0*
20,1,$1+$1,$8,$9,$2,$3,0*%
G04 Aperture macros list end*
%TA.AperFunction,ComponentPad*%
%ADD10R,1.905000X2.000000*%
%TD*%
%TA.AperFunction,ComponentPad*%
%ADD11O,1.905000X2.000000*%
%TD*%
%TA.AperFunction,ComponentPad*%
%ADD12R,1.900000X1.900000*%
%TD*%
%TA.AperFunction,ComponentPad*%
%ADD13C,1.900000*%
%TD*%
%TA.AperFunction,ComponentPad*%
%ADD14O,1.400000X1.400000*%
%TD*%
%TA.AperFunction,ComponentPad*%
%ADD15C,1.400000*%
%TD*%
%TA.AperFunction,ComponentPad*%
%ADD16C,3.000000*%
%TD*%
%TA.AperFunction,ComponentPad*%
%ADD17R,3.000000X3.000000*%
%TD*%
%TA.AperFunction,ComponentPad*%
%ADD18O,1.700000X1.700000*%
%TD*%
%TA.AperFunction,ComponentPad*%
%ADD19R,1.700000X1.700000*%
%TD*%
%TA.AperFunction,ComponentPad*%
%ADD20R,3.500000X3.500000*%
%TD*%
%TA.AperFunction,ComponentPad*%
%ADD21RoundRect,0.750000X-0.750000X-1.000000X0.750000X-1.000000X0.750000X1.000000X-0.750000X1.000000X0*%
%TD*%
%TA.AperFunction,ComponentPad*%
%ADD22RoundRect,0.875000X-0.875000X-0.875000X0.875000X-0.875000X0.875000X0.875000X-0.875000X0.875000X0*%
%TD*%
%TA.AperFunction,ComponentPad*%
%ADD23R,1.800000X1.800000*%
%TD*%
%TA.AperFunction,ComponentPad*%
%ADD24C,1.800000*%
%TD*%
%TA.AperFunction,ComponentPad*%
%ADD25C,1.600000*%
%TD*%
%TA.AperFunction,ViaPad*%
%ADD26C,0.800000*%
%TD*%
%TA.AperFunction,Conductor*%
%ADD27C,0.250000*%
%TD*%
G04 APERTURE END LIST*
D10*
%TO.P,U2,1,VI*%
%TO.N,/12V*%
X139065000Y-60960000D03*
D11*
%TO.P,U2,2,GND*%
%TO.N,GND*%
X136525000Y-60960000D03*
%TO.P,U2,3,VO*%
%TO.N,/5V*%
X133985000Y-60960000D03*
%TD*%
D10*
%TO.P,U1,1,ADJ*%
%TO.N,Net-(U1-ADJ)*%
X133985000Y-84455000D03*
D11*
%TO.P,U1,2,VO*%
%TO.N,/3.3V*%
X136525000Y-84455000D03*
%TO.P,U1,3,VI*%
%TO.N,/12V*%
X139065000Y-84455000D03*
%TD*%
D12*
%TO.P,S1,1*%
%TO.N,/12V*%
X152075000Y-60960000D03*
D13*
%TO.P,S1,2*%
%TO.N,/PWR_input*%
X149575000Y-60960000D03*
%TO.P,S1,3*%
%TO.N,unconnected-(S1-Pad3)*%
X147075000Y-60960000D03*
%TD*%
D14*
%TO.P,R3,2*%
%TO.N,Net-(U1-ADJ)*%
X154432000Y-79502000D03*
D15*
%TO.P,R3,1*%
%TO.N,GND*%
X146812000Y-79502000D03*
%TD*%
%TO.P,R2,1*%
%TO.N,Net-(U1-ADJ)*%
X154432000Y-83566000D03*
D14*
%TO.P,R2,2*%
%TO.N,/3.3V*%
X146812000Y-83566000D03*
%TD*%
D15*
%TO.P,R1,1*%
%TO.N,Net-(D1-A)*%
X146812000Y-65405000D03*
D14*
%TO.P,R1,2*%
%TO.N,/12V*%
X154432000Y-65405000D03*
%TD*%
D16*
%TO.P,J7,2,Pin_2*%
%TO.N,/PWR_output*%
X147955000Y-94330000D03*
D17*
%TO.P,J7,1,Pin_1*%
%TO.N,GND*%
X153035000Y-94330000D03*
%TD*%
D18*
%TO.P,J6,2,Pin_2*%
%TO.N,/PWR_output*%
X158750000Y-96520000D03*
D19*
%TO.P,J6,1,Pin_1*%
%TO.N,GND*%
X158750000Y-93980000D03*
%TD*%
%TO.P,J5,1,Pin_1*%
%TO.N,/3.3V*%
X137175000Y-96530000D03*
D18*
%TO.P,J5,2,Pin_2*%
%TO.N,/PWR_output*%
X139715000Y-96530000D03*
%TO.P,J5,3,Pin_3*%
%TO.N,/5V*%
X142255000Y-96530000D03*
%TD*%
D17*
%TO.P,J4,1,Pin_1*%
%TO.N,GND*%
X147955000Y-50383800D03*
D16*
%TO.P,J4,2,Pin_2*%
%TO.N,/PWR_output*%
X153035000Y-50383800D03*
%TD*%
D18*
%TO.P,J3,2,Pin_2*%
%TO.N,/PWR_output*%
X158750000Y-50723800D03*
D19*
%TO.P,J3,1,Pin_1*%
%TO.N,GND*%
X158750000Y-48183800D03*
%TD*%
%TO.P,J2,1,Pin_1*%
%TO.N,/3.3V*%
X137160000Y-48183800D03*
D18*
%TO.P,J2,2,Pin_2*%
%TO.N,/PWR_output*%
X139700000Y-48183800D03*
%TO.P,J2,3,Pin_3*%
%TO.N,/5V*%
X142240000Y-48183800D03*
%TD*%
D20*
%TO.P,J1,1*%
%TO.N,/PWR_input*%
X145065000Y-72390000D03*
D21*
%TO.P,J1,2*%
%TO.N,GND*%
X139065000Y-72390000D03*
D22*
%TO.P,J1,3*%
X142065000Y-77090000D03*
%TD*%
D23*
%TO.P,D1,1,K*%
%TO.N,GND*%
X152495000Y-73660000D03*
D24*
%TO.P,D1,2,A*%
%TO.N,Net-(D1-A)*%
X152495000Y-71120000D03*
%TD*%
D25*
%TO.P,C3,1*%
%TO.N,/5V*%
X135128000Y-56190000D03*
%TO.P,C3,2*%
%TO.N,GND*%
X132628000Y-56190000D03*
%TD*%
%TO.P,C2,1*%
%TO.N,/3.3V*%
X135088000Y-89154000D03*
%TO.P,C2,2*%
%TO.N,GND*%
X132588000Y-89154000D03*
%TD*%
%TO.P,C1,2*%
%TO.N,GND*%
X137962000Y-56190000D03*
%TO.P,C1,1*%
%TO.N,/12V*%
X140462000Y-56190000D03*
%TD*%
D26*
%TO.N,Net-(U1-ADJ)*%
X143256000Y-87630000D03*
%TO.N,/3.3V*%
X143256000Y-86614000D03*
%TD*%
D27*
%TO.N,/5V*%
X135128000Y-56190000D02*
X135128000Y-59817000D01*
X135128000Y-59817000D02*
X133985000Y-60960000D01*
X133985000Y-60960000D02*
X133985000Y-77520842D01*
X133985000Y-77520842D02*
X142255000Y-85790842D01*
X142255000Y-85790842D02*
X142255000Y-96530000D01*
X142240000Y-48183800D02*
X135128000Y-55295800D01*
X135128000Y-55295800D02*
X135128000Y-56190000D01*
%TO.N,Net-(U1-ADJ)*%
X150368000Y-87630000D02*
X143256000Y-87630000D01*
X154432000Y-83566000D02*
X150368000Y-87630000D01*
%TO.N,/3.3V*%
X143764000Y-86614000D02*
X143256000Y-86614000D01*
X146812000Y-83566000D02*
X143764000Y-86614000D01*
%TO.N,Net-(U1-ADJ)*%
X154432000Y-83566000D02*
X154432000Y-79502000D01*
%TO.N,Net-(D1-A)*%
X146812000Y-65405000D02*
X147175000Y-65405000D01*
X147175000Y-65405000D02*
X152495000Y-70725000D01*
X152495000Y-70725000D02*
X152495000Y-71120000D01*
%TO.N,/12V*%
X152075000Y-60960000D02*
X152075000Y-62685000D01*
%TO.N,Net-(D1-A)*%
X146812000Y-65405000D02*
X146939000Y-65278000D01*
X146939000Y-65278000D02*
X147066000Y-65278000D01*
%TO.N,/12V*%
X152075000Y-62685000D02*
X154432000Y-65042000D01*
X154432000Y-65042000D02*
X154432000Y-65405000D01*
%TO.N,/PWR_output*%
X147955000Y-94330000D02*
X155820000Y-86465000D01*
X155820000Y-86465000D02*
X155820000Y-53168800D01*
X155820000Y-53168800D02*
X153035000Y-50383800D01*
%TO.N,/12V*%
X139065000Y-60833000D02*
X140462000Y-59436000D01*
X139065000Y-60960000D02*
X139065000Y-60833000D01*
X140462000Y-59436000D02*
X140462000Y-56190000D01*
%TO.N,/3.3V*%
X135088000Y-89154000D02*
X135088000Y-94443000D01*
X135088000Y-94443000D02*
X137175000Y-96530000D01*
X136525000Y-84455000D02*
X136525000Y-87717000D01*
X136525000Y-87717000D02*
X135088000Y-89154000D01*
%TO.N,/PWR_output*%
X147955000Y-94330000D02*
X144580000Y-97705000D01*
X140890000Y-97705000D02*
X139715000Y-96530000D01*
X144580000Y-97705000D02*
X140890000Y-97705000D01*
X147955000Y-95123000D02*
X149352000Y-96520000D01*
X147955000Y-94330000D02*
X147955000Y-95123000D01*
X149352000Y-96520000D02*
X158750000Y-96520000D01*
%TO.N,/PWR_input*%
X146781000Y-63754000D02*
X145796000Y-63754000D01*
X149575000Y-60960000D02*
X146781000Y-63754000D01*
X145796000Y-63754000D02*
X145065000Y-64485000D01*
X145065000Y-64485000D02*
X145065000Y-72390000D01*
%TO.N,/12V*%
X149662000Y-56190000D02*
X152146000Y-58674000D01*
X152146000Y-58674000D02*
X152075000Y-58745000D01*
X152075000Y-58745000D02*
X152075000Y-60960000D01*
X140462000Y-56190000D02*
X149662000Y-56190000D01*
%TO.N,/3.3V*%
X137160000Y-48183800D02*
X135712200Y-48183800D01*
X135712200Y-48183800D02*
X131503000Y-52393000D01*
X131503000Y-77909000D02*
X136525000Y-82931000D01*
X131503000Y-52393000D02*
X131503000Y-77909000D01*
X136525000Y-82931000D02*
X136525000Y-84455000D01*
%TO.N,/PWR_output*%
X153035000Y-50383800D02*
X149660000Y-47008800D01*
X149660000Y-47008800D02*
X140875000Y-47008800D01*
X140875000Y-47008800D02*
X139700000Y-48183800D01*
X158750000Y-50723800D02*
X153375000Y-50723800D01*
X153375000Y-50723800D02*
X153035000Y-50383800D01*
%TD*%
M02*
