%TF.GenerationSoftware,KiCad,Pcbnew,7.0.11*%
%TF.CreationDate,2024-05-20T00:04:39+02:00*%
%TF.ProjectId,Power supply,506f7765-7220-4737-9570-706c792e6b69,rev?*%
%TF.SameCoordinates,Original*%
%TF.FileFunction,Plated,1,2,PTH,Mixed*%
%TF.FilePolarity,Positive*%
%FSLAX46Y46*%
G04 Gerber Fmt 4.6, Leading zero omitted, Abs format (unit mm)*
G04 Created by KiCad (PCBNEW 7.0.11) date 2024-05-20 00:04:39*
%MOMM*%
%LPD*%
G01*
G04 APERTURE LIST*
%TA.AperFunction,ViaDrill*%
%ADD10C,0.400000*%
%TD*%
%TA.AperFunction,ComponentDrill*%
%ADD11C,0.700000*%
%TD*%
%TA.AperFunction,ComponentDrill*%
%ADD12C,0.800000*%
%TD*%
%TA.AperFunction,ComponentDrill*%
%ADD13C,0.900000*%
%TD*%
%TA.AperFunction,ComponentDrill*%
%ADD14C,1.000000*%
%TD*%
G04 aperture for slot hole*
%TA.AperFunction,ComponentDrill*%
%ADD15C,1.000000*%
%TD*%
%TA.AperFunction,ComponentDrill*%
%ADD16C,1.100000*%
%TD*%
%TA.AperFunction,ComponentDrill*%
%ADD17C,1.520000*%
%TD*%
G04 APERTURE END LIST*
D10*
X143256000Y-86614000D03*
X143256000Y-87630000D03*
D11*
%TO.C,R1*%
X146812000Y-65405000D03*
%TO.C,R3*%
X146812000Y-79502000D03*
%TO.C,R2*%
X146812000Y-83566000D03*
%TO.C,R1*%
X154432000Y-65405000D03*
%TO.C,R3*%
X154432000Y-79502000D03*
%TO.C,R2*%
X154432000Y-83566000D03*
D12*
%TO.C,C2*%
X132588000Y-89154000D03*
%TO.C,C3*%
X132628000Y-56190000D03*
%TO.C,C2*%
X135088000Y-89154000D03*
%TO.C,C3*%
X135128000Y-56190000D03*
%TO.C,C1*%
X137962000Y-56190000D03*
X140462000Y-56190000D03*
D13*
%TO.C,S1*%
X147075000Y-60960000D03*
X149575000Y-60960000D03*
X152075000Y-60960000D03*
%TO.C,D1*%
X152495000Y-71120000D03*
X152495000Y-73660000D03*
D14*
%TO.C,J2*%
X137160000Y-48183800D03*
%TO.C,J5*%
X137175000Y-96530000D03*
D15*
%TO.C,J1*%
X139065000Y-73390000D02*
X139065000Y-71390000D01*
D14*
%TO.C,J2*%
X139700000Y-48183800D03*
%TO.C,J5*%
X139715000Y-96530000D03*
D15*
%TO.C,J1*%
X143065000Y-77090000D02*
X141065000Y-77090000D01*
D14*
%TO.C,J2*%
X142240000Y-48183800D03*
%TO.C,J5*%
X142255000Y-96530000D03*
D15*
%TO.C,J1*%
X145065000Y-73390000D02*
X145065000Y-71390000D01*
D14*
%TO.C,J3*%
X158750000Y-48183800D03*
X158750000Y-50723800D03*
%TO.C,J6*%
X158750000Y-93980000D03*
X158750000Y-96520000D03*
D16*
%TO.C,U2*%
X133985000Y-60960000D03*
%TO.C,U1*%
X133985000Y-84455000D03*
%TO.C,U2*%
X136525000Y-60960000D03*
%TO.C,U1*%
X136525000Y-84455000D03*
%TO.C,U2*%
X139065000Y-60960000D03*
%TO.C,U1*%
X139065000Y-84455000D03*
D17*
%TO.C,J4*%
X147955000Y-50383800D03*
%TO.C,J7*%
X147955000Y-94330000D03*
%TO.C,J4*%
X153035000Y-50383800D03*
%TO.C,J7*%
X153035000Y-94330000D03*
M02*
