%TF.GenerationSoftware,KiCad,Pcbnew,7.0.11*%
%TF.CreationDate,2024-05-20T00:03:04+02:00*%
%TF.ProjectId,Power supply,506f7765-7220-4737-9570-706c792e6b69,rev?*%
%TF.SameCoordinates,Original*%
%TF.FileFunction,Copper,L2,Bot*%
%TF.FilePolarity,Positive*%
%FSLAX46Y46*%
G04 Gerber Fmt 4.6, Leading zero omitted, Abs format (unit mm)*
G04 Created by KiCad (PCBNEW 7.0.11) date 2024-05-20 00:03:04*
%MOMM*%
%LPD*%
G01*
G04 APERTURE LIST*
G04 Aperture macros list*
%AMRoundRect*
0 Rectangle with rounded corners*
0 $1 Rounding radius*
0 $2 $3 $4 $5 $6 $7 $8 $9 X,Y pos of 4 corners*
0 Add a 4 corners polygon primitive as box body*
4,1,4,$2,$3,$4,$5,$6,$7,$8,$9,$2,$3,0*
0 Add four circle primitives for the rounded corners*
1,1,$1+$1,$2,$3*
1,1,$1+$1,$4,$5*
1,1,$1+$1,$6,$7*
1,1,$1+$1,$8,$9*
0 Add four rect primitives between the rounded corners*
20,1,$1+$1,$2,$3,$4,$5,0*
20,1,$1+$1,$4,$5,$6,$7,0*
20,1,$1+$1,$6,$7,$8,$9,0*
20,1,$1+$1,$8,$9,$2,$3,0*%
G04 Aperture macros list end*
%TA.AperFunction,ComponentPad*%
%ADD10R,1.905000X2.000000*%
%TD*%
%TA.AperFunction,ComponentPad*%
%ADD11O,1.905000X2.000000*%
%TD*%
%TA.AperFunction,ComponentPad*%
%ADD12R,1.900000X1.900000*%
%TD*%
%TA.AperFunction,ComponentPad*%
%ADD13C,1.900000*%
%TD*%
%TA.AperFunction,ComponentPad*%
%ADD14O,1.400000X1.400000*%
%TD*%
%TA.AperFunction,ComponentPad*%
%ADD15C,1.400000*%
%TD*%
%TA.AperFunction,ComponentPad*%
%ADD16C,3.000000*%
%TD*%
%TA.AperFunction,ComponentPad*%
%ADD17R,3.000000X3.000000*%
%TD*%
%TA.AperFunction,ComponentPad*%
%ADD18O,1.700000X1.700000*%
%TD*%
%TA.AperFunction,ComponentPad*%
%ADD19R,1.700000X1.700000*%
%TD*%
%TA.AperFunction,ComponentPad*%
%ADD20R,3.500000X3.500000*%
%TD*%
%TA.AperFunction,ComponentPad*%
%ADD21RoundRect,0.750000X-0.750000X-1.000000X0.750000X-1.000000X0.750000X1.000000X-0.750000X1.000000X0*%
%TD*%
%TA.AperFunction,ComponentPad*%
%ADD22RoundRect,0.875000X-0.875000X-0.875000X0.875000X-0.875000X0.875000X0.875000X-0.875000X0.875000X0*%
%TD*%
%TA.AperFunction,ComponentPad*%
%ADD23R,1.800000X1.800000*%
%TD*%
%TA.AperFunction,ComponentPad*%
%ADD24C,1.800000*%
%TD*%
%TA.AperFunction,ComponentPad*%
%ADD25C,1.600000*%
%TD*%
%TA.AperFunction,ViaPad*%
%ADD26C,0.800000*%
%TD*%
%TA.AperFunction,Conductor*%
%ADD27C,0.250000*%
%TD*%
G04 APERTURE END LIST*
D10*
%TO.P,U2,1,VI*%
%TO.N,/12V*%
X139065000Y-60960000D03*
D11*
%TO.P,U2,2,GND*%
%TO.N,GND*%
X136525000Y-60960000D03*
%TO.P,U2,3,VO*%
%TO.N,/5V*%
X133985000Y-60960000D03*
%TD*%
D10*
%TO.P,U1,1,ADJ*%
%TO.N,Net-(U1-ADJ)*%
X133985000Y-84455000D03*
D11*
%TO.P,U1,2,VO*%
%TO.N,/3.3V*%
X136525000Y-84455000D03*
%TO.P,U1,3,VI*%
%TO.N,/12V*%
X139065000Y-84455000D03*
%TD*%
D12*
%TO.P,S1,1*%
%TO.N,/12V*%
X152075000Y-60960000D03*
D13*
%TO.P,S1,2*%
%TO.N,/PWR_input*%
X149575000Y-60960000D03*
%TO.P,S1,3*%
%TO.N,unconnected-(S1-Pad3)*%
X147075000Y-60960000D03*
%TD*%
D14*
%TO.P,R3,2*%
%TO.N,Net-(U1-ADJ)*%
X154432000Y-79502000D03*
D15*
%TO.P,R3,1*%
%TO.N,GND*%
X146812000Y-79502000D03*
%TD*%
%TO.P,R2,1*%
%TO.N,Net-(U1-ADJ)*%
X154432000Y-83566000D03*
D14*
%TO.P,R2,2*%
%TO.N,/3.3V*%
X146812000Y-83566000D03*
%TD*%
D15*
%TO.P,R1,1*%
%TO.N,Net-(D1-A)*%
X146812000Y-65405000D03*
D14*
%TO.P,R1,2*%
%TO.N,/12V*%
X154432000Y-65405000D03*
%TD*%
D16*
%TO.P,J7,2,Pin_2*%
%TO.N,/PWR_output*%
X147955000Y-94330000D03*
D17*
%TO.P,J7,1,Pin_1*%
%TO.N,GND*%
X153035000Y-94330000D03*
%TD*%
D18*
%TO.P,J6,2,Pin_2*%
%TO.N,/PWR_output*%
X158750000Y-96520000D03*
D19*
%TO.P,J6,1,Pin_1*%
%TO.N,GND*%
X158750000Y-93980000D03*
%TD*%
%TO.P,J5,1,Pin_1*%
%TO.N,/3.3V*%
X137175000Y-96530000D03*
D18*
%TO.P,J5,2,Pin_2*%
%TO.N,/PWR_output*%
X139715000Y-96530000D03*
%TO.P,J5,3,Pin_3*%
%TO.N,/5V*%
X142255000Y-96530000D03*
%TD*%
D17*
%TO.P,J4,1,Pin_1*%
%TO.N,GND*%
X147955000Y-50383800D03*
D16*
%TO.P,J4,2,Pin_2*%
%TO.N,/PWR_output*%
X153035000Y-50383800D03*
%TD*%
D18*
%TO.P,J3,2,Pin_2*%
%TO.N,/PWR_output*%
X158750000Y-50723800D03*
D19*
%TO.P,J3,1,Pin_1*%
%TO.N,GND*%
X158750000Y-48183800D03*
%TD*%
%TO.P,J2,1,Pin_1*%
%TO.N,/3.3V*%
X137160000Y-48183800D03*
D18*
%TO.P,J2,2,Pin_2*%
%TO.N,/PWR_output*%
X139700000Y-48183800D03*
%TO.P,J2,3,Pin_3*%
%TO.N,/5V*%
X142240000Y-48183800D03*
%TD*%
D20*
%TO.P,J1,1*%
%TO.N,/PWR_input*%
X145065000Y-72390000D03*
D21*
%TO.P,J1,2*%
%TO.N,GND*%
X139065000Y-72390000D03*
D22*
%TO.P,J1,3*%
X142065000Y-77090000D03*
%TD*%
D23*
%TO.P,D1,1,K*%
%TO.N,GND*%
X152495000Y-73660000D03*
D24*
%TO.P,D1,2,A*%
%TO.N,Net-(D1-A)*%
X152495000Y-71120000D03*
%TD*%
D25*
%TO.P,C3,1*%
%TO.N,/5V*%
X135128000Y-56190000D03*
%TO.P,C3,2*%
%TO.N,GND*%
X132628000Y-56190000D03*
%TD*%
%TO.P,C2,1*%
%TO.N,/3.3V*%
X135088000Y-89154000D03*
%TO.P,C2,2*%
%TO.N,GND*%
X132588000Y-89154000D03*
%TD*%
%TO.P,C1,2*%
%TO.N,GND*%
X137962000Y-56190000D03*
%TO.P,C1,1*%
%TO.N,/12V*%
X140462000Y-56190000D03*
%TD*%
D26*
%TO.N,Net-(U1-ADJ)*%
X143256000Y-87630000D03*
%TO.N,/3.3V*%
X143256000Y-86614000D03*
%TD*%
D27*
%TO.N,Net-(U1-ADJ)*%
X137160000Y-87630000D02*
X133985000Y-84455000D01*
X143256000Y-87630000D02*
X137160000Y-87630000D01*
%TO.N,/3.3V*%
X143256000Y-86614000D02*
X138684000Y-86614000D01*
X138684000Y-86614000D02*
X136525000Y-84455000D01*
%TO.N,/12V*%
X139065000Y-60960000D02*
X142990000Y-64885000D01*
X142990000Y-64885000D02*
X142990000Y-74560646D01*
X144272000Y-75842646D02*
X144272000Y-80019305D01*
X139836305Y-84455000D02*
X139065000Y-84455000D01*
X142990000Y-74560646D02*
X144272000Y-75842646D01*
X144272000Y-80019305D02*
X139836305Y-84455000D01*
%TD*%
%TA.AperFunction,Conductor*%
%TO.N,GND*%
G36*
X159781677Y-46374685D02*
G01*
X159802319Y-46391319D01*
X160618681Y-47207681D01*
X160652166Y-47269004D01*
X160655000Y-47295362D01*
X160655000Y-51764638D01*
X160635315Y-51831677D01*
X160618681Y-51852319D01*
X159802319Y-52668681D01*
X159740996Y-52702166D01*
X159714638Y-52705000D01*
X156083000Y-52705000D01*
X156083000Y-92075000D01*
X159714638Y-92075000D01*
X159781677Y-92094685D01*
X159802319Y-92111319D01*
X160618681Y-92927681D01*
X160652166Y-92989004D01*
X160655000Y-93015362D01*
X160655000Y-97484638D01*
X160635315Y-97551677D01*
X160618681Y-97572319D01*
X159802319Y-98388681D01*
X159740996Y-98422166D01*
X159714638Y-98425000D01*
X132131362Y-98425000D01*
X132064323Y-98405315D01*
X132043681Y-98388681D01*
X131227319Y-97572319D01*
X131193834Y-97510996D01*
X131191000Y-97484638D01*
X131191000Y-97427870D01*
X135824500Y-97427870D01*
X135824501Y-97427876D01*
X135830908Y-97487483D01*
X135881202Y-97622328D01*
X135881206Y-97622335D01*
X135967452Y-97737544D01*
X135967455Y-97737547D01*
X136082664Y-97823793D01*
X136082671Y-97823797D01*
X136217517Y-97874091D01*
X136217516Y-97874091D01*
X136224444Y-97874835D01*
X136277127Y-97880500D01*
X138072872Y-97880499D01*
X138132483Y-97874091D01*
X138267331Y-97823796D01*
X138382546Y-97737546D01*
X138468796Y-97622331D01*
X138517810Y-97490916D01*
X138559681Y-97434984D01*
X138625145Y-97410566D01*
X138693418Y-97425417D01*
X138721673Y-97446569D01*
X138843599Y-97568495D01*
X138924199Y-97624932D01*
X139037165Y-97704032D01*
X139037167Y-97704033D01*
X139037170Y-97704035D01*
X139251337Y-97803903D01*
X139479592Y-97865063D01*
X139656034Y-97880500D01*
X139714999Y-97885659D01*
X139715000Y-97885659D01*
X139715001Y-97885659D01*
X139773966Y-97880500D01*
X139950408Y-97865063D01*
X140178663Y-97803903D01*
X140392830Y-97704035D01*
X140586401Y-97568495D01*
X140753495Y-97401401D01*
X140883425Y-97215842D01*
X140938002Y-97172217D01*
X141007500Y-97165023D01*
X141069855Y-97196546D01*
X141086575Y-97215842D01*
X141216500Y-97401395D01*
X141216505Y-97401401D01*
X141383599Y-97568495D01*
X141464199Y-97624932D01*
X141577165Y-97704032D01*
X141577167Y-97704033D01*
X141577170Y-97704035D01*
X141791337Y-97803903D01*
X142019592Y-97865063D01*
X142196034Y-97880500D01*
X142254999Y-97885659D01*
X142255000Y-97885659D01*
X142255001Y-97885659D01*
X142313966Y-97880500D01*
X142490408Y-97865063D01*
X142718663Y-97803903D01*
X142932830Y-97704035D01*
X143126401Y-97568495D01*
X143293495Y-97401401D01*
X143363797Y-97301000D01*
X144478556Y-97301000D01*
X145441000Y-97301000D01*
X148939000Y-97301000D01*
X150441000Y-97301000D01*
X150441000Y-96861325D01*
X150440876Y-96861192D01*
X150405796Y-96820707D01*
X150400243Y-96813816D01*
X150271345Y-96641632D01*
X150266297Y-96634362D01*
X150246141Y-96603000D01*
X149918458Y-96603000D01*
X149908463Y-96611660D01*
X149905066Y-96614499D01*
X149884224Y-96631293D01*
X149880732Y-96634005D01*
X149623137Y-96826838D01*
X149619550Y-96829425D01*
X149597570Y-96844687D01*
X149593893Y-96847144D01*
X149563917Y-96866411D01*
X149560147Y-96868740D01*
X149537102Y-96882414D01*
X149533253Y-96884606D01*
X149250806Y-97038834D01*
X149246882Y-97040887D01*
X149222918Y-97052882D01*
X149218921Y-97054794D01*
X149186505Y-97069596D01*
X149182449Y-97071361D01*
X149157728Y-97081600D01*
X149153611Y-97083220D01*
X148939000Y-97163265D01*
X148939000Y-97301000D01*
X145441000Y-97301000D01*
X145441000Y-96603000D01*
X144606084Y-96603000D01*
X144582367Y-96874084D01*
X144581778Y-96879461D01*
X144577507Y-96911904D01*
X144576684Y-96917251D01*
X144569121Y-96960146D01*
X144568066Y-96965454D01*
X144560981Y-96997412D01*
X144559695Y-97002666D01*
X144487259Y-97273008D01*
X144485744Y-97278205D01*
X144478556Y-97301000D01*
X143363797Y-97301000D01*
X143429035Y-97207830D01*
X143528903Y-96993663D01*
X143590063Y-96765408D01*
X143610659Y-96530000D01*
X143609784Y-96520000D01*
X157394341Y-96520000D01*
X157414936Y-96755403D01*
X157414938Y-96755413D01*
X157476094Y-96983655D01*
X157476096Y-96983659D01*
X157476097Y-96983663D01*
X157575366Y-97196546D01*
X157575965Y-97197830D01*
X157575967Y-97197834D01*
X157628605Y-97273008D01*
X157711505Y-97391401D01*
X157878599Y-97558495D01*
X157892885Y-97568498D01*
X158072165Y-97694032D01*
X158072167Y-97694033D01*
X158072170Y-97694035D01*
X158286337Y-97793903D01*
X158514592Y-97855063D01*
X158702918Y-97871539D01*
X158749999Y-97875659D01*
X158750000Y-97875659D01*
X158750001Y-97875659D01*
X158789234Y-97872226D01*
X158985408Y-97855063D01*
X159213663Y-97793903D01*
X159427830Y-97694035D01*
X159621401Y-97558495D01*
X159788495Y-97391401D01*
X159924035Y-97197830D01*
X160023903Y-96983663D01*
X160085063Y-96755408D01*
X160105659Y-96520000D01*
X160085063Y-96284592D01*
X160026584Y-96066344D01*
X160023905Y-96056344D01*
X160023904Y-96056343D01*
X160023903Y-96056337D01*
X159924035Y-95842171D01*
X159788495Y-95648599D01*
X159666179Y-95526283D01*
X159632696Y-95464963D01*
X159637680Y-95395271D01*
X159679551Y-95339337D01*
X159710529Y-95322422D01*
X159842086Y-95273354D01*
X159842093Y-95273350D01*
X159957187Y-95187190D01*
X159957190Y-95187187D01*
X160043350Y-95072093D01*
X160043354Y-95072086D01*
X160093596Y-94937379D01*
X160093598Y-94937372D01*
X160099999Y-94877844D01*
X160100000Y-94877827D01*
X160100000Y-94230000D01*
X159183686Y-94230000D01*
X159209493Y-94189844D01*
X159250000Y-94051889D01*
X159250000Y-93908111D01*
X159209493Y-93770156D01*
X159183686Y-93730000D01*
X160100000Y-93730000D01*
X160100000Y-93082172D01*
X160099999Y-93082155D01*
X160093598Y-93022627D01*
X160093596Y-93022620D01*
X160043354Y-92887913D01*
X160043350Y-92887906D01*
X159957190Y-92772812D01*
X159957187Y-92772809D01*
X159842093Y-92686649D01*
X159842086Y-92686645D01*
X159707379Y-92636403D01*
X159707372Y-92636401D01*
X159647844Y-92630000D01*
X159000000Y-92630000D01*
X159000000Y-93544498D01*
X158892315Y-93495320D01*
X158785763Y-93480000D01*
X158714237Y-93480000D01*
X158607685Y-93495320D01*
X158500000Y-93544498D01*
X158500000Y-92630000D01*
X157852155Y-92630000D01*
X157792627Y-92636401D01*
X157792620Y-92636403D01*
X157657913Y-92686645D01*
X157657906Y-92686649D01*
X157542812Y-92772809D01*
X157542809Y-92772812D01*
X157456649Y-92887906D01*
X157456645Y-92887913D01*
X157406403Y-93022620D01*
X157406401Y-93022627D01*
X157400000Y-93082155D01*
X157400000Y-93730000D01*
X158316314Y-93730000D01*
X158290507Y-93770156D01*
X158250000Y-93908111D01*
X158250000Y-94051889D01*
X158290507Y-94189844D01*
X158316314Y-94230000D01*
X157400000Y-94230000D01*
X157400000Y-94877844D01*
X157406401Y-94937372D01*
X157406403Y-94937379D01*
X157456645Y-95072086D01*
X157456649Y-95072093D01*
X157542809Y-95187187D01*
X157542812Y-95187190D01*
X157657906Y-95273350D01*
X157657913Y-95273354D01*
X157789470Y-95322421D01*
X157845403Y-95364292D01*
X157869821Y-95429756D01*
X157854970Y-95498029D01*
X157833819Y-95526284D01*
X157711503Y-95648600D01*
X157575965Y-95842169D01*
X157575964Y-95842171D01*
X157476098Y-96056335D01*
X157476094Y-96056344D01*
X157414938Y-96284586D01*
X157414936Y-96284596D01*
X157394341Y-96519999D01*
X157394341Y-96520000D01*
X143609784Y-96520000D01*
X143590063Y-96294592D01*
X143530445Y-96072093D01*
X143528905Y-96066344D01*
X143528904Y-96066343D01*
X143528903Y-96066337D01*
X143429035Y-95852171D01*
X143424536Y-95845745D01*
X143293494Y-95658597D01*
X143126402Y-95491506D01*
X143126395Y-95491501D01*
X143112119Y-95481505D01*
X143049518Y-95437671D01*
X142932834Y-95355967D01*
X142932830Y-95355965D01*
X142897171Y-95339337D01*
X142718663Y-95256097D01*
X142718659Y-95256096D01*
X142718655Y-95256094D01*
X142490413Y-95194938D01*
X142490403Y-95194936D01*
X142255001Y-95174341D01*
X142254999Y-95174341D01*
X142019596Y-95194936D01*
X142019586Y-95194938D01*
X141791344Y-95256094D01*
X141791335Y-95256098D01*
X141577171Y-95355964D01*
X141577169Y-95355965D01*
X141383597Y-95491505D01*
X141216505Y-95658597D01*
X141086575Y-95844158D01*
X141031998Y-95887783D01*
X140962500Y-95894977D01*
X140900145Y-95863454D01*
X140883425Y-95844158D01*
X140753494Y-95658597D01*
X140586402Y-95491506D01*
X140586395Y-95491501D01*
X140572119Y-95481505D01*
X140509518Y-95437671D01*
X140392834Y-95355967D01*
X140392830Y-95355965D01*
X140357171Y-95339337D01*
X140178663Y-95256097D01*
X140178659Y-95256096D01*
X140178655Y-95256094D01*
X139950413Y-95194938D01*
X139950403Y-95194936D01*
X139715001Y-95174341D01*
X139714999Y-95174341D01*
X139479596Y-95194936D01*
X139479586Y-95194938D01*
X139251344Y-95256094D01*
X139251335Y-95256098D01*
X139037171Y-95355964D01*
X139037169Y-95355965D01*
X138843600Y-95491503D01*
X138721673Y-95613430D01*
X138660350Y-95646914D01*
X138590658Y-95641930D01*
X138534725Y-95600058D01*
X138517810Y-95569081D01*
X138468797Y-95437671D01*
X138468793Y-95437664D01*
X138382547Y-95322455D01*
X138382544Y-95322452D01*
X138267335Y-95236206D01*
X138267328Y-95236202D01*
X138132482Y-95185908D01*
X138132483Y-95185908D01*
X138072883Y-95179501D01*
X138072881Y-95179500D01*
X138072873Y-95179500D01*
X138072864Y-95179500D01*
X136277129Y-95179500D01*
X136277123Y-95179501D01*
X136217516Y-95185908D01*
X136082671Y-95236202D01*
X136082664Y-95236206D01*
X135967455Y-95322452D01*
X135967452Y-95322455D01*
X135881206Y-95437664D01*
X135881202Y-95437671D01*
X135830908Y-95572517D01*
X135824501Y-95632116D01*
X135824500Y-95632135D01*
X135824500Y-97427870D01*
X131191000Y-97427870D01*
X131191000Y-96603000D01*
X133939000Y-96603000D01*
X133939000Y-97301000D01*
X134826501Y-97301000D01*
X134826500Y-96603000D01*
X133939000Y-96603000D01*
X131191000Y-96603000D01*
X131191000Y-94103000D01*
X132315000Y-94103000D01*
X132315000Y-95605000D01*
X132941000Y-95605000D01*
X132941000Y-94103000D01*
X133939000Y-94103000D01*
X133939000Y-95605000D01*
X134826825Y-95605000D01*
X134827084Y-95595327D01*
X134827217Y-95592007D01*
X134828649Y-95565320D01*
X134828871Y-95562011D01*
X134830481Y-95542018D01*
X134830792Y-95538715D01*
X134841962Y-95434825D01*
X134843029Y-95427157D01*
X134850936Y-95380971D01*
X134852481Y-95373381D01*
X134866826Y-95312670D01*
X134868842Y-95305191D01*
X134882450Y-95260328D01*
X134884929Y-95252988D01*
X134958587Y-95055498D01*
X134961975Y-95047318D01*
X134984233Y-94998581D01*
X134988195Y-94990667D01*
X135022372Y-94928077D01*
X135026890Y-94920463D01*
X135055854Y-94875396D01*
X135060902Y-94868126D01*
X135189886Y-94695827D01*
X135195439Y-94688936D01*
X135230519Y-94648451D01*
X135236551Y-94641972D01*
X135286972Y-94591551D01*
X135293451Y-94585519D01*
X135333936Y-94550439D01*
X135340826Y-94544886D01*
X135441000Y-94469894D01*
X135441000Y-94103000D01*
X143939000Y-94103000D01*
X143939000Y-94892719D01*
X144014590Y-94968309D01*
X144018330Y-94972216D01*
X144040449Y-94996354D01*
X144044020Y-95000426D01*
X144072018Y-95033795D01*
X144075403Y-95038012D01*
X144095323Y-95063973D01*
X144098521Y-95068335D01*
X144259040Y-95297581D01*
X144262046Y-95302080D01*
X144279628Y-95329679D01*
X144282433Y-95334301D01*
X144304212Y-95372022D01*
X144306814Y-95376765D01*
X144321930Y-95405801D01*
X144324324Y-95410655D01*
X144414949Y-95605000D01*
X145235663Y-95605000D01*
X145232118Y-95597918D01*
X145230206Y-95593921D01*
X145215404Y-95561505D01*
X145213639Y-95557449D01*
X145203400Y-95532728D01*
X145201780Y-95528611D01*
X145089334Y-95227131D01*
X145087864Y-95222963D01*
X145079416Y-95197585D01*
X145078094Y-95193364D01*
X145068052Y-95159174D01*
X145066879Y-95154900D01*
X145060248Y-95128924D01*
X145059229Y-95124612D01*
X144990821Y-94810145D01*
X144989956Y-94805798D01*
X144985198Y-94779419D01*
X144984490Y-94775046D01*
X144979421Y-94739772D01*
X144978870Y-94735387D01*
X144976011Y-94708790D01*
X144975617Y-94704383D01*
X144952662Y-94383425D01*
X144952425Y-94379006D01*
X144951469Y-94352245D01*
X144951390Y-94347818D01*
X144951390Y-94330001D01*
X145949390Y-94330001D01*
X145969804Y-94615433D01*
X146030628Y-94895037D01*
X146030630Y-94895043D01*
X146030631Y-94895046D01*
X146103345Y-95090000D01*
X146130635Y-95163166D01*
X146267770Y-95414309D01*
X146267775Y-95414317D01*
X146439254Y-95643387D01*
X146439270Y-95643405D01*
X146641594Y-95845729D01*
X146641612Y-95845745D01*
X146870682Y-96017224D01*
X146870690Y-96017229D01*
X147121833Y-96154364D01*
X147121832Y-96154364D01*
X147121836Y-96154365D01*
X147121839Y-96154367D01*
X147389954Y-96254369D01*
X147389960Y-96254370D01*
X147389962Y-96254371D01*
X147669566Y-96315195D01*
X147669568Y-96315195D01*
X147669572Y-96315196D01*
X147923220Y-96333337D01*
X147954999Y-96335610D01*
X147955000Y-96335610D01*
X147955001Y-96335610D01*
X147983595Y-96333564D01*
X148240428Y-96315196D01*
X148335144Y-96294592D01*
X148520037Y-96254371D01*
X148520037Y-96254370D01*
X148520046Y-96254369D01*
X148788161Y-96154367D01*
X149039315Y-96017226D01*
X149225508Y-95877844D01*
X151035000Y-95877844D01*
X151041401Y-95937372D01*
X151041403Y-95937379D01*
X151091645Y-96072086D01*
X151091649Y-96072093D01*
X151177809Y-96187187D01*
X151177812Y-96187190D01*
X151292906Y-96273350D01*
X151292913Y-96273354D01*
X151427620Y-96323596D01*
X151427627Y-96323598D01*
X151487155Y-96329999D01*
X151487172Y-96330000D01*
X152785000Y-96330000D01*
X152785000Y-95051802D01*
X152946169Y-95090000D01*
X153079267Y-95090000D01*
X153211461Y-95074549D01*
X153285000Y-95047782D01*
X153285000Y-96330000D01*
X154582828Y-96330000D01*
X154582844Y-96329999D01*
X154642372Y-96323598D01*
X154642379Y-96323596D01*
X154777086Y-96273354D01*
X154777093Y-96273350D01*
X154892187Y-96187190D01*
X154892190Y-96187187D01*
X154978350Y-96072093D01*
X154978354Y-96072086D01*
X155028596Y-95937379D01*
X155028598Y-95937372D01*
X155034999Y-95877844D01*
X155035000Y-95877827D01*
X155035000Y-94580000D01*
X153753483Y-94580000D01*
X153788549Y-94462871D01*
X153798879Y-94285509D01*
X153768029Y-94110546D01*
X153754853Y-94080000D01*
X155035000Y-94080000D01*
X155035000Y-92782172D01*
X155034999Y-92782155D01*
X155028598Y-92722627D01*
X155028596Y-92722620D01*
X154978354Y-92587913D01*
X154978350Y-92587906D01*
X154892190Y-92472812D01*
X154892187Y-92472809D01*
X154777093Y-92386649D01*
X154777086Y-92386645D01*
X154642379Y-92336403D01*
X154642372Y-92336401D01*
X154582844Y-92330000D01*
X153285000Y-92330000D01*
X153285000Y-93608197D01*
X153123831Y-93570000D01*
X152990733Y-93570000D01*
X152858539Y-93585451D01*
X152785000Y-93612217D01*
X152785000Y-92330000D01*
X151487155Y-92330000D01*
X151427627Y-92336401D01*
X151427620Y-92336403D01*
X151292913Y-92386645D01*
X151292906Y-92386649D01*
X151177812Y-92472809D01*
X151177809Y-92472812D01*
X151091649Y-92587906D01*
X151091645Y-92587913D01*
X151041403Y-92722620D01*
X151041401Y-92722627D01*
X151035000Y-92782155D01*
X151035000Y-94080000D01*
X152316517Y-94080000D01*
X152281451Y-94197129D01*
X152271121Y-94374491D01*
X152301971Y-94549454D01*
X152315147Y-94580000D01*
X151035000Y-94580000D01*
X151035000Y-95877844D01*
X149225508Y-95877844D01*
X149268395Y-95845739D01*
X149470739Y-95643395D01*
X149642226Y-95414315D01*
X149779367Y-95163161D01*
X149879369Y-94895046D01*
X149940196Y-94615428D01*
X149960610Y-94330000D01*
X149940196Y-94044572D01*
X149936358Y-94026930D01*
X149879371Y-93764962D01*
X149879370Y-93764960D01*
X149879369Y-93764954D01*
X149779367Y-93496839D01*
X149642226Y-93245685D01*
X149536911Y-93105000D01*
X149470745Y-93016612D01*
X149470729Y-93016594D01*
X149268405Y-92814270D01*
X149268387Y-92814254D01*
X149039317Y-92642775D01*
X149039309Y-92642770D01*
X148788166Y-92505635D01*
X148788167Y-92505635D01*
X148655760Y-92456250D01*
X148520046Y-92405631D01*
X148520043Y-92405630D01*
X148520037Y-92405628D01*
X148240433Y-92344804D01*
X147955001Y-92324390D01*
X147954999Y-92324390D01*
X147669566Y-92344804D01*
X147389962Y-92405628D01*
X147121833Y-92505635D01*
X146870690Y-92642770D01*
X146870682Y-92642775D01*
X146641612Y-92814254D01*
X146641594Y-92814270D01*
X146439270Y-93016594D01*
X146439254Y-93016612D01*
X146267775Y-93245682D01*
X146267770Y-93245690D01*
X146130635Y-93496833D01*
X146030628Y-93764962D01*
X145969804Y-94044566D01*
X145949390Y-94329998D01*
X145949390Y-94330001D01*
X144951390Y-94330001D01*
X144951390Y-94312182D01*
X144951469Y-94307755D01*
X144952425Y-94280994D01*
X144952662Y-94276575D01*
X144965076Y-94103000D01*
X143939000Y-94103000D01*
X135441000Y-94103000D01*
X133939000Y-94103000D01*
X132941000Y-94103000D01*
X132315000Y-94103000D01*
X131191000Y-94103000D01*
X131191000Y-91603000D01*
X132315000Y-91603000D01*
X132315000Y-93105000D01*
X132941000Y-93105000D01*
X132941000Y-91603000D01*
X133939000Y-91603000D01*
X133939000Y-93105000D01*
X135441000Y-93105000D01*
X135441000Y-91603000D01*
X136439000Y-91603000D01*
X136439000Y-93105000D01*
X137941000Y-93105000D01*
X137941000Y-91603000D01*
X138939000Y-91603000D01*
X138939000Y-93105000D01*
X140441000Y-93105000D01*
X140441000Y-91603000D01*
X141439000Y-91603000D01*
X141439000Y-93105000D01*
X142941000Y-93105000D01*
X142941000Y-91603000D01*
X143939000Y-91603000D01*
X143939000Y-93105000D01*
X145212625Y-93105000D01*
X145213639Y-93102551D01*
X145215404Y-93098495D01*
X145230206Y-93066079D01*
X145232118Y-93062082D01*
X145244113Y-93038118D01*
X145246166Y-93034194D01*
X145400394Y-92751747D01*
X145402586Y-92747898D01*
X145416260Y-92724853D01*
X145418589Y-92721083D01*
X145437856Y-92691107D01*
X145440313Y-92687430D01*
X145441000Y-92686440D01*
X145441000Y-91603000D01*
X143939000Y-91603000D01*
X142941000Y-91603000D01*
X141439000Y-91603000D01*
X140441000Y-91603000D01*
X138939000Y-91603000D01*
X137941000Y-91603000D01*
X136439000Y-91603000D01*
X135441000Y-91603000D01*
X133939000Y-91603000D01*
X132941000Y-91603000D01*
X132315000Y-91603000D01*
X131191000Y-91603000D01*
X131191000Y-90605000D01*
X136876650Y-90605000D01*
X137941000Y-90605000D01*
X137941000Y-89253500D01*
X138939000Y-89253500D01*
X138939000Y-90605000D01*
X140441000Y-90605000D01*
X140441000Y-89253500D01*
X141439000Y-89253500D01*
X141439000Y-90605000D01*
X142941000Y-90605000D01*
X143939000Y-90605000D01*
X145441000Y-90605000D01*
X145441000Y-89103000D01*
X146439000Y-89103000D01*
X146439000Y-90605000D01*
X147941000Y-90605000D01*
X147941000Y-89103000D01*
X148939000Y-89103000D01*
X148939000Y-90605000D01*
X150441000Y-90605000D01*
X150441000Y-89103000D01*
X151439000Y-89103000D01*
X151439000Y-90605000D01*
X152941000Y-90605000D01*
X152941000Y-89103000D01*
X153939000Y-89103000D01*
X153939000Y-90605000D01*
X154959000Y-90605000D01*
X154959000Y-89103000D01*
X153939000Y-89103000D01*
X152941000Y-89103000D01*
X151439000Y-89103000D01*
X150441000Y-89103000D01*
X148939000Y-89103000D01*
X147941000Y-89103000D01*
X146439000Y-89103000D01*
X145441000Y-89103000D01*
X144458510Y-89103000D01*
X144274187Y-89236918D01*
X144268834Y-89240597D01*
X144235877Y-89261998D01*
X144230342Y-89265390D01*
X144185070Y-89291526D01*
X144179364Y-89294624D01*
X144144383Y-89312446D01*
X144138528Y-89315238D01*
X143939000Y-89404075D01*
X143939000Y-90605000D01*
X142941000Y-90605000D01*
X142941000Y-89503957D01*
X142743140Y-89461902D01*
X142736828Y-89460387D01*
X142698895Y-89450223D01*
X142692674Y-89448380D01*
X142642954Y-89432227D01*
X142636829Y-89430058D01*
X142600148Y-89415977D01*
X142594151Y-89413493D01*
X142373472Y-89315238D01*
X142367617Y-89312446D01*
X142332636Y-89294624D01*
X142326930Y-89291526D01*
X142281658Y-89265390D01*
X142276123Y-89261998D01*
X142263036Y-89253500D01*
X141439000Y-89253500D01*
X140441000Y-89253500D01*
X138939000Y-89253500D01*
X137941000Y-89253500D01*
X137386575Y-89253500D01*
X137365939Y-89489367D01*
X137365350Y-89494744D01*
X137361079Y-89527188D01*
X137360256Y-89532535D01*
X137352693Y-89575430D01*
X137351638Y-89580737D01*
X137344553Y-89612696D01*
X137343267Y-89617951D01*
X137273095Y-89879841D01*
X137271580Y-89885038D01*
X137261731Y-89916273D01*
X137259990Y-89921401D01*
X137245089Y-89962333D01*
X137243130Y-89967371D01*
X137230611Y-89997592D01*
X137228433Y-90002541D01*
X137113857Y-90248249D01*
X137111463Y-90253103D01*
X137096347Y-90282139D01*
X137093746Y-90286880D01*
X137071968Y-90324601D01*
X137069160Y-90329228D01*
X137051578Y-90356825D01*
X137048574Y-90361321D01*
X136893074Y-90583401D01*
X136889877Y-90587761D01*
X136876650Y-90605000D01*
X131191000Y-90605000D01*
X131191000Y-89793514D01*
X131210685Y-89726475D01*
X131263489Y-89680720D01*
X131332647Y-89670776D01*
X131396203Y-89699801D01*
X131427383Y-89741110D01*
X131457866Y-89806482D01*
X131508974Y-89879472D01*
X132190046Y-89198400D01*
X132202835Y-89279148D01*
X132260359Y-89392045D01*
X132349955Y-89481641D01*
X132462852Y-89539165D01*
X132543599Y-89551953D01*
X131862526Y-90233025D01*
X131935513Y-90284132D01*
X131935521Y-90284136D01*
X132141668Y-90380264D01*
X132141682Y-90380269D01*
X132361389Y-90439139D01*
X132361400Y-90439141D01*
X132587998Y-90458966D01*
X132588002Y-90458966D01*
X132814599Y-90439141D01*
X132814610Y-90439139D01*
X133034317Y-90380269D01*
X133034331Y-90380264D01*
X133240478Y-90284136D01*
X133313471Y-90233024D01*
X132632400Y-89551953D01*
X132713148Y-89539165D01*
X132826045Y-89481641D01*
X132915641Y-89392045D01*
X132973165Y-89279148D01*
X132985953Y-89198400D01*
X133667024Y-89879471D01*
X133718134Y-89806481D01*
X133725340Y-89791028D01*
X133771511Y-89738587D01*
X133838704Y-89719433D01*
X133905585Y-89739646D01*
X133950105Y-89791022D01*
X133957430Y-89806730D01*
X133957432Y-89806734D01*
X134087954Y-89993141D01*
X134248858Y-90154045D01*
X134248861Y-90154047D01*
X134435266Y-90284568D01*
X134641504Y-90380739D01*
X134861308Y-90439635D01*
X135023230Y-90453801D01*
X135087998Y-90459468D01*
X135088000Y-90459468D01*
X135088002Y-90459468D01*
X135144673Y-90454509D01*
X135314692Y-90439635D01*
X135534496Y-90380739D01*
X135740734Y-90284568D01*
X135927139Y-90154047D01*
X136088047Y-89993139D01*
X136218568Y-89806734D01*
X136314739Y-89600496D01*
X136373635Y-89380692D01*
X136393468Y-89154000D01*
X136373635Y-88927308D01*
X136314739Y-88707504D01*
X136218568Y-88501266D01*
X136088047Y-88314861D01*
X136088045Y-88314858D01*
X135927141Y-88153954D01*
X135740734Y-88023432D01*
X135740732Y-88023431D01*
X135534497Y-87927261D01*
X135534488Y-87927258D01*
X135314697Y-87868366D01*
X135314693Y-87868365D01*
X135314692Y-87868365D01*
X135314691Y-87868364D01*
X135314686Y-87868364D01*
X135088002Y-87848532D01*
X135087998Y-87848532D01*
X134861313Y-87868364D01*
X134861302Y-87868366D01*
X134641511Y-87927258D01*
X134641502Y-87927261D01*
X134435267Y-88023431D01*
X134435265Y-88023432D01*
X134248858Y-88153954D01*
X134087954Y-88314858D01*
X133957432Y-88501265D01*
X133957429Y-88501270D01*
X133950104Y-88516979D01*
X133903929Y-88569417D01*
X133836735Y-88588566D01*
X133769855Y-88568347D01*
X133725341Y-88516973D01*
X133718133Y-88501515D01*
X133718132Y-88501513D01*
X133667025Y-88428526D01*
X132985953Y-89109598D01*
X132973165Y-89028852D01*
X132915641Y-88915955D01*
X132826045Y-88826359D01*
X132713148Y-88768835D01*
X132632401Y-88756046D01*
X133313472Y-88074974D01*
X133240478Y-88023863D01*
X133034331Y-87927735D01*
X133034317Y-87927730D01*
X132814610Y-87868860D01*
X132814599Y-87868858D01*
X132588002Y-87849034D01*
X132587998Y-87849034D01*
X132361400Y-87868858D01*
X132361389Y-87868860D01*
X132141682Y-87927730D01*
X132141673Y-87927734D01*
X131935516Y-88023866D01*
X131935512Y-88023868D01*
X131862526Y-88074973D01*
X131862526Y-88074974D01*
X132543599Y-88756046D01*
X132462852Y-88768835D01*
X132349955Y-88826359D01*
X132260359Y-88915955D01*
X132202835Y-89028852D01*
X132190046Y-89109598D01*
X131508974Y-88428526D01*
X131508973Y-88428526D01*
X131457868Y-88501512D01*
X131457866Y-88501516D01*
X131427382Y-88566890D01*
X131381209Y-88619329D01*
X131314016Y-88638481D01*
X131247135Y-88618265D01*
X131201800Y-88565100D01*
X131191000Y-88514485D01*
X131191000Y-85502870D01*
X132532000Y-85502870D01*
X132532001Y-85502876D01*
X132538408Y-85562483D01*
X132588702Y-85697328D01*
X132588706Y-85697335D01*
X132674952Y-85812544D01*
X132674955Y-85812547D01*
X132790164Y-85898793D01*
X132790171Y-85898797D01*
X132925017Y-85949091D01*
X132925016Y-85949091D01*
X132931944Y-85949835D01*
X132984627Y-85955500D01*
X134549546Y-85955499D01*
X134616585Y-85975184D01*
X134637227Y-85991818D01*
X136659197Y-88013788D01*
X136669022Y-88026051D01*
X136669243Y-88025869D01*
X136674211Y-88031874D01*
X136723222Y-88077899D01*
X136726021Y-88080612D01*
X136745522Y-88100114D01*
X136745526Y-88100117D01*
X136745529Y-88100120D01*
X136748702Y-88102581D01*
X136757574Y-88110159D01*
X136789418Y-88140062D01*
X136806976Y-88149714D01*
X136823233Y-88160393D01*
X136839064Y-88172673D01*
X136868803Y-88185542D01*
X136879152Y-88190021D01*
X136889641Y-88195160D01*
X136913457Y-88208252D01*
X136927908Y-88216197D01*
X136940523Y-88219435D01*
X136947305Y-88221177D01*
X136965719Y-88227481D01*
X136984104Y-88235438D01*
X137027261Y-88242273D01*
X137038656Y-88244632D01*
X137080981Y-88255500D01*
X137101016Y-88255500D01*
X137120413Y-88257026D01*
X137140196Y-88260160D01*
X137183675Y-88256050D01*
X137195344Y-88255500D01*
X142552252Y-88255500D01*
X142619291Y-88275185D01*
X142644400Y-88296526D01*
X142650126Y-88302885D01*
X142650130Y-88302889D01*
X142803265Y-88414148D01*
X142803270Y-88414151D01*
X142976192Y-88491142D01*
X142976197Y-88491144D01*
X143161354Y-88530500D01*
X143161355Y-88530500D01*
X143350644Y-88530500D01*
X143350646Y-88530500D01*
X143535803Y-88491144D01*
X143708730Y-88414151D01*
X143861871Y-88302888D01*
X143988533Y-88162216D01*
X144083179Y-87998284D01*
X144141674Y-87818256D01*
X144161460Y-87630000D01*
X144141674Y-87441744D01*
X144083179Y-87261716D01*
X144038308Y-87183997D01*
X144023267Y-87122000D01*
X145087141Y-87122000D01*
X145098907Y-87158208D01*
X145100751Y-87164435D01*
X145110920Y-87202388D01*
X145112436Y-87208704D01*
X145123303Y-87259839D01*
X145124486Y-87266219D01*
X145130628Y-87305002D01*
X145131475Y-87311437D01*
X145156725Y-87551677D01*
X145157234Y-87558147D01*
X145159290Y-87597372D01*
X145159460Y-87603863D01*
X145159460Y-87656137D01*
X145159290Y-87662628D01*
X145157234Y-87701853D01*
X145156725Y-87708323D01*
X145131475Y-87948563D01*
X145130628Y-87954998D01*
X145124486Y-87993781D01*
X145123303Y-88000161D01*
X145112436Y-88051296D01*
X145110920Y-88057612D01*
X145100751Y-88095565D01*
X145098907Y-88101791D01*
X145097864Y-88105000D01*
X145441000Y-88105000D01*
X145441000Y-86603000D01*
X146439000Y-86603000D01*
X146439000Y-88105000D01*
X147941000Y-88105000D01*
X147941000Y-86603000D01*
X148939000Y-86603000D01*
X148939000Y-88105000D01*
X150441000Y-88105000D01*
X150441000Y-86603000D01*
X151439000Y-86603000D01*
X151439000Y-88105000D01*
X152941000Y-88105000D01*
X152941000Y-86603000D01*
X153939000Y-86603000D01*
X153939000Y-88105000D01*
X154959000Y-88105000D01*
X154959000Y-86603000D01*
X153939000Y-86603000D01*
X152941000Y-86603000D01*
X151439000Y-86603000D01*
X150441000Y-86603000D01*
X148939000Y-86603000D01*
X147941000Y-86603000D01*
X146439000Y-86603000D01*
X145441000Y-86603000D01*
X145159460Y-86603000D01*
X145159460Y-86640137D01*
X145159290Y-86646628D01*
X145157234Y-86685853D01*
X145156725Y-86692323D01*
X145131475Y-86932563D01*
X145130628Y-86938998D01*
X145124486Y-86977781D01*
X145123303Y-86984161D01*
X145112436Y-87035296D01*
X145110920Y-87041612D01*
X145100751Y-87079565D01*
X145098907Y-87085792D01*
X145087141Y-87122000D01*
X144023267Y-87122000D01*
X144021836Y-87116100D01*
X144038308Y-87060002D01*
X144083179Y-86982284D01*
X144141674Y-86802256D01*
X144161460Y-86614000D01*
X144141674Y-86425744D01*
X144083179Y-86245716D01*
X143988533Y-86081784D01*
X143861871Y-85941112D01*
X143861870Y-85941111D01*
X143708734Y-85829851D01*
X143708729Y-85829848D01*
X143535807Y-85752857D01*
X143535802Y-85752855D01*
X143390001Y-85721865D01*
X143350646Y-85713500D01*
X143161354Y-85713500D01*
X143128897Y-85720398D01*
X142976197Y-85752855D01*
X142976192Y-85752857D01*
X142803270Y-85829848D01*
X142803265Y-85829851D01*
X142650130Y-85941110D01*
X142650126Y-85941114D01*
X142644400Y-85947474D01*
X142584913Y-85984121D01*
X142552252Y-85988500D01*
X139861636Y-85988500D01*
X139794597Y-85968815D01*
X139748842Y-85916011D01*
X139738898Y-85846853D01*
X139767923Y-85783297D01*
X139802619Y-85755445D01*
X139807405Y-85752855D01*
X139862439Y-85723072D01*
X140052463Y-85575171D01*
X140215551Y-85398010D01*
X140347255Y-85196422D01*
X140437581Y-84990500D01*
X141596776Y-84990500D01*
X142263036Y-84990500D01*
X142276123Y-84982002D01*
X142281658Y-84978610D01*
X142326930Y-84952474D01*
X142332636Y-84949376D01*
X142367617Y-84931554D01*
X142373472Y-84928762D01*
X142594151Y-84830507D01*
X142600148Y-84828023D01*
X142636829Y-84813942D01*
X142642954Y-84811773D01*
X142692674Y-84795620D01*
X142698895Y-84793777D01*
X142736828Y-84783613D01*
X142743140Y-84782098D01*
X142941000Y-84740042D01*
X142941000Y-84103000D01*
X143939000Y-84103000D01*
X143939000Y-84839924D01*
X144138528Y-84928762D01*
X144144383Y-84931554D01*
X144179364Y-84949376D01*
X144185070Y-84952474D01*
X144230342Y-84978610D01*
X144235877Y-84982002D01*
X144268834Y-85003403D01*
X144274187Y-85007082D01*
X144469626Y-85149076D01*
X144474779Y-85153029D01*
X144505302Y-85177747D01*
X144510235Y-85181961D01*
X144549083Y-85216939D01*
X144553793Y-85221409D01*
X144581569Y-85249185D01*
X144586038Y-85253894D01*
X144747677Y-85433412D01*
X144751892Y-85438346D01*
X144776606Y-85468864D01*
X144780557Y-85474013D01*
X144811286Y-85516305D01*
X144814965Y-85521658D01*
X144836364Y-85554609D01*
X144839756Y-85560146D01*
X144865652Y-85605000D01*
X145441000Y-85605000D01*
X148939000Y-85605000D01*
X150441000Y-85605000D01*
X150441000Y-84103000D01*
X151439000Y-84103000D01*
X151439000Y-85605000D01*
X152941000Y-85605000D01*
X152941000Y-85181703D01*
X152851627Y-85100229D01*
X152847484Y-85096273D01*
X152822976Y-85071765D01*
X152819019Y-85067621D01*
X152787948Y-85033537D01*
X152784188Y-85029217D01*
X152762050Y-85002557D01*
X152758494Y-84998067D01*
X152596626Y-84783719D01*
X152593281Y-84779070D01*
X152573700Y-84750486D01*
X152570573Y-84745687D01*
X152546293Y-84706475D01*
X152543391Y-84701536D01*
X152526523Y-84671253D01*
X152523851Y-84666185D01*
X152404112Y-84425719D01*
X152401675Y-84420528D01*
X152387664Y-84388792D01*
X152385470Y-84383494D01*
X152368813Y-84340485D01*
X152366871Y-84335105D01*
X152355869Y-84302277D01*
X152354176Y-84296808D01*
X152299033Y-84103000D01*
X151439000Y-84103000D01*
X150441000Y-84103000D01*
X148944967Y-84103000D01*
X148939000Y-84123972D01*
X148939000Y-85605000D01*
X145441000Y-85605000D01*
X145441000Y-85290387D01*
X145434451Y-85284949D01*
X145430129Y-85281188D01*
X145231627Y-85100229D01*
X145227484Y-85096273D01*
X145202976Y-85071765D01*
X145199019Y-85067621D01*
X145167948Y-85033537D01*
X145164188Y-85029217D01*
X145142050Y-85002557D01*
X145138494Y-84998067D01*
X144976626Y-84783719D01*
X144973281Y-84779070D01*
X144953700Y-84750486D01*
X144950573Y-84745687D01*
X144926293Y-84706475D01*
X144923391Y-84701536D01*
X144906523Y-84671253D01*
X144903851Y-84666185D01*
X144784112Y-84425719D01*
X144781675Y-84420528D01*
X144767664Y-84388792D01*
X144765470Y-84383494D01*
X144748813Y-84340485D01*
X144746871Y-84335105D01*
X144735869Y-84302277D01*
X144734176Y-84296808D01*
X144679033Y-84103000D01*
X143939000Y-84103000D01*
X142941000Y-84103000D01*
X142484276Y-84103000D01*
X141596776Y-84990500D01*
X140437581Y-84990500D01*
X140443983Y-84975905D01*
X140503095Y-84742476D01*
X140505636Y-84711801D01*
X140530789Y-84646618D01*
X140541524Y-84634369D01*
X141609893Y-83566000D01*
X145606357Y-83566000D01*
X145626884Y-83787535D01*
X145626885Y-83787537D01*
X145687769Y-84001523D01*
X145687775Y-84001538D01*
X145786938Y-84200683D01*
X145786943Y-84200691D01*
X145921020Y-84378238D01*
X146085437Y-84528123D01*
X146085439Y-84528125D01*
X146274595Y-84645245D01*
X146274596Y-84645245D01*
X146274599Y-84645247D01*
X146482060Y-84725618D01*
X146700757Y-84766500D01*
X146700759Y-84766500D01*
X146923241Y-84766500D01*
X146923243Y-84766500D01*
X147141940Y-84725618D01*
X147349401Y-84645247D01*
X147538562Y-84528124D01*
X147702981Y-84378236D01*
X147837058Y-84200689D01*
X147936229Y-84001528D01*
X147997115Y-83787536D01*
X148017643Y-83566000D01*
X153226357Y-83566000D01*
X153246884Y-83787535D01*
X153246885Y-83787537D01*
X153307769Y-84001523D01*
X153307775Y-84001538D01*
X153406938Y-84200683D01*
X153406943Y-84200691D01*
X153541020Y-84378238D01*
X153705437Y-84528123D01*
X153705439Y-84528125D01*
X153894595Y-84645245D01*
X153894596Y-84645245D01*
X153894599Y-84645247D01*
X154102060Y-84725618D01*
X154320757Y-84766500D01*
X154320759Y-84766500D01*
X154543241Y-84766500D01*
X154543243Y-84766500D01*
X154761940Y-84725618D01*
X154969401Y-84645247D01*
X155158562Y-84528124D01*
X155322981Y-84378236D01*
X155457058Y-84200689D01*
X155556229Y-84001528D01*
X155617115Y-83787536D01*
X155637643Y-83566000D01*
X155626241Y-83442956D01*
X155617115Y-83344464D01*
X155617114Y-83344462D01*
X155614373Y-83334829D01*
X155556229Y-83130472D01*
X155556224Y-83130461D01*
X155457061Y-82931316D01*
X155457056Y-82931308D01*
X155322979Y-82753761D01*
X155158562Y-82603876D01*
X155158560Y-82603874D01*
X154969404Y-82486754D01*
X154969398Y-82486752D01*
X154761940Y-82406382D01*
X154543243Y-82365500D01*
X154320757Y-82365500D01*
X154102060Y-82406382D01*
X153970864Y-82457207D01*
X153894601Y-82486752D01*
X153894595Y-82486754D01*
X153705439Y-82603874D01*
X153705437Y-82603876D01*
X153541020Y-82753761D01*
X153406943Y-82931308D01*
X153406938Y-82931316D01*
X153307775Y-83130461D01*
X153307769Y-83130476D01*
X153246885Y-83344462D01*
X153246884Y-83344464D01*
X153226357Y-83565999D01*
X153226357Y-83566000D01*
X148017643Y-83566000D01*
X148006241Y-83442956D01*
X147997115Y-83344464D01*
X147997114Y-83344462D01*
X147994373Y-83334829D01*
X147936229Y-83130472D01*
X147936224Y-83130461D01*
X147837061Y-82931316D01*
X147837056Y-82931308D01*
X147702979Y-82753761D01*
X147538562Y-82603876D01*
X147538560Y-82603874D01*
X147349404Y-82486754D01*
X147349398Y-82486752D01*
X147141940Y-82406382D01*
X146923243Y-82365500D01*
X146700757Y-82365500D01*
X146482060Y-82406382D01*
X146350864Y-82457207D01*
X146274601Y-82486752D01*
X146274595Y-82486754D01*
X146085439Y-82603874D01*
X146085437Y-82603876D01*
X145921020Y-82753761D01*
X145786943Y-82931308D01*
X145786938Y-82931316D01*
X145687775Y-83130461D01*
X145687769Y-83130476D01*
X145626885Y-83344462D01*
X145626884Y-83344464D01*
X145606357Y-83565999D01*
X145606357Y-83566000D01*
X141609893Y-83566000D01*
X142070893Y-83105000D01*
X143939000Y-83105000D01*
X144657839Y-83105000D01*
X144659234Y-83099067D01*
X144660674Y-83093524D01*
X144734176Y-82835192D01*
X144735869Y-82829723D01*
X144746871Y-82796895D01*
X144748813Y-82791515D01*
X144765470Y-82748506D01*
X144767664Y-82743208D01*
X144781675Y-82711472D01*
X144784112Y-82706281D01*
X144903851Y-82465815D01*
X144906523Y-82460747D01*
X144923391Y-82430464D01*
X144926293Y-82425525D01*
X144950573Y-82386313D01*
X144953700Y-82381514D01*
X144973281Y-82352930D01*
X144976626Y-82348281D01*
X145138494Y-82133933D01*
X145142050Y-82129443D01*
X145164188Y-82102783D01*
X145167948Y-82098463D01*
X145199019Y-82064379D01*
X145202976Y-82060235D01*
X145227484Y-82035727D01*
X145231627Y-82031771D01*
X145430129Y-81850812D01*
X145434451Y-81847051D01*
X145441000Y-81841612D01*
X145441000Y-81603000D01*
X148939000Y-81603000D01*
X148939000Y-83008026D01*
X148963326Y-83093524D01*
X148964766Y-83099067D01*
X148966161Y-83105000D01*
X150441000Y-83105000D01*
X150441000Y-81603000D01*
X151439000Y-81603000D01*
X151439000Y-83105000D01*
X152277839Y-83105000D01*
X152279234Y-83099067D01*
X152280674Y-83093524D01*
X152354176Y-82835192D01*
X152355869Y-82829723D01*
X152366871Y-82796895D01*
X152368813Y-82791515D01*
X152385470Y-82748506D01*
X152387664Y-82743208D01*
X152401675Y-82711472D01*
X152404112Y-82706281D01*
X152523851Y-82465815D01*
X152526523Y-82460747D01*
X152543391Y-82430464D01*
X152546293Y-82425525D01*
X152570573Y-82386313D01*
X152573700Y-82381514D01*
X152593281Y-82352930D01*
X152596626Y-82348281D01*
X152758494Y-82133933D01*
X152762050Y-82129443D01*
X152784188Y-82102783D01*
X152787948Y-82098463D01*
X152819019Y-82064379D01*
X152822976Y-82060235D01*
X152847484Y-82035727D01*
X152851626Y-82031771D01*
X152941000Y-81950295D01*
X152941000Y-81603000D01*
X151439000Y-81603000D01*
X150441000Y-81603000D01*
X148939000Y-81603000D01*
X145441000Y-81603000D01*
X144984277Y-81603000D01*
X143939000Y-82648276D01*
X143939000Y-83105000D01*
X142070893Y-83105000D01*
X144655788Y-80520106D01*
X144668042Y-80510291D01*
X144667859Y-80510069D01*
X144669296Y-80508880D01*
X146158672Y-80508880D01*
X146274821Y-80580797D01*
X146274822Y-80580798D01*
X146482195Y-80661134D01*
X146700807Y-80702000D01*
X146923193Y-80702000D01*
X147141809Y-80661133D01*
X147286704Y-80605000D01*
X148939000Y-80605000D01*
X150441000Y-80605000D01*
X150441000Y-79103000D01*
X151439000Y-79103000D01*
X151439000Y-80605000D01*
X152525335Y-80605000D01*
X152523851Y-80602185D01*
X152404112Y-80361719D01*
X152401675Y-80356528D01*
X152387664Y-80324792D01*
X152385470Y-80319494D01*
X152368813Y-80276485D01*
X152366871Y-80271105D01*
X152355869Y-80238277D01*
X152354176Y-80232808D01*
X152280674Y-79974476D01*
X152279234Y-79968933D01*
X152271301Y-79935205D01*
X152270119Y-79929602D01*
X152261643Y-79884266D01*
X152260720Y-79878609D01*
X152255931Y-79844276D01*
X152255271Y-79838587D01*
X152230486Y-79571121D01*
X152230089Y-79565404D01*
X152228489Y-79530786D01*
X152228357Y-79525061D01*
X152228357Y-79502000D01*
X153226357Y-79502000D01*
X153246884Y-79723535D01*
X153246885Y-79723537D01*
X153307769Y-79937523D01*
X153307775Y-79937538D01*
X153406938Y-80136683D01*
X153406943Y-80136691D01*
X153541020Y-80314238D01*
X153705437Y-80464123D01*
X153705439Y-80464125D01*
X153894595Y-80581245D01*
X153894596Y-80581245D01*
X153894599Y-80581247D01*
X154102060Y-80661618D01*
X154320757Y-80702500D01*
X154320759Y-80702500D01*
X154543241Y-80702500D01*
X154543243Y-80702500D01*
X154761940Y-80661618D01*
X154969401Y-80581247D01*
X155158562Y-80464124D01*
X155322981Y-80314236D01*
X155457058Y-80136689D01*
X155556229Y-79937528D01*
X155617115Y-79723536D01*
X155637643Y-79502000D01*
X155617115Y-79280464D01*
X155556229Y-79066472D01*
X155556224Y-79066461D01*
X155457061Y-78867316D01*
X155457056Y-78867308D01*
X155322979Y-78689761D01*
X155158562Y-78539876D01*
X155158560Y-78539874D01*
X154969404Y-78422754D01*
X154969398Y-78422752D01*
X154761940Y-78342382D01*
X154543243Y-78301500D01*
X154320757Y-78301500D01*
X154102060Y-78342382D01*
X153970864Y-78393207D01*
X153894601Y-78422752D01*
X153894595Y-78422754D01*
X153705439Y-78539874D01*
X153705437Y-78539876D01*
X153541020Y-78689761D01*
X153406943Y-78867308D01*
X153406938Y-78867316D01*
X153307775Y-79066461D01*
X153307769Y-79066476D01*
X153246885Y-79280462D01*
X153246884Y-79280464D01*
X153226357Y-79501999D01*
X153226357Y-79502000D01*
X152228357Y-79502000D01*
X152228357Y-79478939D01*
X152228489Y-79473214D01*
X152230089Y-79438596D01*
X152230486Y-79432879D01*
X152255271Y-79165413D01*
X152255931Y-79159724D01*
X152260720Y-79125391D01*
X152261643Y-79119734D01*
X152264772Y-79103000D01*
X151439000Y-79103000D01*
X150441000Y-79103000D01*
X148978717Y-79103000D01*
X148981863Y-79119825D01*
X148982786Y-79125483D01*
X148987575Y-79159815D01*
X148988235Y-79165505D01*
X149013011Y-79432878D01*
X149013408Y-79438591D01*
X149015009Y-79473211D01*
X149015141Y-79478939D01*
X149015141Y-79525061D01*
X149015009Y-79530789D01*
X149013408Y-79565409D01*
X149013011Y-79571122D01*
X148988235Y-79838495D01*
X148987575Y-79844185D01*
X148982786Y-79878517D01*
X148981863Y-79884175D01*
X148973387Y-79929510D01*
X148972205Y-79935111D01*
X148964273Y-79968836D01*
X148962834Y-79974380D01*
X148939000Y-80058148D01*
X148939000Y-80605000D01*
X147286704Y-80605000D01*
X147349168Y-80580801D01*
X147349181Y-80580795D01*
X147465326Y-80508879D01*
X146812001Y-79855553D01*
X146812000Y-79855553D01*
X146158672Y-80508879D01*
X146158672Y-80508880D01*
X144669296Y-80508880D01*
X144673868Y-80505096D01*
X144673877Y-80505091D01*
X144719949Y-80456027D01*
X144722566Y-80453328D01*
X144742120Y-80433776D01*
X144744576Y-80430608D01*
X144752156Y-80421732D01*
X144782062Y-80389887D01*
X144791715Y-80372325D01*
X144802389Y-80356075D01*
X144814673Y-80340241D01*
X144832019Y-80300155D01*
X144837157Y-80289667D01*
X144858196Y-80251398D01*
X144858197Y-80251397D01*
X144863177Y-80231996D01*
X144869478Y-80213593D01*
X144877438Y-80195201D01*
X144884272Y-80152046D01*
X144886635Y-80140636D01*
X144897500Y-80098324D01*
X144897500Y-80078288D01*
X144899027Y-80058887D01*
X144902160Y-80039109D01*
X144898050Y-79995629D01*
X144897500Y-79983960D01*
X144897500Y-79502000D01*
X145606859Y-79502000D01*
X145627378Y-79723439D01*
X145688240Y-79937350D01*
X145787369Y-80136428D01*
X145803137Y-80157308D01*
X145803138Y-80157308D01*
X146429145Y-79531302D01*
X146458372Y-79531302D01*
X146487047Y-79644538D01*
X146550936Y-79742327D01*
X146643115Y-79814072D01*
X146753595Y-79852000D01*
X146841005Y-79852000D01*
X146927216Y-79837614D01*
X147029947Y-79782019D01*
X147109060Y-79696079D01*
X147155982Y-79589108D01*
X147163200Y-79502000D01*
X147165553Y-79502000D01*
X147820861Y-80157308D01*
X147836631Y-80136425D01*
X147836633Y-80136422D01*
X147935759Y-79937350D01*
X147996621Y-79723439D01*
X148017141Y-79502000D01*
X148017141Y-79501999D01*
X147996621Y-79280560D01*
X147935759Y-79066649D01*
X147836635Y-78867580D01*
X147836630Y-78867572D01*
X147820860Y-78846690D01*
X147165553Y-79501999D01*
X147165553Y-79502000D01*
X147163200Y-79502000D01*
X147165628Y-79472698D01*
X147136953Y-79359462D01*
X147073064Y-79261673D01*
X146980885Y-79189928D01*
X146870405Y-79152000D01*
X146782995Y-79152000D01*
X146696784Y-79166386D01*
X146594053Y-79221981D01*
X146514940Y-79307921D01*
X146468018Y-79414892D01*
X146458372Y-79531302D01*
X146429145Y-79531302D01*
X146458447Y-79502000D01*
X145803138Y-78846691D01*
X145803137Y-78846691D01*
X145787368Y-78867574D01*
X145688240Y-79066649D01*
X145627378Y-79280560D01*
X145606859Y-79501999D01*
X145606859Y-79502000D01*
X144897500Y-79502000D01*
X144897500Y-78495119D01*
X146158671Y-78495119D01*
X146812000Y-79148447D01*
X146812001Y-79148447D01*
X147465327Y-78495119D01*
X147349178Y-78423202D01*
X147349177Y-78423201D01*
X147141804Y-78342865D01*
X146923193Y-78302000D01*
X146700807Y-78302000D01*
X146482195Y-78342865D01*
X146274824Y-78423200D01*
X146274823Y-78423201D01*
X146158671Y-78495119D01*
X144897500Y-78495119D01*
X144897500Y-76603000D01*
X146439000Y-76603000D01*
X146439000Y-77335651D01*
X146540090Y-77316755D01*
X146545744Y-77315833D01*
X146580062Y-77311046D01*
X146585750Y-77310386D01*
X146631673Y-77306130D01*
X146637388Y-77305733D01*
X146672012Y-77304132D01*
X146677740Y-77304000D01*
X146946260Y-77304000D01*
X146951988Y-77304132D01*
X146986612Y-77305733D01*
X146992327Y-77306130D01*
X147038250Y-77310386D01*
X147043938Y-77311046D01*
X147078256Y-77315833D01*
X147083910Y-77316755D01*
X147347840Y-77366092D01*
X147353440Y-77367274D01*
X147387154Y-77375202D01*
X147392696Y-77376640D01*
X147437058Y-77389259D01*
X147442534Y-77390955D01*
X147475416Y-77401975D01*
X147480807Y-77403921D01*
X147731203Y-77500925D01*
X147736495Y-77503118D01*
X147768202Y-77517118D01*
X147773391Y-77519553D01*
X147814678Y-77540113D01*
X147819742Y-77542783D01*
X147850017Y-77559646D01*
X147854956Y-77562548D01*
X147941000Y-77615824D01*
X147941000Y-76603000D01*
X148939000Y-76603000D01*
X148939000Y-78105000D01*
X150441000Y-78105000D01*
X150441000Y-76603000D01*
X151439000Y-76603000D01*
X151439000Y-78105000D01*
X152732012Y-78105000D01*
X152758494Y-78069933D01*
X152762050Y-78065443D01*
X152784188Y-78038783D01*
X152787948Y-78034463D01*
X152819019Y-78000379D01*
X152822976Y-77996235D01*
X152847484Y-77971727D01*
X152851626Y-77967771D01*
X152941000Y-77886295D01*
X152941000Y-76603000D01*
X153939000Y-76603000D01*
X153939000Y-77357575D01*
X154160040Y-77316256D01*
X154165693Y-77315334D01*
X154200016Y-77310546D01*
X154205706Y-77309886D01*
X154251632Y-77305630D01*
X154257346Y-77305233D01*
X154291967Y-77303632D01*
X154297695Y-77303500D01*
X154566305Y-77303500D01*
X154572033Y-77303632D01*
X154606654Y-77305233D01*
X154612368Y-77305630D01*
X154658294Y-77309886D01*
X154663984Y-77310546D01*
X154698307Y-77315334D01*
X154703960Y-77316256D01*
X154959000Y-77363931D01*
X154959000Y-76603000D01*
X153939000Y-76603000D01*
X152941000Y-76603000D01*
X151439000Y-76603000D01*
X150441000Y-76603000D01*
X148939000Y-76603000D01*
X147941000Y-76603000D01*
X146439000Y-76603000D01*
X144897500Y-76603000D01*
X144897500Y-75925388D01*
X144899224Y-75909768D01*
X144898939Y-75909742D01*
X144899671Y-75901986D01*
X144899673Y-75901979D01*
X144897561Y-75834772D01*
X144897500Y-75830877D01*
X144897500Y-75803300D01*
X144897500Y-75803296D01*
X144896996Y-75799311D01*
X144896080Y-75787667D01*
X144894709Y-75744019D01*
X144889122Y-75724790D01*
X144885174Y-75705730D01*
X144882663Y-75685850D01*
X144866588Y-75645250D01*
X144862804Y-75634198D01*
X144850618Y-75592255D01*
X144850616Y-75592252D01*
X144840423Y-75575017D01*
X144831861Y-75557540D01*
X144824487Y-75538915D01*
X144802907Y-75509213D01*
X144798811Y-75503576D01*
X144792405Y-75493823D01*
X144770170Y-75456226D01*
X144770168Y-75456224D01*
X144770165Y-75456220D01*
X144756006Y-75442061D01*
X144743368Y-75427265D01*
X144731594Y-75411059D01*
X144697940Y-75383218D01*
X144689299Y-75375355D01*
X144166125Y-74852180D01*
X144132640Y-74790857D01*
X144137624Y-74721165D01*
X144179496Y-74665232D01*
X144244960Y-74640815D01*
X144253806Y-74640499D01*
X146862871Y-74640499D01*
X146862872Y-74640499D01*
X146922483Y-74634091D01*
X147057331Y-74583796D01*
X147172546Y-74497546D01*
X147258796Y-74382331D01*
X147309091Y-74247483D01*
X147315500Y-74187873D01*
X147315500Y-74103000D01*
X148939000Y-74103000D01*
X148939000Y-75605000D01*
X150441000Y-75605000D01*
X150441000Y-75518110D01*
X150331345Y-75371632D01*
X150326297Y-75364362D01*
X150297333Y-75319295D01*
X150292815Y-75311681D01*
X150258638Y-75249091D01*
X150254677Y-75241177D01*
X150232419Y-75192441D01*
X150229030Y-75184261D01*
X150155421Y-74986904D01*
X150152942Y-74979564D01*
X150139332Y-74934695D01*
X150137315Y-74927212D01*
X150122972Y-74866501D01*
X150121428Y-74858916D01*
X150113522Y-74812738D01*
X150112455Y-74805069D01*
X150101289Y-74701217D01*
X150100977Y-74697905D01*
X150099364Y-74677856D01*
X150099142Y-74674542D01*
X150097713Y-74647855D01*
X150097580Y-74644539D01*
X150097044Y-74624491D01*
X150097000Y-74621177D01*
X150097000Y-74103000D01*
X148939000Y-74103000D01*
X147315500Y-74103000D01*
X147315499Y-71603000D01*
X148939000Y-71603000D01*
X148939000Y-73105000D01*
X150097000Y-73105000D01*
X150097000Y-72698823D01*
X150097044Y-72695509D01*
X150097580Y-72675461D01*
X150097713Y-72672145D01*
X150099142Y-72645458D01*
X150099364Y-72642144D01*
X150100977Y-72622095D01*
X150101289Y-72618783D01*
X150112455Y-72514931D01*
X150113522Y-72507262D01*
X150121428Y-72461084D01*
X150122972Y-72453499D01*
X150137315Y-72392788D01*
X150139332Y-72385305D01*
X150152942Y-72340436D01*
X150155421Y-72333096D01*
X150229030Y-72135739D01*
X150232419Y-72127559D01*
X150254677Y-72078823D01*
X150258638Y-72070909D01*
X150277698Y-72036003D01*
X150243616Y-71958303D01*
X150241655Y-71953570D01*
X150230387Y-71924694D01*
X150228624Y-71919883D01*
X150215224Y-71880854D01*
X150213660Y-71875974D01*
X150204809Y-71846248D01*
X150203447Y-71841302D01*
X150143100Y-71603000D01*
X148939000Y-71603000D01*
X147315499Y-71603000D01*
X147315499Y-71120006D01*
X151089700Y-71120006D01*
X151108864Y-71351297D01*
X151108866Y-71351308D01*
X151165842Y-71576300D01*
X151259075Y-71788848D01*
X151386018Y-71983150D01*
X151481167Y-72086510D01*
X151512089Y-72149164D01*
X151504228Y-72218590D01*
X151460081Y-72272746D01*
X151433271Y-72286674D01*
X151352911Y-72316646D01*
X151352906Y-72316649D01*
X151237812Y-72402809D01*
X151237809Y-72402812D01*
X151151649Y-72517906D01*
X151151645Y-72517913D01*
X151101403Y-72652620D01*
X151101401Y-72652627D01*
X151095000Y-72712155D01*
X151095000Y-73410000D01*
X152119722Y-73410000D01*
X152071375Y-73493740D01*
X152041190Y-73625992D01*
X152051327Y-73761265D01*
X152100887Y-73887541D01*
X152118797Y-73910000D01*
X151095000Y-73910000D01*
X151095000Y-74607844D01*
X151101401Y-74667372D01*
X151101403Y-74667379D01*
X151151645Y-74802086D01*
X151151649Y-74802093D01*
X151237809Y-74917187D01*
X151237812Y-74917190D01*
X151352906Y-75003350D01*
X151352913Y-75003354D01*
X151487620Y-75053596D01*
X151487627Y-75053598D01*
X151547155Y-75059999D01*
X151547172Y-75060000D01*
X152245000Y-75060000D01*
X152245000Y-74034189D01*
X152297547Y-74070016D01*
X152427173Y-74110000D01*
X152528724Y-74110000D01*
X152629138Y-74094865D01*
X152745000Y-74039068D01*
X152745000Y-75060000D01*
X153442828Y-75060000D01*
X153442844Y-75059999D01*
X153502372Y-75053598D01*
X153502379Y-75053596D01*
X153637086Y-75003354D01*
X153637093Y-75003350D01*
X153752187Y-74917190D01*
X153752190Y-74917187D01*
X153838350Y-74802093D01*
X153838354Y-74802086D01*
X153888596Y-74667379D01*
X153888598Y-74667372D01*
X153894999Y-74607844D01*
X153895000Y-74607827D01*
X153895000Y-73910000D01*
X152870278Y-73910000D01*
X152918625Y-73826260D01*
X152948810Y-73694008D01*
X152938673Y-73558735D01*
X152889113Y-73432459D01*
X152871203Y-73410000D01*
X153895000Y-73410000D01*
X153895000Y-72712172D01*
X153894999Y-72712155D01*
X153888598Y-72652627D01*
X153888596Y-72652620D01*
X153838354Y-72517913D01*
X153838350Y-72517906D01*
X153752190Y-72402812D01*
X153752187Y-72402809D01*
X153637093Y-72316649D01*
X153637086Y-72316645D01*
X153556729Y-72286674D01*
X153500795Y-72244803D01*
X153476378Y-72179338D01*
X153491230Y-72111065D01*
X153508826Y-72086516D01*
X153603979Y-71983153D01*
X153730924Y-71788849D01*
X153824157Y-71576300D01*
X153881134Y-71351305D01*
X153883247Y-71325803D01*
X153900300Y-71120006D01*
X153900300Y-71119993D01*
X153881135Y-70888702D01*
X153881133Y-70888691D01*
X153824157Y-70663699D01*
X153730924Y-70451151D01*
X153603983Y-70256852D01*
X153603980Y-70256849D01*
X153603979Y-70256847D01*
X153446784Y-70086087D01*
X153446779Y-70086083D01*
X153446777Y-70086081D01*
X153263634Y-69943535D01*
X153263628Y-69943531D01*
X153059504Y-69833064D01*
X153059495Y-69833061D01*
X152839984Y-69757702D01*
X152668282Y-69729050D01*
X152611049Y-69719500D01*
X152378951Y-69719500D01*
X152333164Y-69727140D01*
X152150015Y-69757702D01*
X151930504Y-69833061D01*
X151930495Y-69833064D01*
X151726371Y-69943531D01*
X151726365Y-69943535D01*
X151543222Y-70086081D01*
X151543219Y-70086084D01*
X151386016Y-70256852D01*
X151259075Y-70451151D01*
X151165842Y-70663699D01*
X151108866Y-70888691D01*
X151108864Y-70888702D01*
X151089700Y-71119993D01*
X151089700Y-71120006D01*
X147315499Y-71120006D01*
X147315499Y-70592128D01*
X147309091Y-70532517D01*
X147278743Y-70451151D01*
X147258797Y-70397671D01*
X147258793Y-70397664D01*
X147172547Y-70282455D01*
X147172544Y-70282452D01*
X147057335Y-70196206D01*
X147057328Y-70196202D01*
X146922482Y-70145908D01*
X146922483Y-70145908D01*
X146862883Y-70139501D01*
X146862881Y-70139500D01*
X146862873Y-70139500D01*
X146862865Y-70139500D01*
X143739500Y-70139500D01*
X143672461Y-70119815D01*
X143626706Y-70067011D01*
X143615500Y-70015500D01*
X143615500Y-69103000D01*
X148939000Y-69103000D01*
X148939000Y-70605000D01*
X150151204Y-70605000D01*
X150203447Y-70398698D01*
X150204809Y-70393752D01*
X150213660Y-70364026D01*
X150215224Y-70359146D01*
X150228624Y-70320117D01*
X150230387Y-70315306D01*
X150241655Y-70286430D01*
X150243616Y-70281697D01*
X150353422Y-70031363D01*
X150355579Y-70026709D01*
X150369199Y-69998851D01*
X150371542Y-69994299D01*
X150391181Y-69958008D01*
X150393715Y-69953549D01*
X150409586Y-69926915D01*
X150412299Y-69922569D01*
X150441000Y-69878638D01*
X150441000Y-69103000D01*
X153939000Y-69103000D01*
X153939000Y-69204526D01*
X154076055Y-69311201D01*
X154080034Y-69314433D01*
X154103704Y-69334481D01*
X154107547Y-69337874D01*
X154137905Y-69365822D01*
X154141603Y-69369371D01*
X154163521Y-69391290D01*
X154167068Y-69394986D01*
X154352195Y-69596089D01*
X154355584Y-69599927D01*
X154375602Y-69623560D01*
X154378829Y-69627534D01*
X154404177Y-69660095D01*
X154407246Y-69664209D01*
X154425284Y-69689471D01*
X154428178Y-69693706D01*
X154577701Y-69922568D01*
X154580414Y-69926915D01*
X154596285Y-69953549D01*
X154598819Y-69958008D01*
X154618458Y-69994299D01*
X154620801Y-69998851D01*
X154634421Y-70026709D01*
X154636578Y-70031363D01*
X154746384Y-70281697D01*
X154748345Y-70286430D01*
X154759613Y-70315306D01*
X154761376Y-70320117D01*
X154774776Y-70359146D01*
X154776340Y-70364026D01*
X154785191Y-70393752D01*
X154786553Y-70398698D01*
X154838796Y-70605000D01*
X154959000Y-70605000D01*
X154959000Y-69103000D01*
X153939000Y-69103000D01*
X150441000Y-69103000D01*
X148939000Y-69103000D01*
X143615500Y-69103000D01*
X143615500Y-66603000D01*
X144613500Y-66603000D01*
X144613500Y-68105000D01*
X145441000Y-68105000D01*
X146439000Y-68105000D01*
X147941000Y-68105000D01*
X147941000Y-67291762D01*
X147855179Y-67344900D01*
X147850243Y-67347801D01*
X147819984Y-67364656D01*
X147814920Y-67367326D01*
X147773635Y-67387886D01*
X147768447Y-67390321D01*
X147736726Y-67404328D01*
X147731431Y-67406522D01*
X147480957Y-67503555D01*
X147475572Y-67505499D01*
X147442722Y-67516510D01*
X147437248Y-67518205D01*
X147392888Y-67530827D01*
X147387346Y-67532267D01*
X147353604Y-67540204D01*
X147347996Y-67541387D01*
X147083960Y-67590744D01*
X147078307Y-67591666D01*
X147043984Y-67596454D01*
X147038294Y-67597114D01*
X146992368Y-67601370D01*
X146986654Y-67601767D01*
X146952033Y-67603368D01*
X146946305Y-67603500D01*
X146677695Y-67603500D01*
X146671967Y-67603368D01*
X146637346Y-67601767D01*
X146631632Y-67601370D01*
X146585706Y-67597114D01*
X146580016Y-67596454D01*
X146545693Y-67591666D01*
X146540040Y-67590744D01*
X146439000Y-67571856D01*
X146439000Y-68105000D01*
X145441000Y-68105000D01*
X145441000Y-67129387D01*
X145434451Y-67123949D01*
X145430129Y-67120188D01*
X145231627Y-66939229D01*
X145227484Y-66935273D01*
X145202976Y-66910765D01*
X145199019Y-66906621D01*
X145167948Y-66872537D01*
X145164188Y-66868217D01*
X145142050Y-66841557D01*
X145138494Y-66837067D01*
X144976626Y-66622719D01*
X144973281Y-66618070D01*
X144962958Y-66603000D01*
X144613500Y-66603000D01*
X143615500Y-66603000D01*
X143615500Y-65405000D01*
X145606357Y-65405000D01*
X145626884Y-65626535D01*
X145626885Y-65626537D01*
X145687769Y-65840523D01*
X145687775Y-65840538D01*
X145786938Y-66039683D01*
X145786943Y-66039691D01*
X145921020Y-66217238D01*
X146085437Y-66367123D01*
X146085439Y-66367125D01*
X146274595Y-66484245D01*
X146274596Y-66484245D01*
X146274599Y-66484247D01*
X146482060Y-66564618D01*
X146700757Y-66605500D01*
X146700759Y-66605500D01*
X146923241Y-66605500D01*
X146923243Y-66605500D01*
X146936617Y-66603000D01*
X148939000Y-66603000D01*
X148939000Y-68105000D01*
X150441000Y-68105000D01*
X150441000Y-66603000D01*
X151439000Y-66603000D01*
X151439000Y-68105000D01*
X152941000Y-68105000D01*
X153939000Y-68105000D01*
X154959000Y-68105000D01*
X154959000Y-67543068D01*
X154703960Y-67590744D01*
X154698307Y-67591666D01*
X154663984Y-67596454D01*
X154658294Y-67597114D01*
X154612368Y-67601370D01*
X154606654Y-67601767D01*
X154572033Y-67603368D01*
X154566305Y-67603500D01*
X154297695Y-67603500D01*
X154291967Y-67603368D01*
X154257346Y-67601767D01*
X154251632Y-67601370D01*
X154205706Y-67597114D01*
X154200016Y-67596454D01*
X154165693Y-67591666D01*
X154160040Y-67590744D01*
X153939000Y-67549424D01*
X153939000Y-68105000D01*
X152941000Y-68105000D01*
X152941000Y-67020703D01*
X152851627Y-66939229D01*
X152847484Y-66935273D01*
X152822976Y-66910765D01*
X152819019Y-66906621D01*
X152787948Y-66872537D01*
X152784188Y-66868217D01*
X152762050Y-66841557D01*
X152758494Y-66837067D01*
X152596626Y-66622719D01*
X152593281Y-66618070D01*
X152582958Y-66603000D01*
X151439000Y-66603000D01*
X150441000Y-66603000D01*
X148939000Y-66603000D01*
X146936617Y-66603000D01*
X147141940Y-66564618D01*
X147349401Y-66484247D01*
X147538562Y-66367124D01*
X147702981Y-66217236D01*
X147837058Y-66039689D01*
X147936229Y-65840528D01*
X147997115Y-65626536D01*
X148017643Y-65405000D01*
X147997115Y-65183464D01*
X147936229Y-64969472D01*
X147936224Y-64969461D01*
X147837061Y-64770316D01*
X147837056Y-64770308D01*
X147702979Y-64592761D01*
X147538562Y-64442876D01*
X147538560Y-64442874D01*
X147349404Y-64325754D01*
X147349398Y-64325752D01*
X147141940Y-64245382D01*
X146923243Y-64204500D01*
X146700757Y-64204500D01*
X146482060Y-64245382D01*
X146350864Y-64296207D01*
X146274601Y-64325752D01*
X146274595Y-64325754D01*
X146085439Y-64442874D01*
X146085437Y-64442876D01*
X145921020Y-64592761D01*
X145786943Y-64770308D01*
X145786938Y-64770316D01*
X145687775Y-64969461D01*
X145687769Y-64969476D01*
X145626885Y-65183462D01*
X145626884Y-65183464D01*
X145606357Y-65404999D01*
X145606357Y-65405000D01*
X143615500Y-65405000D01*
X143615500Y-64967737D01*
X143617224Y-64952123D01*
X143616938Y-64952096D01*
X143617672Y-64944333D01*
X143615561Y-64877144D01*
X143615500Y-64873250D01*
X143615500Y-64845651D01*
X143615500Y-64845650D01*
X143614997Y-64841670D01*
X143614080Y-64830021D01*
X143612709Y-64786373D01*
X143607122Y-64767144D01*
X143603174Y-64748084D01*
X143600664Y-64728208D01*
X143584585Y-64687597D01*
X143580804Y-64676552D01*
X143568619Y-64634612D01*
X143558418Y-64617363D01*
X143549860Y-64599894D01*
X143542486Y-64581268D01*
X143542483Y-64581264D01*
X143542483Y-64581263D01*
X143516816Y-64545935D01*
X143510403Y-64536172D01*
X143488172Y-64498583D01*
X143488170Y-64498579D01*
X143488166Y-64498575D01*
X143488163Y-64498571D01*
X143474005Y-64484413D01*
X143461370Y-64469620D01*
X143449593Y-64453412D01*
X143415945Y-64425576D01*
X143407304Y-64417713D01*
X143092591Y-64103000D01*
X148939000Y-64103000D01*
X148939000Y-64847026D01*
X148963326Y-64932524D01*
X148964766Y-64938067D01*
X148972699Y-64971795D01*
X148973881Y-64977398D01*
X148982357Y-65022734D01*
X148983280Y-65028391D01*
X148988069Y-65062724D01*
X148988729Y-65068413D01*
X149013514Y-65335879D01*
X149013911Y-65341596D01*
X149015511Y-65376214D01*
X149015643Y-65381939D01*
X149015643Y-65428061D01*
X149015511Y-65433786D01*
X149013911Y-65468404D01*
X149013514Y-65474121D01*
X149001386Y-65605000D01*
X150441000Y-65605000D01*
X150441000Y-64103000D01*
X151439000Y-64103000D01*
X151439000Y-65605000D01*
X152242614Y-65605000D01*
X152230486Y-65474121D01*
X152230089Y-65468404D01*
X152228489Y-65433786D01*
X152228357Y-65428061D01*
X152228357Y-65405000D01*
X153226357Y-65405000D01*
X153246884Y-65626535D01*
X153246885Y-65626537D01*
X153307769Y-65840523D01*
X153307775Y-65840538D01*
X153406938Y-66039683D01*
X153406943Y-66039691D01*
X153541020Y-66217238D01*
X153705437Y-66367123D01*
X153705439Y-66367125D01*
X153894595Y-66484245D01*
X153894596Y-66484245D01*
X153894599Y-66484247D01*
X154102060Y-66564618D01*
X154320757Y-66605500D01*
X154320759Y-66605500D01*
X154543241Y-66605500D01*
X154543243Y-66605500D01*
X154761940Y-66564618D01*
X154969401Y-66484247D01*
X155158562Y-66367124D01*
X155322981Y-66217236D01*
X155457058Y-66039689D01*
X155556229Y-65840528D01*
X155617115Y-65626536D01*
X155637643Y-65405000D01*
X155617115Y-65183464D01*
X155556229Y-64969472D01*
X155556224Y-64969461D01*
X155457061Y-64770316D01*
X155457056Y-64770308D01*
X155322979Y-64592761D01*
X155158562Y-64442876D01*
X155158560Y-64442874D01*
X154969404Y-64325754D01*
X154969398Y-64325752D01*
X154761940Y-64245382D01*
X154543243Y-64204500D01*
X154320757Y-64204500D01*
X154102060Y-64245382D01*
X153970864Y-64296207D01*
X153894601Y-64325752D01*
X153894595Y-64325754D01*
X153705439Y-64442874D01*
X153705437Y-64442876D01*
X153541020Y-64592761D01*
X153406943Y-64770308D01*
X153406938Y-64770316D01*
X153307775Y-64969461D01*
X153307769Y-64969476D01*
X153246885Y-65183462D01*
X153246884Y-65183464D01*
X153226357Y-65404999D01*
X153226357Y-65405000D01*
X152228357Y-65405000D01*
X152228357Y-65381939D01*
X152228489Y-65376214D01*
X152230089Y-65341596D01*
X152230486Y-65335879D01*
X152255271Y-65068413D01*
X152255931Y-65062724D01*
X152260720Y-65028391D01*
X152261643Y-65022734D01*
X152270119Y-64977398D01*
X152271301Y-64971795D01*
X152279234Y-64938067D01*
X152280674Y-64932524D01*
X152354176Y-64674192D01*
X152355869Y-64668723D01*
X152366871Y-64635895D01*
X152368813Y-64630515D01*
X152385470Y-64587506D01*
X152387664Y-64582208D01*
X152401675Y-64550472D01*
X152404112Y-64545281D01*
X152523851Y-64304815D01*
X152526523Y-64299747D01*
X152543391Y-64269464D01*
X152546293Y-64264525D01*
X152570573Y-64225313D01*
X152573700Y-64220514D01*
X152593281Y-64191930D01*
X152596626Y-64187281D01*
X152660272Y-64103000D01*
X151439000Y-64103000D01*
X150441000Y-64103000D01*
X148939000Y-64103000D01*
X143092591Y-64103000D01*
X140592591Y-61603000D01*
X142003975Y-61603000D01*
X142941000Y-62540025D01*
X142941000Y-61603000D01*
X143939000Y-61603000D01*
X143939000Y-63105000D01*
X145441000Y-63105000D01*
X153939000Y-63105000D01*
X154959000Y-63105000D01*
X154959000Y-61603000D01*
X154523500Y-61603000D01*
X154523500Y-61971248D01*
X154523455Y-61974572D01*
X154522916Y-61994674D01*
X154522783Y-61997994D01*
X154521351Y-62024680D01*
X154521129Y-62027989D01*
X154519519Y-62047982D01*
X154519208Y-62051285D01*
X154508038Y-62155175D01*
X154506971Y-62162843D01*
X154499064Y-62209029D01*
X154497519Y-62216619D01*
X154483174Y-62277330D01*
X154481158Y-62284809D01*
X154467550Y-62329672D01*
X154465071Y-62337012D01*
X154391413Y-62534502D01*
X154388025Y-62542682D01*
X154365767Y-62591419D01*
X154361805Y-62599333D01*
X154327628Y-62661923D01*
X154323110Y-62669537D01*
X154294146Y-62714604D01*
X154289098Y-62721874D01*
X154160114Y-62894173D01*
X154154561Y-62901064D01*
X154119481Y-62941549D01*
X154113449Y-62948028D01*
X154063028Y-62998449D01*
X154056549Y-63004481D01*
X154016064Y-63039561D01*
X154009173Y-63045115D01*
X153939000Y-63097646D01*
X153939000Y-63105000D01*
X145441000Y-63105000D01*
X145441000Y-62789787D01*
X145432316Y-62782432D01*
X145428473Y-62779038D01*
X145398115Y-62751090D01*
X145394417Y-62747541D01*
X145372500Y-62725623D01*
X145368953Y-62721927D01*
X145178197Y-62514711D01*
X145174801Y-62510865D01*
X145154751Y-62487190D01*
X145151520Y-62483211D01*
X145126177Y-62450647D01*
X145123115Y-62446541D01*
X145105109Y-62421321D01*
X145102220Y-62417091D01*
X144948177Y-62181314D01*
X144945463Y-62176967D01*
X144929591Y-62150331D01*
X144927059Y-62145875D01*
X144907418Y-62109583D01*
X144905070Y-62105021D01*
X144891451Y-62077161D01*
X144889297Y-62072514D01*
X144776164Y-61814597D01*
X144774203Y-61809863D01*
X144762940Y-61780999D01*
X144761178Y-61776193D01*
X144747777Y-61737165D01*
X144746212Y-61732280D01*
X144737357Y-61702540D01*
X144735995Y-61697595D01*
X144712040Y-61603000D01*
X143939000Y-61603000D01*
X142941000Y-61603000D01*
X142003975Y-61603000D01*
X140592591Y-61603000D01*
X140554318Y-61564727D01*
X140520833Y-61503404D01*
X140517999Y-61477046D01*
X140517999Y-60960005D01*
X145619529Y-60960005D01*
X145639379Y-61199559D01*
X145698389Y-61432589D01*
X145794951Y-61652729D01*
X145926427Y-61853966D01*
X145926429Y-61853969D01*
X146089236Y-62030825D01*
X146089239Y-62030827D01*
X146089242Y-62030830D01*
X146278924Y-62178466D01*
X146278930Y-62178470D01*
X146278933Y-62178472D01*
X146490344Y-62292882D01*
X146490347Y-62292883D01*
X146717699Y-62370933D01*
X146717701Y-62370933D01*
X146717703Y-62370934D01*
X146954808Y-62410500D01*
X146954809Y-62410500D01*
X147195191Y-62410500D01*
X147195192Y-62410500D01*
X147432297Y-62370934D01*
X147659656Y-62292882D01*
X147871067Y-62178472D01*
X147915627Y-62143790D01*
X147997833Y-62079806D01*
X148060764Y-62030825D01*
X148223571Y-61853969D01*
X148223577Y-61853959D01*
X148226717Y-61849926D01*
X148228549Y-61851352D01*
X148274262Y-61812287D01*
X148343487Y-61802817D01*
X148406842Y-61832276D01*
X148422597Y-61850459D01*
X148423283Y-61849926D01*
X148426427Y-61853966D01*
X148426429Y-61853969D01*
X148589236Y-62030825D01*
X148589239Y-62030827D01*
X148589242Y-62030830D01*
X148778924Y-62178466D01*
X148778930Y-62178470D01*
X148778933Y-62178472D01*
X148990344Y-62292882D01*
X148990347Y-62292883D01*
X149217699Y-62370933D01*
X149217701Y-62370933D01*
X149217703Y-62370934D01*
X149454808Y-62410500D01*
X149454809Y-62410500D01*
X149695191Y-62410500D01*
X149695192Y-62410500D01*
X149932297Y-62370934D01*
X150159656Y-62292882D01*
X150371067Y-62178472D01*
X150485674Y-62089269D01*
X150550667Y-62063627D01*
X150619207Y-62077193D01*
X150669532Y-62125661D01*
X150678018Y-62143790D01*
X150681202Y-62152328D01*
X150681206Y-62152335D01*
X150767452Y-62267544D01*
X150767455Y-62267547D01*
X150882664Y-62353793D01*
X150882671Y-62353797D01*
X151017517Y-62404091D01*
X151017516Y-62404091D01*
X151024444Y-62404835D01*
X151077127Y-62410500D01*
X153072872Y-62410499D01*
X153132483Y-62404091D01*
X153267331Y-62353796D01*
X153382546Y-62267546D01*
X153468796Y-62152331D01*
X153519091Y-62017483D01*
X153525500Y-61957873D01*
X153525499Y-59962128D01*
X153519091Y-59902517D01*
X153517697Y-59898780D01*
X153468797Y-59767671D01*
X153468793Y-59767664D01*
X153382547Y-59652455D01*
X153382544Y-59652452D01*
X153267335Y-59566206D01*
X153267328Y-59566202D01*
X153132482Y-59515908D01*
X153132483Y-59515908D01*
X153072883Y-59509501D01*
X153072881Y-59509500D01*
X153072873Y-59509500D01*
X153072864Y-59509500D01*
X151077129Y-59509500D01*
X151077123Y-59509501D01*
X151017516Y-59515908D01*
X150882671Y-59566202D01*
X150882664Y-59566206D01*
X150767455Y-59652452D01*
X150767452Y-59652455D01*
X150681206Y-59767664D01*
X150681201Y-59767674D01*
X150678017Y-59776211D01*
X150636145Y-59832144D01*
X150570680Y-59856560D01*
X150502408Y-59841707D01*
X150485674Y-59830729D01*
X150371075Y-59741533D01*
X150371069Y-59741529D01*
X150159657Y-59627118D01*
X150159652Y-59627116D01*
X149932300Y-59549066D01*
X149754468Y-59519391D01*
X149695192Y-59509500D01*
X149454808Y-59509500D01*
X149416407Y-59515908D01*
X149217699Y-59549066D01*
X148990347Y-59627116D01*
X148990342Y-59627118D01*
X148778930Y-59741529D01*
X148778924Y-59741533D01*
X148589242Y-59889169D01*
X148589239Y-59889172D01*
X148589236Y-59889174D01*
X148589236Y-59889175D01*
X148558922Y-59922105D01*
X148426430Y-60066029D01*
X148423283Y-60070074D01*
X148421464Y-60068658D01*
X148375659Y-60107748D01*
X148306427Y-60117169D01*
X148243093Y-60087666D01*
X148227392Y-60069547D01*
X148226717Y-60070074D01*
X148223569Y-60066029D01*
X148178708Y-60017297D01*
X148060764Y-59889175D01*
X148060759Y-59889171D01*
X148060757Y-59889169D01*
X147871075Y-59741533D01*
X147871069Y-59741529D01*
X147659657Y-59627118D01*
X147659652Y-59627116D01*
X147432300Y-59549066D01*
X147254468Y-59519391D01*
X147195192Y-59509500D01*
X146954808Y-59509500D01*
X146916407Y-59515908D01*
X146717699Y-59549066D01*
X146490347Y-59627116D01*
X146490342Y-59627118D01*
X146278930Y-59741529D01*
X146278924Y-59741533D01*
X146089242Y-59889169D01*
X146089239Y-59889172D01*
X146089236Y-59889174D01*
X146089236Y-59889175D01*
X146058922Y-59922105D01*
X145926430Y-60066029D01*
X145926427Y-60066033D01*
X145794951Y-60267270D01*
X145698389Y-60487410D01*
X145639379Y-60720440D01*
X145619529Y-60959994D01*
X145619529Y-60960005D01*
X140517999Y-60960005D01*
X140517999Y-59912129D01*
X140517998Y-59912123D01*
X140516965Y-59902517D01*
X140511591Y-59852517D01*
X140507981Y-59842839D01*
X140461297Y-59717671D01*
X140461293Y-59717664D01*
X140375047Y-59602455D01*
X140375044Y-59602452D01*
X140259835Y-59516206D01*
X140259828Y-59516202D01*
X140124982Y-59465908D01*
X140124983Y-59465908D01*
X140065383Y-59459501D01*
X140065381Y-59459500D01*
X140065373Y-59459500D01*
X140065364Y-59459500D01*
X138064629Y-59459500D01*
X138064623Y-59459501D01*
X138005016Y-59465908D01*
X137870171Y-59516202D01*
X137870164Y-59516206D01*
X137754955Y-59602452D01*
X137754952Y-59602455D01*
X137668706Y-59717664D01*
X137668702Y-59717671D01*
X137657091Y-59748804D01*
X137615220Y-59804738D01*
X137549756Y-59829155D01*
X137481483Y-59814303D01*
X137464747Y-59803324D01*
X137322168Y-59692350D01*
X137322159Y-59692344D01*
X137110468Y-59577784D01*
X137110454Y-59577778D01*
X136882791Y-59499619D01*
X136775000Y-59481633D01*
X136775000Y-60468316D01*
X136746181Y-60450791D01*
X136600596Y-60410000D01*
X136487378Y-60410000D01*
X136375217Y-60425416D01*
X136275000Y-60468946D01*
X136275000Y-59481633D01*
X136274999Y-59481633D01*
X136167208Y-59499619D01*
X135939545Y-59577778D01*
X135939531Y-59577784D01*
X135727840Y-59692344D01*
X135727831Y-59692350D01*
X135537883Y-59840193D01*
X135537873Y-59840202D01*
X135374851Y-60017289D01*
X135374846Y-60017297D01*
X135359104Y-60041390D01*
X135305955Y-60086745D01*
X135236724Y-60096165D01*
X135173389Y-60066660D01*
X135151489Y-60041384D01*
X135135555Y-60016994D01*
X135072759Y-59948780D01*
X134972463Y-59839829D01*
X134815505Y-59717664D01*
X134782441Y-59691929D01*
X134570665Y-59577321D01*
X134570656Y-59577318D01*
X134342916Y-59499134D01*
X134143800Y-59465908D01*
X134105399Y-59459500D01*
X133864601Y-59459500D01*
X133826200Y-59465908D01*
X133627083Y-59499134D01*
X133399343Y-59577318D01*
X133399334Y-59577321D01*
X133187558Y-59691929D01*
X133053456Y-59796305D01*
X132997537Y-59839829D01*
X132997534Y-59839831D01*
X132997534Y-59839832D01*
X132834449Y-60016990D01*
X132702743Y-60218581D01*
X132606017Y-60439094D01*
X132546904Y-60672527D01*
X132532000Y-60852389D01*
X132532000Y-61067610D01*
X132546904Y-61247472D01*
X132546904Y-61247475D01*
X132546905Y-61247476D01*
X132606017Y-61480905D01*
X132702745Y-61701422D01*
X132834449Y-61903010D01*
X132997537Y-62080171D01*
X133121901Y-62176967D01*
X133187022Y-62227653D01*
X133187561Y-62228072D01*
X133307321Y-62292883D01*
X133398478Y-62342215D01*
X133399336Y-62342679D01*
X133431722Y-62353797D01*
X133627083Y-62420865D01*
X133627085Y-62420865D01*
X133627087Y-62420866D01*
X133864601Y-62460500D01*
X133864602Y-62460500D01*
X134105398Y-62460500D01*
X134105399Y-62460500D01*
X134342913Y-62420866D01*
X134570664Y-62342679D01*
X134782439Y-62228072D01*
X134972463Y-62080171D01*
X135135551Y-61903010D01*
X135151489Y-61878613D01*
X135204631Y-61833258D01*
X135273862Y-61823831D01*
X135337199Y-61853330D01*
X135359106Y-61878611D01*
X135374847Y-61902704D01*
X135374851Y-61902710D01*
X135537873Y-62079797D01*
X135537883Y-62079806D01*
X135727831Y-62227649D01*
X135727840Y-62227655D01*
X135939531Y-62342215D01*
X135939545Y-62342221D01*
X136167207Y-62420379D01*
X136275000Y-62438366D01*
X136275000Y-61451683D01*
X136303819Y-61469209D01*
X136449404Y-61510000D01*
X136562622Y-61510000D01*
X136674783Y-61494584D01*
X136775000Y-61451053D01*
X136775000Y-62438365D01*
X136882792Y-62420379D01*
X137110454Y-62342221D01*
X137110468Y-62342215D01*
X137322159Y-62227655D01*
X137322162Y-62227653D01*
X137464746Y-62116675D01*
X137529740Y-62091032D01*
X137598280Y-62104598D01*
X137648605Y-62153066D01*
X137657091Y-62171196D01*
X137668701Y-62202326D01*
X137668706Y-62202335D01*
X137754952Y-62317544D01*
X137754955Y-62317547D01*
X137870164Y-62403793D01*
X137870171Y-62403797D01*
X138005017Y-62454091D01*
X138005016Y-62454091D01*
X138011944Y-62454835D01*
X138064627Y-62460500D01*
X139629546Y-62460499D01*
X139696585Y-62480184D01*
X139717227Y-62496818D01*
X142328181Y-65107771D01*
X142361666Y-65169094D01*
X142364500Y-65195452D01*
X142364500Y-74477901D01*
X142362775Y-74493518D01*
X142363061Y-74493545D01*
X142362326Y-74501311D01*
X142364439Y-74568518D01*
X142364500Y-74572413D01*
X142364500Y-74600003D01*
X142365003Y-74603981D01*
X142365918Y-74615613D01*
X142367290Y-74659270D01*
X142367291Y-74659273D01*
X142372880Y-74678512D01*
X142376827Y-74697573D01*
X142378254Y-74708878D01*
X142367120Y-74777855D01*
X142342912Y-74812088D01*
X142315000Y-74840000D01*
X142315000Y-76590000D01*
X141815000Y-76590000D01*
X141815000Y-74840000D01*
X141096423Y-74840000D01*
X141096411Y-74840001D01*
X141043808Y-74842794D01*
X140814012Y-74887237D01*
X140595024Y-74969879D01*
X140393158Y-75088339D01*
X140393151Y-75088344D01*
X140214213Y-75239211D01*
X140214211Y-75239213D01*
X140063344Y-75418151D01*
X140063339Y-75418158D01*
X139944879Y-75620024D01*
X139862237Y-75839012D01*
X139817794Y-76068808D01*
X139817794Y-76068809D01*
X139815001Y-76121382D01*
X139815000Y-76121421D01*
X139815000Y-76840000D01*
X140631314Y-76840000D01*
X140605507Y-76880156D01*
X140565000Y-77018111D01*
X140565000Y-77161889D01*
X140605507Y-77299844D01*
X140631314Y-77340000D01*
X139815001Y-77340000D01*
X139815001Y-78058588D01*
X139817794Y-78111191D01*
X139862237Y-78340987D01*
X139944879Y-78559975D01*
X140063339Y-78761841D01*
X140063344Y-78761848D01*
X140214211Y-78940786D01*
X140214213Y-78940788D01*
X140393151Y-79091655D01*
X140393158Y-79091660D01*
X140595024Y-79210120D01*
X140814012Y-79292762D01*
X141043809Y-79337205D01*
X141096382Y-79339998D01*
X141096421Y-79339999D01*
X141814999Y-79339999D01*
X141815000Y-79339998D01*
X141815000Y-77590000D01*
X142315000Y-77590000D01*
X142315000Y-79339999D01*
X143033576Y-79339999D01*
X143033588Y-79339998D01*
X143086191Y-79337205D01*
X143315987Y-79292762D01*
X143478718Y-79231350D01*
X143548390Y-79226097D01*
X143609842Y-79259345D01*
X143643563Y-79320538D01*
X143646500Y-79347364D01*
X143646500Y-79708851D01*
X143626815Y-79775890D01*
X143610181Y-79796532D01*
X140140814Y-83265898D01*
X140079491Y-83299383D01*
X140009799Y-83294399D01*
X139976971Y-83276071D01*
X139862440Y-83186929D01*
X139862439Y-83186928D01*
X139758097Y-83130461D01*
X139650665Y-83072321D01*
X139650656Y-83072318D01*
X139422916Y-82994134D01*
X139223800Y-82960908D01*
X139185399Y-82954500D01*
X138944601Y-82954500D01*
X138906200Y-82960908D01*
X138707083Y-82994134D01*
X138479343Y-83072318D01*
X138479334Y-83072321D01*
X138267558Y-83186929D01*
X138133456Y-83291305D01*
X138077537Y-83334829D01*
X137914449Y-83511990D01*
X137898808Y-83535931D01*
X137845661Y-83581287D01*
X137776430Y-83590710D01*
X137713094Y-83561207D01*
X137691192Y-83535931D01*
X137675551Y-83511990D01*
X137512463Y-83334829D01*
X137378358Y-83230451D01*
X137322441Y-83186929D01*
X137110665Y-83072321D01*
X137110656Y-83072318D01*
X136882916Y-82994134D01*
X136683800Y-82960908D01*
X136645399Y-82954500D01*
X136404601Y-82954500D01*
X136366200Y-82960908D01*
X136167083Y-82994134D01*
X135939343Y-83072318D01*
X135939334Y-83072321D01*
X135727559Y-83186929D01*
X135585069Y-83297833D01*
X135520075Y-83323475D01*
X135451535Y-83309908D01*
X135401210Y-83261440D01*
X135392725Y-83243311D01*
X135381298Y-83212673D01*
X135381293Y-83212664D01*
X135295047Y-83097455D01*
X135295044Y-83097452D01*
X135179835Y-83011206D01*
X135179828Y-83011202D01*
X135044982Y-82960908D01*
X135044983Y-82960908D01*
X134985383Y-82954501D01*
X134985381Y-82954500D01*
X134985373Y-82954500D01*
X134985364Y-82954500D01*
X132984629Y-82954500D01*
X132984623Y-82954501D01*
X132925016Y-82960908D01*
X132790171Y-83011202D01*
X132790164Y-83011206D01*
X132674955Y-83097452D01*
X132674952Y-83097455D01*
X132588706Y-83212664D01*
X132588702Y-83212671D01*
X132538408Y-83347517D01*
X132532001Y-83407116D01*
X132532000Y-83407135D01*
X132532000Y-85502870D01*
X131191000Y-85502870D01*
X131191000Y-81603000D01*
X133939000Y-81603000D01*
X133939000Y-81956500D01*
X134998748Y-81956500D01*
X135002072Y-81956545D01*
X135022174Y-81957084D01*
X135025494Y-81957217D01*
X135052180Y-81958649D01*
X135055489Y-81958871D01*
X135075482Y-81960481D01*
X135078785Y-81960792D01*
X135182675Y-81971962D01*
X135190343Y-81973029D01*
X135236529Y-81980936D01*
X135244119Y-81982481D01*
X135304830Y-81996826D01*
X135312309Y-81998842D01*
X135357172Y-82012450D01*
X135364512Y-82014929D01*
X135441000Y-82043456D01*
X135441000Y-81603000D01*
X136439000Y-81603000D01*
X136439000Y-81956500D01*
X136666031Y-81956500D01*
X136671154Y-81956606D01*
X136702134Y-81957887D01*
X136707252Y-81958205D01*
X136748375Y-81961613D01*
X136753471Y-81962141D01*
X136784240Y-81965976D01*
X136789313Y-81966715D01*
X137067525Y-82013140D01*
X137072562Y-82014088D01*
X137102904Y-82020450D01*
X137107894Y-82021605D01*
X137147897Y-82031734D01*
X137152841Y-82033095D01*
X137182565Y-82041944D01*
X137187447Y-82043508D01*
X137454227Y-82135094D01*
X137459041Y-82136859D01*
X137487922Y-82148129D01*
X137492652Y-82150088D01*
X137530440Y-82166662D01*
X137535094Y-82168819D01*
X137562956Y-82182440D01*
X137567512Y-82184785D01*
X137794999Y-82307894D01*
X137941000Y-82228883D01*
X137941000Y-81603000D01*
X138939000Y-81603000D01*
X138939000Y-81956500D01*
X139206031Y-81956500D01*
X139211154Y-81956606D01*
X139242134Y-81957887D01*
X139247252Y-81958205D01*
X139288375Y-81961613D01*
X139293471Y-81962141D01*
X139324240Y-81965976D01*
X139329313Y-81966715D01*
X139607525Y-82013140D01*
X139612562Y-82014088D01*
X139642904Y-82020450D01*
X139647894Y-82021605D01*
X139687897Y-82031734D01*
X139692841Y-82033095D01*
X139722565Y-82041944D01*
X139727447Y-82043508D01*
X139894477Y-82100849D01*
X140392327Y-81603000D01*
X138939000Y-81603000D01*
X137941000Y-81603000D01*
X136439000Y-81603000D01*
X135441000Y-81603000D01*
X133939000Y-81603000D01*
X131191000Y-81603000D01*
X131191000Y-79103000D01*
X132315000Y-79103000D01*
X132315000Y-80605000D01*
X132941000Y-80605000D01*
X132941000Y-79103000D01*
X133939000Y-79103000D01*
X133939000Y-80605000D01*
X135441000Y-80605000D01*
X135441000Y-79103000D01*
X136439000Y-79103000D01*
X136439000Y-80605000D01*
X137941000Y-80605000D01*
X137941000Y-79103000D01*
X138939000Y-79103000D01*
X138939000Y-80605000D01*
X140441000Y-80605000D01*
X140441000Y-80218696D01*
X140222828Y-80136362D01*
X140217945Y-80134400D01*
X140188652Y-80121901D01*
X140183853Y-80119731D01*
X140145614Y-80101458D01*
X140140914Y-80099088D01*
X140112792Y-80084152D01*
X140108198Y-80081586D01*
X139869781Y-79941678D01*
X139865297Y-79938917D01*
X139838545Y-79921651D01*
X139834187Y-79918706D01*
X139799586Y-79894235D01*
X139795352Y-79891103D01*
X139770153Y-79871625D01*
X139766058Y-79868319D01*
X139554710Y-79690127D01*
X139550757Y-79686648D01*
X139527303Y-79665105D01*
X139523504Y-79661463D01*
X139493537Y-79631496D01*
X139489895Y-79627697D01*
X139468352Y-79604243D01*
X139464873Y-79600290D01*
X139286681Y-79388942D01*
X139283375Y-79384847D01*
X139263897Y-79359648D01*
X139260765Y-79355414D01*
X139236294Y-79320813D01*
X139233349Y-79316455D01*
X139216083Y-79289703D01*
X139213322Y-79285219D01*
X139106392Y-79103000D01*
X138939000Y-79103000D01*
X137941000Y-79103000D01*
X136439000Y-79103000D01*
X135441000Y-79103000D01*
X133939000Y-79103000D01*
X132941000Y-79103000D01*
X132315000Y-79103000D01*
X131191000Y-79103000D01*
X131191000Y-76603000D01*
X132315000Y-76603000D01*
X132315000Y-78105000D01*
X132941000Y-78105000D01*
X132941000Y-76603000D01*
X133939000Y-76603000D01*
X133939000Y-78105000D01*
X135441000Y-78105000D01*
X135441000Y-76603000D01*
X136439000Y-76603000D01*
X136439000Y-78105000D01*
X137941000Y-78105000D01*
X137941000Y-76603000D01*
X136439000Y-76603000D01*
X135441000Y-76603000D01*
X133939000Y-76603000D01*
X132941000Y-76603000D01*
X132315000Y-76603000D01*
X131191000Y-76603000D01*
X131191000Y-74103000D01*
X132315000Y-74103000D01*
X132315000Y-75605000D01*
X132941000Y-75605000D01*
X132941000Y-74103000D01*
X133939000Y-74103000D01*
X133939000Y-75605000D01*
X135441000Y-75605000D01*
X135441000Y-74629582D01*
X136439000Y-74629582D01*
X136439000Y-75605000D01*
X137906765Y-75605000D01*
X137900269Y-75603651D01*
X137895184Y-75602483D01*
X137634906Y-75536899D01*
X137629541Y-75535418D01*
X137597286Y-75525732D01*
X137591992Y-75524012D01*
X137549702Y-75509213D01*
X137544494Y-75507258D01*
X137513258Y-75494728D01*
X137508142Y-75492541D01*
X137262494Y-75380962D01*
X137257478Y-75378547D01*
X137227483Y-75363263D01*
X137222587Y-75360628D01*
X137183621Y-75338519D01*
X137178842Y-75335664D01*
X137150337Y-75317753D01*
X137145693Y-75314687D01*
X136923901Y-75161030D01*
X136919397Y-75157758D01*
X136892595Y-75137350D01*
X136888241Y-75133877D01*
X136853850Y-75105162D01*
X136849661Y-75101503D01*
X136824827Y-75078802D01*
X136820809Y-75074959D01*
X136630041Y-74884191D01*
X136626198Y-74880173D01*
X136603497Y-74855339D01*
X136599838Y-74851150D01*
X136571123Y-74816759D01*
X136567650Y-74812405D01*
X136547242Y-74785603D01*
X136543970Y-74781099D01*
X136439000Y-74629582D01*
X135441000Y-74629582D01*
X135441000Y-74103000D01*
X133939000Y-74103000D01*
X132941000Y-74103000D01*
X132315000Y-74103000D01*
X131191000Y-74103000D01*
X131191000Y-71603000D01*
X132315000Y-71603000D01*
X132315000Y-73105000D01*
X132941000Y-73105000D01*
X132941000Y-71603000D01*
X133939000Y-71603000D01*
X133939000Y-73105000D01*
X135441000Y-73105000D01*
X135441000Y-72140000D01*
X137065000Y-72140000D01*
X138565000Y-72140000D01*
X138565000Y-72640000D01*
X137065001Y-72640000D01*
X137065001Y-73454197D01*
X137075400Y-73586332D01*
X137130377Y-73804519D01*
X137223428Y-74009374D01*
X137223431Y-74009380D01*
X137351559Y-74194323D01*
X137351569Y-74194335D01*
X137510664Y-74353430D01*
X137510676Y-74353440D01*
X137695619Y-74481568D01*
X137695625Y-74481571D01*
X137900480Y-74574622D01*
X138118667Y-74629599D01*
X138250810Y-74639999D01*
X138814999Y-74639999D01*
X138815000Y-74639998D01*
X138815000Y-73823686D01*
X138855156Y-73849493D01*
X138993111Y-73890000D01*
X139136889Y-73890000D01*
X139274844Y-73849493D01*
X139315000Y-73823686D01*
X139315000Y-74639999D01*
X139879182Y-74639999D01*
X139879197Y-74639998D01*
X140011332Y-74629599D01*
X140229519Y-74574622D01*
X140434374Y-74481571D01*
X140434380Y-74481568D01*
X140619323Y-74353440D01*
X140619335Y-74353430D01*
X140778430Y-74194335D01*
X140778440Y-74194323D01*
X140906568Y-74009380D01*
X140906571Y-74009374D01*
X140999622Y-73804519D01*
X141054599Y-73586332D01*
X141064999Y-73454196D01*
X141065000Y-73454184D01*
X141065000Y-72640000D01*
X139565000Y-72640000D01*
X139565000Y-72140000D01*
X141064999Y-72140000D01*
X141064999Y-71325817D01*
X141064998Y-71325802D01*
X141054599Y-71193667D01*
X140999622Y-70975480D01*
X140906571Y-70770625D01*
X140906568Y-70770619D01*
X140778440Y-70585676D01*
X140778430Y-70585664D01*
X140619335Y-70426569D01*
X140619323Y-70426559D01*
X140434380Y-70298431D01*
X140434374Y-70298428D01*
X140229519Y-70205377D01*
X140011332Y-70150400D01*
X139879196Y-70140000D01*
X139315000Y-70140000D01*
X139315000Y-70956313D01*
X139274844Y-70930507D01*
X139136889Y-70890000D01*
X138993111Y-70890000D01*
X138855156Y-70930507D01*
X138815000Y-70956313D01*
X138815000Y-70140000D01*
X138250817Y-70140000D01*
X138250802Y-70140001D01*
X138118667Y-70150400D01*
X137900480Y-70205377D01*
X137695625Y-70298428D01*
X137695619Y-70298431D01*
X137510676Y-70426559D01*
X137510664Y-70426569D01*
X137351569Y-70585664D01*
X137351559Y-70585676D01*
X137223431Y-70770619D01*
X137223428Y-70770625D01*
X137130377Y-70975480D01*
X137075400Y-71193667D01*
X137065000Y-71325803D01*
X137065000Y-72140000D01*
X135441000Y-72140000D01*
X135441000Y-71603000D01*
X133939000Y-71603000D01*
X132941000Y-71603000D01*
X132315000Y-71603000D01*
X131191000Y-71603000D01*
X131191000Y-69103000D01*
X132315000Y-69103000D01*
X132315000Y-70605000D01*
X132941000Y-70605000D01*
X132941000Y-69103000D01*
X133939000Y-69103000D01*
X133939000Y-70605000D01*
X135441000Y-70605000D01*
X135441000Y-69103000D01*
X136439000Y-69103000D01*
X136439000Y-70150417D01*
X136543970Y-69998901D01*
X136547242Y-69994397D01*
X136567650Y-69967595D01*
X136571123Y-69963241D01*
X136599838Y-69928850D01*
X136603497Y-69924661D01*
X136626198Y-69899827D01*
X136630041Y-69895809D01*
X136820809Y-69705041D01*
X136824827Y-69701198D01*
X136849661Y-69678497D01*
X136853850Y-69674838D01*
X136888241Y-69646123D01*
X136892595Y-69642650D01*
X136919397Y-69622242D01*
X136923901Y-69618970D01*
X137145693Y-69465313D01*
X137150337Y-69462247D01*
X137178842Y-69444336D01*
X137183621Y-69441481D01*
X137222587Y-69419372D01*
X137227483Y-69416737D01*
X137257478Y-69401453D01*
X137262494Y-69399038D01*
X137508142Y-69287459D01*
X137513258Y-69285272D01*
X137544494Y-69272742D01*
X137549702Y-69270787D01*
X137591992Y-69255988D01*
X137597286Y-69254268D01*
X137629541Y-69244582D01*
X137634906Y-69243101D01*
X137895184Y-69177517D01*
X137900269Y-69176349D01*
X137931174Y-69169931D01*
X137936303Y-69168978D01*
X137941000Y-69168207D01*
X137941000Y-69103000D01*
X136439000Y-69103000D01*
X135441000Y-69103000D01*
X133939000Y-69103000D01*
X132941000Y-69103000D01*
X132315000Y-69103000D01*
X131191000Y-69103000D01*
X131191000Y-66603000D01*
X132315000Y-66603000D01*
X132315000Y-68105000D01*
X132941000Y-68105000D01*
X132941000Y-66603000D01*
X133939000Y-66603000D01*
X133939000Y-68105000D01*
X135441000Y-68105000D01*
X135441000Y-66603000D01*
X136439000Y-66603000D01*
X136439000Y-68105000D01*
X137941000Y-68105000D01*
X137941000Y-66603000D01*
X138939000Y-66603000D01*
X138939000Y-68105000D01*
X140441000Y-68105000D01*
X140441000Y-66603000D01*
X138939000Y-66603000D01*
X137941000Y-66603000D01*
X136439000Y-66603000D01*
X135441000Y-66603000D01*
X133939000Y-66603000D01*
X132941000Y-66603000D01*
X132315000Y-66603000D01*
X131191000Y-66603000D01*
X131191000Y-64103000D01*
X132315000Y-64103000D01*
X132315000Y-65605000D01*
X132941000Y-65605000D01*
X132941000Y-64103000D01*
X133939000Y-64103000D01*
X133939000Y-65605000D01*
X135441000Y-65605000D01*
X135441000Y-64103000D01*
X136439000Y-64103000D01*
X136439000Y-65605000D01*
X137941000Y-65605000D01*
X137941000Y-64103000D01*
X138939000Y-64103000D01*
X138939000Y-65605000D01*
X140441000Y-65605000D01*
X140441000Y-64631974D01*
X139912025Y-64103000D01*
X138939000Y-64103000D01*
X137941000Y-64103000D01*
X136439000Y-64103000D01*
X135441000Y-64103000D01*
X133939000Y-64103000D01*
X132941000Y-64103000D01*
X132315000Y-64103000D01*
X131191000Y-64103000D01*
X131191000Y-59103000D01*
X141439000Y-59103000D01*
X141439000Y-59483195D01*
X141457569Y-59532982D01*
X141460048Y-59540321D01*
X141473653Y-59585172D01*
X141475668Y-59592648D01*
X141490016Y-59653363D01*
X141491561Y-59660955D01*
X141499472Y-59707160D01*
X141500541Y-59714833D01*
X141511712Y-59818756D01*
X141512022Y-59822061D01*
X141513635Y-59842101D01*
X141513858Y-59845422D01*
X141515286Y-59872105D01*
X141515419Y-59875418D01*
X141515955Y-59895466D01*
X141515999Y-59898780D01*
X141515999Y-60605000D01*
X142941000Y-60605000D01*
X142941000Y-59103000D01*
X143939000Y-59103000D01*
X143939000Y-60605000D01*
X144647939Y-60605000D01*
X144650855Y-60581608D01*
X144651593Y-60576539D01*
X144658383Y-60535839D01*
X144659332Y-60530799D01*
X144665696Y-60500445D01*
X144666851Y-60495450D01*
X144735995Y-60222405D01*
X144737357Y-60217460D01*
X144746212Y-60187720D01*
X144747777Y-60182835D01*
X144761178Y-60143807D01*
X144762940Y-60139001D01*
X144774203Y-60110137D01*
X144776164Y-60105403D01*
X144889297Y-59847486D01*
X144891451Y-59842839D01*
X144905070Y-59814979D01*
X144907418Y-59810417D01*
X144927059Y-59774125D01*
X144929591Y-59769669D01*
X144945463Y-59743033D01*
X144948177Y-59738686D01*
X145102220Y-59502909D01*
X145105109Y-59498679D01*
X145123115Y-59473459D01*
X145126177Y-59469353D01*
X145151520Y-59436789D01*
X145154751Y-59432810D01*
X145174801Y-59409135D01*
X145178197Y-59405289D01*
X145368953Y-59198073D01*
X145372500Y-59194377D01*
X145394417Y-59172459D01*
X145398115Y-59168910D01*
X145428473Y-59140962D01*
X145432316Y-59137568D01*
X145441000Y-59130212D01*
X145441000Y-59103000D01*
X154217886Y-59103000D01*
X154289098Y-59198126D01*
X154294146Y-59205396D01*
X154323110Y-59250463D01*
X154327628Y-59258077D01*
X154361805Y-59320667D01*
X154365767Y-59328581D01*
X154388025Y-59377318D01*
X154391413Y-59385498D01*
X154465069Y-59582982D01*
X154467548Y-59590321D01*
X154481153Y-59635172D01*
X154483168Y-59642648D01*
X154497516Y-59703363D01*
X154499061Y-59710955D01*
X154506972Y-59757160D01*
X154508041Y-59764833D01*
X154519212Y-59868756D01*
X154519522Y-59872061D01*
X154521135Y-59892101D01*
X154521358Y-59895422D01*
X154522786Y-59922105D01*
X154522919Y-59925418D01*
X154523455Y-59945466D01*
X154523499Y-59948780D01*
X154523499Y-60605000D01*
X154959000Y-60605000D01*
X154959000Y-59103000D01*
X154217886Y-59103000D01*
X145441000Y-59103000D01*
X143939000Y-59103000D01*
X142941000Y-59103000D01*
X141439000Y-59103000D01*
X131191000Y-59103000D01*
X131191000Y-58105000D01*
X141734408Y-58105000D01*
X142941000Y-58105000D01*
X142941000Y-56603000D01*
X143939000Y-56603000D01*
X143939000Y-58105000D01*
X145441000Y-58105000D01*
X145441000Y-56603000D01*
X146439000Y-56603000D01*
X146439000Y-58105000D01*
X147941000Y-58105000D01*
X147941000Y-56603000D01*
X148939000Y-56603000D01*
X148939000Y-58105000D01*
X150441000Y-58105000D01*
X150441000Y-56603000D01*
X151439000Y-56603000D01*
X151439000Y-58105000D01*
X152941000Y-58105000D01*
X152941000Y-56603000D01*
X153939000Y-56603000D01*
X153939000Y-58105000D01*
X154959000Y-58105000D01*
X154959000Y-56603000D01*
X153939000Y-56603000D01*
X152941000Y-56603000D01*
X151439000Y-56603000D01*
X150441000Y-56603000D01*
X148939000Y-56603000D01*
X147941000Y-56603000D01*
X146439000Y-56603000D01*
X145441000Y-56603000D01*
X143939000Y-56603000D01*
X142941000Y-56603000D01*
X142728179Y-56603000D01*
X142726693Y-56611430D01*
X142725638Y-56616737D01*
X142718553Y-56648696D01*
X142717267Y-56653951D01*
X142647095Y-56915841D01*
X142645580Y-56921038D01*
X142635731Y-56952273D01*
X142633990Y-56957401D01*
X142619089Y-56998333D01*
X142617130Y-57003371D01*
X142604611Y-57033592D01*
X142602433Y-57038541D01*
X142487857Y-57284249D01*
X142485463Y-57289103D01*
X142470347Y-57318139D01*
X142467746Y-57322880D01*
X142445968Y-57360601D01*
X142443160Y-57365228D01*
X142425578Y-57392825D01*
X142422574Y-57397321D01*
X142267074Y-57619401D01*
X142263877Y-57623761D01*
X142243957Y-57649723D01*
X142240570Y-57653944D01*
X142212571Y-57687313D01*
X142209003Y-57691381D01*
X142186885Y-57715519D01*
X142183143Y-57719428D01*
X141991428Y-57911143D01*
X141987519Y-57914885D01*
X141963381Y-57937003D01*
X141959313Y-57940571D01*
X141925944Y-57968570D01*
X141921723Y-57971957D01*
X141895761Y-57991877D01*
X141891401Y-57995074D01*
X141734408Y-58105000D01*
X131191000Y-58105000D01*
X131191000Y-56743734D01*
X131210685Y-56676695D01*
X131263489Y-56630940D01*
X131332647Y-56620996D01*
X131396203Y-56650021D01*
X131427382Y-56691330D01*
X131497863Y-56842478D01*
X131548974Y-56915472D01*
X132230046Y-56234400D01*
X132242835Y-56315148D01*
X132300359Y-56428045D01*
X132389955Y-56517641D01*
X132502852Y-56575165D01*
X132583599Y-56587953D01*
X131902526Y-57269025D01*
X131975513Y-57320132D01*
X131975521Y-57320136D01*
X132181668Y-57416264D01*
X132181682Y-57416269D01*
X132401389Y-57475139D01*
X132401400Y-57475141D01*
X132627998Y-57494966D01*
X132628002Y-57494966D01*
X132854599Y-57475141D01*
X132854610Y-57475139D01*
X133074317Y-57416269D01*
X133074331Y-57416264D01*
X133280478Y-57320136D01*
X133353471Y-57269024D01*
X132672400Y-56587953D01*
X132753148Y-56575165D01*
X132866045Y-56517641D01*
X132955641Y-56428045D01*
X133013165Y-56315148D01*
X133025953Y-56234400D01*
X133707024Y-56915471D01*
X133758134Y-56842481D01*
X133765340Y-56827028D01*
X133811511Y-56774587D01*
X133878704Y-56755433D01*
X133945585Y-56775646D01*
X133990105Y-56827022D01*
X133997430Y-56842730D01*
X133997432Y-56842734D01*
X134127954Y-57029141D01*
X134288858Y-57190045D01*
X134288861Y-57190047D01*
X134475266Y-57320568D01*
X134681504Y-57416739D01*
X134901308Y-57475635D01*
X135063230Y-57489801D01*
X135127998Y-57495468D01*
X135128000Y-57495468D01*
X135128002Y-57495468D01*
X135184673Y-57490509D01*
X135354692Y-57475635D01*
X135574496Y-57416739D01*
X135780734Y-57320568D01*
X135967139Y-57190047D01*
X136128047Y-57029139D01*
X136258568Y-56842734D01*
X136354739Y-56636496D01*
X136413635Y-56416692D01*
X136421723Y-56324245D01*
X136447174Y-56259179D01*
X136503764Y-56218200D01*
X136573526Y-56214321D01*
X136634311Y-56248774D01*
X136666819Y-56310621D01*
X136668778Y-56324246D01*
X136676858Y-56416600D01*
X136676860Y-56416610D01*
X136735730Y-56636317D01*
X136735735Y-56636331D01*
X136831863Y-56842478D01*
X136882974Y-56915472D01*
X137564046Y-56234400D01*
X137576835Y-56315148D01*
X137634359Y-56428045D01*
X137723955Y-56517641D01*
X137836852Y-56575165D01*
X137917599Y-56587953D01*
X137236526Y-57269025D01*
X137309513Y-57320132D01*
X137309521Y-57320136D01*
X137515668Y-57416264D01*
X137515682Y-57416269D01*
X137735389Y-57475139D01*
X137735400Y-57475141D01*
X137961998Y-57494966D01*
X137962002Y-57494966D01*
X138188599Y-57475141D01*
X138188610Y-57475139D01*
X138408317Y-57416269D01*
X138408331Y-57416264D01*
X138614478Y-57320136D01*
X138687471Y-57269024D01*
X138006400Y-56587953D01*
X138087148Y-56575165D01*
X138200045Y-56517641D01*
X138289641Y-56428045D01*
X138347165Y-56315148D01*
X138359953Y-56234400D01*
X139041024Y-56915471D01*
X139092134Y-56842481D01*
X139099340Y-56827028D01*
X139145511Y-56774587D01*
X139212704Y-56755433D01*
X139279585Y-56775646D01*
X139324105Y-56827022D01*
X139331430Y-56842730D01*
X139331432Y-56842734D01*
X139461954Y-57029141D01*
X139622858Y-57190045D01*
X139622861Y-57190047D01*
X139809266Y-57320568D01*
X140015504Y-57416739D01*
X140235308Y-57475635D01*
X140397230Y-57489801D01*
X140461998Y-57495468D01*
X140462000Y-57495468D01*
X140462002Y-57495468D01*
X140518673Y-57490509D01*
X140688692Y-57475635D01*
X140908496Y-57416739D01*
X141114734Y-57320568D01*
X141301139Y-57190047D01*
X141462047Y-57029139D01*
X141592568Y-56842734D01*
X141688739Y-56636496D01*
X141747635Y-56416692D01*
X141767468Y-56190000D01*
X141747635Y-55963308D01*
X141688739Y-55743504D01*
X141592568Y-55537266D01*
X141462047Y-55350861D01*
X141462045Y-55350858D01*
X141301141Y-55189954D01*
X141114734Y-55059432D01*
X141114732Y-55059431D01*
X140908497Y-54963261D01*
X140908488Y-54963258D01*
X140688697Y-54904366D01*
X140688693Y-54904365D01*
X140688692Y-54904365D01*
X140688691Y-54904364D01*
X140688686Y-54904364D01*
X140462002Y-54884532D01*
X140461998Y-54884532D01*
X140235313Y-54904364D01*
X140235302Y-54904366D01*
X140015511Y-54963258D01*
X140015502Y-54963261D01*
X139809267Y-55059431D01*
X139809265Y-55059432D01*
X139622858Y-55189954D01*
X139461954Y-55350858D01*
X139331432Y-55537265D01*
X139331429Y-55537270D01*
X139324104Y-55552979D01*
X139277929Y-55605417D01*
X139210735Y-55624566D01*
X139143855Y-55604347D01*
X139099341Y-55552973D01*
X139092133Y-55537515D01*
X139092132Y-55537513D01*
X139041025Y-55464526D01*
X138359953Y-56145598D01*
X138347165Y-56064852D01*
X138289641Y-55951955D01*
X138200045Y-55862359D01*
X138087148Y-55804835D01*
X138006401Y-55792046D01*
X138687472Y-55110974D01*
X138614478Y-55059863D01*
X138408331Y-54963735D01*
X138408317Y-54963730D01*
X138188610Y-54904860D01*
X138188599Y-54904858D01*
X137962002Y-54885034D01*
X137961998Y-54885034D01*
X137735400Y-54904858D01*
X137735389Y-54904860D01*
X137515682Y-54963730D01*
X137515673Y-54963734D01*
X137309516Y-55059866D01*
X137309512Y-55059868D01*
X137236526Y-55110973D01*
X137236526Y-55110974D01*
X137917599Y-55792046D01*
X137836852Y-55804835D01*
X137723955Y-55862359D01*
X137634359Y-55951955D01*
X137576835Y-56064852D01*
X137564046Y-56145598D01*
X136882974Y-55464526D01*
X136882973Y-55464526D01*
X136831868Y-55537512D01*
X136831866Y-55537516D01*
X136735734Y-55743673D01*
X136735730Y-55743682D01*
X136676860Y-55963389D01*
X136676858Y-55963399D01*
X136668778Y-56055753D01*
X136643325Y-56120822D01*
X136586734Y-56161800D01*
X136516972Y-56165678D01*
X136456188Y-56131223D01*
X136423681Y-56069376D01*
X136421723Y-56055763D01*
X136413635Y-55963308D01*
X136354739Y-55743504D01*
X136258568Y-55537266D01*
X136128047Y-55350861D01*
X136128045Y-55350858D01*
X135967141Y-55189954D01*
X135780734Y-55059432D01*
X135780732Y-55059431D01*
X135574497Y-54963261D01*
X135574488Y-54963258D01*
X135354697Y-54904366D01*
X135354693Y-54904365D01*
X135354692Y-54904365D01*
X135354691Y-54904364D01*
X135354686Y-54904364D01*
X135128002Y-54884532D01*
X135127998Y-54884532D01*
X134901313Y-54904364D01*
X134901302Y-54904366D01*
X134681511Y-54963258D01*
X134681502Y-54963261D01*
X134475267Y-55059431D01*
X134475265Y-55059432D01*
X134288858Y-55189954D01*
X134127954Y-55350858D01*
X133997432Y-55537265D01*
X133997429Y-55537270D01*
X133990104Y-55552979D01*
X133943929Y-55605417D01*
X133876735Y-55624566D01*
X133809855Y-55604347D01*
X133765341Y-55552973D01*
X133758133Y-55537515D01*
X133758132Y-55537513D01*
X133707025Y-55464526D01*
X133025953Y-56145598D01*
X133013165Y-56064852D01*
X132955641Y-55951955D01*
X132866045Y-55862359D01*
X132753148Y-55804835D01*
X132672401Y-55792046D01*
X133353472Y-55110974D01*
X133280478Y-55059863D01*
X133074331Y-54963735D01*
X133074317Y-54963730D01*
X132854610Y-54904860D01*
X132854599Y-54904858D01*
X132628002Y-54885034D01*
X132627998Y-54885034D01*
X132401400Y-54904858D01*
X132401389Y-54904860D01*
X132181682Y-54963730D01*
X132181673Y-54963734D01*
X131975516Y-55059866D01*
X131975512Y-55059868D01*
X131902526Y-55110973D01*
X131902526Y-55110974D01*
X132583599Y-55792046D01*
X132502852Y-55804835D01*
X132389955Y-55862359D01*
X132300359Y-55951955D01*
X132242835Y-56064852D01*
X132230046Y-56145598D01*
X131548974Y-55464526D01*
X131548973Y-55464526D01*
X131497868Y-55537512D01*
X131497866Y-55537516D01*
X131427382Y-55688670D01*
X131381210Y-55741109D01*
X131314016Y-55760261D01*
X131247135Y-55740045D01*
X131201800Y-55686880D01*
X131191000Y-55636265D01*
X131191000Y-54103000D01*
X141439000Y-54103000D01*
X141439000Y-54109468D01*
X141556249Y-54164143D01*
X141561103Y-54166537D01*
X141590139Y-54181653D01*
X141594880Y-54184254D01*
X141632601Y-54206032D01*
X141637228Y-54208840D01*
X141664825Y-54226422D01*
X141669321Y-54229426D01*
X141891401Y-54384926D01*
X141895761Y-54388123D01*
X141921723Y-54408043D01*
X141925944Y-54411430D01*
X141959313Y-54439429D01*
X141963381Y-54442997D01*
X141987519Y-54465115D01*
X141991428Y-54468857D01*
X142183143Y-54660572D01*
X142186885Y-54664481D01*
X142209003Y-54688619D01*
X142212571Y-54692687D01*
X142240570Y-54726056D01*
X142243957Y-54730277D01*
X142263877Y-54756239D01*
X142267074Y-54760599D01*
X142422574Y-54982679D01*
X142425578Y-54987175D01*
X142443160Y-55014772D01*
X142445968Y-55019399D01*
X142467746Y-55057120D01*
X142470347Y-55061861D01*
X142485463Y-55090897D01*
X142487857Y-55095751D01*
X142602433Y-55341459D01*
X142604611Y-55346408D01*
X142617130Y-55376629D01*
X142619089Y-55381667D01*
X142633990Y-55422599D01*
X142635731Y-55427727D01*
X142645580Y-55458962D01*
X142647095Y-55464159D01*
X142684833Y-55605000D01*
X142941000Y-55605000D01*
X142941000Y-54103000D01*
X143939000Y-54103000D01*
X143939000Y-55605000D01*
X145441000Y-55605000D01*
X145441000Y-54103000D01*
X146439000Y-54103000D01*
X146439000Y-55605000D01*
X147941000Y-55605000D01*
X147941000Y-54103000D01*
X148939000Y-54103000D01*
X148939000Y-55605000D01*
X150441000Y-55605000D01*
X150441000Y-54103000D01*
X151439000Y-54103000D01*
X151439000Y-55605000D01*
X152941000Y-55605000D01*
X152941000Y-54103000D01*
X153939000Y-54103000D01*
X153939000Y-55605000D01*
X154959000Y-55605000D01*
X154959000Y-54103000D01*
X153939000Y-54103000D01*
X152941000Y-54103000D01*
X151439000Y-54103000D01*
X150441000Y-54103000D01*
X148939000Y-54103000D01*
X147941000Y-54103000D01*
X146439000Y-54103000D01*
X145441000Y-54103000D01*
X143939000Y-54103000D01*
X142941000Y-54103000D01*
X141439000Y-54103000D01*
X131191000Y-54103000D01*
X131191000Y-51603000D01*
X132315000Y-51603000D01*
X132315000Y-53105000D01*
X132941000Y-53105000D01*
X132941000Y-51603000D01*
X133939000Y-51603000D01*
X133939000Y-53105000D01*
X135441000Y-53105000D01*
X135441000Y-51603000D01*
X136439000Y-51603000D01*
X136439000Y-53105000D01*
X137941000Y-53105000D01*
X137941000Y-51603000D01*
X138939000Y-51603000D01*
X138939000Y-53105000D01*
X140441000Y-53105000D01*
X140441000Y-51603000D01*
X141439000Y-51603000D01*
X141439000Y-53105000D01*
X142941000Y-53105000D01*
X142941000Y-51603000D01*
X143939000Y-51603000D01*
X143939000Y-53105000D01*
X145441000Y-53105000D01*
X145441000Y-52992820D01*
X145423808Y-52977924D01*
X145417329Y-52971892D01*
X145366908Y-52921471D01*
X145360876Y-52914992D01*
X145325796Y-52874507D01*
X145320243Y-52867616D01*
X145191345Y-52695432D01*
X145186297Y-52688162D01*
X145157333Y-52643095D01*
X145152815Y-52635481D01*
X145118638Y-52572891D01*
X145114677Y-52564977D01*
X145092419Y-52516241D01*
X145089030Y-52508061D01*
X145015421Y-52310704D01*
X145012942Y-52303364D01*
X144999332Y-52258495D01*
X144997315Y-52251012D01*
X144982972Y-52190301D01*
X144981428Y-52182716D01*
X144973522Y-52136538D01*
X144972455Y-52128869D01*
X144961289Y-52025017D01*
X144960977Y-52021705D01*
X144959364Y-52001656D01*
X144959142Y-51998342D01*
X144957713Y-51971655D01*
X144957580Y-51968339D01*
X144957044Y-51948291D01*
X144957000Y-51944977D01*
X144957000Y-51931644D01*
X145955000Y-51931644D01*
X145961401Y-51991172D01*
X145961403Y-51991179D01*
X146011645Y-52125886D01*
X146011649Y-52125893D01*
X146097809Y-52240987D01*
X146097812Y-52240990D01*
X146212906Y-52327150D01*
X146212913Y-52327154D01*
X146347620Y-52377396D01*
X146347627Y-52377398D01*
X146407155Y-52383799D01*
X146407172Y-52383800D01*
X147705000Y-52383800D01*
X147705000Y-51105602D01*
X147866169Y-51143800D01*
X147999267Y-51143800D01*
X148131461Y-51128349D01*
X148205000Y-51101582D01*
X148205000Y-52383800D01*
X149502828Y-52383800D01*
X149502844Y-52383799D01*
X149562372Y-52377398D01*
X149562379Y-52377396D01*
X149697086Y-52327154D01*
X149697093Y-52327150D01*
X149812187Y-52240990D01*
X149812190Y-52240987D01*
X149898350Y-52125893D01*
X149898354Y-52125886D01*
X149948596Y-51991179D01*
X149948598Y-51991172D01*
X149954999Y-51931644D01*
X149955000Y-51931627D01*
X149955000Y-50633800D01*
X148673483Y-50633800D01*
X148708549Y-50516671D01*
X148716288Y-50383800D01*
X151029390Y-50383800D01*
X151049804Y-50669233D01*
X151110628Y-50948837D01*
X151110630Y-50948843D01*
X151110631Y-50948846D01*
X151183345Y-51143800D01*
X151210635Y-51216966D01*
X151347770Y-51468109D01*
X151347775Y-51468117D01*
X151519254Y-51697187D01*
X151519270Y-51697205D01*
X151721594Y-51899529D01*
X151721612Y-51899545D01*
X151950682Y-52071024D01*
X151950690Y-52071029D01*
X152201833Y-52208164D01*
X152201832Y-52208164D01*
X152201836Y-52208165D01*
X152201839Y-52208167D01*
X152469954Y-52308169D01*
X152469960Y-52308170D01*
X152469962Y-52308171D01*
X152749566Y-52368995D01*
X152749568Y-52368995D01*
X152749572Y-52368996D01*
X153003220Y-52387137D01*
X153034999Y-52389410D01*
X153035000Y-52389410D01*
X153035001Y-52389410D01*
X153063595Y-52387364D01*
X153320428Y-52368996D01*
X153600046Y-52308169D01*
X153868161Y-52208167D01*
X154119315Y-52071026D01*
X154348395Y-51899539D01*
X154550739Y-51697195D01*
X154722226Y-51468115D01*
X154859367Y-51216961D01*
X154959369Y-50948846D01*
X155008325Y-50723800D01*
X157394341Y-50723800D01*
X157414936Y-50959203D01*
X157414938Y-50959213D01*
X157476094Y-51187455D01*
X157476096Y-51187459D01*
X157476097Y-51187463D01*
X157489855Y-51216966D01*
X157575965Y-51401630D01*
X157575967Y-51401634D01*
X157684281Y-51556321D01*
X157711505Y-51595201D01*
X157878599Y-51762295D01*
X157954584Y-51815500D01*
X158072165Y-51897832D01*
X158072167Y-51897833D01*
X158072170Y-51897835D01*
X158286337Y-51997703D01*
X158286343Y-51997704D01*
X158286344Y-51997705D01*
X158301090Y-52001656D01*
X158514592Y-52058863D01*
X158702918Y-52075339D01*
X158749999Y-52079459D01*
X158750000Y-52079459D01*
X158750001Y-52079459D01*
X158789234Y-52076026D01*
X158985408Y-52058863D01*
X159213663Y-51997703D01*
X159427830Y-51897835D01*
X159621401Y-51762295D01*
X159788495Y-51595201D01*
X159924035Y-51401630D01*
X160023903Y-51187463D01*
X160085063Y-50959208D01*
X160105659Y-50723800D01*
X160085063Y-50488392D01*
X160023903Y-50260137D01*
X159924035Y-50045971D01*
X159892695Y-50001213D01*
X159788496Y-49852400D01*
X159729433Y-49793337D01*
X159666179Y-49730083D01*
X159632696Y-49668763D01*
X159637680Y-49599071D01*
X159679551Y-49543137D01*
X159710529Y-49526222D01*
X159842086Y-49477154D01*
X159842093Y-49477150D01*
X159957187Y-49390990D01*
X159957190Y-49390987D01*
X160043350Y-49275893D01*
X160043354Y-49275886D01*
X160093596Y-49141179D01*
X160093598Y-49141172D01*
X160099999Y-49081644D01*
X160100000Y-49081627D01*
X160100000Y-48433800D01*
X159183686Y-48433800D01*
X159209493Y-48393644D01*
X159250000Y-48255689D01*
X159250000Y-48111911D01*
X159209493Y-47973956D01*
X159183686Y-47933800D01*
X160100000Y-47933800D01*
X160100000Y-47285972D01*
X160099999Y-47285955D01*
X160093598Y-47226427D01*
X160093596Y-47226420D01*
X160043354Y-47091713D01*
X160043350Y-47091706D01*
X159957190Y-46976612D01*
X159957187Y-46976609D01*
X159842093Y-46890449D01*
X159842086Y-46890445D01*
X159707379Y-46840203D01*
X159707372Y-46840201D01*
X159647844Y-46833800D01*
X159000000Y-46833800D01*
X159000000Y-47748298D01*
X158892315Y-47699120D01*
X158785763Y-47683800D01*
X158714237Y-47683800D01*
X158607685Y-47699120D01*
X158500000Y-47748298D01*
X158500000Y-46833800D01*
X157852155Y-46833800D01*
X157792627Y-46840201D01*
X157792620Y-46840203D01*
X157657913Y-46890445D01*
X157657906Y-46890449D01*
X157542812Y-46976609D01*
X157542809Y-46976612D01*
X157456649Y-47091706D01*
X157456645Y-47091713D01*
X157406403Y-47226420D01*
X157406401Y-47226427D01*
X157400000Y-47285955D01*
X157400000Y-47933800D01*
X158316314Y-47933800D01*
X158290507Y-47973956D01*
X158250000Y-48111911D01*
X158250000Y-48255689D01*
X158290507Y-48393644D01*
X158316314Y-48433800D01*
X157400000Y-48433800D01*
X157400000Y-49081644D01*
X157406401Y-49141172D01*
X157406403Y-49141179D01*
X157456645Y-49275886D01*
X157456649Y-49275893D01*
X157542809Y-49390987D01*
X157542812Y-49390990D01*
X157657906Y-49477150D01*
X157657913Y-49477154D01*
X157789470Y-49526221D01*
X157845403Y-49568092D01*
X157869821Y-49633556D01*
X157854970Y-49701829D01*
X157833819Y-49730084D01*
X157711503Y-49852400D01*
X157575965Y-50045969D01*
X157575964Y-50045971D01*
X157476098Y-50260135D01*
X157476094Y-50260144D01*
X157414938Y-50488386D01*
X157414936Y-50488396D01*
X157394341Y-50723799D01*
X157394341Y-50723800D01*
X155008325Y-50723800D01*
X155020196Y-50669228D01*
X155040610Y-50383800D01*
X155020196Y-50098372D01*
X155016358Y-50080730D01*
X154959371Y-49818762D01*
X154959370Y-49818760D01*
X154959369Y-49818754D01*
X154859367Y-49550639D01*
X154853262Y-49539459D01*
X154722229Y-49299490D01*
X154722224Y-49299482D01*
X154550745Y-49070412D01*
X154550729Y-49070394D01*
X154348405Y-48868070D01*
X154348387Y-48868054D01*
X154119317Y-48696575D01*
X154119309Y-48696570D01*
X153868166Y-48559435D01*
X153868167Y-48559435D01*
X153747954Y-48514598D01*
X153600046Y-48459431D01*
X153600043Y-48459430D01*
X153600037Y-48459428D01*
X153320433Y-48398604D01*
X153035001Y-48378190D01*
X153034999Y-48378190D01*
X152749566Y-48398604D01*
X152469962Y-48459428D01*
X152201833Y-48559435D01*
X151950690Y-48696570D01*
X151950682Y-48696575D01*
X151721612Y-48868054D01*
X151721594Y-48868070D01*
X151519270Y-49070394D01*
X151519254Y-49070412D01*
X151347775Y-49299482D01*
X151347770Y-49299490D01*
X151210635Y-49550633D01*
X151110628Y-49818762D01*
X151049804Y-50098366D01*
X151029390Y-50383798D01*
X151029390Y-50383800D01*
X148716288Y-50383800D01*
X148718879Y-50339309D01*
X148688029Y-50164346D01*
X148674853Y-50133800D01*
X149955000Y-50133800D01*
X149955000Y-48835972D01*
X149954999Y-48835955D01*
X149948598Y-48776427D01*
X149948596Y-48776420D01*
X149898354Y-48641713D01*
X149898350Y-48641706D01*
X149812190Y-48526612D01*
X149812187Y-48526609D01*
X149697093Y-48440449D01*
X149697086Y-48440445D01*
X149562379Y-48390203D01*
X149562372Y-48390201D01*
X149502844Y-48383800D01*
X148205000Y-48383800D01*
X148205000Y-49661997D01*
X148043831Y-49623800D01*
X147910733Y-49623800D01*
X147778539Y-49639251D01*
X147705000Y-49666017D01*
X147705000Y-48383800D01*
X146407155Y-48383800D01*
X146347627Y-48390201D01*
X146347620Y-48390203D01*
X146212913Y-48440445D01*
X146212906Y-48440449D01*
X146097812Y-48526609D01*
X146097809Y-48526612D01*
X146011649Y-48641706D01*
X146011645Y-48641713D01*
X145961403Y-48776420D01*
X145961401Y-48776427D01*
X145955000Y-48835955D01*
X145955000Y-50133800D01*
X147236517Y-50133800D01*
X147201451Y-50250929D01*
X147191121Y-50428291D01*
X147221971Y-50603254D01*
X147235147Y-50633800D01*
X145955000Y-50633800D01*
X145955000Y-51931644D01*
X144957000Y-51931644D01*
X144957000Y-51603000D01*
X143939000Y-51603000D01*
X142941000Y-51603000D01*
X141439000Y-51603000D01*
X140441000Y-51603000D01*
X138939000Y-51603000D01*
X137941000Y-51603000D01*
X136439000Y-51603000D01*
X135441000Y-51603000D01*
X133939000Y-51603000D01*
X132941000Y-51603000D01*
X132315000Y-51603000D01*
X131191000Y-51603000D01*
X131191000Y-49103000D01*
X132315000Y-49103000D01*
X132315000Y-50605000D01*
X132941000Y-50605000D01*
X132941000Y-49103000D01*
X133939000Y-49103000D01*
X133939000Y-50605000D01*
X135441000Y-50605000D01*
X143939000Y-50605000D01*
X144957000Y-50605000D01*
X144957000Y-50433254D01*
X144966439Y-50385802D01*
X144967268Y-50383800D01*
X144966439Y-50381798D01*
X144957000Y-50334346D01*
X144957000Y-49103000D01*
X144402654Y-49103000D01*
X144309328Y-49303137D01*
X144306936Y-49307988D01*
X144291829Y-49337009D01*
X144289229Y-49341749D01*
X144267451Y-49379473D01*
X144264642Y-49384102D01*
X144247050Y-49411716D01*
X144244044Y-49416215D01*
X144083512Y-49645478D01*
X144080311Y-49649842D01*
X144060375Y-49675822D01*
X144056987Y-49680044D01*
X144028986Y-49713411D01*
X144025423Y-49717474D01*
X144003323Y-49741592D01*
X143999581Y-49745500D01*
X143939000Y-49806081D01*
X143939000Y-50605000D01*
X135441000Y-50605000D01*
X135441000Y-50255133D01*
X135325827Y-50168915D01*
X135318936Y-50163361D01*
X135278451Y-50128281D01*
X135271972Y-50122249D01*
X135221551Y-50071828D01*
X135215519Y-50065349D01*
X135180439Y-50024864D01*
X135174886Y-50017973D01*
X135045902Y-49845674D01*
X135040854Y-49838404D01*
X135011890Y-49793337D01*
X135007372Y-49785723D01*
X134973195Y-49723133D01*
X134969233Y-49715219D01*
X134946975Y-49666482D01*
X134943587Y-49658302D01*
X134869931Y-49460818D01*
X134867452Y-49453479D01*
X134853847Y-49408628D01*
X134851832Y-49401152D01*
X134837484Y-49340437D01*
X134835939Y-49332845D01*
X134828028Y-49286640D01*
X134826959Y-49278967D01*
X134815788Y-49175045D01*
X134815477Y-49171736D01*
X134813865Y-49151699D01*
X134813643Y-49148387D01*
X134812214Y-49121705D01*
X134812081Y-49118387D01*
X134811670Y-49103000D01*
X133939000Y-49103000D01*
X132941000Y-49103000D01*
X132315000Y-49103000D01*
X131191000Y-49103000D01*
X131191000Y-49081670D01*
X135809500Y-49081670D01*
X135809501Y-49081676D01*
X135815908Y-49141283D01*
X135866202Y-49276128D01*
X135866206Y-49276135D01*
X135952452Y-49391344D01*
X135952455Y-49391347D01*
X136067664Y-49477593D01*
X136067671Y-49477597D01*
X136202517Y-49527891D01*
X136202516Y-49527891D01*
X136209444Y-49528635D01*
X136262127Y-49534300D01*
X138057872Y-49534299D01*
X138117483Y-49527891D01*
X138252331Y-49477596D01*
X138367546Y-49391346D01*
X138453796Y-49276131D01*
X138502810Y-49144716D01*
X138544681Y-49088784D01*
X138610145Y-49064366D01*
X138678418Y-49079217D01*
X138706673Y-49100369D01*
X138828599Y-49222295D01*
X138909535Y-49278967D01*
X139022165Y-49357832D01*
X139022167Y-49357833D01*
X139022170Y-49357835D01*
X139236337Y-49457703D01*
X139464592Y-49518863D01*
X139641034Y-49534300D01*
X139699999Y-49539459D01*
X139700000Y-49539459D01*
X139700001Y-49539459D01*
X139758966Y-49534300D01*
X139935408Y-49518863D01*
X140163663Y-49457703D01*
X140377830Y-49357835D01*
X140571401Y-49222295D01*
X140738495Y-49055201D01*
X140868425Y-48869642D01*
X140923002Y-48826017D01*
X140992500Y-48818823D01*
X141054855Y-48850346D01*
X141071575Y-48869642D01*
X141201500Y-49055195D01*
X141201505Y-49055201D01*
X141368599Y-49222295D01*
X141449535Y-49278967D01*
X141562165Y-49357832D01*
X141562167Y-49357833D01*
X141562170Y-49357835D01*
X141776337Y-49457703D01*
X142004592Y-49518863D01*
X142181034Y-49534300D01*
X142239999Y-49539459D01*
X142240000Y-49539459D01*
X142240001Y-49539459D01*
X142298966Y-49534300D01*
X142475408Y-49518863D01*
X142703663Y-49457703D01*
X142917830Y-49357835D01*
X143111401Y-49222295D01*
X143278495Y-49055201D01*
X143414035Y-48861630D01*
X143513903Y-48647463D01*
X143575063Y-48419208D01*
X143595659Y-48183800D01*
X143575063Y-47948392D01*
X143522884Y-47753654D01*
X143513905Y-47720144D01*
X143513904Y-47720143D01*
X143513903Y-47720137D01*
X143414035Y-47505971D01*
X143408425Y-47497958D01*
X143395150Y-47479000D01*
X144482497Y-47479000D01*
X144544695Y-47711134D01*
X144545981Y-47716388D01*
X144553066Y-47748346D01*
X144554121Y-47753654D01*
X144561684Y-47796549D01*
X144562507Y-47801896D01*
X144566778Y-47834339D01*
X144567367Y-47839716D01*
X144590577Y-48105000D01*
X145169869Y-48105000D01*
X145186297Y-48079438D01*
X145191345Y-48072168D01*
X145320243Y-47899984D01*
X145325796Y-47893093D01*
X145360876Y-47852608D01*
X145366908Y-47846129D01*
X145417329Y-47795708D01*
X145423808Y-47789676D01*
X145441000Y-47774779D01*
X145441000Y-47479000D01*
X153939000Y-47479000D01*
X153939000Y-47520695D01*
X154233611Y-47630580D01*
X154237728Y-47632200D01*
X154262449Y-47642439D01*
X154266505Y-47644204D01*
X154298921Y-47659006D01*
X154302918Y-47660918D01*
X154326882Y-47672913D01*
X154330806Y-47674966D01*
X154613253Y-47829194D01*
X154617102Y-47831386D01*
X154640147Y-47845060D01*
X154643917Y-47847389D01*
X154673893Y-47866656D01*
X154677570Y-47869113D01*
X154699550Y-47884375D01*
X154703137Y-47886962D01*
X154960732Y-48079795D01*
X154964224Y-48082507D01*
X154985066Y-48099301D01*
X154988463Y-48102140D01*
X154991764Y-48105000D01*
X155441000Y-48105000D01*
X155441000Y-47479000D01*
X153939000Y-47479000D01*
X145441000Y-47479000D01*
X144482497Y-47479000D01*
X143395150Y-47479000D01*
X143278494Y-47312397D01*
X143111402Y-47145306D01*
X143111395Y-47145301D01*
X142917834Y-47009767D01*
X142917830Y-47009765D01*
X142846727Y-46976609D01*
X142703663Y-46909897D01*
X142703659Y-46909896D01*
X142703655Y-46909894D01*
X142475413Y-46848738D01*
X142475403Y-46848736D01*
X142240001Y-46828141D01*
X142239999Y-46828141D01*
X142004596Y-46848736D01*
X142004586Y-46848738D01*
X141776344Y-46909894D01*
X141776335Y-46909898D01*
X141562171Y-47009764D01*
X141562169Y-47009765D01*
X141368597Y-47145305D01*
X141201505Y-47312397D01*
X141071575Y-47497958D01*
X141016998Y-47541583D01*
X140947500Y-47548777D01*
X140885145Y-47517254D01*
X140868425Y-47497958D01*
X140738494Y-47312397D01*
X140571402Y-47145306D01*
X140571395Y-47145301D01*
X140377834Y-47009767D01*
X140377830Y-47009765D01*
X140306727Y-46976609D01*
X140163663Y-46909897D01*
X140163659Y-46909896D01*
X140163655Y-46909894D01*
X139935413Y-46848738D01*
X139935403Y-46848736D01*
X139700001Y-46828141D01*
X139699999Y-46828141D01*
X139464596Y-46848736D01*
X139464586Y-46848738D01*
X139236344Y-46909894D01*
X139236335Y-46909898D01*
X139022171Y-47009764D01*
X139022169Y-47009765D01*
X138828600Y-47145303D01*
X138706673Y-47267230D01*
X138645350Y-47300714D01*
X138575658Y-47295730D01*
X138519725Y-47253858D01*
X138502810Y-47222881D01*
X138453797Y-47091471D01*
X138453793Y-47091464D01*
X138367547Y-46976255D01*
X138367544Y-46976252D01*
X138252335Y-46890006D01*
X138252328Y-46890002D01*
X138117482Y-46839708D01*
X138117483Y-46839708D01*
X138057883Y-46833301D01*
X138057881Y-46833300D01*
X138057873Y-46833300D01*
X138057864Y-46833300D01*
X136262129Y-46833300D01*
X136262123Y-46833301D01*
X136202516Y-46839708D01*
X136067671Y-46890002D01*
X136067664Y-46890006D01*
X135952455Y-46976252D01*
X135952452Y-46976255D01*
X135866206Y-47091464D01*
X135866202Y-47091471D01*
X135815908Y-47226317D01*
X135809501Y-47285916D01*
X135809500Y-47285935D01*
X135809500Y-49081670D01*
X131191000Y-49081670D01*
X131191000Y-47479000D01*
X133939000Y-47479000D01*
X133939000Y-48105000D01*
X134811501Y-48105000D01*
X134811500Y-47479000D01*
X133939000Y-47479000D01*
X131191000Y-47479000D01*
X131191000Y-47174032D01*
X131210685Y-47106993D01*
X131234302Y-47079884D01*
X132045173Y-46384852D01*
X132108884Y-46356169D01*
X132125871Y-46355000D01*
X159714638Y-46355000D01*
X159781677Y-46374685D01*
G37*
%TD.AperFunction*%
%TD*%
M02*
