%TF.GenerationSoftware,KiCad,Pcbnew,7.0.11*%
%TF.CreationDate,2024-05-22T14:54:00+02:00*%
%TF.ProjectId,Untitled,556e7469-746c-4656-942e-6b696361645f,1.0*%
%TF.SameCoordinates,Original*%
%TF.FileFunction,Copper,L1,Top*%
%TF.FilePolarity,Positive*%
%FSLAX46Y46*%
G04 Gerber Fmt 4.6, Leading zero omitted, Abs format (unit mm)*
G04 Created by KiCad (PCBNEW 7.0.11) date 2024-05-22 14:54:00*
%MOMM*%
%LPD*%
G01*
G04 APERTURE LIST*
%TA.AperFunction,ComponentPad*%
%ADD10R,1.500000X1.500000*%
%TD*%
%TA.AperFunction,ComponentPad*%
%ADD11C,1.500000*%
%TD*%
%TA.AperFunction,ComponentPad*%
%ADD12O,1.700000X1.700000*%
%TD*%
%TA.AperFunction,ComponentPad*%
%ADD13R,1.700000X1.700000*%
%TD*%
%TA.AperFunction,ComponentPad*%
%ADD14C,1.400000*%
%TD*%
%TA.AperFunction,ComponentPad*%
%ADD15O,1.400000X1.400000*%
%TD*%
%TA.AperFunction,Conductor*%
%ADD16C,0.200000*%
%TD*%
G04 APERTURE END LIST*
D10*
%TO.P,Q1,1,C*%
%TO.N,Net-(Q1-C)*%
X81280000Y-106620000D03*
D11*
%TO.P,Q1,2,B*%
%TO.N,Net-(Q1-B)*%
X81280000Y-109220000D03*
%TO.P,Q1,3,E*%
%TO.N,/VMA436_IN_1*%
X81280000Y-111820000D03*
%TD*%
D10*
%TO.P,Q2,1,C*%
%TO.N,Net-(Q2-C)*%
X81280000Y-97730000D03*
D11*
%TO.P,Q2,2,B*%
%TO.N,Net-(Q2-B)*%
X81280000Y-100330000D03*
%TO.P,Q2,3,E*%
%TO.N,/VMA436_IN_2*%
X81280000Y-102930000D03*
%TD*%
D10*
%TO.P,Q3,1,C*%
%TO.N,Net-(Q3-C)*%
X81280000Y-88840000D03*
D11*
%TO.P,Q3,2,B*%
%TO.N,Net-(Q3-B)*%
X81280000Y-91440000D03*
%TO.P,Q3,3,E*%
%TO.N,/VMA436_IN_3*%
X81280000Y-94040000D03*
%TD*%
D10*
%TO.P,Q4,1,C*%
%TO.N,Net-(Q4-C)*%
X81280000Y-79950000D03*
D11*
%TO.P,Q4,2,B*%
%TO.N,Net-(Q4-B)*%
X81280000Y-82550000D03*
%TO.P,Q4,3,E*%
%TO.N,/VMA436_IN_4*%
X81280000Y-85150000D03*
%TD*%
D10*
%TO.P,Q5,1,C*%
%TO.N,Net-(Q5-C)*%
X81280000Y-71060000D03*
D11*
%TO.P,Q5,2,B*%
%TO.N,Net-(Q5-B)*%
X81280000Y-73660000D03*
%TO.P,Q5,3,E*%
%TO.N,/VMA436_IN_5*%
X81280000Y-76260000D03*
%TD*%
D10*
%TO.P,Q6,1,C*%
%TO.N,Net-(Q6-C)*%
X81280000Y-62170000D03*
D11*
%TO.P,Q6,2,B*%
%TO.N,Net-(Q6-B)*%
X81280000Y-64770000D03*
%TO.P,Q6,3,E*%
%TO.N,/VMA436_IN_6*%
X81280000Y-67370000D03*
%TD*%
D10*
%TO.P,Q7,1,C*%
%TO.N,Net-(Q7-C)*%
X81280000Y-53280000D03*
D11*
%TO.P,Q7,2,B*%
%TO.N,Net-(Q7-B)*%
X81280000Y-55880000D03*
%TO.P,Q7,3,E*%
%TO.N,/VMA436_IN_7*%
X81280000Y-58480000D03*
%TD*%
D10*
%TO.P,Q8,1,C*%
%TO.N,Net-(Q8-C)*%
X81280000Y-44390000D03*
D11*
%TO.P,Q8,2,B*%
%TO.N,Net-(Q8-B)*%
X81280000Y-46990000D03*
%TO.P,Q8,3,E*%
%TO.N,/VMA436_IN_8*%
X81280000Y-49590000D03*
%TD*%
D12*
%TO.P,J2,1,Pin_1*%
%TO.N,/VMA436_IN_8*%
X72390000Y-66680000D03*
%TO.P,J2,2,Pin_2*%
%TO.N,/VMA436_IN_7*%
X72390000Y-69220000D03*
%TO.P,J2,3,Pin_3*%
%TO.N,/VMA436_IN_6*%
X72390000Y-71760000D03*
%TO.P,J2,4,Pin_4*%
%TO.N,/VMA436_IN_5*%
X72390000Y-74300000D03*
%TO.P,J2,5,Pin_5*%
%TO.N,/VMA436_IN_4*%
X72390000Y-76840000D03*
%TO.P,J2,6,Pin_6*%
%TO.N,/VMA436_IN_3*%
X72390000Y-79380000D03*
%TO.P,J2,7,Pin_7*%
%TO.N,/VMA436_IN_2*%
X72390000Y-81920000D03*
%TO.P,J2,8,Pin_8*%
%TO.N,/VMA436_IN_1*%
X72390000Y-84460000D03*
D13*
%TO.P,J2,9,Pin_9*%
%TO.N,GND*%
X72390000Y-87000000D03*
D12*
%TO.P,J2,10,Pin_10*%
%TO.N,/5V*%
X72390000Y-89540000D03*
%TD*%
D14*
%TO.P,R73,1*%
%TO.N,/5V*%
X93980000Y-53340000D03*
D15*
%TO.P,R73,2*%
%TO.N,Net-(Q7-C)*%
X86360000Y-53340000D03*
%TD*%
D14*
%TO.P,R83,1*%
%TO.N,/5V*%
X93980000Y-44450000D03*
D15*
%TO.P,R83,2*%
%TO.N,Net-(Q8-C)*%
X86360000Y-44450000D03*
%TD*%
D14*
%TO.P,R72,1*%
%TO.N,Net-(Q7-B)*%
X86360000Y-58420000D03*
D15*
%TO.P,R72,2*%
%TO.N,GND*%
X93980000Y-58420000D03*
%TD*%
D14*
%TO.P,R82,1*%
%TO.N,Net-(Q8-B)*%
X86360000Y-49530000D03*
D15*
%TO.P,R82,2*%
%TO.N,GND*%
X93980000Y-49530000D03*
%TD*%
D14*
%TO.P,R42,1*%
%TO.N,Net-(Q4-B)*%
X86360000Y-85090000D03*
D15*
%TO.P,R42,2*%
%TO.N,GND*%
X93980000Y-85090000D03*
%TD*%
D12*
%TO.P,J1,1,Pin_1*%
%TO.N,/TEGRA_OUT_8*%
X101600000Y-66675000D03*
%TO.P,J1,2,Pin_2*%
%TO.N,/TEGRA_OUT_7*%
X101600000Y-69215000D03*
%TO.P,J1,3,Pin_3*%
%TO.N,/TEGRA_OUT_6*%
X101600000Y-71755000D03*
%TO.P,J1,4,Pin_4*%
%TO.N,/TEGRA_OUT_5*%
X101600000Y-74295000D03*
%TO.P,J1,5,Pin_5*%
%TO.N,/TEGRA_OUT_4*%
X101600000Y-76835000D03*
%TO.P,J1,6,Pin_6*%
%TO.N,/TEGRA_OUT_3*%
X101600000Y-79375000D03*
%TO.P,J1,7,Pin_7*%
%TO.N,/TEGRA_OUT_2*%
X101600000Y-81915000D03*
%TO.P,J1,8,Pin_8*%
%TO.N,/TEGRA_OUT_1*%
X101600000Y-84455000D03*
D13*
%TO.P,J1,9,Pin_9*%
%TO.N,GND*%
X101600000Y-86995000D03*
D12*
%TO.P,J1,10,Pin_10*%
%TO.N,/5V*%
X101600000Y-89535000D03*
%TD*%
D14*
%TO.P,R31,1*%
%TO.N,/TEGRA_OUT_3*%
X93980000Y-91440000D03*
D15*
%TO.P,R31,2*%
%TO.N,Net-(Q3-B)*%
X86360000Y-91440000D03*
%TD*%
D14*
%TO.P,R51,1*%
%TO.N,/TEGRA_OUT_5*%
X93980000Y-73660000D03*
D15*
%TO.P,R51,2*%
%TO.N,Net-(Q5-B)*%
X86360000Y-73660000D03*
%TD*%
D14*
%TO.P,R22,1*%
%TO.N,Net-(Q2-B)*%
X86360000Y-102870000D03*
D15*
%TO.P,R22,2*%
%TO.N,GND*%
X93980000Y-102870000D03*
%TD*%
D14*
%TO.P,R81,1*%
%TO.N,/TEGRA_OUT_8*%
X93980000Y-46990000D03*
D15*
%TO.P,R81,2*%
%TO.N,Net-(Q8-B)*%
X86360000Y-46990000D03*
%TD*%
D14*
%TO.P,R23,1*%
%TO.N,/5V*%
X93980000Y-97790000D03*
D15*
%TO.P,R23,2*%
%TO.N,Net-(Q2-C)*%
X86360000Y-97790000D03*
%TD*%
D14*
%TO.P,R33,1*%
%TO.N,/5V*%
X93980000Y-88900000D03*
D15*
%TO.P,R33,2*%
%TO.N,Net-(Q3-C)*%
X86360000Y-88900000D03*
%TD*%
D14*
%TO.P,R13,1*%
%TO.N,/5V*%
X93980000Y-106680000D03*
D15*
%TO.P,R13,2*%
%TO.N,Net-(Q1-C)*%
X86360000Y-106680000D03*
%TD*%
D14*
%TO.P,R32,1*%
%TO.N,Net-(Q3-B)*%
X86360000Y-93980000D03*
D15*
%TO.P,R32,2*%
%TO.N,GND*%
X93980000Y-93980000D03*
%TD*%
D14*
%TO.P,R62,1*%
%TO.N,Net-(Q6-B)*%
X86360000Y-67310000D03*
D15*
%TO.P,R62,2*%
%TO.N,GND*%
X93980000Y-67310000D03*
%TD*%
D14*
%TO.P,R11,1*%
%TO.N,/TEGRA_OUT_1*%
X93980000Y-109220000D03*
D15*
%TO.P,R11,2*%
%TO.N,Net-(Q1-B)*%
X86360000Y-109220000D03*
%TD*%
D14*
%TO.P,R52,1*%
%TO.N,Net-(Q5-B)*%
X86360000Y-76200000D03*
D15*
%TO.P,R52,2*%
%TO.N,GND*%
X93980000Y-76200000D03*
%TD*%
D14*
%TO.P,R43,1*%
%TO.N,/5V*%
X93980000Y-80010000D03*
D15*
%TO.P,R43,2*%
%TO.N,Net-(Q4-C)*%
X86360000Y-80010000D03*
%TD*%
D14*
%TO.P,R71,1*%
%TO.N,/TEGRA_OUT_7*%
X93980000Y-55880000D03*
D15*
%TO.P,R71,2*%
%TO.N,Net-(Q7-B)*%
X86360000Y-55880000D03*
%TD*%
D14*
%TO.P,R21,1*%
%TO.N,/TEGRA_OUT_2*%
X93980000Y-100330000D03*
D15*
%TO.P,R21,2*%
%TO.N,Net-(Q2-B)*%
X86360000Y-100330000D03*
%TD*%
D14*
%TO.P,R61,1*%
%TO.N,/TEGRA_OUT_6*%
X93980000Y-64770000D03*
D15*
%TO.P,R61,2*%
%TO.N,Net-(Q6-B)*%
X86360000Y-64770000D03*
%TD*%
D14*
%TO.P,R63,1*%
%TO.N,/5V*%
X93980000Y-62230000D03*
D15*
%TO.P,R63,2*%
%TO.N,Net-(Q6-C)*%
X86360000Y-62230000D03*
%TD*%
D14*
%TO.P,R53,1*%
%TO.N,/5V*%
X93980000Y-71120000D03*
D15*
%TO.P,R53,2*%
%TO.N,Net-(Q5-C)*%
X86360000Y-71120000D03*
%TD*%
D14*
%TO.P,R12,1*%
%TO.N,Net-(Q1-B)*%
X86360000Y-111760000D03*
D15*
%TO.P,R12,2*%
%TO.N,GND*%
X93980000Y-111760000D03*
%TD*%
D14*
%TO.P,R41,1*%
%TO.N,/TEGRA_OUT_4*%
X93980000Y-82550000D03*
D15*
%TO.P,R41,2*%
%TO.N,Net-(Q4-B)*%
X86360000Y-82550000D03*
%TD*%
D16*
%TO.N,/VMA436_IN_6*%
X81280000Y-67370000D02*
X76780000Y-67370000D01*
X76780000Y-67370000D02*
X72390000Y-71760000D01*
%TO.N,/VMA436_IN_7*%
X81280000Y-58480000D02*
X76200000Y-63560000D01*
X76200000Y-65410000D02*
X72390000Y-69220000D01*
X76200000Y-63560000D02*
X76200000Y-65410000D01*
%TO.N,/VMA436_IN_8*%
X81280000Y-49590000D02*
X74930000Y-55940000D01*
X74930000Y-55940000D02*
X74930000Y-64140000D01*
X74930000Y-64140000D02*
X72390000Y-66680000D01*
%TO.N,/VMA436_IN_5*%
X81280000Y-76260000D02*
X74350000Y-76260000D01*
X74350000Y-76260000D02*
X72390000Y-74300000D01*
%TO.N,/VMA436_IN_4*%
X81280000Y-85150000D02*
X72970000Y-76840000D01*
X72970000Y-76840000D02*
X72390000Y-76840000D01*
%TO.N,/VMA436_IN_3*%
X81280000Y-94040000D02*
X77470000Y-90230000D01*
X77470000Y-84460000D02*
X72390000Y-79380000D01*
X77470000Y-90230000D02*
X77470000Y-84460000D01*
%TO.N,/VMA436_IN_2*%
X81280000Y-102930000D02*
X76200000Y-97850000D01*
X76200000Y-97850000D02*
X76200000Y-85730000D01*
X76200000Y-85730000D02*
X72390000Y-81920000D01*
%TO.N,/VMA436_IN_1*%
X81280000Y-111820000D02*
X74930000Y-105470000D01*
X74930000Y-105470000D02*
X74930000Y-87000000D01*
X74930000Y-87000000D02*
X72390000Y-84460000D01*
%TO.N,Net-(Q1-B)*%
X86360000Y-109220000D02*
X81280000Y-109220000D01*
%TO.N,Net-(Q1-C)*%
X86360000Y-106680000D02*
X81340000Y-106680000D01*
X81340000Y-106680000D02*
X81280000Y-106620000D01*
%TO.N,Net-(Q2-B)*%
X86360000Y-100330000D02*
X81280000Y-100330000D01*
%TO.N,Net-(Q2-C)*%
X86360000Y-97790000D02*
X81340000Y-97790000D01*
X81340000Y-97790000D02*
X81280000Y-97730000D01*
%TO.N,Net-(Q3-B)*%
X86360000Y-91440000D02*
X81280000Y-91440000D01*
%TO.N,Net-(Q3-C)*%
X86360000Y-88900000D02*
X81340000Y-88900000D01*
X81340000Y-88900000D02*
X81280000Y-88840000D01*
%TO.N,Net-(Q4-B)*%
X86360000Y-82550000D02*
X81280000Y-82550000D01*
%TO.N,Net-(Q4-C)*%
X86360000Y-80010000D02*
X81340000Y-80010000D01*
X81340000Y-80010000D02*
X81280000Y-79950000D01*
%TO.N,Net-(Q5-B)*%
X86360000Y-73660000D02*
X81280000Y-73660000D01*
%TO.N,Net-(Q5-C)*%
X86360000Y-71120000D02*
X81340000Y-71120000D01*
X81340000Y-71120000D02*
X81280000Y-71060000D01*
%TO.N,Net-(Q6-B)*%
X86360000Y-64770000D02*
X81280000Y-64770000D01*
%TO.N,Net-(Q6-C)*%
X86360000Y-62230000D02*
X81340000Y-62230000D01*
X81340000Y-62230000D02*
X81280000Y-62170000D01*
%TO.N,Net-(Q7-B)*%
X86360000Y-55880000D02*
X81280000Y-55880000D01*
%TO.N,Net-(Q7-C)*%
X86360000Y-53340000D02*
X81340000Y-53340000D01*
X81340000Y-53340000D02*
X81280000Y-53280000D01*
%TO.N,Net-(Q8-B)*%
X86360000Y-46990000D02*
X81280000Y-46990000D01*
%TO.N,Net-(Q8-C)*%
X86360000Y-44450000D02*
X81340000Y-44450000D01*
X81340000Y-44450000D02*
X81280000Y-44390000D01*
%TO.N,Net-(Q7-B)*%
X81340000Y-55880000D02*
X81280000Y-55940000D01*
%TO.N,Net-(Q8-C)*%
X86300000Y-44390000D02*
X86360000Y-44450000D01*
%TO.N,/TEGRA_OUT_1*%
X100400000Y-102800000D02*
X100400000Y-85655000D01*
X100400000Y-85655000D02*
X101600000Y-84455000D01*
X93980000Y-109220000D02*
X100400000Y-102800000D01*
%TO.N,/TEGRA_OUT_2*%
X93980000Y-100330000D02*
X100000000Y-94310000D01*
X100000000Y-94310000D02*
X100000000Y-83515000D01*
X100000000Y-83515000D02*
X101600000Y-81915000D01*
%TO.N,/TEGRA_OUT_3*%
X93980000Y-91440000D02*
X99600000Y-85820000D01*
X99600000Y-85820000D02*
X99600000Y-81375000D01*
X99600000Y-81375000D02*
X101600000Y-79375000D01*
%TO.N,/TEGRA_OUT_4*%
X93980000Y-82550000D02*
X95885000Y-82550000D01*
X95885000Y-82550000D02*
X101600000Y-76835000D01*
%TO.N,/TEGRA_OUT_5*%
X98425000Y-73660000D02*
X99060000Y-74295000D01*
X100965000Y-73660000D02*
X101600000Y-74295000D01*
X99060000Y-74295000D02*
X101600000Y-74295000D01*
X93980000Y-73660000D02*
X98425000Y-73660000D01*
%TO.N,/TEGRA_OUT_6*%
X100965000Y-71755000D02*
X101600000Y-71755000D01*
X93980000Y-64770000D02*
X100965000Y-71755000D01*
%TO.N,/TEGRA_OUT_7*%
X98025000Y-65640000D02*
X101600000Y-69215000D01*
X93980000Y-55880000D02*
X98025000Y-59925000D01*
X98025000Y-59925000D02*
X98025000Y-65640000D01*
%TO.N,/TEGRA_OUT_8*%
X98425000Y-51435000D02*
X98425000Y-63500000D01*
X93980000Y-46990000D02*
X98425000Y-51435000D01*
X98425000Y-63500000D02*
X101600000Y-66675000D01*
%TO.N,Net-(Q1-B)*%
X86360000Y-108585000D02*
X85725000Y-109220000D01*
X86360000Y-111760000D02*
X86360000Y-109220000D01*
%TO.N,Net-(Q2-B)*%
X86360000Y-102870000D02*
X86360000Y-100330000D01*
%TO.N,Net-(Q3-B)*%
X86360000Y-93980000D02*
X86360000Y-91440000D01*
%TO.N,Net-(Q4-B)*%
X86360000Y-85090000D02*
X86360000Y-82550000D01*
%TO.N,Net-(Q5-B)*%
X86360000Y-76200000D02*
X86360000Y-73660000D01*
%TO.N,Net-(Q6-B)*%
X86360000Y-67310000D02*
X86360000Y-64770000D01*
%TO.N,Net-(Q7-B)*%
X86360000Y-58420000D02*
X86360000Y-55880000D01*
%TO.N,Net-(Q8-B)*%
X86360000Y-49530000D02*
X86360000Y-46990000D01*
%TD*%
M02*
