%TF.GenerationSoftware,KiCad,Pcbnew,7.0.11*%
%TF.CreationDate,2024-05-22T14:54:01+02:00*%
%TF.ProjectId,Untitled,556e7469-746c-4656-942e-6b696361645f,1.0*%
%TF.SameCoordinates,Original*%
%TF.FileFunction,Soldermask,Top*%
%TF.FilePolarity,Negative*%
%FSLAX46Y46*%
G04 Gerber Fmt 4.6, Leading zero omitted, Abs format (unit mm)*
G04 Created by KiCad (PCBNEW 7.0.11) date 2024-05-22 14:54:01*
%MOMM*%
%LPD*%
G01*
G04 APERTURE LIST*
%ADD10R,1.500000X1.500000*%
%ADD11C,1.500000*%
%ADD12O,1.700000X1.700000*%
%ADD13R,1.700000X1.700000*%
%ADD14C,1.400000*%
%ADD15O,1.400000X1.400000*%
G04 APERTURE END LIST*
D10*
%TO.C,Q1*%
X81280000Y-106620000D03*
D11*
X81280000Y-109220000D03*
X81280000Y-111820000D03*
%TD*%
D10*
%TO.C,Q2*%
X81280000Y-97730000D03*
D11*
X81280000Y-100330000D03*
X81280000Y-102930000D03*
%TD*%
D10*
%TO.C,Q3*%
X81280000Y-88840000D03*
D11*
X81280000Y-91440000D03*
X81280000Y-94040000D03*
%TD*%
D10*
%TO.C,Q4*%
X81280000Y-79950000D03*
D11*
X81280000Y-82550000D03*
X81280000Y-85150000D03*
%TD*%
D10*
%TO.C,Q5*%
X81280000Y-71060000D03*
D11*
X81280000Y-73660000D03*
X81280000Y-76260000D03*
%TD*%
D10*
%TO.C,Q6*%
X81280000Y-62170000D03*
D11*
X81280000Y-64770000D03*
X81280000Y-67370000D03*
%TD*%
D10*
%TO.C,Q7*%
X81280000Y-53280000D03*
D11*
X81280000Y-55880000D03*
X81280000Y-58480000D03*
%TD*%
D10*
%TO.C,Q8*%
X81280000Y-44390000D03*
D11*
X81280000Y-46990000D03*
X81280000Y-49590000D03*
%TD*%
D12*
%TO.C,J2*%
X72390000Y-66680000D03*
X72390000Y-69220000D03*
X72390000Y-71760000D03*
X72390000Y-74300000D03*
X72390000Y-76840000D03*
X72390000Y-79380000D03*
X72390000Y-81920000D03*
X72390000Y-84460000D03*
D13*
X72390000Y-87000000D03*
D12*
X72390000Y-89540000D03*
%TD*%
D14*
%TO.C,R73*%
X93980000Y-53340000D03*
D15*
X86360000Y-53340000D03*
%TD*%
D14*
%TO.C,R83*%
X93980000Y-44450000D03*
D15*
X86360000Y-44450000D03*
%TD*%
D14*
%TO.C,R72*%
X86360000Y-58420000D03*
D15*
X93980000Y-58420000D03*
%TD*%
D14*
%TO.C,R82*%
X86360000Y-49530000D03*
D15*
X93980000Y-49530000D03*
%TD*%
D14*
%TO.C,R42*%
X86360000Y-85090000D03*
D15*
X93980000Y-85090000D03*
%TD*%
D12*
%TO.C,J1*%
X101600000Y-66675000D03*
X101600000Y-69215000D03*
X101600000Y-71755000D03*
X101600000Y-74295000D03*
X101600000Y-76835000D03*
X101600000Y-79375000D03*
X101600000Y-81915000D03*
X101600000Y-84455000D03*
D13*
X101600000Y-86995000D03*
D12*
X101600000Y-89535000D03*
%TD*%
D14*
%TO.C,R31*%
X93980000Y-91440000D03*
D15*
X86360000Y-91440000D03*
%TD*%
D14*
%TO.C,R51*%
X93980000Y-73660000D03*
D15*
X86360000Y-73660000D03*
%TD*%
D14*
%TO.C,R22*%
X86360000Y-102870000D03*
D15*
X93980000Y-102870000D03*
%TD*%
D14*
%TO.C,R81*%
X93980000Y-46990000D03*
D15*
X86360000Y-46990000D03*
%TD*%
D14*
%TO.C,R23*%
X93980000Y-97790000D03*
D15*
X86360000Y-97790000D03*
%TD*%
D14*
%TO.C,R33*%
X93980000Y-88900000D03*
D15*
X86360000Y-88900000D03*
%TD*%
D14*
%TO.C,R13*%
X93980000Y-106680000D03*
D15*
X86360000Y-106680000D03*
%TD*%
D14*
%TO.C,R32*%
X86360000Y-93980000D03*
D15*
X93980000Y-93980000D03*
%TD*%
D14*
%TO.C,R62*%
X86360000Y-67310000D03*
D15*
X93980000Y-67310000D03*
%TD*%
D14*
%TO.C,R11*%
X93980000Y-109220000D03*
D15*
X86360000Y-109220000D03*
%TD*%
D14*
%TO.C,R52*%
X86360000Y-76200000D03*
D15*
X93980000Y-76200000D03*
%TD*%
D14*
%TO.C,R43*%
X93980000Y-80010000D03*
D15*
X86360000Y-80010000D03*
%TD*%
D14*
%TO.C,R71*%
X93980000Y-55880000D03*
D15*
X86360000Y-55880000D03*
%TD*%
D14*
%TO.C,R21*%
X93980000Y-100330000D03*
D15*
X86360000Y-100330000D03*
%TD*%
D14*
%TO.C,R61*%
X93980000Y-64770000D03*
D15*
X86360000Y-64770000D03*
%TD*%
D14*
%TO.C,R63*%
X93980000Y-62230000D03*
D15*
X86360000Y-62230000D03*
%TD*%
D14*
%TO.C,R53*%
X93980000Y-71120000D03*
D15*
X86360000Y-71120000D03*
%TD*%
D14*
%TO.C,R12*%
X86360000Y-111760000D03*
D15*
X93980000Y-111760000D03*
%TD*%
D14*
%TO.C,R41*%
X93980000Y-82550000D03*
D15*
X86360000Y-82550000D03*
%TD*%
M02*
