%TF.GenerationSoftware,KiCad,Pcbnew,7.0.11*%
%TF.CreationDate,2024-05-22T14:54:00+02:00*%
%TF.ProjectId,Untitled,556e7469-746c-4656-942e-6b696361645f,1.0*%
%TF.SameCoordinates,Original*%
%TF.FileFunction,Copper,L2,Bot*%
%TF.FilePolarity,Positive*%
%FSLAX46Y46*%
G04 Gerber Fmt 4.6, Leading zero omitted, Abs format (unit mm)*
G04 Created by KiCad (PCBNEW 7.0.11) date 2024-05-22 14:54:00*
%MOMM*%
%LPD*%
G01*
G04 APERTURE LIST*
%TA.AperFunction,ComponentPad*%
%ADD10R,1.500000X1.500000*%
%TD*%
%TA.AperFunction,ComponentPad*%
%ADD11C,1.500000*%
%TD*%
%TA.AperFunction,ComponentPad*%
%ADD12O,1.700000X1.700000*%
%TD*%
%TA.AperFunction,ComponentPad*%
%ADD13R,1.700000X1.700000*%
%TD*%
%TA.AperFunction,ComponentPad*%
%ADD14C,1.400000*%
%TD*%
%TA.AperFunction,ComponentPad*%
%ADD15O,1.400000X1.400000*%
%TD*%
%TA.AperFunction,Conductor*%
%ADD16C,0.200000*%
%TD*%
%TA.AperFunction,Conductor*%
%ADD17C,0.300000*%
%TD*%
G04 APERTURE END LIST*
D10*
%TO.P,Q1,1,C*%
%TO.N,Net-(Q1-C)*%
X81280000Y-106620000D03*
D11*
%TO.P,Q1,2,B*%
%TO.N,Net-(Q1-B)*%
X81280000Y-109220000D03*
%TO.P,Q1,3,E*%
%TO.N,/VMA436_IN_1*%
X81280000Y-111820000D03*
%TD*%
D10*
%TO.P,Q2,1,C*%
%TO.N,Net-(Q2-C)*%
X81280000Y-97730000D03*
D11*
%TO.P,Q2,2,B*%
%TO.N,Net-(Q2-B)*%
X81280000Y-100330000D03*
%TO.P,Q2,3,E*%
%TO.N,/VMA436_IN_2*%
X81280000Y-102930000D03*
%TD*%
D10*
%TO.P,Q3,1,C*%
%TO.N,Net-(Q3-C)*%
X81280000Y-88840000D03*
D11*
%TO.P,Q3,2,B*%
%TO.N,Net-(Q3-B)*%
X81280000Y-91440000D03*
%TO.P,Q3,3,E*%
%TO.N,/VMA436_IN_3*%
X81280000Y-94040000D03*
%TD*%
D10*
%TO.P,Q4,1,C*%
%TO.N,Net-(Q4-C)*%
X81280000Y-79950000D03*
D11*
%TO.P,Q4,2,B*%
%TO.N,Net-(Q4-B)*%
X81280000Y-82550000D03*
%TO.P,Q4,3,E*%
%TO.N,/VMA436_IN_4*%
X81280000Y-85150000D03*
%TD*%
D10*
%TO.P,Q5,1,C*%
%TO.N,Net-(Q5-C)*%
X81280000Y-71060000D03*
D11*
%TO.P,Q5,2,B*%
%TO.N,Net-(Q5-B)*%
X81280000Y-73660000D03*
%TO.P,Q5,3,E*%
%TO.N,/VMA436_IN_5*%
X81280000Y-76260000D03*
%TD*%
D10*
%TO.P,Q6,1,C*%
%TO.N,Net-(Q6-C)*%
X81280000Y-62170000D03*
D11*
%TO.P,Q6,2,B*%
%TO.N,Net-(Q6-B)*%
X81280000Y-64770000D03*
%TO.P,Q6,3,E*%
%TO.N,/VMA436_IN_6*%
X81280000Y-67370000D03*
%TD*%
D10*
%TO.P,Q7,1,C*%
%TO.N,Net-(Q7-C)*%
X81280000Y-53280000D03*
D11*
%TO.P,Q7,2,B*%
%TO.N,Net-(Q7-B)*%
X81280000Y-55880000D03*
%TO.P,Q7,3,E*%
%TO.N,/VMA436_IN_7*%
X81280000Y-58480000D03*
%TD*%
D10*
%TO.P,Q8,1,C*%
%TO.N,Net-(Q8-C)*%
X81280000Y-44390000D03*
D11*
%TO.P,Q8,2,B*%
%TO.N,Net-(Q8-B)*%
X81280000Y-46990000D03*
%TO.P,Q8,3,E*%
%TO.N,/VMA436_IN_8*%
X81280000Y-49590000D03*
%TD*%
D12*
%TO.P,J2,1,Pin_1*%
%TO.N,/VMA436_IN_8*%
X72390000Y-66680000D03*
%TO.P,J2,2,Pin_2*%
%TO.N,/VMA436_IN_7*%
X72390000Y-69220000D03*
%TO.P,J2,3,Pin_3*%
%TO.N,/VMA436_IN_6*%
X72390000Y-71760000D03*
%TO.P,J2,4,Pin_4*%
%TO.N,/VMA436_IN_5*%
X72390000Y-74300000D03*
%TO.P,J2,5,Pin_5*%
%TO.N,/VMA436_IN_4*%
X72390000Y-76840000D03*
%TO.P,J2,6,Pin_6*%
%TO.N,/VMA436_IN_3*%
X72390000Y-79380000D03*
%TO.P,J2,7,Pin_7*%
%TO.N,/VMA436_IN_2*%
X72390000Y-81920000D03*
%TO.P,J2,8,Pin_8*%
%TO.N,/VMA436_IN_1*%
X72390000Y-84460000D03*
D13*
%TO.P,J2,9,Pin_9*%
%TO.N,GND*%
X72390000Y-87000000D03*
D12*
%TO.P,J2,10,Pin_10*%
%TO.N,/5V*%
X72390000Y-89540000D03*
%TD*%
D14*
%TO.P,R73,1*%
%TO.N,/5V*%
X93980000Y-53340000D03*
D15*
%TO.P,R73,2*%
%TO.N,Net-(Q7-C)*%
X86360000Y-53340000D03*
%TD*%
D14*
%TO.P,R83,1*%
%TO.N,/5V*%
X93980000Y-44450000D03*
D15*
%TO.P,R83,2*%
%TO.N,Net-(Q8-C)*%
X86360000Y-44450000D03*
%TD*%
D14*
%TO.P,R72,1*%
%TO.N,Net-(Q7-B)*%
X86360000Y-58420000D03*
D15*
%TO.P,R72,2*%
%TO.N,GND*%
X93980000Y-58420000D03*
%TD*%
D14*
%TO.P,R82,1*%
%TO.N,Net-(Q8-B)*%
X86360000Y-49530000D03*
D15*
%TO.P,R82,2*%
%TO.N,GND*%
X93980000Y-49530000D03*
%TD*%
D14*
%TO.P,R42,1*%
%TO.N,Net-(Q4-B)*%
X86360000Y-85090000D03*
D15*
%TO.P,R42,2*%
%TO.N,GND*%
X93980000Y-85090000D03*
%TD*%
D12*
%TO.P,J1,1,Pin_1*%
%TO.N,/TEGRA_OUT_8*%
X101600000Y-66675000D03*
%TO.P,J1,2,Pin_2*%
%TO.N,/TEGRA_OUT_7*%
X101600000Y-69215000D03*
%TO.P,J1,3,Pin_3*%
%TO.N,/TEGRA_OUT_6*%
X101600000Y-71755000D03*
%TO.P,J1,4,Pin_4*%
%TO.N,/TEGRA_OUT_5*%
X101600000Y-74295000D03*
%TO.P,J1,5,Pin_5*%
%TO.N,/TEGRA_OUT_4*%
X101600000Y-76835000D03*
%TO.P,J1,6,Pin_6*%
%TO.N,/TEGRA_OUT_3*%
X101600000Y-79375000D03*
%TO.P,J1,7,Pin_7*%
%TO.N,/TEGRA_OUT_2*%
X101600000Y-81915000D03*
%TO.P,J1,8,Pin_8*%
%TO.N,/TEGRA_OUT_1*%
X101600000Y-84455000D03*
D13*
%TO.P,J1,9,Pin_9*%
%TO.N,GND*%
X101600000Y-86995000D03*
D12*
%TO.P,J1,10,Pin_10*%
%TO.N,/5V*%
X101600000Y-89535000D03*
%TD*%
D14*
%TO.P,R31,1*%
%TO.N,/TEGRA_OUT_3*%
X93980000Y-91440000D03*
D15*
%TO.P,R31,2*%
%TO.N,Net-(Q3-B)*%
X86360000Y-91440000D03*
%TD*%
D14*
%TO.P,R51,1*%
%TO.N,/TEGRA_OUT_5*%
X93980000Y-73660000D03*
D15*
%TO.P,R51,2*%
%TO.N,Net-(Q5-B)*%
X86360000Y-73660000D03*
%TD*%
D14*
%TO.P,R22,1*%
%TO.N,Net-(Q2-B)*%
X86360000Y-102870000D03*
D15*
%TO.P,R22,2*%
%TO.N,GND*%
X93980000Y-102870000D03*
%TD*%
D14*
%TO.P,R81,1*%
%TO.N,/TEGRA_OUT_8*%
X93980000Y-46990000D03*
D15*
%TO.P,R81,2*%
%TO.N,Net-(Q8-B)*%
X86360000Y-46990000D03*
%TD*%
D14*
%TO.P,R23,1*%
%TO.N,/5V*%
X93980000Y-97790000D03*
D15*
%TO.P,R23,2*%
%TO.N,Net-(Q2-C)*%
X86360000Y-97790000D03*
%TD*%
D14*
%TO.P,R33,1*%
%TO.N,/5V*%
X93980000Y-88900000D03*
D15*
%TO.P,R33,2*%
%TO.N,Net-(Q3-C)*%
X86360000Y-88900000D03*
%TD*%
D14*
%TO.P,R13,1*%
%TO.N,/5V*%
X93980000Y-106680000D03*
D15*
%TO.P,R13,2*%
%TO.N,Net-(Q1-C)*%
X86360000Y-106680000D03*
%TD*%
D14*
%TO.P,R32,1*%
%TO.N,Net-(Q3-B)*%
X86360000Y-93980000D03*
D15*
%TO.P,R32,2*%
%TO.N,GND*%
X93980000Y-93980000D03*
%TD*%
D14*
%TO.P,R62,1*%
%TO.N,Net-(Q6-B)*%
X86360000Y-67310000D03*
D15*
%TO.P,R62,2*%
%TO.N,GND*%
X93980000Y-67310000D03*
%TD*%
D14*
%TO.P,R11,1*%
%TO.N,/TEGRA_OUT_1*%
X93980000Y-109220000D03*
D15*
%TO.P,R11,2*%
%TO.N,Net-(Q1-B)*%
X86360000Y-109220000D03*
%TD*%
D14*
%TO.P,R52,1*%
%TO.N,Net-(Q5-B)*%
X86360000Y-76200000D03*
D15*
%TO.P,R52,2*%
%TO.N,GND*%
X93980000Y-76200000D03*
%TD*%
D14*
%TO.P,R43,1*%
%TO.N,/5V*%
X93980000Y-80010000D03*
D15*
%TO.P,R43,2*%
%TO.N,Net-(Q4-C)*%
X86360000Y-80010000D03*
%TD*%
D14*
%TO.P,R71,1*%
%TO.N,/TEGRA_OUT_7*%
X93980000Y-55880000D03*
D15*
%TO.P,R71,2*%
%TO.N,Net-(Q7-B)*%
X86360000Y-55880000D03*
%TD*%
D14*
%TO.P,R21,1*%
%TO.N,/TEGRA_OUT_2*%
X93980000Y-100330000D03*
D15*
%TO.P,R21,2*%
%TO.N,Net-(Q2-B)*%
X86360000Y-100330000D03*
%TD*%
D14*
%TO.P,R61,1*%
%TO.N,/TEGRA_OUT_6*%
X93980000Y-64770000D03*
D15*
%TO.P,R61,2*%
%TO.N,Net-(Q6-B)*%
X86360000Y-64770000D03*
%TD*%
D14*
%TO.P,R63,1*%
%TO.N,/5V*%
X93980000Y-62230000D03*
D15*
%TO.P,R63,2*%
%TO.N,Net-(Q6-C)*%
X86360000Y-62230000D03*
%TD*%
D14*
%TO.P,R53,1*%
%TO.N,/5V*%
X93980000Y-71120000D03*
D15*
%TO.P,R53,2*%
%TO.N,Net-(Q5-C)*%
X86360000Y-71120000D03*
%TD*%
D14*
%TO.P,R12,1*%
%TO.N,Net-(Q1-B)*%
X86360000Y-111760000D03*
D15*
%TO.P,R12,2*%
%TO.N,GND*%
X93980000Y-111760000D03*
%TD*%
D14*
%TO.P,R41,1*%
%TO.N,/TEGRA_OUT_4*%
X93980000Y-82550000D03*
D15*
%TO.P,R41,2*%
%TO.N,Net-(Q4-B)*%
X86360000Y-82550000D03*
%TD*%
D16*
%TO.N,GND*%
X93980000Y-85090000D02*
X92710000Y-83820000D01*
X93980000Y-85090000D02*
X95250000Y-83820000D01*
D17*
%TO.N,/5V*%
X97155000Y-85090000D02*
X95250000Y-86995000D01*
X78740000Y-86995000D02*
X76195000Y-89540000D01*
X76195000Y-89540000D02*
X72390000Y-89540000D01*
X95250000Y-86995000D02*
X78740000Y-86995000D01*
X97155000Y-93980000D02*
X97155000Y-86995000D01*
X97155000Y-86995000D02*
X97155000Y-85725000D01*
X93980000Y-88900000D02*
X95250000Y-88900000D01*
X95250000Y-88900000D02*
X97155000Y-86995000D01*
X97155000Y-85725000D02*
X97155000Y-85090000D01*
X97155000Y-85090000D02*
X97155000Y-82550000D01*
X97155000Y-83820000D02*
X97155000Y-84455000D01*
X97155000Y-82550000D02*
X97155000Y-83820000D01*
X97155000Y-74295000D02*
X97155000Y-67310000D01*
X97155000Y-82550000D02*
X97155000Y-76835000D01*
X101600000Y-89535000D02*
X97155000Y-93980000D01*
X97155000Y-94615000D02*
X93980000Y-97790000D01*
X97155000Y-47625000D02*
X93980000Y-44450000D01*
X97155000Y-103505000D02*
X93980000Y-106680000D01*
D16*
X93980000Y-97155000D02*
X93980000Y-97790000D01*
D17*
X97155000Y-76835000D02*
X97155000Y-74295000D01*
X97155000Y-74295000D02*
X93980000Y-71120000D01*
X97155000Y-93980000D02*
X97155000Y-94615000D01*
X97155000Y-93980000D02*
X97155000Y-103505000D01*
X97155000Y-56515000D02*
X93980000Y-53340000D01*
X97155000Y-65405000D02*
X93980000Y-62230000D01*
X97155000Y-65405000D02*
X97155000Y-56515000D01*
X97155000Y-76835000D02*
X93980000Y-80010000D01*
X97155000Y-67310000D02*
X97155000Y-65405000D01*
X97155000Y-56515000D02*
X97155000Y-47625000D01*
%TD*%
%TA.AperFunction,Conductor*%
%TO.N,GND*%
G36*
X96423834Y-78588625D02*
G01*
X96479767Y-78630497D01*
X96504184Y-78695961D01*
X96504500Y-78704807D01*
X96504500Y-84769192D01*
X96484815Y-84836231D01*
X96468181Y-84856873D01*
X95016873Y-86308181D01*
X94955550Y-86341666D01*
X94929192Y-86344500D01*
X94669225Y-86344500D01*
X94602186Y-86324815D01*
X94556431Y-86272011D01*
X94546487Y-86202853D01*
X94575512Y-86139297D01*
X94603947Y-86115073D01*
X94706261Y-86051721D01*
X94870608Y-85901900D01*
X95004631Y-85724425D01*
X95103760Y-85525349D01*
X95156495Y-85340000D01*
X94225581Y-85340000D01*
X94277060Y-85284079D01*
X94323982Y-85177108D01*
X94333628Y-85060698D01*
X94304953Y-84947462D01*
X94241064Y-84849673D01*
X94228636Y-84840000D01*
X95156495Y-84840000D01*
X95103760Y-84654650D01*
X95004631Y-84455574D01*
X94870608Y-84278099D01*
X94706261Y-84128278D01*
X94517179Y-84011202D01*
X94517177Y-84011201D01*
X94322786Y-83935894D01*
X94267384Y-83893321D01*
X94243794Y-83827554D01*
X94259505Y-83759474D01*
X94309529Y-83710695D01*
X94322772Y-83704646D01*
X94517401Y-83629247D01*
X94706562Y-83512124D01*
X94870981Y-83362236D01*
X95005058Y-83184689D01*
X95104229Y-82985528D01*
X95165115Y-82771536D01*
X95185643Y-82550000D01*
X95165115Y-82328464D01*
X95104229Y-82114472D01*
X95104224Y-82114461D01*
X95005061Y-81915316D01*
X95005056Y-81915308D01*
X94870979Y-81737761D01*
X94706562Y-81587876D01*
X94706560Y-81587874D01*
X94517404Y-81470754D01*
X94517395Y-81470750D01*
X94423956Y-81434552D01*
X94323475Y-81395625D01*
X94268075Y-81353054D01*
X94244484Y-81287288D01*
X94260195Y-81219207D01*
X94310219Y-81170428D01*
X94323466Y-81164377D01*
X94517401Y-81089247D01*
X94706562Y-80972124D01*
X94870981Y-80822236D01*
X95005058Y-80644689D01*
X95104229Y-80445528D01*
X95165115Y-80231536D01*
X95185643Y-80010000D01*
X95166785Y-79806489D01*
X95180200Y-79737922D01*
X95202572Y-79707372D01*
X96292820Y-78617124D01*
X96354142Y-78583641D01*
X96423834Y-78588625D01*
G37*
%TD.AperFunction*%
%TA.AperFunction,Conductor*%
G36*
X103582539Y-42430185D02*
G01*
X103628294Y-42482989D01*
X103639500Y-42534500D01*
X103639500Y-113675500D01*
X103619815Y-113742539D01*
X103567011Y-113788294D01*
X103515500Y-113799500D01*
X70474500Y-113799500D01*
X70407461Y-113779815D01*
X70361706Y-113727011D01*
X70350500Y-113675500D01*
X70350500Y-111820002D01*
X80024723Y-111820002D01*
X80031944Y-111902538D01*
X80041345Y-112010000D01*
X80043793Y-112037975D01*
X80043793Y-112037979D01*
X80100422Y-112249322D01*
X80100424Y-112249326D01*
X80100425Y-112249330D01*
X80146661Y-112348484D01*
X80192897Y-112447638D01*
X80192898Y-112447639D01*
X80318402Y-112626877D01*
X80473123Y-112781598D01*
X80652361Y-112907102D01*
X80850670Y-112999575D01*
X81062023Y-113056207D01*
X81244926Y-113072208D01*
X81279998Y-113075277D01*
X81280000Y-113075277D01*
X81280002Y-113075277D01*
X81308254Y-113072805D01*
X81497977Y-113056207D01*
X81709330Y-112999575D01*
X81907639Y-112907102D01*
X82086877Y-112781598D01*
X82241598Y-112626877D01*
X82367102Y-112447639D01*
X82459575Y-112249330D01*
X82516207Y-112037977D01*
X82535277Y-111820000D01*
X82530028Y-111760000D01*
X85154357Y-111760000D01*
X85174884Y-111981535D01*
X85174885Y-111981537D01*
X85235769Y-112195523D01*
X85235775Y-112195538D01*
X85334938Y-112394683D01*
X85334943Y-112394691D01*
X85469020Y-112572238D01*
X85633437Y-112722123D01*
X85633439Y-112722125D01*
X85822595Y-112839245D01*
X85822596Y-112839245D01*
X85822599Y-112839247D01*
X86030060Y-112919618D01*
X86248757Y-112960500D01*
X86248759Y-112960500D01*
X86471241Y-112960500D01*
X86471243Y-112960500D01*
X86689940Y-112919618D01*
X86897401Y-112839247D01*
X87086562Y-112722124D01*
X87250981Y-112572236D01*
X87385058Y-112394689D01*
X87484229Y-112195528D01*
X87537016Y-112010000D01*
X92803505Y-112010000D01*
X92856239Y-112195349D01*
X92955368Y-112394425D01*
X93089391Y-112571900D01*
X93253738Y-112721721D01*
X93442820Y-112838797D01*
X93442822Y-112838798D01*
X93650195Y-112919135D01*
X93730000Y-112934052D01*
X93730000Y-112010000D01*
X92803505Y-112010000D01*
X87537016Y-112010000D01*
X87545115Y-111981536D01*
X87565643Y-111760000D01*
X87545115Y-111538464D01*
X87484229Y-111324472D01*
X87418446Y-111192362D01*
X87385061Y-111125316D01*
X87385056Y-111125308D01*
X87250979Y-110947761D01*
X87086562Y-110797876D01*
X87086560Y-110797874D01*
X86897404Y-110680754D01*
X86897395Y-110680750D01*
X86793305Y-110640426D01*
X86703475Y-110605625D01*
X86648075Y-110563054D01*
X86624484Y-110497288D01*
X86640195Y-110429207D01*
X86690219Y-110380428D01*
X86703466Y-110374377D01*
X86897401Y-110299247D01*
X87086562Y-110182124D01*
X87250981Y-110032236D01*
X87385058Y-109854689D01*
X87484229Y-109655528D01*
X87545115Y-109441536D01*
X87565643Y-109220000D01*
X87545115Y-108998464D01*
X87484229Y-108784472D01*
X87484224Y-108784461D01*
X87385061Y-108585316D01*
X87385056Y-108585308D01*
X87250979Y-108407761D01*
X87086562Y-108257876D01*
X87086560Y-108257874D01*
X86897404Y-108140754D01*
X86897395Y-108140750D01*
X86803956Y-108104552D01*
X86703475Y-108065625D01*
X86648075Y-108023054D01*
X86624484Y-107957288D01*
X86640195Y-107889207D01*
X86690219Y-107840428D01*
X86703466Y-107834377D01*
X86897401Y-107759247D01*
X87086562Y-107642124D01*
X87250981Y-107492236D01*
X87385058Y-107314689D01*
X87484229Y-107115528D01*
X87545115Y-106901536D01*
X87565643Y-106680000D01*
X87545115Y-106458464D01*
X87484229Y-106244472D01*
X87484224Y-106244461D01*
X87385061Y-106045316D01*
X87385056Y-106045308D01*
X87250979Y-105867761D01*
X87086562Y-105717876D01*
X87086560Y-105717874D01*
X86897404Y-105600754D01*
X86897398Y-105600752D01*
X86689940Y-105520382D01*
X86471243Y-105479500D01*
X86248757Y-105479500D01*
X86030060Y-105520382D01*
X85898864Y-105571207D01*
X85822601Y-105600752D01*
X85822595Y-105600754D01*
X85633439Y-105717874D01*
X85633437Y-105717876D01*
X85469020Y-105867761D01*
X85334943Y-106045308D01*
X85334938Y-106045316D01*
X85235775Y-106244461D01*
X85235769Y-106244476D01*
X85174885Y-106458462D01*
X85174884Y-106458464D01*
X85154357Y-106679999D01*
X85154357Y-106680000D01*
X85174884Y-106901535D01*
X85174885Y-106901537D01*
X85235769Y-107115523D01*
X85235775Y-107115538D01*
X85334938Y-107314683D01*
X85334943Y-107314691D01*
X85469020Y-107492238D01*
X85633437Y-107642123D01*
X85633439Y-107642125D01*
X85822595Y-107759245D01*
X85822596Y-107759245D01*
X85822599Y-107759247D01*
X86016524Y-107834374D01*
X86071924Y-107876946D01*
X86095515Y-107942713D01*
X86079804Y-108010793D01*
X86029780Y-108059572D01*
X86016533Y-108065622D01*
X85910033Y-108106881D01*
X85822601Y-108140752D01*
X85822595Y-108140754D01*
X85633439Y-108257874D01*
X85633437Y-108257876D01*
X85469020Y-108407761D01*
X85334943Y-108585308D01*
X85334938Y-108585316D01*
X85235775Y-108784461D01*
X85235769Y-108784476D01*
X85174885Y-108998462D01*
X85174884Y-108998464D01*
X85154357Y-109219999D01*
X85154357Y-109220000D01*
X85174884Y-109441535D01*
X85174885Y-109441537D01*
X85235769Y-109655523D01*
X85235775Y-109655538D01*
X85334938Y-109854683D01*
X85334943Y-109854691D01*
X85469020Y-110032238D01*
X85633437Y-110182123D01*
X85633439Y-110182125D01*
X85822595Y-110299245D01*
X85822596Y-110299245D01*
X85822599Y-110299247D01*
X86016524Y-110374374D01*
X86071924Y-110416946D01*
X86095515Y-110482713D01*
X86079804Y-110550793D01*
X86029780Y-110599572D01*
X86016533Y-110605622D01*
X85926695Y-110640426D01*
X85822601Y-110680752D01*
X85822595Y-110680754D01*
X85633439Y-110797874D01*
X85633437Y-110797876D01*
X85469020Y-110947761D01*
X85334943Y-111125308D01*
X85334938Y-111125316D01*
X85235775Y-111324461D01*
X85235769Y-111324476D01*
X85174885Y-111538462D01*
X85174884Y-111538464D01*
X85154357Y-111759999D01*
X85154357Y-111760000D01*
X82530028Y-111760000D01*
X82516207Y-111602023D01*
X82468609Y-111424386D01*
X82459577Y-111390677D01*
X82459576Y-111390676D01*
X82459575Y-111390670D01*
X82367102Y-111192362D01*
X82367100Y-111192359D01*
X82367099Y-111192357D01*
X82241599Y-111013124D01*
X82176236Y-110947761D01*
X82086877Y-110858402D01*
X81907639Y-110732898D01*
X81907640Y-110732898D01*
X81907638Y-110732897D01*
X81808484Y-110686661D01*
X81709330Y-110640425D01*
X81709326Y-110640424D01*
X81709317Y-110640420D01*
X81706907Y-110639775D01*
X81705963Y-110639199D01*
X81704236Y-110638571D01*
X81704362Y-110638224D01*
X81647246Y-110603412D01*
X81616715Y-110540565D01*
X81625009Y-110471189D01*
X81669493Y-110417311D01*
X81704240Y-110401442D01*
X81704236Y-110401429D01*
X81704406Y-110401367D01*
X81706907Y-110400225D01*
X81709317Y-110399579D01*
X81709320Y-110399577D01*
X81709330Y-110399575D01*
X81907639Y-110307102D01*
X82086877Y-110181598D01*
X82241598Y-110026877D01*
X82367102Y-109847639D01*
X82459575Y-109649330D01*
X82516207Y-109437977D01*
X82535277Y-109220000D01*
X82516207Y-109002023D01*
X82459575Y-108790670D01*
X82367102Y-108592362D01*
X82367100Y-108592359D01*
X82367099Y-108592357D01*
X82241599Y-108413124D01*
X82236236Y-108407761D01*
X82086877Y-108258402D01*
X81907639Y-108132898D01*
X81907640Y-108132898D01*
X81907638Y-108132897D01*
X81851845Y-108106881D01*
X81799406Y-108060709D01*
X81780254Y-107993515D01*
X81800470Y-107926634D01*
X81853635Y-107881299D01*
X81904249Y-107870499D01*
X82077872Y-107870499D01*
X82137483Y-107864091D01*
X82272331Y-107813796D01*
X82387546Y-107727546D01*
X82473796Y-107612331D01*
X82524091Y-107477483D01*
X82530500Y-107417873D01*
X82530499Y-105822128D01*
X82524091Y-105762517D01*
X82507440Y-105717874D01*
X82473797Y-105627671D01*
X82473793Y-105627664D01*
X82387547Y-105512455D01*
X82387544Y-105512452D01*
X82272335Y-105426206D01*
X82272328Y-105426202D01*
X82137482Y-105375908D01*
X82137483Y-105375908D01*
X82077883Y-105369501D01*
X82077881Y-105369500D01*
X82077873Y-105369500D01*
X82077864Y-105369500D01*
X80482129Y-105369500D01*
X80482123Y-105369501D01*
X80422516Y-105375908D01*
X80287671Y-105426202D01*
X80287664Y-105426206D01*
X80172455Y-105512452D01*
X80172452Y-105512455D01*
X80086206Y-105627664D01*
X80086202Y-105627671D01*
X80035908Y-105762517D01*
X80029501Y-105822116D01*
X80029501Y-105822123D01*
X80029500Y-105822135D01*
X80029500Y-107417870D01*
X80029501Y-107417876D01*
X80035908Y-107477483D01*
X80086202Y-107612328D01*
X80086206Y-107612335D01*
X80172452Y-107727544D01*
X80172455Y-107727547D01*
X80287664Y-107813793D01*
X80287671Y-107813797D01*
X80422517Y-107864091D01*
X80422516Y-107864091D01*
X80429444Y-107864835D01*
X80482127Y-107870500D01*
X80655750Y-107870499D01*
X80722787Y-107890183D01*
X80768542Y-107942987D01*
X80778486Y-108012145D01*
X80749461Y-108075701D01*
X80708155Y-108106880D01*
X80652363Y-108132897D01*
X80652357Y-108132900D01*
X80473121Y-108258402D01*
X80318402Y-108413121D01*
X80192900Y-108592357D01*
X80192898Y-108592361D01*
X80100426Y-108790668D01*
X80100422Y-108790677D01*
X80043793Y-109002020D01*
X80043793Y-109002024D01*
X80024723Y-109219997D01*
X80024723Y-109220002D01*
X80043793Y-109437975D01*
X80043793Y-109437979D01*
X80100422Y-109649322D01*
X80100424Y-109649326D01*
X80100425Y-109649330D01*
X80103320Y-109655538D01*
X80192897Y-109847638D01*
X80192898Y-109847639D01*
X80318402Y-110026877D01*
X80473123Y-110181598D01*
X80652361Y-110307102D01*
X80850670Y-110399575D01*
X80850679Y-110399577D01*
X80850683Y-110399579D01*
X80853096Y-110400226D01*
X80854040Y-110400801D01*
X80855764Y-110401429D01*
X80855637Y-110401775D01*
X80912756Y-110436591D01*
X80943284Y-110499439D01*
X80934989Y-110568814D01*
X80890502Y-110622692D01*
X80855759Y-110638557D01*
X80855764Y-110638571D01*
X80855597Y-110638631D01*
X80853096Y-110639774D01*
X80850683Y-110640420D01*
X80850668Y-110640426D01*
X80652361Y-110732898D01*
X80652357Y-110732900D01*
X80473121Y-110858402D01*
X80318402Y-111013121D01*
X80192900Y-111192357D01*
X80192898Y-111192361D01*
X80100426Y-111390668D01*
X80100422Y-111390677D01*
X80043793Y-111602020D01*
X80043793Y-111602024D01*
X80024723Y-111819997D01*
X80024723Y-111820002D01*
X70350500Y-111820002D01*
X70350500Y-102930002D01*
X80024723Y-102930002D01*
X80031944Y-103012538D01*
X80041345Y-103120000D01*
X80043793Y-103147975D01*
X80043793Y-103147979D01*
X80100422Y-103359322D01*
X80100424Y-103359326D01*
X80100425Y-103359330D01*
X80146661Y-103458484D01*
X80192897Y-103557638D01*
X80192898Y-103557639D01*
X80318402Y-103736877D01*
X80473123Y-103891598D01*
X80652361Y-104017102D01*
X80850670Y-104109575D01*
X81062023Y-104166207D01*
X81244926Y-104182208D01*
X81279998Y-104185277D01*
X81280000Y-104185277D01*
X81280002Y-104185277D01*
X81308254Y-104182805D01*
X81497977Y-104166207D01*
X81709330Y-104109575D01*
X81907639Y-104017102D01*
X82086877Y-103891598D01*
X82241598Y-103736877D01*
X82367102Y-103557639D01*
X82459575Y-103359330D01*
X82516207Y-103147977D01*
X82535277Y-102930000D01*
X82530028Y-102870000D01*
X85154357Y-102870000D01*
X85174884Y-103091535D01*
X85174885Y-103091537D01*
X85235769Y-103305523D01*
X85235775Y-103305538D01*
X85334938Y-103504683D01*
X85334943Y-103504691D01*
X85469020Y-103682238D01*
X85633437Y-103832123D01*
X85633439Y-103832125D01*
X85822595Y-103949245D01*
X85822596Y-103949245D01*
X85822599Y-103949247D01*
X86030060Y-104029618D01*
X86248757Y-104070500D01*
X86248759Y-104070500D01*
X86471241Y-104070500D01*
X86471243Y-104070500D01*
X86689940Y-104029618D01*
X86897401Y-103949247D01*
X87086562Y-103832124D01*
X87244738Y-103687927D01*
X87250979Y-103682238D01*
X87251235Y-103681900D01*
X87385058Y-103504689D01*
X87484229Y-103305528D01*
X87537016Y-103120000D01*
X92803505Y-103120000D01*
X92856239Y-103305349D01*
X92955368Y-103504425D01*
X93089391Y-103681900D01*
X93253738Y-103831721D01*
X93442820Y-103948797D01*
X93442822Y-103948798D01*
X93650195Y-104029135D01*
X93730000Y-104044052D01*
X93730000Y-103120000D01*
X92803505Y-103120000D01*
X87537016Y-103120000D01*
X87545115Y-103091536D01*
X87565643Y-102870000D01*
X87545115Y-102648464D01*
X87484229Y-102434472D01*
X87418446Y-102302362D01*
X87385061Y-102235316D01*
X87385056Y-102235308D01*
X87250979Y-102057761D01*
X87086562Y-101907876D01*
X87086560Y-101907874D01*
X86897404Y-101790754D01*
X86897395Y-101790750D01*
X86793305Y-101750426D01*
X86703475Y-101715625D01*
X86648075Y-101673054D01*
X86624484Y-101607288D01*
X86640195Y-101539207D01*
X86690219Y-101490428D01*
X86703466Y-101484377D01*
X86897401Y-101409247D01*
X87086562Y-101292124D01*
X87250981Y-101142236D01*
X87385058Y-100964689D01*
X87484229Y-100765528D01*
X87545115Y-100551536D01*
X87565643Y-100330000D01*
X87545115Y-100108464D01*
X87484229Y-99894472D01*
X87484224Y-99894461D01*
X87385061Y-99695316D01*
X87385056Y-99695308D01*
X87250979Y-99517761D01*
X87086562Y-99367876D01*
X87086560Y-99367874D01*
X86897404Y-99250754D01*
X86897395Y-99250750D01*
X86803956Y-99214552D01*
X86703475Y-99175625D01*
X86648075Y-99133054D01*
X86624484Y-99067288D01*
X86640195Y-98999207D01*
X86690219Y-98950428D01*
X86703466Y-98944377D01*
X86897401Y-98869247D01*
X87086562Y-98752124D01*
X87250981Y-98602236D01*
X87385058Y-98424689D01*
X87484229Y-98225528D01*
X87545115Y-98011536D01*
X87565643Y-97790000D01*
X87545115Y-97568464D01*
X87484229Y-97354472D01*
X87484224Y-97354461D01*
X87385061Y-97155316D01*
X87385056Y-97155308D01*
X87250979Y-96977761D01*
X87086562Y-96827876D01*
X87086560Y-96827874D01*
X86897404Y-96710754D01*
X86897398Y-96710752D01*
X86689940Y-96630382D01*
X86471243Y-96589500D01*
X86248757Y-96589500D01*
X86030060Y-96630382D01*
X85898864Y-96681207D01*
X85822601Y-96710752D01*
X85822595Y-96710754D01*
X85633439Y-96827874D01*
X85633437Y-96827876D01*
X85469020Y-96977761D01*
X85334943Y-97155308D01*
X85334938Y-97155316D01*
X85235775Y-97354461D01*
X85235769Y-97354476D01*
X85174885Y-97568462D01*
X85174884Y-97568464D01*
X85154357Y-97789999D01*
X85154357Y-97790000D01*
X85174884Y-98011535D01*
X85174885Y-98011537D01*
X85235769Y-98225523D01*
X85235775Y-98225538D01*
X85334938Y-98424683D01*
X85334943Y-98424691D01*
X85469020Y-98602238D01*
X85633437Y-98752123D01*
X85633439Y-98752125D01*
X85822595Y-98869245D01*
X85822596Y-98869245D01*
X85822599Y-98869247D01*
X86016524Y-98944374D01*
X86071924Y-98986946D01*
X86095515Y-99052713D01*
X86079804Y-99120793D01*
X86029780Y-99169572D01*
X86016533Y-99175622D01*
X85910033Y-99216881D01*
X85822601Y-99250752D01*
X85822595Y-99250754D01*
X85633439Y-99367874D01*
X85633437Y-99367876D01*
X85469020Y-99517761D01*
X85334943Y-99695308D01*
X85334938Y-99695316D01*
X85235775Y-99894461D01*
X85235769Y-99894476D01*
X85174885Y-100108462D01*
X85174884Y-100108464D01*
X85154357Y-100329999D01*
X85154357Y-100330000D01*
X85174884Y-100551535D01*
X85174885Y-100551537D01*
X85235769Y-100765523D01*
X85235775Y-100765538D01*
X85334938Y-100964683D01*
X85334943Y-100964691D01*
X85469020Y-101142238D01*
X85633437Y-101292123D01*
X85633439Y-101292125D01*
X85822595Y-101409245D01*
X85822596Y-101409245D01*
X85822599Y-101409247D01*
X86016524Y-101484374D01*
X86071924Y-101526946D01*
X86095515Y-101592713D01*
X86079804Y-101660793D01*
X86029780Y-101709572D01*
X86016533Y-101715622D01*
X85926695Y-101750426D01*
X85822601Y-101790752D01*
X85822595Y-101790754D01*
X85633439Y-101907874D01*
X85633437Y-101907876D01*
X85469020Y-102057761D01*
X85334943Y-102235308D01*
X85334938Y-102235316D01*
X85235775Y-102434461D01*
X85235769Y-102434476D01*
X85174885Y-102648462D01*
X85174884Y-102648464D01*
X85154357Y-102869999D01*
X85154357Y-102870000D01*
X82530028Y-102870000D01*
X82516207Y-102712023D01*
X82468609Y-102534386D01*
X82459577Y-102500677D01*
X82459576Y-102500676D01*
X82459575Y-102500670D01*
X82367102Y-102302362D01*
X82367100Y-102302359D01*
X82367099Y-102302357D01*
X82241599Y-102123124D01*
X82176236Y-102057761D01*
X82086877Y-101968402D01*
X81907639Y-101842898D01*
X81907640Y-101842898D01*
X81907638Y-101842897D01*
X81808484Y-101796661D01*
X81709330Y-101750425D01*
X81709326Y-101750424D01*
X81709317Y-101750420D01*
X81706907Y-101749775D01*
X81705963Y-101749199D01*
X81704236Y-101748571D01*
X81704362Y-101748224D01*
X81647246Y-101713412D01*
X81616715Y-101650565D01*
X81625009Y-101581189D01*
X81669493Y-101527311D01*
X81704240Y-101511442D01*
X81704236Y-101511429D01*
X81704406Y-101511367D01*
X81706907Y-101510225D01*
X81709317Y-101509579D01*
X81709320Y-101509577D01*
X81709330Y-101509575D01*
X81907639Y-101417102D01*
X82086877Y-101291598D01*
X82241598Y-101136877D01*
X82367102Y-100957639D01*
X82459575Y-100759330D01*
X82516207Y-100547977D01*
X82535277Y-100330000D01*
X82516207Y-100112023D01*
X82459575Y-99900670D01*
X82367102Y-99702362D01*
X82367100Y-99702359D01*
X82367099Y-99702357D01*
X82241599Y-99523124D01*
X82236236Y-99517761D01*
X82086877Y-99368402D01*
X81907639Y-99242898D01*
X81907640Y-99242898D01*
X81907638Y-99242897D01*
X81851845Y-99216881D01*
X81799406Y-99170709D01*
X81780254Y-99103515D01*
X81800470Y-99036634D01*
X81853635Y-98991299D01*
X81904249Y-98980499D01*
X82077872Y-98980499D01*
X82137483Y-98974091D01*
X82272331Y-98923796D01*
X82387546Y-98837546D01*
X82473796Y-98722331D01*
X82524091Y-98587483D01*
X82530500Y-98527873D01*
X82530499Y-96932128D01*
X82524091Y-96872517D01*
X82507440Y-96827874D01*
X82473797Y-96737671D01*
X82473793Y-96737664D01*
X82387547Y-96622455D01*
X82387544Y-96622452D01*
X82272335Y-96536206D01*
X82272328Y-96536202D01*
X82137482Y-96485908D01*
X82137483Y-96485908D01*
X82077883Y-96479501D01*
X82077881Y-96479500D01*
X82077873Y-96479500D01*
X82077864Y-96479500D01*
X80482129Y-96479500D01*
X80482123Y-96479501D01*
X80422516Y-96485908D01*
X80287671Y-96536202D01*
X80287664Y-96536206D01*
X80172455Y-96622452D01*
X80172452Y-96622455D01*
X80086206Y-96737664D01*
X80086202Y-96737671D01*
X80035908Y-96872517D01*
X80029501Y-96932116D01*
X80029501Y-96932123D01*
X80029500Y-96932135D01*
X80029500Y-98527870D01*
X80029501Y-98527876D01*
X80035908Y-98587483D01*
X80086202Y-98722328D01*
X80086206Y-98722335D01*
X80172452Y-98837544D01*
X80172455Y-98837547D01*
X80287664Y-98923793D01*
X80287671Y-98923797D01*
X80422517Y-98974091D01*
X80422516Y-98974091D01*
X80429444Y-98974835D01*
X80482127Y-98980500D01*
X80655750Y-98980499D01*
X80722787Y-99000183D01*
X80768542Y-99052987D01*
X80778486Y-99122145D01*
X80749461Y-99185701D01*
X80708155Y-99216880D01*
X80652363Y-99242897D01*
X80652357Y-99242900D01*
X80473121Y-99368402D01*
X80318402Y-99523121D01*
X80192900Y-99702357D01*
X80192898Y-99702361D01*
X80100426Y-99900668D01*
X80100422Y-99900677D01*
X80043793Y-100112020D01*
X80043793Y-100112024D01*
X80024723Y-100329997D01*
X80024723Y-100330002D01*
X80043793Y-100547975D01*
X80043793Y-100547979D01*
X80100422Y-100759322D01*
X80100424Y-100759326D01*
X80100425Y-100759330D01*
X80103320Y-100765538D01*
X80192897Y-100957638D01*
X80192898Y-100957639D01*
X80318402Y-101136877D01*
X80473123Y-101291598D01*
X80652361Y-101417102D01*
X80850670Y-101509575D01*
X80850679Y-101509577D01*
X80850683Y-101509579D01*
X80853096Y-101510226D01*
X80854040Y-101510801D01*
X80855764Y-101511429D01*
X80855637Y-101511775D01*
X80912756Y-101546591D01*
X80943284Y-101609439D01*
X80934989Y-101678814D01*
X80890502Y-101732692D01*
X80855759Y-101748557D01*
X80855764Y-101748571D01*
X80855597Y-101748631D01*
X80853096Y-101749774D01*
X80850683Y-101750420D01*
X80850668Y-101750426D01*
X80652361Y-101842898D01*
X80652357Y-101842900D01*
X80473121Y-101968402D01*
X80318402Y-102123121D01*
X80192900Y-102302357D01*
X80192898Y-102302361D01*
X80100426Y-102500668D01*
X80100422Y-102500677D01*
X80043793Y-102712020D01*
X80043793Y-102712024D01*
X80024723Y-102929997D01*
X80024723Y-102930002D01*
X70350500Y-102930002D01*
X70350500Y-89540000D01*
X71034341Y-89540000D01*
X71054936Y-89775403D01*
X71054938Y-89775413D01*
X71116094Y-90003655D01*
X71116096Y-90003659D01*
X71116097Y-90003663D01*
X71190391Y-90162987D01*
X71215965Y-90217830D01*
X71215967Y-90217834D01*
X71324281Y-90372521D01*
X71351505Y-90411401D01*
X71518599Y-90578495D01*
X71596613Y-90633121D01*
X71712165Y-90714032D01*
X71712167Y-90714033D01*
X71712170Y-90714035D01*
X71926337Y-90813903D01*
X72154592Y-90875063D01*
X72332851Y-90890659D01*
X72389999Y-90895659D01*
X72390000Y-90895659D01*
X72390001Y-90895659D01*
X72447149Y-90890659D01*
X72625408Y-90875063D01*
X72853663Y-90813903D01*
X73067830Y-90714035D01*
X73261401Y-90578495D01*
X73428495Y-90411401D01*
X73546147Y-90243377D01*
X73600724Y-90199752D01*
X73647722Y-90190500D01*
X76109495Y-90190500D01*
X76125505Y-90192267D01*
X76125528Y-90192026D01*
X76133289Y-90192758D01*
X76133296Y-90192760D01*
X76203262Y-90190560D01*
X76207157Y-90190500D01*
X76235925Y-90190500D01*
X76240287Y-90189948D01*
X76251939Y-90189030D01*
X76297569Y-90187597D01*
X76317956Y-90181673D01*
X76336996Y-90177731D01*
X76358058Y-90175071D01*
X76400520Y-90158258D01*
X76411557Y-90154480D01*
X76455398Y-90141744D01*
X76473665Y-90130939D01*
X76491136Y-90122380D01*
X76510871Y-90114568D01*
X76547816Y-90087725D01*
X76557558Y-90081326D01*
X76596865Y-90058081D01*
X76611870Y-90043075D01*
X76626668Y-90030436D01*
X76643837Y-90017963D01*
X76672946Y-89982774D01*
X76680790Y-89974154D01*
X78973127Y-87681819D01*
X79034450Y-87648334D01*
X79060808Y-87645500D01*
X79989825Y-87645500D01*
X80056864Y-87665185D01*
X80102619Y-87717989D01*
X80112563Y-87787147D01*
X80089092Y-87843810D01*
X80086206Y-87847664D01*
X80086202Y-87847671D01*
X80035908Y-87982517D01*
X80029501Y-88042116D01*
X80029501Y-88042123D01*
X80029500Y-88042135D01*
X80029500Y-89637870D01*
X80029501Y-89637876D01*
X80035908Y-89697483D01*
X80086202Y-89832328D01*
X80086206Y-89832335D01*
X80172452Y-89947544D01*
X80172455Y-89947547D01*
X80287664Y-90033793D01*
X80287671Y-90033797D01*
X80422517Y-90084091D01*
X80422516Y-90084091D01*
X80424442Y-90084298D01*
X80482127Y-90090500D01*
X80655750Y-90090499D01*
X80722787Y-90110183D01*
X80768542Y-90162987D01*
X80778486Y-90232145D01*
X80749461Y-90295701D01*
X80708155Y-90326880D01*
X80652363Y-90352897D01*
X80652357Y-90352900D01*
X80473121Y-90478402D01*
X80318402Y-90633121D01*
X80192900Y-90812357D01*
X80192898Y-90812361D01*
X80100426Y-91010668D01*
X80100422Y-91010677D01*
X80043793Y-91222020D01*
X80043793Y-91222024D01*
X80024723Y-91439997D01*
X80024723Y-91440002D01*
X80043793Y-91657975D01*
X80043793Y-91657979D01*
X80100422Y-91869322D01*
X80100424Y-91869326D01*
X80100425Y-91869330D01*
X80103320Y-91875538D01*
X80192897Y-92067638D01*
X80192898Y-92067639D01*
X80318402Y-92246877D01*
X80473123Y-92401598D01*
X80652361Y-92527102D01*
X80850670Y-92619575D01*
X80850679Y-92619577D01*
X80850683Y-92619579D01*
X80853096Y-92620226D01*
X80854040Y-92620801D01*
X80855764Y-92621429D01*
X80855637Y-92621775D01*
X80912756Y-92656591D01*
X80943284Y-92719439D01*
X80934989Y-92788814D01*
X80890502Y-92842692D01*
X80855759Y-92858557D01*
X80855764Y-92858571D01*
X80855597Y-92858631D01*
X80853096Y-92859774D01*
X80850683Y-92860420D01*
X80850668Y-92860426D01*
X80652361Y-92952898D01*
X80652357Y-92952900D01*
X80473121Y-93078402D01*
X80318402Y-93233121D01*
X80192900Y-93412357D01*
X80192898Y-93412361D01*
X80100426Y-93610668D01*
X80100422Y-93610677D01*
X80043793Y-93822020D01*
X80043793Y-93822024D01*
X80024723Y-94039997D01*
X80024723Y-94040002D01*
X80031944Y-94122538D01*
X80041345Y-94230000D01*
X80043793Y-94257975D01*
X80043793Y-94257979D01*
X80100422Y-94469322D01*
X80100424Y-94469326D01*
X80100425Y-94469330D01*
X80146661Y-94568484D01*
X80192897Y-94667638D01*
X80192898Y-94667639D01*
X80318402Y-94846877D01*
X80473123Y-95001598D01*
X80652361Y-95127102D01*
X80850670Y-95219575D01*
X81062023Y-95276207D01*
X81244926Y-95292208D01*
X81279998Y-95295277D01*
X81280000Y-95295277D01*
X81280002Y-95295277D01*
X81308254Y-95292805D01*
X81497977Y-95276207D01*
X81709330Y-95219575D01*
X81907639Y-95127102D01*
X82086877Y-95001598D01*
X82241598Y-94846877D01*
X82367102Y-94667639D01*
X82459575Y-94469330D01*
X82516207Y-94257977D01*
X82535277Y-94040000D01*
X82516207Y-93822023D01*
X82468609Y-93644386D01*
X82459577Y-93610677D01*
X82459576Y-93610676D01*
X82459575Y-93610670D01*
X82367102Y-93412362D01*
X82367100Y-93412359D01*
X82367099Y-93412357D01*
X82241599Y-93233124D01*
X82176236Y-93167761D01*
X82086877Y-93078402D01*
X81907639Y-92952898D01*
X81907640Y-92952898D01*
X81907638Y-92952897D01*
X81808484Y-92906661D01*
X81709330Y-92860425D01*
X81709326Y-92860424D01*
X81709317Y-92860420D01*
X81706907Y-92859775D01*
X81705963Y-92859199D01*
X81704236Y-92858571D01*
X81704362Y-92858224D01*
X81647246Y-92823412D01*
X81616715Y-92760565D01*
X81625009Y-92691189D01*
X81669493Y-92637311D01*
X81704240Y-92621442D01*
X81704236Y-92621429D01*
X81704406Y-92621367D01*
X81706907Y-92620225D01*
X81709317Y-92619579D01*
X81709320Y-92619577D01*
X81709330Y-92619575D01*
X81907639Y-92527102D01*
X82086877Y-92401598D01*
X82241598Y-92246877D01*
X82367102Y-92067639D01*
X82459575Y-91869330D01*
X82516207Y-91657977D01*
X82535277Y-91440000D01*
X82516207Y-91222023D01*
X82459575Y-91010670D01*
X82367102Y-90812362D01*
X82367100Y-90812359D01*
X82367099Y-90812357D01*
X82241599Y-90633124D01*
X82181968Y-90573493D01*
X82086877Y-90478402D01*
X81907639Y-90352898D01*
X81907640Y-90352898D01*
X81907638Y-90352897D01*
X81851845Y-90326881D01*
X81799406Y-90280709D01*
X81780254Y-90213515D01*
X81800470Y-90146634D01*
X81853635Y-90101299D01*
X81904249Y-90090499D01*
X82077872Y-90090499D01*
X82137483Y-90084091D01*
X82272331Y-90033796D01*
X82387546Y-89947546D01*
X82473796Y-89832331D01*
X82524091Y-89697483D01*
X82530500Y-89637873D01*
X82530499Y-88042128D01*
X82524091Y-87982517D01*
X82512850Y-87952379D01*
X82473797Y-87847671D01*
X82473793Y-87847664D01*
X82470908Y-87843810D01*
X82446491Y-87778346D01*
X82461343Y-87710073D01*
X82510748Y-87660668D01*
X82570175Y-87645500D01*
X85669827Y-87645500D01*
X85736866Y-87665185D01*
X85782621Y-87717989D01*
X85792565Y-87787147D01*
X85763540Y-87850703D01*
X85735104Y-87874927D01*
X85633439Y-87937874D01*
X85633437Y-87937876D01*
X85469020Y-88087761D01*
X85334943Y-88265308D01*
X85334938Y-88265316D01*
X85235775Y-88464461D01*
X85235769Y-88464476D01*
X85174885Y-88678462D01*
X85174884Y-88678464D01*
X85154357Y-88899999D01*
X85154357Y-88900000D01*
X85174884Y-89121535D01*
X85174885Y-89121537D01*
X85235769Y-89335523D01*
X85235775Y-89335538D01*
X85334938Y-89534683D01*
X85334943Y-89534691D01*
X85469020Y-89712238D01*
X85633437Y-89862123D01*
X85633439Y-89862125D01*
X85822595Y-89979245D01*
X85822596Y-89979245D01*
X85822599Y-89979247D01*
X86016524Y-90054374D01*
X86071924Y-90096946D01*
X86095515Y-90162713D01*
X86079804Y-90230793D01*
X86029780Y-90279572D01*
X86016533Y-90285622D01*
X85910033Y-90326881D01*
X85822601Y-90360752D01*
X85822595Y-90360754D01*
X85633439Y-90477874D01*
X85633437Y-90477876D01*
X85469020Y-90627761D01*
X85334943Y-90805308D01*
X85334938Y-90805316D01*
X85235775Y-91004461D01*
X85235769Y-91004476D01*
X85174885Y-91218462D01*
X85174884Y-91218464D01*
X85154357Y-91439999D01*
X85154357Y-91440000D01*
X85174884Y-91661535D01*
X85174885Y-91661537D01*
X85235769Y-91875523D01*
X85235775Y-91875538D01*
X85334938Y-92074683D01*
X85334943Y-92074691D01*
X85469020Y-92252238D01*
X85633437Y-92402123D01*
X85633439Y-92402125D01*
X85822595Y-92519245D01*
X85822596Y-92519245D01*
X85822599Y-92519247D01*
X86016524Y-92594374D01*
X86071924Y-92636946D01*
X86095515Y-92702713D01*
X86079804Y-92770793D01*
X86029780Y-92819572D01*
X86016533Y-92825622D01*
X85926695Y-92860426D01*
X85822601Y-92900752D01*
X85822595Y-92900754D01*
X85633439Y-93017874D01*
X85633437Y-93017876D01*
X85469020Y-93167761D01*
X85334943Y-93345308D01*
X85334938Y-93345316D01*
X85235775Y-93544461D01*
X85235769Y-93544476D01*
X85174885Y-93758462D01*
X85174884Y-93758464D01*
X85154357Y-93979999D01*
X85154357Y-93980000D01*
X85174884Y-94201535D01*
X85174885Y-94201537D01*
X85235769Y-94415523D01*
X85235775Y-94415538D01*
X85334938Y-94614683D01*
X85334943Y-94614691D01*
X85469020Y-94792238D01*
X85633437Y-94942123D01*
X85633439Y-94942125D01*
X85822595Y-95059245D01*
X85822596Y-95059245D01*
X85822599Y-95059247D01*
X86030060Y-95139618D01*
X86248757Y-95180500D01*
X86248759Y-95180500D01*
X86471241Y-95180500D01*
X86471243Y-95180500D01*
X86689940Y-95139618D01*
X86897401Y-95059247D01*
X87086562Y-94942124D01*
X87250981Y-94792236D01*
X87385058Y-94614689D01*
X87484229Y-94415528D01*
X87537016Y-94230000D01*
X92803505Y-94230000D01*
X92856239Y-94415349D01*
X92955368Y-94614425D01*
X93089391Y-94791900D01*
X93253738Y-94941721D01*
X93442820Y-95058797D01*
X93442822Y-95058798D01*
X93650195Y-95139135D01*
X93730000Y-95154052D01*
X93730000Y-94230000D01*
X92803505Y-94230000D01*
X87537016Y-94230000D01*
X87545115Y-94201536D01*
X87565643Y-93980000D01*
X87563734Y-93959403D01*
X87545115Y-93758464D01*
X87545114Y-93758462D01*
X87484230Y-93544476D01*
X87484229Y-93544472D01*
X87418446Y-93412362D01*
X87385061Y-93345316D01*
X87385056Y-93345308D01*
X87250979Y-93167761D01*
X87086562Y-93017876D01*
X87086560Y-93017874D01*
X86897404Y-92900754D01*
X86897395Y-92900750D01*
X86793305Y-92860426D01*
X86703475Y-92825625D01*
X86648075Y-92783054D01*
X86624484Y-92717288D01*
X86640195Y-92649207D01*
X86690219Y-92600428D01*
X86703466Y-92594377D01*
X86897401Y-92519247D01*
X87086562Y-92402124D01*
X87250981Y-92252236D01*
X87385058Y-92074689D01*
X87484229Y-91875528D01*
X87545115Y-91661536D01*
X87565643Y-91440000D01*
X87545115Y-91218464D01*
X87484229Y-91004472D01*
X87484224Y-91004461D01*
X87385061Y-90805316D01*
X87385056Y-90805308D01*
X87250979Y-90627761D01*
X87086562Y-90477876D01*
X87086560Y-90477874D01*
X86897404Y-90360754D01*
X86897395Y-90360750D01*
X86803956Y-90324552D01*
X86703475Y-90285625D01*
X86648075Y-90243054D01*
X86624484Y-90177288D01*
X86640195Y-90109207D01*
X86690219Y-90060428D01*
X86703466Y-90054377D01*
X86897401Y-89979247D01*
X87086562Y-89862124D01*
X87226282Y-89734751D01*
X87250979Y-89712238D01*
X87262122Y-89697483D01*
X87385058Y-89534689D01*
X87484229Y-89335528D01*
X87545115Y-89121536D01*
X87565643Y-88900000D01*
X87564407Y-88886666D01*
X87545115Y-88678464D01*
X87545114Y-88678462D01*
X87540885Y-88663600D01*
X87484229Y-88464472D01*
X87484224Y-88464461D01*
X87385061Y-88265316D01*
X87385056Y-88265308D01*
X87250979Y-88087761D01*
X87086562Y-87937876D01*
X87086560Y-87937874D01*
X86984896Y-87874927D01*
X86938260Y-87822899D01*
X86927156Y-87753918D01*
X86955109Y-87689883D01*
X87013244Y-87651127D01*
X87050173Y-87645500D01*
X93289827Y-87645500D01*
X93356866Y-87665185D01*
X93402621Y-87717989D01*
X93412565Y-87787147D01*
X93383540Y-87850703D01*
X93355104Y-87874927D01*
X93253439Y-87937874D01*
X93253437Y-87937876D01*
X93089020Y-88087761D01*
X92954943Y-88265308D01*
X92954938Y-88265316D01*
X92855775Y-88464461D01*
X92855769Y-88464476D01*
X92794885Y-88678462D01*
X92794884Y-88678464D01*
X92774357Y-88899999D01*
X92774357Y-88900000D01*
X92794884Y-89121535D01*
X92794885Y-89121537D01*
X92855769Y-89335523D01*
X92855775Y-89335538D01*
X92954938Y-89534683D01*
X92954943Y-89534691D01*
X93089020Y-89712238D01*
X93253437Y-89862123D01*
X93253439Y-89862125D01*
X93442595Y-89979245D01*
X93442596Y-89979245D01*
X93442599Y-89979247D01*
X93636524Y-90054374D01*
X93691924Y-90096946D01*
X93715515Y-90162713D01*
X93699804Y-90230793D01*
X93649780Y-90279572D01*
X93636533Y-90285622D01*
X93530033Y-90326881D01*
X93442601Y-90360752D01*
X93442595Y-90360754D01*
X93253439Y-90477874D01*
X93253437Y-90477876D01*
X93089020Y-90627761D01*
X92954943Y-90805308D01*
X92954938Y-90805316D01*
X92855775Y-91004461D01*
X92855769Y-91004476D01*
X92794885Y-91218462D01*
X92794884Y-91218464D01*
X92774357Y-91439999D01*
X92774357Y-91440000D01*
X92794884Y-91661535D01*
X92794885Y-91661537D01*
X92855769Y-91875523D01*
X92855775Y-91875538D01*
X92954938Y-92074683D01*
X92954943Y-92074691D01*
X93089020Y-92252238D01*
X93253437Y-92402123D01*
X93253439Y-92402125D01*
X93442595Y-92519245D01*
X93442596Y-92519245D01*
X93442599Y-92519247D01*
X93637215Y-92594642D01*
X93692614Y-92637213D01*
X93716205Y-92702980D01*
X93700494Y-92771060D01*
X93650470Y-92819839D01*
X93637213Y-92825893D01*
X93442831Y-92901197D01*
X93442820Y-92901202D01*
X93253738Y-93018278D01*
X93089391Y-93168099D01*
X92955368Y-93345574D01*
X92856239Y-93544650D01*
X92803505Y-93730000D01*
X93734419Y-93730000D01*
X93682940Y-93785921D01*
X93636018Y-93892892D01*
X93626372Y-94009302D01*
X93655047Y-94122538D01*
X93718936Y-94220327D01*
X93811115Y-94292072D01*
X93921595Y-94330000D01*
X94009005Y-94330000D01*
X94095216Y-94315614D01*
X94197947Y-94260019D01*
X94225581Y-94230000D01*
X94230000Y-94230000D01*
X94230000Y-95154052D01*
X94309804Y-95139135D01*
X94517177Y-95058798D01*
X94517179Y-95058797D01*
X94706261Y-94941721D01*
X94870608Y-94791900D01*
X95004631Y-94614425D01*
X95103760Y-94415349D01*
X95156495Y-94230000D01*
X94230000Y-94230000D01*
X94225581Y-94230000D01*
X94277060Y-94174079D01*
X94323982Y-94067108D01*
X94333628Y-93950698D01*
X94304953Y-93837462D01*
X94241064Y-93739673D01*
X94228636Y-93730000D01*
X95156495Y-93730000D01*
X95103760Y-93544650D01*
X95004631Y-93345574D01*
X94870608Y-93168099D01*
X94706261Y-93018278D01*
X94517179Y-92901202D01*
X94517177Y-92901201D01*
X94322786Y-92825894D01*
X94267384Y-92783321D01*
X94243794Y-92717554D01*
X94259505Y-92649474D01*
X94309529Y-92600695D01*
X94322772Y-92594646D01*
X94517401Y-92519247D01*
X94706562Y-92402124D01*
X94870981Y-92252236D01*
X95005058Y-92074689D01*
X95104229Y-91875528D01*
X95165115Y-91661536D01*
X95185643Y-91440000D01*
X95165115Y-91218464D01*
X95104229Y-91004472D01*
X95104224Y-91004461D01*
X95005061Y-90805316D01*
X95005056Y-90805308D01*
X94870979Y-90627761D01*
X94706562Y-90477876D01*
X94706560Y-90477874D01*
X94517404Y-90360754D01*
X94517395Y-90360750D01*
X94423956Y-90324552D01*
X94323475Y-90285625D01*
X94268075Y-90243054D01*
X94244484Y-90177288D01*
X94260195Y-90109207D01*
X94310219Y-90060428D01*
X94323466Y-90054377D01*
X94517401Y-89979247D01*
X94706562Y-89862124D01*
X94870981Y-89712236D01*
X94955909Y-89599773D01*
X95012018Y-89558137D01*
X95054863Y-89550500D01*
X95164495Y-89550500D01*
X95180505Y-89552267D01*
X95180528Y-89552026D01*
X95188289Y-89552758D01*
X95188296Y-89552760D01*
X95258262Y-89550560D01*
X95262157Y-89550500D01*
X95290925Y-89550500D01*
X95295287Y-89549948D01*
X95306939Y-89549030D01*
X95352569Y-89547597D01*
X95372956Y-89541673D01*
X95391996Y-89537731D01*
X95413058Y-89535071D01*
X95455520Y-89518258D01*
X95466557Y-89514480D01*
X95510398Y-89501744D01*
X95528665Y-89490939D01*
X95546136Y-89482380D01*
X95565871Y-89474568D01*
X95602816Y-89447725D01*
X95612558Y-89441326D01*
X95651865Y-89418081D01*
X95666870Y-89403075D01*
X95681668Y-89390436D01*
X95698837Y-89377963D01*
X95727946Y-89342774D01*
X95735790Y-89334154D01*
X96292820Y-88777125D01*
X96354142Y-88743641D01*
X96423834Y-88748625D01*
X96479767Y-88790497D01*
X96504184Y-88855961D01*
X96504500Y-88864807D01*
X96504500Y-93919044D01*
X96502973Y-93938444D01*
X96499653Y-93959403D01*
X96503950Y-94004858D01*
X96504500Y-94016528D01*
X96504500Y-94294191D01*
X96484815Y-94361230D01*
X96468181Y-94381872D01*
X94296701Y-96553351D01*
X94235378Y-96586836D01*
X94165686Y-96581852D01*
X94161585Y-96580238D01*
X94136762Y-96569956D01*
X94136760Y-96569955D01*
X93980001Y-96549318D01*
X93979999Y-96549318D01*
X93823240Y-96569955D01*
X93711758Y-96616132D01*
X93687094Y-96623458D01*
X93650067Y-96630380D01*
X93650060Y-96630382D01*
X93442601Y-96710751D01*
X93442595Y-96710754D01*
X93253439Y-96827874D01*
X93253437Y-96827876D01*
X93089020Y-96977761D01*
X92954943Y-97155308D01*
X92954938Y-97155316D01*
X92855775Y-97354461D01*
X92855769Y-97354476D01*
X92794885Y-97568462D01*
X92794884Y-97568464D01*
X92774357Y-97789999D01*
X92774357Y-97790000D01*
X92794884Y-98011535D01*
X92794885Y-98011537D01*
X92855769Y-98225523D01*
X92855775Y-98225538D01*
X92954938Y-98424683D01*
X92954943Y-98424691D01*
X93089020Y-98602238D01*
X93253437Y-98752123D01*
X93253439Y-98752125D01*
X93442595Y-98869245D01*
X93442596Y-98869245D01*
X93442599Y-98869247D01*
X93636524Y-98944374D01*
X93691924Y-98986946D01*
X93715515Y-99052713D01*
X93699804Y-99120793D01*
X93649780Y-99169572D01*
X93636533Y-99175622D01*
X93530033Y-99216881D01*
X93442601Y-99250752D01*
X93442595Y-99250754D01*
X93253439Y-99367874D01*
X93253437Y-99367876D01*
X93089020Y-99517761D01*
X92954943Y-99695308D01*
X92954938Y-99695316D01*
X92855775Y-99894461D01*
X92855769Y-99894476D01*
X92794885Y-100108462D01*
X92794884Y-100108464D01*
X92774357Y-100329999D01*
X92774357Y-100330000D01*
X92794884Y-100551535D01*
X92794885Y-100551537D01*
X92855769Y-100765523D01*
X92855775Y-100765538D01*
X92954938Y-100964683D01*
X92954943Y-100964691D01*
X93089020Y-101142238D01*
X93253437Y-101292123D01*
X93253439Y-101292125D01*
X93442595Y-101409245D01*
X93442596Y-101409245D01*
X93442599Y-101409247D01*
X93637215Y-101484642D01*
X93692614Y-101527213D01*
X93716205Y-101592980D01*
X93700494Y-101661060D01*
X93650470Y-101709839D01*
X93637213Y-101715893D01*
X93442831Y-101791197D01*
X93442820Y-101791202D01*
X93253738Y-101908278D01*
X93089391Y-102058099D01*
X92955368Y-102235574D01*
X92856239Y-102434650D01*
X92803505Y-102620000D01*
X93734419Y-102620000D01*
X93682940Y-102675921D01*
X93636018Y-102782892D01*
X93626372Y-102899302D01*
X93655047Y-103012538D01*
X93718936Y-103110327D01*
X93811115Y-103182072D01*
X93921595Y-103220000D01*
X94009005Y-103220000D01*
X94095216Y-103205614D01*
X94197947Y-103150019D01*
X94225581Y-103120000D01*
X94230000Y-103120000D01*
X94230000Y-104044052D01*
X94309804Y-104029135D01*
X94517177Y-103948798D01*
X94517179Y-103948797D01*
X94706261Y-103831721D01*
X94870608Y-103681900D01*
X95004631Y-103504425D01*
X95103760Y-103305349D01*
X95156495Y-103120000D01*
X94230000Y-103120000D01*
X94225581Y-103120000D01*
X94277060Y-103064079D01*
X94323982Y-102957108D01*
X94333628Y-102840698D01*
X94304953Y-102727462D01*
X94241064Y-102629673D01*
X94228636Y-102620000D01*
X95156495Y-102620000D01*
X95103760Y-102434650D01*
X95004631Y-102235574D01*
X94870608Y-102058099D01*
X94706261Y-101908278D01*
X94517179Y-101791202D01*
X94517177Y-101791201D01*
X94322786Y-101715894D01*
X94267384Y-101673321D01*
X94243794Y-101607554D01*
X94259505Y-101539474D01*
X94309529Y-101490695D01*
X94322772Y-101484646D01*
X94517401Y-101409247D01*
X94706562Y-101292124D01*
X94870981Y-101142236D01*
X95005058Y-100964689D01*
X95104229Y-100765528D01*
X95165115Y-100551536D01*
X95185643Y-100330000D01*
X95165115Y-100108464D01*
X95104229Y-99894472D01*
X95104224Y-99894461D01*
X95005061Y-99695316D01*
X95005056Y-99695308D01*
X94870979Y-99517761D01*
X94706562Y-99367876D01*
X94706560Y-99367874D01*
X94517404Y-99250754D01*
X94517395Y-99250750D01*
X94423956Y-99214552D01*
X94323475Y-99175625D01*
X94268075Y-99133054D01*
X94244484Y-99067288D01*
X94260195Y-98999207D01*
X94310219Y-98950428D01*
X94323466Y-98944377D01*
X94517401Y-98869247D01*
X94706562Y-98752124D01*
X94870981Y-98602236D01*
X95005058Y-98424689D01*
X95104229Y-98225528D01*
X95165115Y-98011536D01*
X95185643Y-97790000D01*
X95166785Y-97586489D01*
X95180200Y-97517922D01*
X95202572Y-97487372D01*
X96292820Y-96397124D01*
X96354142Y-96363641D01*
X96423834Y-96368625D01*
X96479767Y-96410497D01*
X96504184Y-96475961D01*
X96504500Y-96484807D01*
X96504500Y-103184191D01*
X96484815Y-103251230D01*
X96468181Y-103271872D01*
X94280105Y-105459947D01*
X94218782Y-105493432D01*
X94169640Y-105494154D01*
X94091243Y-105479500D01*
X93868757Y-105479500D01*
X93650060Y-105520382D01*
X93518864Y-105571207D01*
X93442601Y-105600752D01*
X93442595Y-105600754D01*
X93253439Y-105717874D01*
X93253437Y-105717876D01*
X93089020Y-105867761D01*
X92954943Y-106045308D01*
X92954938Y-106045316D01*
X92855775Y-106244461D01*
X92855769Y-106244476D01*
X92794885Y-106458462D01*
X92794884Y-106458464D01*
X92774357Y-106679999D01*
X92774357Y-106680000D01*
X92794884Y-106901535D01*
X92794885Y-106901537D01*
X92855769Y-107115523D01*
X92855775Y-107115538D01*
X92954938Y-107314683D01*
X92954943Y-107314691D01*
X93089020Y-107492238D01*
X93253437Y-107642123D01*
X93253439Y-107642125D01*
X93442595Y-107759245D01*
X93442596Y-107759245D01*
X93442599Y-107759247D01*
X93636524Y-107834374D01*
X93691924Y-107876946D01*
X93715515Y-107942713D01*
X93699804Y-108010793D01*
X93649780Y-108059572D01*
X93636533Y-108065622D01*
X93530033Y-108106881D01*
X93442601Y-108140752D01*
X93442595Y-108140754D01*
X93253439Y-108257874D01*
X93253437Y-108257876D01*
X93089020Y-108407761D01*
X92954943Y-108585308D01*
X92954938Y-108585316D01*
X92855775Y-108784461D01*
X92855769Y-108784476D01*
X92794885Y-108998462D01*
X92794884Y-108998464D01*
X92774357Y-109219999D01*
X92774357Y-109220000D01*
X92794884Y-109441535D01*
X92794885Y-109441537D01*
X92855769Y-109655523D01*
X92855775Y-109655538D01*
X92954938Y-109854683D01*
X92954943Y-109854691D01*
X93089020Y-110032238D01*
X93253437Y-110182123D01*
X93253439Y-110182125D01*
X93442595Y-110299245D01*
X93442596Y-110299245D01*
X93442599Y-110299247D01*
X93637215Y-110374642D01*
X93692614Y-110417213D01*
X93716205Y-110482980D01*
X93700494Y-110551060D01*
X93650470Y-110599839D01*
X93637213Y-110605893D01*
X93442831Y-110681197D01*
X93442820Y-110681202D01*
X93253738Y-110798278D01*
X93089391Y-110948099D01*
X92955368Y-111125574D01*
X92856239Y-111324650D01*
X92803505Y-111510000D01*
X93734419Y-111510000D01*
X93682940Y-111565921D01*
X93636018Y-111672892D01*
X93626372Y-111789302D01*
X93655047Y-111902538D01*
X93718936Y-112000327D01*
X93811115Y-112072072D01*
X93921595Y-112110000D01*
X94009005Y-112110000D01*
X94095216Y-112095614D01*
X94197947Y-112040019D01*
X94225581Y-112010000D01*
X94230000Y-112010000D01*
X94230000Y-112934052D01*
X94309804Y-112919135D01*
X94517177Y-112838798D01*
X94517179Y-112838797D01*
X94706261Y-112721721D01*
X94870608Y-112571900D01*
X95004631Y-112394425D01*
X95103760Y-112195349D01*
X95156495Y-112010000D01*
X94230000Y-112010000D01*
X94225581Y-112010000D01*
X94277060Y-111954079D01*
X94323982Y-111847108D01*
X94333628Y-111730698D01*
X94304953Y-111617462D01*
X94241064Y-111519673D01*
X94228636Y-111510000D01*
X95156495Y-111510000D01*
X95103760Y-111324650D01*
X95004631Y-111125574D01*
X94870608Y-110948099D01*
X94706261Y-110798278D01*
X94517179Y-110681202D01*
X94517177Y-110681201D01*
X94322786Y-110605894D01*
X94267384Y-110563321D01*
X94243794Y-110497554D01*
X94259505Y-110429474D01*
X94309529Y-110380695D01*
X94322772Y-110374646D01*
X94517401Y-110299247D01*
X94706562Y-110182124D01*
X94870981Y-110032236D01*
X95005058Y-109854689D01*
X95104229Y-109655528D01*
X95165115Y-109441536D01*
X95185643Y-109220000D01*
X95165115Y-108998464D01*
X95104229Y-108784472D01*
X95104224Y-108784461D01*
X95005061Y-108585316D01*
X95005056Y-108585308D01*
X94870979Y-108407761D01*
X94706562Y-108257876D01*
X94706560Y-108257874D01*
X94517404Y-108140754D01*
X94517395Y-108140750D01*
X94423956Y-108104552D01*
X94323475Y-108065625D01*
X94268075Y-108023054D01*
X94244484Y-107957288D01*
X94260195Y-107889207D01*
X94310219Y-107840428D01*
X94323466Y-107834377D01*
X94517401Y-107759247D01*
X94706562Y-107642124D01*
X94870981Y-107492236D01*
X95005058Y-107314689D01*
X95104229Y-107115528D01*
X95165115Y-106901536D01*
X95185643Y-106680000D01*
X95166785Y-106476489D01*
X95180200Y-106407922D01*
X95202572Y-106377372D01*
X97554513Y-104025431D01*
X97567079Y-104015365D01*
X97566925Y-104015178D01*
X97572933Y-104010205D01*
X97572940Y-104010202D01*
X97596227Y-103985402D01*
X97620865Y-103959167D01*
X97623578Y-103956367D01*
X97631148Y-103948797D01*
X97643911Y-103936035D01*
X97646606Y-103932560D01*
X97654199Y-103923669D01*
X97685448Y-103890393D01*
X97695674Y-103871790D01*
X97706353Y-103855533D01*
X97719362Y-103838764D01*
X97737498Y-103796850D01*
X97742620Y-103786395D01*
X97764627Y-103746368D01*
X97769907Y-103725802D01*
X97776209Y-103707395D01*
X97784635Y-103687926D01*
X97791777Y-103642824D01*
X97794145Y-103631397D01*
X97805499Y-103587179D01*
X97805500Y-103587177D01*
X97805500Y-103565955D01*
X97807027Y-103546555D01*
X97810347Y-103525595D01*
X97806050Y-103480140D01*
X97805500Y-103468470D01*
X97805500Y-94675955D01*
X97807027Y-94656555D01*
X97810347Y-94635595D01*
X97806050Y-94590140D01*
X97805500Y-94578470D01*
X97805500Y-94300807D01*
X97825185Y-94233768D01*
X97841814Y-94213131D01*
X101172238Y-90882706D01*
X101233559Y-90849223D01*
X101292006Y-90850613D01*
X101364592Y-90870063D01*
X101552918Y-90886539D01*
X101599999Y-90890659D01*
X101600000Y-90890659D01*
X101600001Y-90890659D01*
X101639234Y-90887226D01*
X101835408Y-90870063D01*
X102063663Y-90808903D01*
X102277830Y-90709035D01*
X102471401Y-90573495D01*
X102638495Y-90406401D01*
X102774035Y-90212830D01*
X102873903Y-89998663D01*
X102935063Y-89770408D01*
X102955659Y-89535000D01*
X102935063Y-89299592D01*
X102873903Y-89071337D01*
X102774035Y-88857171D01*
X102771241Y-88853181D01*
X102638496Y-88663600D01*
X102638495Y-88663599D01*
X102516179Y-88541283D01*
X102482696Y-88479963D01*
X102487680Y-88410271D01*
X102529551Y-88354337D01*
X102560529Y-88337422D01*
X102692086Y-88288354D01*
X102692093Y-88288350D01*
X102807187Y-88202190D01*
X102807190Y-88202187D01*
X102893350Y-88087093D01*
X102893354Y-88087086D01*
X102943596Y-87952379D01*
X102943598Y-87952372D01*
X102949999Y-87892844D01*
X102950000Y-87892827D01*
X102950000Y-87245000D01*
X102033686Y-87245000D01*
X102059493Y-87204844D01*
X102100000Y-87066889D01*
X102100000Y-86923111D01*
X102059493Y-86785156D01*
X102033686Y-86745000D01*
X102950000Y-86745000D01*
X102950000Y-86097172D01*
X102949999Y-86097155D01*
X102943598Y-86037627D01*
X102943596Y-86037620D01*
X102893354Y-85902913D01*
X102893350Y-85902906D01*
X102807190Y-85787812D01*
X102807187Y-85787809D01*
X102692093Y-85701649D01*
X102692088Y-85701646D01*
X102560528Y-85652577D01*
X102504595Y-85610705D01*
X102480178Y-85545241D01*
X102495030Y-85476968D01*
X102516175Y-85448720D01*
X102638495Y-85326401D01*
X102774035Y-85132830D01*
X102873903Y-84918663D01*
X102935063Y-84690408D01*
X102955659Y-84455000D01*
X102935063Y-84219592D01*
X102879226Y-84011202D01*
X102873905Y-83991344D01*
X102873904Y-83991343D01*
X102873903Y-83991337D01*
X102774035Y-83777171D01*
X102761644Y-83759474D01*
X102638494Y-83583597D01*
X102471402Y-83416506D01*
X102471396Y-83416501D01*
X102285842Y-83286575D01*
X102242217Y-83231998D01*
X102235023Y-83162500D01*
X102266546Y-83100145D01*
X102285842Y-83083425D01*
X102308026Y-83067891D01*
X102471401Y-82953495D01*
X102638495Y-82786401D01*
X102774035Y-82592830D01*
X102873903Y-82378663D01*
X102935063Y-82150408D01*
X102955659Y-81915000D01*
X102935063Y-81679592D01*
X102879106Y-81470754D01*
X102873905Y-81451344D01*
X102873904Y-81451343D01*
X102873903Y-81451337D01*
X102774035Y-81237171D01*
X102755920Y-81211299D01*
X102638494Y-81043597D01*
X102471402Y-80876506D01*
X102471396Y-80876501D01*
X102285842Y-80746575D01*
X102242217Y-80691998D01*
X102235023Y-80622500D01*
X102266546Y-80560145D01*
X102285842Y-80543425D01*
X102308026Y-80527891D01*
X102471401Y-80413495D01*
X102638495Y-80246401D01*
X102774035Y-80052830D01*
X102873903Y-79838663D01*
X102935063Y-79610408D01*
X102955659Y-79375000D01*
X102935063Y-79139592D01*
X102879106Y-78930754D01*
X102873905Y-78911344D01*
X102873904Y-78911343D01*
X102873903Y-78911337D01*
X102774035Y-78697171D01*
X102717988Y-78617126D01*
X102638494Y-78503597D01*
X102471402Y-78336506D01*
X102471396Y-78336501D01*
X102285842Y-78206575D01*
X102242217Y-78151998D01*
X102235023Y-78082500D01*
X102266546Y-78020145D01*
X102285842Y-78003425D01*
X102308026Y-77987891D01*
X102471401Y-77873495D01*
X102638495Y-77706401D01*
X102774035Y-77512830D01*
X102873903Y-77298663D01*
X102935063Y-77070408D01*
X102955659Y-76835000D01*
X102935063Y-76599592D01*
X102873903Y-76371337D01*
X102774035Y-76157171D01*
X102704219Y-76057462D01*
X102638494Y-75963597D01*
X102471402Y-75796506D01*
X102471396Y-75796501D01*
X102285842Y-75666575D01*
X102242217Y-75611998D01*
X102235023Y-75542500D01*
X102266546Y-75480145D01*
X102285842Y-75463425D01*
X102393901Y-75387761D01*
X102471401Y-75333495D01*
X102638495Y-75166401D01*
X102774035Y-74972830D01*
X102873903Y-74758663D01*
X102935063Y-74530408D01*
X102955659Y-74295000D01*
X102935063Y-74059592D01*
X102873903Y-73831337D01*
X102774035Y-73617171D01*
X102723661Y-73545228D01*
X102638494Y-73423597D01*
X102471402Y-73256506D01*
X102471396Y-73256501D01*
X102285842Y-73126575D01*
X102242217Y-73071998D01*
X102235023Y-73002500D01*
X102266546Y-72940145D01*
X102285842Y-72923425D01*
X102393901Y-72847761D01*
X102471401Y-72793495D01*
X102638495Y-72626401D01*
X102774035Y-72432830D01*
X102873903Y-72218663D01*
X102935063Y-71990408D01*
X102955659Y-71755000D01*
X102935063Y-71519592D01*
X102873903Y-71291337D01*
X102774035Y-71077171D01*
X102648903Y-70898462D01*
X102638494Y-70883597D01*
X102471402Y-70716506D01*
X102471396Y-70716501D01*
X102285842Y-70586575D01*
X102242217Y-70531998D01*
X102235023Y-70462500D01*
X102266546Y-70400145D01*
X102285842Y-70383425D01*
X102393901Y-70307761D01*
X102471401Y-70253495D01*
X102638495Y-70086401D01*
X102774035Y-69892830D01*
X102873903Y-69678663D01*
X102935063Y-69450408D01*
X102955659Y-69215000D01*
X102935063Y-68979592D01*
X102873903Y-68751337D01*
X102774035Y-68537171D01*
X102726734Y-68469617D01*
X102638494Y-68343597D01*
X102471402Y-68176506D01*
X102471396Y-68176501D01*
X102285842Y-68046575D01*
X102242217Y-67991998D01*
X102235023Y-67922500D01*
X102266546Y-67860145D01*
X102285842Y-67843425D01*
X102308026Y-67827891D01*
X102471401Y-67713495D01*
X102638495Y-67546401D01*
X102774035Y-67352830D01*
X102873903Y-67138663D01*
X102935063Y-66910408D01*
X102955659Y-66675000D01*
X102935063Y-66439592D01*
X102879226Y-66231202D01*
X102873905Y-66211344D01*
X102873904Y-66211343D01*
X102873903Y-66211337D01*
X102774035Y-65997171D01*
X102761644Y-65979474D01*
X102638494Y-65803597D01*
X102471402Y-65636506D01*
X102471395Y-65636501D01*
X102277834Y-65500967D01*
X102277830Y-65500965D01*
X102204357Y-65466704D01*
X102063663Y-65401097D01*
X102063659Y-65401096D01*
X102063655Y-65401094D01*
X101835413Y-65339938D01*
X101835403Y-65339936D01*
X101600001Y-65319341D01*
X101599999Y-65319341D01*
X101364596Y-65339936D01*
X101364586Y-65339938D01*
X101136344Y-65401094D01*
X101136335Y-65401098D01*
X100922171Y-65500964D01*
X100922169Y-65500965D01*
X100728597Y-65636505D01*
X100561505Y-65803597D01*
X100425965Y-65997169D01*
X100425964Y-65997171D01*
X100326098Y-66211335D01*
X100326094Y-66211344D01*
X100264938Y-66439586D01*
X100264936Y-66439596D01*
X100244341Y-66674999D01*
X100244341Y-66675000D01*
X100264936Y-66910403D01*
X100264938Y-66910413D01*
X100326094Y-67138655D01*
X100326096Y-67138659D01*
X100326097Y-67138663D01*
X100365374Y-67222892D01*
X100425965Y-67352830D01*
X100425967Y-67352834D01*
X100495781Y-67452538D01*
X100551096Y-67531536D01*
X100561501Y-67546395D01*
X100561506Y-67546402D01*
X100728597Y-67713493D01*
X100728603Y-67713498D01*
X100914158Y-67843425D01*
X100957783Y-67898002D01*
X100964977Y-67967500D01*
X100933454Y-68029855D01*
X100914158Y-68046575D01*
X100728597Y-68176505D01*
X100561505Y-68343597D01*
X100425965Y-68537169D01*
X100425964Y-68537171D01*
X100326098Y-68751335D01*
X100326094Y-68751344D01*
X100264938Y-68979586D01*
X100264936Y-68979596D01*
X100244341Y-69214999D01*
X100244341Y-69215000D01*
X100264936Y-69450403D01*
X100264938Y-69450413D01*
X100326094Y-69678655D01*
X100326096Y-69678659D01*
X100326097Y-69678663D01*
X100387108Y-69809501D01*
X100425965Y-69892830D01*
X100425967Y-69892834D01*
X100561501Y-70086395D01*
X100561506Y-70086402D01*
X100728597Y-70253493D01*
X100728603Y-70253498D01*
X100914158Y-70383425D01*
X100957783Y-70438002D01*
X100964977Y-70507500D01*
X100933454Y-70569855D01*
X100914158Y-70586575D01*
X100728597Y-70716505D01*
X100561505Y-70883597D01*
X100425965Y-71077169D01*
X100425964Y-71077171D01*
X100326098Y-71291335D01*
X100326094Y-71291344D01*
X100264938Y-71519586D01*
X100264936Y-71519596D01*
X100244341Y-71754999D01*
X100244341Y-71755000D01*
X100264936Y-71990403D01*
X100264938Y-71990413D01*
X100326094Y-72218655D01*
X100326096Y-72218659D01*
X100326097Y-72218663D01*
X100421751Y-72423793D01*
X100425965Y-72432830D01*
X100425967Y-72432834D01*
X100561501Y-72626395D01*
X100561506Y-72626402D01*
X100728597Y-72793493D01*
X100728603Y-72793498D01*
X100914158Y-72923425D01*
X100957783Y-72978002D01*
X100964977Y-73047500D01*
X100933454Y-73109855D01*
X100914158Y-73126575D01*
X100728597Y-73256505D01*
X100561505Y-73423597D01*
X100425965Y-73617169D01*
X100425964Y-73617171D01*
X100326098Y-73831335D01*
X100326094Y-73831344D01*
X100264938Y-74059586D01*
X100264936Y-74059596D01*
X100244341Y-74294999D01*
X100244341Y-74295000D01*
X100264936Y-74530403D01*
X100264938Y-74530413D01*
X100326094Y-74758655D01*
X100326096Y-74758659D01*
X100326097Y-74758663D01*
X100425965Y-74972830D01*
X100425967Y-74972834D01*
X100561501Y-75166395D01*
X100561506Y-75166402D01*
X100728597Y-75333493D01*
X100728603Y-75333498D01*
X100914158Y-75463425D01*
X100957783Y-75518002D01*
X100964977Y-75587500D01*
X100933454Y-75649855D01*
X100914158Y-75666575D01*
X100728597Y-75796505D01*
X100561505Y-75963597D01*
X100425965Y-76157169D01*
X100425964Y-76157171D01*
X100326098Y-76371335D01*
X100326094Y-76371344D01*
X100264938Y-76599586D01*
X100264936Y-76599596D01*
X100244341Y-76834999D01*
X100244341Y-76835000D01*
X100264936Y-77070403D01*
X100264938Y-77070413D01*
X100326094Y-77298655D01*
X100326096Y-77298659D01*
X100326097Y-77298663D01*
X100418213Y-77496206D01*
X100425965Y-77512830D01*
X100425967Y-77512834D01*
X100561501Y-77706395D01*
X100561506Y-77706402D01*
X100728597Y-77873493D01*
X100728603Y-77873498D01*
X100914158Y-78003425D01*
X100957783Y-78058002D01*
X100964977Y-78127500D01*
X100933454Y-78189855D01*
X100914158Y-78206575D01*
X100728597Y-78336505D01*
X100561505Y-78503597D01*
X100425965Y-78697169D01*
X100425964Y-78697171D01*
X100326098Y-78911335D01*
X100326094Y-78911344D01*
X100264938Y-79139586D01*
X100264936Y-79139596D01*
X100244341Y-79374999D01*
X100244341Y-79375000D01*
X100264936Y-79610403D01*
X100264938Y-79610413D01*
X100326094Y-79838655D01*
X100326096Y-79838659D01*
X100326097Y-79838663D01*
X100405993Y-80009999D01*
X100425965Y-80052830D01*
X100425967Y-80052834D01*
X100534281Y-80207521D01*
X100551096Y-80231536D01*
X100561501Y-80246395D01*
X100561506Y-80246402D01*
X100728597Y-80413493D01*
X100728603Y-80413498D01*
X100914158Y-80543425D01*
X100957783Y-80598002D01*
X100964977Y-80667500D01*
X100933454Y-80729855D01*
X100914158Y-80746575D01*
X100728597Y-80876505D01*
X100561505Y-81043597D01*
X100425965Y-81237169D01*
X100425964Y-81237171D01*
X100326098Y-81451335D01*
X100326094Y-81451344D01*
X100264938Y-81679586D01*
X100264936Y-81679596D01*
X100244341Y-81914999D01*
X100244341Y-81915000D01*
X100264936Y-82150403D01*
X100264938Y-82150413D01*
X100326094Y-82378655D01*
X100326096Y-82378659D01*
X100326097Y-82378663D01*
X100367673Y-82467823D01*
X100425965Y-82592830D01*
X100425967Y-82592834D01*
X100534281Y-82747521D01*
X100551096Y-82771536D01*
X100561501Y-82786395D01*
X100561506Y-82786402D01*
X100728597Y-82953493D01*
X100728603Y-82953498D01*
X100914158Y-83083425D01*
X100957783Y-83138002D01*
X100964977Y-83207500D01*
X100933454Y-83269855D01*
X100914158Y-83286575D01*
X100728597Y-83416505D01*
X100561505Y-83583597D01*
X100425965Y-83777169D01*
X100425964Y-83777171D01*
X100326098Y-83991335D01*
X100326094Y-83991344D01*
X100264938Y-84219586D01*
X100264936Y-84219596D01*
X100244341Y-84454999D01*
X100244341Y-84455000D01*
X100264936Y-84690403D01*
X100264938Y-84690413D01*
X100326094Y-84918655D01*
X100326096Y-84918659D01*
X100326097Y-84918663D01*
X100365374Y-85002892D01*
X100425965Y-85132830D01*
X100425967Y-85132834D01*
X100495781Y-85232538D01*
X100561501Y-85326396D01*
X100561506Y-85326402D01*
X100683818Y-85448714D01*
X100717303Y-85510037D01*
X100712319Y-85579729D01*
X100670447Y-85635662D01*
X100639471Y-85652577D01*
X100507912Y-85701646D01*
X100507906Y-85701649D01*
X100392812Y-85787809D01*
X100392809Y-85787812D01*
X100306649Y-85902906D01*
X100306645Y-85902913D01*
X100256403Y-86037620D01*
X100256401Y-86037627D01*
X100250000Y-86097155D01*
X100250000Y-86745000D01*
X101166314Y-86745000D01*
X101140507Y-86785156D01*
X101100000Y-86923111D01*
X101100000Y-87066889D01*
X101140507Y-87204844D01*
X101166314Y-87245000D01*
X100250000Y-87245000D01*
X100250000Y-87892844D01*
X100256401Y-87952372D01*
X100256403Y-87952379D01*
X100306645Y-88087086D01*
X100306649Y-88087093D01*
X100392809Y-88202187D01*
X100392812Y-88202190D01*
X100507906Y-88288350D01*
X100507913Y-88288354D01*
X100639470Y-88337421D01*
X100695403Y-88379292D01*
X100719821Y-88444756D01*
X100704970Y-88513029D01*
X100683819Y-88541284D01*
X100561503Y-88663600D01*
X100425965Y-88857169D01*
X100425964Y-88857171D01*
X100326098Y-89071335D01*
X100326094Y-89071344D01*
X100264938Y-89299586D01*
X100264936Y-89299596D01*
X100244341Y-89534999D01*
X100244341Y-89535000D01*
X100264936Y-89770403D01*
X100264939Y-89770416D01*
X100284384Y-89842989D01*
X100282721Y-89912839D01*
X100252290Y-89962762D01*
X98017181Y-92197872D01*
X97955858Y-92231357D01*
X97886166Y-92226373D01*
X97830233Y-92184501D01*
X97805816Y-92119037D01*
X97805500Y-92110191D01*
X97805500Y-87055955D01*
X97807027Y-87036555D01*
X97810347Y-87015595D01*
X97806050Y-86970140D01*
X97805500Y-86958470D01*
X97805500Y-85150955D01*
X97807027Y-85131555D01*
X97810347Y-85110595D01*
X97806050Y-85065140D01*
X97805500Y-85053470D01*
X97805500Y-76895955D01*
X97807027Y-76876555D01*
X97810347Y-76855595D01*
X97806050Y-76810140D01*
X97805500Y-76798470D01*
X97805500Y-74380502D01*
X97807268Y-74364489D01*
X97807026Y-74364467D01*
X97807758Y-74356711D01*
X97807760Y-74356704D01*
X97805561Y-74286736D01*
X97805500Y-74282841D01*
X97805500Y-65490502D01*
X97807268Y-65474489D01*
X97807026Y-65474467D01*
X97807758Y-65466711D01*
X97807760Y-65466704D01*
X97805561Y-65396736D01*
X97805500Y-65392841D01*
X97805500Y-56600502D01*
X97807268Y-56584489D01*
X97807026Y-56584467D01*
X97807758Y-56576711D01*
X97807760Y-56576704D01*
X97805561Y-56506736D01*
X97805500Y-56502841D01*
X97805500Y-47710502D01*
X97807268Y-47694489D01*
X97807026Y-47694467D01*
X97807758Y-47686711D01*
X97807760Y-47686704D01*
X97805561Y-47616736D01*
X97805500Y-47612841D01*
X97805500Y-47584077D01*
X97805499Y-47584070D01*
X97804949Y-47579716D01*
X97804030Y-47568054D01*
X97802597Y-47522431D01*
X97796676Y-47502053D01*
X97792731Y-47483004D01*
X97790071Y-47461942D01*
X97773263Y-47419491D01*
X97769480Y-47408442D01*
X97756743Y-47364600D01*
X97745940Y-47346334D01*
X97737378Y-47328856D01*
X97729568Y-47309129D01*
X97729565Y-47309125D01*
X97702730Y-47272189D01*
X97696331Y-47262448D01*
X97673081Y-47223135D01*
X97673079Y-47223133D01*
X97673078Y-47223131D01*
X97658075Y-47208129D01*
X97645435Y-47193330D01*
X97632961Y-47176160D01*
X97597780Y-47147056D01*
X97589140Y-47139194D01*
X95202575Y-44752629D01*
X95169090Y-44691306D01*
X95166785Y-44653510D01*
X95185643Y-44450000D01*
X95165115Y-44228464D01*
X95104229Y-44014472D01*
X95104224Y-44014461D01*
X95005061Y-43815316D01*
X95005056Y-43815308D01*
X94870979Y-43637761D01*
X94706562Y-43487876D01*
X94706560Y-43487874D01*
X94517404Y-43370754D01*
X94517398Y-43370752D01*
X94309940Y-43290382D01*
X94091243Y-43249500D01*
X93868757Y-43249500D01*
X93650060Y-43290382D01*
X93518864Y-43341207D01*
X93442601Y-43370752D01*
X93442595Y-43370754D01*
X93253439Y-43487874D01*
X93253437Y-43487876D01*
X93089020Y-43637761D01*
X92954943Y-43815308D01*
X92954938Y-43815316D01*
X92855775Y-44014461D01*
X92855769Y-44014476D01*
X92794885Y-44228462D01*
X92794884Y-44228464D01*
X92774357Y-44449999D01*
X92774357Y-44450000D01*
X92794884Y-44671535D01*
X92794885Y-44671537D01*
X92855769Y-44885523D01*
X92855775Y-44885538D01*
X92954938Y-45084683D01*
X92954943Y-45084691D01*
X93089020Y-45262238D01*
X93253437Y-45412123D01*
X93253439Y-45412125D01*
X93442595Y-45529245D01*
X93442596Y-45529245D01*
X93442599Y-45529247D01*
X93636524Y-45604374D01*
X93691924Y-45646946D01*
X93715515Y-45712713D01*
X93699804Y-45780793D01*
X93649780Y-45829572D01*
X93636533Y-45835622D01*
X93530033Y-45876881D01*
X93442601Y-45910752D01*
X93442595Y-45910754D01*
X93253439Y-46027874D01*
X93253437Y-46027876D01*
X93089020Y-46177761D01*
X92954943Y-46355308D01*
X92954938Y-46355316D01*
X92855775Y-46554461D01*
X92855769Y-46554476D01*
X92794885Y-46768462D01*
X92794884Y-46768464D01*
X92774357Y-46989999D01*
X92774357Y-46990000D01*
X92794884Y-47211535D01*
X92794885Y-47211537D01*
X92855769Y-47425523D01*
X92855775Y-47425538D01*
X92954938Y-47624683D01*
X92954943Y-47624691D01*
X93089020Y-47802238D01*
X93253437Y-47952123D01*
X93253439Y-47952125D01*
X93442595Y-48069245D01*
X93442596Y-48069245D01*
X93442599Y-48069247D01*
X93637215Y-48144642D01*
X93692614Y-48187213D01*
X93716205Y-48252980D01*
X93700494Y-48321060D01*
X93650470Y-48369839D01*
X93637213Y-48375893D01*
X93442831Y-48451197D01*
X93442820Y-48451202D01*
X93253738Y-48568278D01*
X93089391Y-48718099D01*
X92955368Y-48895574D01*
X92856239Y-49094650D01*
X92803505Y-49280000D01*
X93734419Y-49280000D01*
X93682940Y-49335921D01*
X93636018Y-49442892D01*
X93626372Y-49559302D01*
X93655047Y-49672538D01*
X93718936Y-49770327D01*
X93811115Y-49842072D01*
X93921595Y-49880000D01*
X94009005Y-49880000D01*
X94095216Y-49865614D01*
X94197947Y-49810019D01*
X94225581Y-49780000D01*
X94230000Y-49780000D01*
X94230000Y-50704052D01*
X94309804Y-50689135D01*
X94517177Y-50608798D01*
X94517179Y-50608797D01*
X94706261Y-50491721D01*
X94870608Y-50341900D01*
X95004631Y-50164425D01*
X95103760Y-49965349D01*
X95156495Y-49780000D01*
X94230000Y-49780000D01*
X94225581Y-49780000D01*
X94277060Y-49724079D01*
X94323982Y-49617108D01*
X94333628Y-49500698D01*
X94304953Y-49387462D01*
X94241064Y-49289673D01*
X94228636Y-49280000D01*
X95156495Y-49280000D01*
X95103760Y-49094650D01*
X95004631Y-48895574D01*
X94870608Y-48718099D01*
X94706261Y-48568278D01*
X94517179Y-48451202D01*
X94517177Y-48451201D01*
X94322786Y-48375894D01*
X94267384Y-48333321D01*
X94243794Y-48267554D01*
X94259505Y-48199474D01*
X94309529Y-48150695D01*
X94322772Y-48144646D01*
X94517401Y-48069247D01*
X94706562Y-47952124D01*
X94870981Y-47802236D01*
X95005058Y-47624689D01*
X95025281Y-47584077D01*
X95104224Y-47425538D01*
X95104223Y-47425538D01*
X95104229Y-47425528D01*
X95165115Y-47211536D01*
X95185643Y-46990000D01*
X95175008Y-46875228D01*
X95188423Y-46806658D01*
X95236780Y-46756227D01*
X95304726Y-46739944D01*
X95370689Y-46762981D01*
X95386160Y-46776106D01*
X96468181Y-47858127D01*
X96501666Y-47919450D01*
X96504500Y-47945808D01*
X96504500Y-54645192D01*
X96484815Y-54712231D01*
X96432011Y-54757986D01*
X96362853Y-54767930D01*
X96299297Y-54738905D01*
X96292819Y-54732873D01*
X95202575Y-53642629D01*
X95169090Y-53581306D01*
X95166785Y-53543510D01*
X95185643Y-53340000D01*
X95165115Y-53118464D01*
X95104229Y-52904472D01*
X95104224Y-52904461D01*
X95005061Y-52705316D01*
X95005056Y-52705308D01*
X94870979Y-52527761D01*
X94706562Y-52377876D01*
X94706560Y-52377874D01*
X94517404Y-52260754D01*
X94517398Y-52260752D01*
X94309940Y-52180382D01*
X94091243Y-52139500D01*
X93868757Y-52139500D01*
X93650060Y-52180382D01*
X93518864Y-52231207D01*
X93442601Y-52260752D01*
X93442595Y-52260754D01*
X93253439Y-52377874D01*
X93253437Y-52377876D01*
X93089020Y-52527761D01*
X92954943Y-52705308D01*
X92954938Y-52705316D01*
X92855775Y-52904461D01*
X92855769Y-52904476D01*
X92794885Y-53118462D01*
X92794884Y-53118464D01*
X92774357Y-53339999D01*
X92774357Y-53340000D01*
X92794884Y-53561535D01*
X92794885Y-53561537D01*
X92855769Y-53775523D01*
X92855775Y-53775538D01*
X92954938Y-53974683D01*
X92954943Y-53974691D01*
X93089020Y-54152238D01*
X93253437Y-54302123D01*
X93253439Y-54302125D01*
X93442595Y-54419245D01*
X93442596Y-54419245D01*
X93442599Y-54419247D01*
X93636524Y-54494374D01*
X93691924Y-54536946D01*
X93715515Y-54602713D01*
X93699804Y-54670793D01*
X93649780Y-54719572D01*
X93636533Y-54725622D01*
X93530033Y-54766881D01*
X93442601Y-54800752D01*
X93442595Y-54800754D01*
X93253439Y-54917874D01*
X93253437Y-54917876D01*
X93089020Y-55067761D01*
X92954943Y-55245308D01*
X92954938Y-55245316D01*
X92855775Y-55444461D01*
X92855769Y-55444476D01*
X92794885Y-55658462D01*
X92794884Y-55658464D01*
X92774357Y-55879999D01*
X92774357Y-55880000D01*
X92794884Y-56101535D01*
X92794885Y-56101537D01*
X92855769Y-56315523D01*
X92855775Y-56315538D01*
X92954938Y-56514683D01*
X92954943Y-56514691D01*
X93089020Y-56692238D01*
X93253437Y-56842123D01*
X93253439Y-56842125D01*
X93442595Y-56959245D01*
X93442596Y-56959245D01*
X93442599Y-56959247D01*
X93637215Y-57034642D01*
X93692614Y-57077213D01*
X93716205Y-57142980D01*
X93700494Y-57211060D01*
X93650470Y-57259839D01*
X93637213Y-57265893D01*
X93442831Y-57341197D01*
X93442820Y-57341202D01*
X93253738Y-57458278D01*
X93089391Y-57608099D01*
X92955368Y-57785574D01*
X92856239Y-57984650D01*
X92803505Y-58170000D01*
X93734419Y-58170000D01*
X93682940Y-58225921D01*
X93636018Y-58332892D01*
X93626372Y-58449302D01*
X93655047Y-58562538D01*
X93718936Y-58660327D01*
X93811115Y-58732072D01*
X93921595Y-58770000D01*
X94009005Y-58770000D01*
X94095216Y-58755614D01*
X94197947Y-58700019D01*
X94225581Y-58670000D01*
X94230000Y-58670000D01*
X94230000Y-59594052D01*
X94309804Y-59579135D01*
X94517177Y-59498798D01*
X94517179Y-59498797D01*
X94706261Y-59381721D01*
X94870608Y-59231900D01*
X95004631Y-59054425D01*
X95103760Y-58855349D01*
X95156495Y-58670000D01*
X94230000Y-58670000D01*
X94225581Y-58670000D01*
X94277060Y-58614079D01*
X94323982Y-58507108D01*
X94333628Y-58390698D01*
X94304953Y-58277462D01*
X94241064Y-58179673D01*
X94228636Y-58170000D01*
X95156495Y-58170000D01*
X95103760Y-57984650D01*
X95004631Y-57785574D01*
X94870608Y-57608099D01*
X94706261Y-57458278D01*
X94517179Y-57341202D01*
X94517177Y-57341201D01*
X94322786Y-57265894D01*
X94267384Y-57223321D01*
X94243794Y-57157554D01*
X94259505Y-57089474D01*
X94309529Y-57040695D01*
X94322772Y-57034646D01*
X94517401Y-56959247D01*
X94706562Y-56842124D01*
X94870981Y-56692236D01*
X95005058Y-56514689D01*
X95104229Y-56315528D01*
X95165115Y-56101536D01*
X95185643Y-55880000D01*
X95175008Y-55765228D01*
X95188423Y-55696658D01*
X95236780Y-55646227D01*
X95304726Y-55629944D01*
X95370689Y-55652981D01*
X95386160Y-55666106D01*
X96468181Y-56748127D01*
X96501666Y-56809450D01*
X96504500Y-56835808D01*
X96504500Y-63535192D01*
X96484815Y-63602231D01*
X96432011Y-63647986D01*
X96362853Y-63657930D01*
X96299297Y-63628905D01*
X96292819Y-63622873D01*
X95202575Y-62532629D01*
X95169090Y-62471306D01*
X95166785Y-62433510D01*
X95185643Y-62230000D01*
X95165115Y-62008464D01*
X95104229Y-61794472D01*
X95104224Y-61794461D01*
X95005061Y-61595316D01*
X95005056Y-61595308D01*
X94870979Y-61417761D01*
X94706562Y-61267876D01*
X94706560Y-61267874D01*
X94517404Y-61150754D01*
X94517398Y-61150752D01*
X94309940Y-61070382D01*
X94091243Y-61029500D01*
X93868757Y-61029500D01*
X93650060Y-61070382D01*
X93518864Y-61121207D01*
X93442601Y-61150752D01*
X93442595Y-61150754D01*
X93253439Y-61267874D01*
X93253437Y-61267876D01*
X93089020Y-61417761D01*
X92954943Y-61595308D01*
X92954938Y-61595316D01*
X92855775Y-61794461D01*
X92855769Y-61794476D01*
X92794885Y-62008462D01*
X92794884Y-62008464D01*
X92774357Y-62229999D01*
X92774357Y-62230000D01*
X92794884Y-62451535D01*
X92794885Y-62451537D01*
X92855769Y-62665523D01*
X92855775Y-62665538D01*
X92954938Y-62864683D01*
X92954943Y-62864691D01*
X93089020Y-63042238D01*
X93253437Y-63192123D01*
X93253439Y-63192125D01*
X93442595Y-63309245D01*
X93442596Y-63309245D01*
X93442599Y-63309247D01*
X93636524Y-63384374D01*
X93691924Y-63426946D01*
X93715515Y-63492713D01*
X93699804Y-63560793D01*
X93649780Y-63609572D01*
X93636533Y-63615622D01*
X93530033Y-63656881D01*
X93442601Y-63690752D01*
X93442595Y-63690754D01*
X93253439Y-63807874D01*
X93253437Y-63807876D01*
X93089020Y-63957761D01*
X92954943Y-64135308D01*
X92954938Y-64135316D01*
X92855775Y-64334461D01*
X92855769Y-64334476D01*
X92794885Y-64548462D01*
X92794884Y-64548464D01*
X92774357Y-64769999D01*
X92774357Y-64770000D01*
X92794884Y-64991535D01*
X92794885Y-64991537D01*
X92855769Y-65205523D01*
X92855775Y-65205538D01*
X92954938Y-65404683D01*
X92954943Y-65404691D01*
X93089020Y-65582238D01*
X93253437Y-65732123D01*
X93253439Y-65732125D01*
X93442595Y-65849245D01*
X93442596Y-65849245D01*
X93442599Y-65849247D01*
X93637215Y-65924642D01*
X93692614Y-65967213D01*
X93716205Y-66032980D01*
X93700494Y-66101060D01*
X93650470Y-66149839D01*
X93637213Y-66155893D01*
X93442831Y-66231197D01*
X93442820Y-66231202D01*
X93253738Y-66348278D01*
X93089391Y-66498099D01*
X92955368Y-66675574D01*
X92856239Y-66874650D01*
X92803505Y-67060000D01*
X93734419Y-67060000D01*
X93682940Y-67115921D01*
X93636018Y-67222892D01*
X93626372Y-67339302D01*
X93655047Y-67452538D01*
X93718936Y-67550327D01*
X93811115Y-67622072D01*
X93921595Y-67660000D01*
X94009005Y-67660000D01*
X94095216Y-67645614D01*
X94197947Y-67590019D01*
X94225581Y-67560000D01*
X94230000Y-67560000D01*
X94230000Y-68484052D01*
X94309804Y-68469135D01*
X94517177Y-68388798D01*
X94517179Y-68388797D01*
X94706261Y-68271721D01*
X94870608Y-68121900D01*
X95004631Y-67944425D01*
X95103760Y-67745349D01*
X95156495Y-67560000D01*
X94230000Y-67560000D01*
X94225581Y-67560000D01*
X94277060Y-67504079D01*
X94323982Y-67397108D01*
X94333628Y-67280698D01*
X94304953Y-67167462D01*
X94241064Y-67069673D01*
X94228636Y-67060000D01*
X95156495Y-67060000D01*
X95103760Y-66874650D01*
X95004631Y-66675574D01*
X94870608Y-66498099D01*
X94706261Y-66348278D01*
X94517179Y-66231202D01*
X94517177Y-66231201D01*
X94322786Y-66155894D01*
X94267384Y-66113321D01*
X94243794Y-66047554D01*
X94259505Y-65979474D01*
X94309529Y-65930695D01*
X94322772Y-65924646D01*
X94517401Y-65849247D01*
X94706562Y-65732124D01*
X94870981Y-65582236D01*
X95005058Y-65404689D01*
X95104229Y-65205528D01*
X95165115Y-64991536D01*
X95185643Y-64770000D01*
X95175008Y-64655228D01*
X95188423Y-64586658D01*
X95236780Y-64536227D01*
X95304726Y-64519944D01*
X95370689Y-64542981D01*
X95386160Y-64556106D01*
X96468181Y-65638127D01*
X96501666Y-65699450D01*
X96504500Y-65725808D01*
X96504500Y-72425192D01*
X96484815Y-72492231D01*
X96432011Y-72537986D01*
X96362853Y-72547930D01*
X96299297Y-72518905D01*
X96292819Y-72512873D01*
X95202575Y-71422629D01*
X95169090Y-71361306D01*
X95166785Y-71323510D01*
X95185643Y-71120000D01*
X95182137Y-71082169D01*
X95165115Y-70898464D01*
X95165114Y-70898462D01*
X95162307Y-70888597D01*
X95104229Y-70684472D01*
X95055482Y-70586575D01*
X95005061Y-70485316D01*
X95005056Y-70485308D01*
X94870979Y-70307761D01*
X94706562Y-70157876D01*
X94706560Y-70157874D01*
X94517404Y-70040754D01*
X94517398Y-70040752D01*
X94309940Y-69960382D01*
X94091243Y-69919500D01*
X93868757Y-69919500D01*
X93650060Y-69960382D01*
X93518864Y-70011207D01*
X93442601Y-70040752D01*
X93442595Y-70040754D01*
X93253439Y-70157874D01*
X93253437Y-70157876D01*
X93089020Y-70307761D01*
X92954943Y-70485308D01*
X92954938Y-70485316D01*
X92855775Y-70684461D01*
X92855769Y-70684476D01*
X92794885Y-70898462D01*
X92794884Y-70898464D01*
X92774357Y-71119999D01*
X92774357Y-71120000D01*
X92794884Y-71341535D01*
X92794885Y-71341537D01*
X92855769Y-71555523D01*
X92855775Y-71555538D01*
X92954938Y-71754683D01*
X92954943Y-71754691D01*
X93089020Y-71932238D01*
X93253437Y-72082123D01*
X93253439Y-72082125D01*
X93442595Y-72199245D01*
X93442596Y-72199245D01*
X93442599Y-72199247D01*
X93636524Y-72274374D01*
X93691924Y-72316946D01*
X93715515Y-72382713D01*
X93699804Y-72450793D01*
X93649780Y-72499572D01*
X93636533Y-72505622D01*
X93530033Y-72546881D01*
X93442601Y-72580752D01*
X93442595Y-72580754D01*
X93253439Y-72697874D01*
X93253437Y-72697876D01*
X93089020Y-72847761D01*
X92954943Y-73025308D01*
X92954938Y-73025316D01*
X92855775Y-73224461D01*
X92855769Y-73224476D01*
X92794885Y-73438462D01*
X92794884Y-73438464D01*
X92774357Y-73659999D01*
X92774357Y-73660000D01*
X92794884Y-73881535D01*
X92794885Y-73881537D01*
X92855769Y-74095523D01*
X92855775Y-74095538D01*
X92954938Y-74294683D01*
X92954943Y-74294691D01*
X93089020Y-74472238D01*
X93253437Y-74622123D01*
X93253439Y-74622125D01*
X93442595Y-74739245D01*
X93442596Y-74739245D01*
X93442599Y-74739247D01*
X93637215Y-74814642D01*
X93692614Y-74857213D01*
X93716205Y-74922980D01*
X93700494Y-74991060D01*
X93650470Y-75039839D01*
X93637213Y-75045893D01*
X93442831Y-75121197D01*
X93442820Y-75121202D01*
X93253738Y-75238278D01*
X93089391Y-75388099D01*
X92955368Y-75565574D01*
X92856239Y-75764650D01*
X92803505Y-75950000D01*
X93734419Y-75950000D01*
X93682940Y-76005921D01*
X93636018Y-76112892D01*
X93626372Y-76229302D01*
X93655047Y-76342538D01*
X93718936Y-76440327D01*
X93811115Y-76512072D01*
X93921595Y-76550000D01*
X94009005Y-76550000D01*
X94095216Y-76535614D01*
X94197947Y-76480019D01*
X94225581Y-76450000D01*
X94230000Y-76450000D01*
X94230000Y-77374052D01*
X94309804Y-77359135D01*
X94517177Y-77278798D01*
X94517179Y-77278797D01*
X94706261Y-77161721D01*
X94870608Y-77011900D01*
X95004631Y-76834425D01*
X95103760Y-76635349D01*
X95156495Y-76450000D01*
X94230000Y-76450000D01*
X94225581Y-76450000D01*
X94277060Y-76394079D01*
X94323982Y-76287108D01*
X94333628Y-76170698D01*
X94304953Y-76057462D01*
X94241064Y-75959673D01*
X94228636Y-75950000D01*
X95156495Y-75950000D01*
X95103760Y-75764650D01*
X95004631Y-75565574D01*
X94870608Y-75388099D01*
X94706261Y-75238278D01*
X94517179Y-75121202D01*
X94517177Y-75121201D01*
X94322786Y-75045894D01*
X94267384Y-75003321D01*
X94243794Y-74937554D01*
X94259505Y-74869474D01*
X94309529Y-74820695D01*
X94322772Y-74814646D01*
X94517401Y-74739247D01*
X94706562Y-74622124D01*
X94870981Y-74472236D01*
X95005058Y-74294689D01*
X95104229Y-74095528D01*
X95165115Y-73881536D01*
X95185643Y-73660000D01*
X95182137Y-73622169D01*
X95175008Y-73545228D01*
X95188423Y-73476658D01*
X95236780Y-73426227D01*
X95304726Y-73409944D01*
X95370689Y-73432981D01*
X95386160Y-73446106D01*
X96468181Y-74528127D01*
X96501666Y-74589450D01*
X96504500Y-74615808D01*
X96504500Y-76514191D01*
X96484815Y-76581230D01*
X96468181Y-76601872D01*
X94280105Y-78789947D01*
X94218782Y-78823432D01*
X94169640Y-78824154D01*
X94091243Y-78809500D01*
X93868757Y-78809500D01*
X93650060Y-78850382D01*
X93518864Y-78901207D01*
X93442601Y-78930752D01*
X93442595Y-78930754D01*
X93253439Y-79047874D01*
X93253437Y-79047876D01*
X93089020Y-79197761D01*
X92954943Y-79375308D01*
X92954938Y-79375316D01*
X92855775Y-79574461D01*
X92855769Y-79574476D01*
X92794885Y-79788462D01*
X92794884Y-79788464D01*
X92774357Y-80009999D01*
X92774357Y-80010000D01*
X92794884Y-80231535D01*
X92794885Y-80231537D01*
X92855769Y-80445523D01*
X92855775Y-80445538D01*
X92954938Y-80644683D01*
X92954943Y-80644691D01*
X93089020Y-80822238D01*
X93253437Y-80972123D01*
X93253439Y-80972125D01*
X93442595Y-81089245D01*
X93442596Y-81089245D01*
X93442599Y-81089247D01*
X93636524Y-81164374D01*
X93691924Y-81206946D01*
X93715515Y-81272713D01*
X93699804Y-81340793D01*
X93649780Y-81389572D01*
X93636533Y-81395622D01*
X93530033Y-81436881D01*
X93442601Y-81470752D01*
X93442595Y-81470754D01*
X93253439Y-81587874D01*
X93253437Y-81587876D01*
X93089020Y-81737761D01*
X92954943Y-81915308D01*
X92954938Y-81915316D01*
X92855775Y-82114461D01*
X92855769Y-82114476D01*
X92794885Y-82328462D01*
X92794884Y-82328464D01*
X92774357Y-82549999D01*
X92774357Y-82550000D01*
X92794884Y-82771535D01*
X92794885Y-82771537D01*
X92855769Y-82985523D01*
X92855775Y-82985538D01*
X92954938Y-83184683D01*
X92954943Y-83184691D01*
X93089020Y-83362238D01*
X93253437Y-83512123D01*
X93253439Y-83512125D01*
X93442595Y-83629245D01*
X93442596Y-83629245D01*
X93442599Y-83629247D01*
X93637215Y-83704642D01*
X93692614Y-83747213D01*
X93716205Y-83812980D01*
X93700494Y-83881060D01*
X93650470Y-83929839D01*
X93637213Y-83935893D01*
X93442831Y-84011197D01*
X93442820Y-84011202D01*
X93253738Y-84128278D01*
X93089391Y-84278099D01*
X92955368Y-84455574D01*
X92856239Y-84654650D01*
X92803505Y-84840000D01*
X93734419Y-84840000D01*
X93682940Y-84895921D01*
X93636018Y-85002892D01*
X93626372Y-85119302D01*
X93655047Y-85232538D01*
X93718936Y-85330327D01*
X93731364Y-85340000D01*
X92803505Y-85340000D01*
X92856239Y-85525349D01*
X92955368Y-85724425D01*
X93089391Y-85901900D01*
X93253738Y-86051721D01*
X93356053Y-86115073D01*
X93402688Y-86167101D01*
X93413792Y-86236083D01*
X93385839Y-86300117D01*
X93327703Y-86338874D01*
X93290775Y-86344500D01*
X87050173Y-86344500D01*
X86983134Y-86324815D01*
X86937379Y-86272011D01*
X86927435Y-86202853D01*
X86956460Y-86139297D01*
X86984896Y-86115073D01*
X87086560Y-86052125D01*
X87086559Y-86052125D01*
X87086562Y-86052124D01*
X87244761Y-85907906D01*
X87250979Y-85902238D01*
X87251235Y-85901900D01*
X87385058Y-85724689D01*
X87484229Y-85525528D01*
X87545115Y-85311536D01*
X87565643Y-85090000D01*
X87563339Y-85065140D01*
X87545115Y-84868464D01*
X87545114Y-84868462D01*
X87516869Y-84769192D01*
X87484229Y-84654472D01*
X87418446Y-84522362D01*
X87385061Y-84455316D01*
X87385056Y-84455308D01*
X87250979Y-84277761D01*
X87086562Y-84127876D01*
X87086560Y-84127874D01*
X86897404Y-84010754D01*
X86897395Y-84010750D01*
X86793305Y-83970426D01*
X86703475Y-83935625D01*
X86648075Y-83893054D01*
X86624484Y-83827288D01*
X86640195Y-83759207D01*
X86690219Y-83710428D01*
X86703466Y-83704377D01*
X86897401Y-83629247D01*
X87086562Y-83512124D01*
X87250981Y-83362236D01*
X87385058Y-83184689D01*
X87484229Y-82985528D01*
X87545115Y-82771536D01*
X87565643Y-82550000D01*
X87545115Y-82328464D01*
X87484229Y-82114472D01*
X87484224Y-82114461D01*
X87385061Y-81915316D01*
X87385056Y-81915308D01*
X87250979Y-81737761D01*
X87086562Y-81587876D01*
X87086560Y-81587874D01*
X86897404Y-81470754D01*
X86897395Y-81470750D01*
X86803956Y-81434552D01*
X86703475Y-81395625D01*
X86648075Y-81353054D01*
X86624484Y-81287288D01*
X86640195Y-81219207D01*
X86690219Y-81170428D01*
X86703466Y-81164377D01*
X86897401Y-81089247D01*
X87086562Y-80972124D01*
X87250981Y-80822236D01*
X87385058Y-80644689D01*
X87484229Y-80445528D01*
X87545115Y-80231536D01*
X87565643Y-80010000D01*
X87545115Y-79788464D01*
X87484229Y-79574472D01*
X87387393Y-79380000D01*
X87385061Y-79375316D01*
X87385056Y-79375308D01*
X87250979Y-79197761D01*
X87086562Y-79047876D01*
X87086560Y-79047874D01*
X86897404Y-78930754D01*
X86897398Y-78930752D01*
X86689940Y-78850382D01*
X86471243Y-78809500D01*
X86248757Y-78809500D01*
X86030060Y-78850382D01*
X85898864Y-78901207D01*
X85822601Y-78930752D01*
X85822595Y-78930754D01*
X85633439Y-79047874D01*
X85633437Y-79047876D01*
X85469020Y-79197761D01*
X85334943Y-79375308D01*
X85334938Y-79375316D01*
X85235775Y-79574461D01*
X85235769Y-79574476D01*
X85174885Y-79788462D01*
X85174884Y-79788464D01*
X85154357Y-80009999D01*
X85154357Y-80010000D01*
X85174884Y-80231535D01*
X85174885Y-80231537D01*
X85235769Y-80445523D01*
X85235775Y-80445538D01*
X85334938Y-80644683D01*
X85334943Y-80644691D01*
X85469020Y-80822238D01*
X85633437Y-80972123D01*
X85633439Y-80972125D01*
X85822595Y-81089245D01*
X85822596Y-81089245D01*
X85822599Y-81089247D01*
X86016524Y-81164374D01*
X86071924Y-81206946D01*
X86095515Y-81272713D01*
X86079804Y-81340793D01*
X86029780Y-81389572D01*
X86016533Y-81395622D01*
X85910033Y-81436881D01*
X85822601Y-81470752D01*
X85822595Y-81470754D01*
X85633439Y-81587874D01*
X85633437Y-81587876D01*
X85469020Y-81737761D01*
X85334943Y-81915308D01*
X85334938Y-81915316D01*
X85235775Y-82114461D01*
X85235769Y-82114476D01*
X85174885Y-82328462D01*
X85174884Y-82328464D01*
X85154357Y-82549999D01*
X85154357Y-82550000D01*
X85174884Y-82771535D01*
X85174885Y-82771537D01*
X85235769Y-82985523D01*
X85235775Y-82985538D01*
X85334938Y-83184683D01*
X85334943Y-83184691D01*
X85469020Y-83362238D01*
X85633437Y-83512123D01*
X85633439Y-83512125D01*
X85822595Y-83629245D01*
X85822596Y-83629245D01*
X85822599Y-83629247D01*
X86016524Y-83704374D01*
X86071924Y-83746946D01*
X86095515Y-83812713D01*
X86079804Y-83880793D01*
X86029780Y-83929572D01*
X86016533Y-83935622D01*
X85926695Y-83970426D01*
X85822601Y-84010752D01*
X85822595Y-84010754D01*
X85633439Y-84127874D01*
X85633437Y-84127876D01*
X85469020Y-84277761D01*
X85334943Y-84455308D01*
X85334938Y-84455316D01*
X85235775Y-84654461D01*
X85235769Y-84654476D01*
X85174885Y-84868462D01*
X85174884Y-84868464D01*
X85154357Y-85089999D01*
X85154357Y-85090000D01*
X85174884Y-85311535D01*
X85174885Y-85311537D01*
X85235769Y-85525523D01*
X85235775Y-85525538D01*
X85334938Y-85724683D01*
X85334943Y-85724691D01*
X85469020Y-85902238D01*
X85633437Y-86052123D01*
X85633439Y-86052125D01*
X85735104Y-86115073D01*
X85781740Y-86167101D01*
X85792844Y-86236082D01*
X85764891Y-86300117D01*
X85706756Y-86338873D01*
X85669827Y-86344500D01*
X82147535Y-86344500D01*
X82080496Y-86324815D01*
X82034741Y-86272011D01*
X82024797Y-86202853D01*
X82053822Y-86139297D01*
X82076408Y-86118928D01*
X82086877Y-86111598D01*
X82241598Y-85956877D01*
X82367102Y-85777639D01*
X82459575Y-85579330D01*
X82516207Y-85367977D01*
X82532905Y-85177108D01*
X82535277Y-85150002D01*
X82535277Y-85149997D01*
X82526447Y-85049075D01*
X82516207Y-84932023D01*
X82474917Y-84777928D01*
X82459577Y-84720677D01*
X82459576Y-84720676D01*
X82459575Y-84720670D01*
X82367102Y-84522362D01*
X82367100Y-84522359D01*
X82367099Y-84522357D01*
X82241599Y-84343124D01*
X82176236Y-84277761D01*
X82086877Y-84188402D01*
X81907639Y-84062898D01*
X81907640Y-84062898D01*
X81907638Y-84062897D01*
X81808484Y-84016661D01*
X81709330Y-83970425D01*
X81709326Y-83970424D01*
X81709317Y-83970420D01*
X81706907Y-83969775D01*
X81705963Y-83969199D01*
X81704236Y-83968571D01*
X81704362Y-83968224D01*
X81647246Y-83933412D01*
X81616715Y-83870565D01*
X81625009Y-83801189D01*
X81669493Y-83747311D01*
X81704240Y-83731442D01*
X81704236Y-83731429D01*
X81704406Y-83731367D01*
X81706907Y-83730225D01*
X81709317Y-83729579D01*
X81709320Y-83729577D01*
X81709330Y-83729575D01*
X81907639Y-83637102D01*
X82086877Y-83511598D01*
X82241598Y-83356877D01*
X82367102Y-83177639D01*
X82459575Y-82979330D01*
X82516207Y-82767977D01*
X82535277Y-82550000D01*
X82516207Y-82332023D01*
X82459575Y-82120670D01*
X82367102Y-81922362D01*
X82367100Y-81922359D01*
X82367099Y-81922357D01*
X82241599Y-81743124D01*
X82178061Y-81679586D01*
X82086877Y-81588402D01*
X81907639Y-81462898D01*
X81907640Y-81462898D01*
X81907638Y-81462897D01*
X81851845Y-81436881D01*
X81799406Y-81390709D01*
X81780254Y-81323515D01*
X81800470Y-81256634D01*
X81853635Y-81211299D01*
X81904249Y-81200499D01*
X82077872Y-81200499D01*
X82137483Y-81194091D01*
X82272331Y-81143796D01*
X82387546Y-81057546D01*
X82473796Y-80942331D01*
X82524091Y-80807483D01*
X82530500Y-80747873D01*
X82530499Y-79152128D01*
X82524091Y-79092517D01*
X82507440Y-79047874D01*
X82473797Y-78957671D01*
X82473793Y-78957664D01*
X82387547Y-78842455D01*
X82387544Y-78842452D01*
X82272335Y-78756206D01*
X82272328Y-78756202D01*
X82137482Y-78705908D01*
X82137483Y-78705908D01*
X82077883Y-78699501D01*
X82077881Y-78699500D01*
X82077873Y-78699500D01*
X82077864Y-78699500D01*
X80482129Y-78699500D01*
X80482123Y-78699501D01*
X80422516Y-78705908D01*
X80287671Y-78756202D01*
X80287664Y-78756206D01*
X80172455Y-78842452D01*
X80172452Y-78842455D01*
X80086206Y-78957664D01*
X80086202Y-78957671D01*
X80035908Y-79092517D01*
X80029501Y-79152116D01*
X80029501Y-79152123D01*
X80029500Y-79152135D01*
X80029500Y-80747870D01*
X80029501Y-80747876D01*
X80035908Y-80807483D01*
X80086202Y-80942328D01*
X80086206Y-80942335D01*
X80172452Y-81057544D01*
X80172455Y-81057547D01*
X80287664Y-81143793D01*
X80287671Y-81143797D01*
X80422517Y-81194091D01*
X80422516Y-81194091D01*
X80429444Y-81194835D01*
X80482127Y-81200500D01*
X80655750Y-81200499D01*
X80722787Y-81220183D01*
X80768542Y-81272987D01*
X80778486Y-81342145D01*
X80749461Y-81405701D01*
X80708155Y-81436880D01*
X80652363Y-81462897D01*
X80652357Y-81462900D01*
X80473121Y-81588402D01*
X80318402Y-81743121D01*
X80192900Y-81922357D01*
X80192898Y-81922361D01*
X80100426Y-82120668D01*
X80100422Y-82120677D01*
X80043793Y-82332020D01*
X80043793Y-82332024D01*
X80024723Y-82549997D01*
X80024723Y-82550002D01*
X80043793Y-82767975D01*
X80043793Y-82767979D01*
X80100422Y-82979322D01*
X80100424Y-82979326D01*
X80100425Y-82979330D01*
X80103320Y-82985538D01*
X80192897Y-83177638D01*
X80192898Y-83177639D01*
X80318402Y-83356877D01*
X80473123Y-83511598D01*
X80652361Y-83637102D01*
X80850670Y-83729575D01*
X80850679Y-83729577D01*
X80850683Y-83729579D01*
X80853096Y-83730226D01*
X80854040Y-83730801D01*
X80855764Y-83731429D01*
X80855637Y-83731775D01*
X80912756Y-83766591D01*
X80943284Y-83829439D01*
X80934989Y-83898814D01*
X80890502Y-83952692D01*
X80855759Y-83968557D01*
X80855764Y-83968571D01*
X80855597Y-83968631D01*
X80853096Y-83969774D01*
X80850683Y-83970420D01*
X80850668Y-83970426D01*
X80652361Y-84062898D01*
X80652357Y-84062900D01*
X80473121Y-84188402D01*
X80318402Y-84343121D01*
X80192900Y-84522357D01*
X80192898Y-84522361D01*
X80100426Y-84720668D01*
X80100422Y-84720677D01*
X80043793Y-84932020D01*
X80043793Y-84932024D01*
X80024723Y-85149997D01*
X80024723Y-85150002D01*
X80031944Y-85232538D01*
X80041345Y-85340000D01*
X80043793Y-85367975D01*
X80043793Y-85367979D01*
X80100422Y-85579322D01*
X80100424Y-85579326D01*
X80100425Y-85579330D01*
X80126693Y-85635662D01*
X80192897Y-85777638D01*
X80192898Y-85777639D01*
X80318402Y-85956877D01*
X80473123Y-86111598D01*
X80483589Y-86118926D01*
X80527213Y-86173502D01*
X80534407Y-86243000D01*
X80502884Y-86305355D01*
X80442655Y-86340769D01*
X80412465Y-86344500D01*
X78825506Y-86344500D01*
X78809495Y-86342732D01*
X78809473Y-86342974D01*
X78801706Y-86342239D01*
X78731724Y-86344439D01*
X78727829Y-86344500D01*
X78699075Y-86344500D01*
X78699069Y-86344500D01*
X78699063Y-86344501D01*
X78694699Y-86345052D01*
X78683069Y-86345967D01*
X78637433Y-86347401D01*
X78622873Y-86351630D01*
X78617040Y-86353325D01*
X78597996Y-86357269D01*
X78576942Y-86359929D01*
X78576940Y-86359929D01*
X78534496Y-86376733D01*
X78523450Y-86380515D01*
X78479601Y-86393254D01*
X78461325Y-86404063D01*
X78443860Y-86412619D01*
X78424124Y-86420433D01*
X78387187Y-86447269D01*
X78377428Y-86453680D01*
X78338136Y-86476917D01*
X78323124Y-86491929D01*
X78308336Y-86504558D01*
X78291167Y-86517032D01*
X78291165Y-86517034D01*
X78262056Y-86552219D01*
X78254196Y-86560856D01*
X75961873Y-88853181D01*
X75900550Y-88886666D01*
X75874192Y-88889500D01*
X73647721Y-88889500D01*
X73580682Y-88869815D01*
X73546146Y-88836623D01*
X73513848Y-88790497D01*
X73428495Y-88668599D01*
X73306179Y-88546283D01*
X73272696Y-88484963D01*
X73277680Y-88415271D01*
X73319551Y-88359337D01*
X73350529Y-88342422D01*
X73482086Y-88293354D01*
X73482093Y-88293350D01*
X73597187Y-88207190D01*
X73597190Y-88207187D01*
X73683350Y-88092093D01*
X73683354Y-88092086D01*
X73733596Y-87957379D01*
X73733598Y-87957372D01*
X73739999Y-87897844D01*
X73740000Y-87897827D01*
X73740000Y-87250000D01*
X72823686Y-87250000D01*
X72849493Y-87209844D01*
X72890000Y-87071889D01*
X72890000Y-86928111D01*
X72849493Y-86790156D01*
X72823686Y-86750000D01*
X73740000Y-86750000D01*
X73740000Y-86102172D01*
X73739999Y-86102155D01*
X73733598Y-86042627D01*
X73733596Y-86042620D01*
X73683354Y-85907913D01*
X73683350Y-85907906D01*
X73597190Y-85792812D01*
X73597187Y-85792809D01*
X73482093Y-85706649D01*
X73482088Y-85706646D01*
X73350528Y-85657577D01*
X73294595Y-85615705D01*
X73270178Y-85550241D01*
X73285030Y-85481968D01*
X73306175Y-85453720D01*
X73428495Y-85331401D01*
X73564035Y-85137830D01*
X73663903Y-84923663D01*
X73725063Y-84695408D01*
X73745659Y-84460000D01*
X73745248Y-84455308D01*
X73725063Y-84224596D01*
X73725063Y-84224592D01*
X73667766Y-84010753D01*
X73663905Y-83996344D01*
X73663904Y-83996343D01*
X73663903Y-83996337D01*
X73564035Y-83782171D01*
X73548143Y-83759474D01*
X73428494Y-83588597D01*
X73261402Y-83421506D01*
X73261396Y-83421501D01*
X73075842Y-83291575D01*
X73032217Y-83236998D01*
X73025023Y-83167500D01*
X73056546Y-83105145D01*
X73075842Y-83088425D01*
X73098026Y-83072891D01*
X73261401Y-82958495D01*
X73428495Y-82791401D01*
X73564035Y-82597830D01*
X73663903Y-82383663D01*
X73725063Y-82155408D01*
X73745659Y-81920000D01*
X73745248Y-81915308D01*
X73730184Y-81743123D01*
X73725063Y-81684592D01*
X73667766Y-81470753D01*
X73663905Y-81456344D01*
X73663904Y-81456343D01*
X73663903Y-81456337D01*
X73564035Y-81242171D01*
X73542419Y-81211299D01*
X73428494Y-81048597D01*
X73261402Y-80881506D01*
X73261396Y-80881501D01*
X73075842Y-80751575D01*
X73032217Y-80696998D01*
X73025023Y-80627500D01*
X73056546Y-80565145D01*
X73075842Y-80548425D01*
X73098026Y-80532891D01*
X73261401Y-80418495D01*
X73428495Y-80251401D01*
X73564035Y-80057830D01*
X73663903Y-79843663D01*
X73725063Y-79615408D01*
X73745659Y-79380000D01*
X73745248Y-79375308D01*
X73725063Y-79144596D01*
X73725063Y-79144592D01*
X73667766Y-78930753D01*
X73663905Y-78916344D01*
X73663904Y-78916343D01*
X73663903Y-78916337D01*
X73564035Y-78702171D01*
X73562166Y-78699501D01*
X73428494Y-78508597D01*
X73261402Y-78341506D01*
X73261396Y-78341501D01*
X73075842Y-78211575D01*
X73032217Y-78156998D01*
X73025023Y-78087500D01*
X73056546Y-78025145D01*
X73075842Y-78008425D01*
X73098026Y-77992891D01*
X73261401Y-77878495D01*
X73428495Y-77711401D01*
X73564035Y-77517830D01*
X73663903Y-77303663D01*
X73725063Y-77075408D01*
X73745659Y-76840000D01*
X73745221Y-76834999D01*
X73727770Y-76635538D01*
X73725063Y-76604592D01*
X73663903Y-76376337D01*
X73609655Y-76260002D01*
X80024723Y-76260002D01*
X80031944Y-76342538D01*
X80041345Y-76450000D01*
X80043793Y-76477975D01*
X80043793Y-76477979D01*
X80100422Y-76689322D01*
X80100424Y-76689326D01*
X80100425Y-76689330D01*
X80146661Y-76788484D01*
X80192897Y-76887638D01*
X80192898Y-76887639D01*
X80318402Y-77066877D01*
X80473123Y-77221598D01*
X80652361Y-77347102D01*
X80850670Y-77439575D01*
X81062023Y-77496207D01*
X81244926Y-77512208D01*
X81279998Y-77515277D01*
X81280000Y-77515277D01*
X81280002Y-77515277D01*
X81308254Y-77512805D01*
X81497977Y-77496207D01*
X81709330Y-77439575D01*
X81907639Y-77347102D01*
X82086877Y-77221598D01*
X82241598Y-77066877D01*
X82367102Y-76887639D01*
X82459575Y-76689330D01*
X82516207Y-76477977D01*
X82535277Y-76260000D01*
X82530028Y-76200000D01*
X85154357Y-76200000D01*
X85174884Y-76421535D01*
X85174885Y-76421537D01*
X85235769Y-76635523D01*
X85235775Y-76635538D01*
X85334938Y-76834683D01*
X85334943Y-76834691D01*
X85469020Y-77012238D01*
X85633437Y-77162123D01*
X85633439Y-77162125D01*
X85822595Y-77279245D01*
X85822596Y-77279245D01*
X85822599Y-77279247D01*
X86030060Y-77359618D01*
X86248757Y-77400500D01*
X86248759Y-77400500D01*
X86471241Y-77400500D01*
X86471243Y-77400500D01*
X86689940Y-77359618D01*
X86897401Y-77279247D01*
X87086562Y-77162124D01*
X87250981Y-77012236D01*
X87385058Y-76834689D01*
X87484229Y-76635528D01*
X87537016Y-76450000D01*
X92803505Y-76450000D01*
X92856239Y-76635349D01*
X92955368Y-76834425D01*
X93089391Y-77011900D01*
X93253738Y-77161721D01*
X93442820Y-77278797D01*
X93442822Y-77278798D01*
X93650195Y-77359135D01*
X93730000Y-77374052D01*
X93730000Y-76450000D01*
X92803505Y-76450000D01*
X87537016Y-76450000D01*
X87545115Y-76421536D01*
X87565643Y-76200000D01*
X87562137Y-76162169D01*
X87545115Y-75978464D01*
X87545114Y-75978462D01*
X87542307Y-75968597D01*
X87484229Y-75764472D01*
X87435482Y-75666575D01*
X87385061Y-75565316D01*
X87385056Y-75565308D01*
X87250979Y-75387761D01*
X87086562Y-75237876D01*
X87086560Y-75237874D01*
X86897404Y-75120754D01*
X86897395Y-75120750D01*
X86793305Y-75080426D01*
X86703475Y-75045625D01*
X86648075Y-75003054D01*
X86624484Y-74937288D01*
X86640195Y-74869207D01*
X86690219Y-74820428D01*
X86703466Y-74814377D01*
X86897401Y-74739247D01*
X87086562Y-74622124D01*
X87250981Y-74472236D01*
X87385058Y-74294689D01*
X87484229Y-74095528D01*
X87545115Y-73881536D01*
X87565643Y-73660000D01*
X87562137Y-73622169D01*
X87545115Y-73438464D01*
X87545114Y-73438462D01*
X87542307Y-73428597D01*
X87484229Y-73224472D01*
X87435482Y-73126575D01*
X87385061Y-73025316D01*
X87385056Y-73025308D01*
X87250979Y-72847761D01*
X87086562Y-72697876D01*
X87086560Y-72697874D01*
X86897404Y-72580754D01*
X86897395Y-72580750D01*
X86787007Y-72537986D01*
X86703475Y-72505625D01*
X86648075Y-72463054D01*
X86624484Y-72397288D01*
X86640195Y-72329207D01*
X86690219Y-72280428D01*
X86703466Y-72274377D01*
X86897401Y-72199247D01*
X87086562Y-72082124D01*
X87250981Y-71932236D01*
X87385058Y-71754689D01*
X87484229Y-71555528D01*
X87545115Y-71341536D01*
X87565643Y-71120000D01*
X87562137Y-71082169D01*
X87545115Y-70898464D01*
X87545114Y-70898462D01*
X87542307Y-70888597D01*
X87484229Y-70684472D01*
X87435482Y-70586575D01*
X87385061Y-70485316D01*
X87385056Y-70485308D01*
X87250979Y-70307761D01*
X87086562Y-70157876D01*
X87086560Y-70157874D01*
X86897404Y-70040754D01*
X86897398Y-70040752D01*
X86689940Y-69960382D01*
X86471243Y-69919500D01*
X86248757Y-69919500D01*
X86030060Y-69960382D01*
X85898864Y-70011207D01*
X85822601Y-70040752D01*
X85822595Y-70040754D01*
X85633439Y-70157874D01*
X85633437Y-70157876D01*
X85469020Y-70307761D01*
X85334943Y-70485308D01*
X85334938Y-70485316D01*
X85235775Y-70684461D01*
X85235769Y-70684476D01*
X85174885Y-70898462D01*
X85174884Y-70898464D01*
X85154357Y-71119999D01*
X85154357Y-71120000D01*
X85174884Y-71341535D01*
X85174885Y-71341537D01*
X85235769Y-71555523D01*
X85235775Y-71555538D01*
X85334938Y-71754683D01*
X85334943Y-71754691D01*
X85469020Y-71932238D01*
X85633437Y-72082123D01*
X85633439Y-72082125D01*
X85822595Y-72199245D01*
X85822596Y-72199245D01*
X85822599Y-72199247D01*
X86016524Y-72274374D01*
X86071924Y-72316946D01*
X86095515Y-72382713D01*
X86079804Y-72450793D01*
X86029780Y-72499572D01*
X86016533Y-72505622D01*
X85910033Y-72546881D01*
X85822601Y-72580752D01*
X85822595Y-72580754D01*
X85633439Y-72697874D01*
X85633437Y-72697876D01*
X85469020Y-72847761D01*
X85334943Y-73025308D01*
X85334938Y-73025316D01*
X85235775Y-73224461D01*
X85235769Y-73224476D01*
X85174885Y-73438462D01*
X85174884Y-73438464D01*
X85154357Y-73659999D01*
X85154357Y-73660000D01*
X85174884Y-73881535D01*
X85174885Y-73881537D01*
X85235769Y-74095523D01*
X85235775Y-74095538D01*
X85334938Y-74294683D01*
X85334943Y-74294691D01*
X85469020Y-74472238D01*
X85633437Y-74622123D01*
X85633439Y-74622125D01*
X85822595Y-74739245D01*
X85822596Y-74739245D01*
X85822599Y-74739247D01*
X86016524Y-74814374D01*
X86071924Y-74856946D01*
X86095515Y-74922713D01*
X86079804Y-74990793D01*
X86029780Y-75039572D01*
X86016533Y-75045622D01*
X85926695Y-75080426D01*
X85822601Y-75120752D01*
X85822595Y-75120754D01*
X85633439Y-75237874D01*
X85633437Y-75237876D01*
X85469020Y-75387761D01*
X85334943Y-75565308D01*
X85334938Y-75565316D01*
X85235775Y-75764461D01*
X85235769Y-75764476D01*
X85174885Y-75978462D01*
X85174884Y-75978464D01*
X85154357Y-76199999D01*
X85154357Y-76200000D01*
X82530028Y-76200000D01*
X82516207Y-76042023D01*
X82468609Y-75864386D01*
X82459577Y-75830677D01*
X82459576Y-75830676D01*
X82459575Y-75830670D01*
X82367102Y-75632362D01*
X82367100Y-75632359D01*
X82367099Y-75632357D01*
X82241599Y-75453124D01*
X82176236Y-75387761D01*
X82086877Y-75298402D01*
X81907639Y-75172898D01*
X81907640Y-75172898D01*
X81907638Y-75172897D01*
X81808484Y-75126661D01*
X81709330Y-75080425D01*
X81709326Y-75080424D01*
X81709317Y-75080420D01*
X81706907Y-75079775D01*
X81705963Y-75079199D01*
X81704236Y-75078571D01*
X81704362Y-75078224D01*
X81647246Y-75043412D01*
X81616715Y-74980565D01*
X81625009Y-74911189D01*
X81669493Y-74857311D01*
X81704240Y-74841442D01*
X81704236Y-74841429D01*
X81704406Y-74841367D01*
X81706907Y-74840225D01*
X81709317Y-74839579D01*
X81709320Y-74839577D01*
X81709330Y-74839575D01*
X81907639Y-74747102D01*
X82086877Y-74621598D01*
X82241598Y-74466877D01*
X82367102Y-74287639D01*
X82459575Y-74089330D01*
X82516207Y-73877977D01*
X82535277Y-73660000D01*
X82531967Y-73622171D01*
X82525236Y-73545228D01*
X82516207Y-73442023D01*
X82466498Y-73256506D01*
X82459577Y-73230677D01*
X82459576Y-73230676D01*
X82459575Y-73230670D01*
X82367102Y-73032362D01*
X82367100Y-73032359D01*
X82367099Y-73032357D01*
X82241599Y-72853124D01*
X82181968Y-72793493D01*
X82086877Y-72698402D01*
X81907639Y-72572898D01*
X81907640Y-72572898D01*
X81907638Y-72572897D01*
X81851845Y-72546881D01*
X81799406Y-72500709D01*
X81780254Y-72433515D01*
X81800470Y-72366634D01*
X81853635Y-72321299D01*
X81904249Y-72310499D01*
X82077872Y-72310499D01*
X82137483Y-72304091D01*
X82272331Y-72253796D01*
X82387546Y-72167546D01*
X82473796Y-72052331D01*
X82524091Y-71917483D01*
X82530500Y-71857873D01*
X82530499Y-70262128D01*
X82524091Y-70202517D01*
X82507440Y-70157874D01*
X82473797Y-70067671D01*
X82473793Y-70067664D01*
X82387547Y-69952455D01*
X82387544Y-69952452D01*
X82272335Y-69866206D01*
X82272328Y-69866202D01*
X82137482Y-69815908D01*
X82137483Y-69815908D01*
X82077883Y-69809501D01*
X82077881Y-69809500D01*
X82077873Y-69809500D01*
X82077864Y-69809500D01*
X80482129Y-69809500D01*
X80482123Y-69809501D01*
X80422516Y-69815908D01*
X80287671Y-69866202D01*
X80287664Y-69866206D01*
X80172455Y-69952452D01*
X80172452Y-69952455D01*
X80086206Y-70067664D01*
X80086202Y-70067671D01*
X80035908Y-70202517D01*
X80029890Y-70258495D01*
X80029501Y-70262123D01*
X80029500Y-70262135D01*
X80029500Y-71857870D01*
X80029501Y-71857876D01*
X80035908Y-71917483D01*
X80086202Y-72052328D01*
X80086206Y-72052335D01*
X80172452Y-72167544D01*
X80172455Y-72167547D01*
X80287664Y-72253793D01*
X80287671Y-72253797D01*
X80422517Y-72304091D01*
X80422516Y-72304091D01*
X80429444Y-72304835D01*
X80482127Y-72310500D01*
X80655750Y-72310499D01*
X80722787Y-72330183D01*
X80768542Y-72382987D01*
X80778486Y-72452145D01*
X80749461Y-72515701D01*
X80708155Y-72546880D01*
X80652363Y-72572897D01*
X80652357Y-72572900D01*
X80473121Y-72698402D01*
X80318402Y-72853121D01*
X80192900Y-73032357D01*
X80192898Y-73032361D01*
X80100426Y-73230668D01*
X80100422Y-73230677D01*
X80043793Y-73442020D01*
X80043793Y-73442024D01*
X80028033Y-73622171D01*
X80024723Y-73660000D01*
X80039712Y-73831335D01*
X80043793Y-73877975D01*
X80043793Y-73877979D01*
X80100422Y-74089322D01*
X80100424Y-74089326D01*
X80100425Y-74089330D01*
X80103320Y-74095538D01*
X80192897Y-74287638D01*
X80201553Y-74300000D01*
X80318402Y-74466877D01*
X80473123Y-74621598D01*
X80652361Y-74747102D01*
X80850670Y-74839575D01*
X80850679Y-74839577D01*
X80850683Y-74839579D01*
X80853096Y-74840226D01*
X80854040Y-74840801D01*
X80855764Y-74841429D01*
X80855637Y-74841775D01*
X80912756Y-74876591D01*
X80943284Y-74939439D01*
X80934989Y-75008814D01*
X80890502Y-75062692D01*
X80855759Y-75078557D01*
X80855764Y-75078571D01*
X80855597Y-75078631D01*
X80853096Y-75079774D01*
X80850683Y-75080420D01*
X80850668Y-75080426D01*
X80652361Y-75172898D01*
X80652357Y-75172900D01*
X80473121Y-75298402D01*
X80318402Y-75453121D01*
X80192900Y-75632357D01*
X80192898Y-75632361D01*
X80100426Y-75830668D01*
X80100422Y-75830677D01*
X80043793Y-76042020D01*
X80043793Y-76042024D01*
X80024723Y-76259997D01*
X80024723Y-76260002D01*
X73609655Y-76260002D01*
X73564035Y-76162171D01*
X73490718Y-76057462D01*
X73428494Y-75968597D01*
X73261402Y-75801506D01*
X73261396Y-75801501D01*
X73075842Y-75671575D01*
X73032217Y-75616998D01*
X73025023Y-75547500D01*
X73056546Y-75485145D01*
X73075842Y-75468425D01*
X73190559Y-75388099D01*
X73261401Y-75338495D01*
X73428495Y-75171401D01*
X73564035Y-74977830D01*
X73663903Y-74763663D01*
X73725063Y-74535408D01*
X73745659Y-74300000D01*
X73745221Y-74294999D01*
X73727770Y-74095538D01*
X73725063Y-74064592D01*
X73663903Y-73836337D01*
X73564035Y-73622171D01*
X73510160Y-73545228D01*
X73428494Y-73428597D01*
X73261402Y-73261506D01*
X73261396Y-73261501D01*
X73075842Y-73131575D01*
X73032217Y-73076998D01*
X73025023Y-73007500D01*
X73056546Y-72945145D01*
X73075842Y-72928425D01*
X73098026Y-72912891D01*
X73261401Y-72798495D01*
X73428495Y-72631401D01*
X73564035Y-72437830D01*
X73663903Y-72223663D01*
X73725063Y-71995408D01*
X73745659Y-71760000D01*
X73745221Y-71754999D01*
X73727770Y-71555538D01*
X73725063Y-71524592D01*
X73663903Y-71296337D01*
X73564035Y-71082171D01*
X73435402Y-70898462D01*
X73428494Y-70888597D01*
X73261402Y-70721506D01*
X73261396Y-70721501D01*
X73075842Y-70591575D01*
X73032217Y-70536998D01*
X73025023Y-70467500D01*
X73056546Y-70405145D01*
X73075842Y-70388425D01*
X73098026Y-70372891D01*
X73261401Y-70258495D01*
X73428495Y-70091401D01*
X73564035Y-69897830D01*
X73663903Y-69683663D01*
X73725063Y-69455408D01*
X73745659Y-69220000D01*
X73745221Y-69214999D01*
X73725063Y-68984596D01*
X73725063Y-68984592D01*
X73663903Y-68756337D01*
X73564035Y-68542171D01*
X73513233Y-68469617D01*
X73428494Y-68348597D01*
X73261402Y-68181506D01*
X73261396Y-68181501D01*
X73075842Y-68051575D01*
X73032217Y-67996998D01*
X73025023Y-67927500D01*
X73056546Y-67865145D01*
X73075842Y-67848425D01*
X73145968Y-67799322D01*
X73261401Y-67718495D01*
X73428495Y-67551401D01*
X73555512Y-67370002D01*
X80024723Y-67370002D01*
X80031944Y-67452538D01*
X80041345Y-67560000D01*
X80043793Y-67587975D01*
X80043793Y-67587979D01*
X80100422Y-67799322D01*
X80100424Y-67799326D01*
X80100425Y-67799330D01*
X80131115Y-67865145D01*
X80192897Y-67997638D01*
X80192898Y-67997639D01*
X80318402Y-68176877D01*
X80473123Y-68331598D01*
X80652361Y-68457102D01*
X80850670Y-68549575D01*
X81062023Y-68606207D01*
X81244926Y-68622208D01*
X81279998Y-68625277D01*
X81280000Y-68625277D01*
X81280002Y-68625277D01*
X81308254Y-68622805D01*
X81497977Y-68606207D01*
X81709330Y-68549575D01*
X81907639Y-68457102D01*
X82086877Y-68331598D01*
X82241598Y-68176877D01*
X82367102Y-67997639D01*
X82459575Y-67799330D01*
X82516207Y-67587977D01*
X82535277Y-67370000D01*
X82530028Y-67310000D01*
X85154357Y-67310000D01*
X85174884Y-67531535D01*
X85174885Y-67531537D01*
X85235769Y-67745523D01*
X85235775Y-67745538D01*
X85334938Y-67944683D01*
X85334943Y-67944691D01*
X85469020Y-68122238D01*
X85633437Y-68272123D01*
X85633439Y-68272125D01*
X85822595Y-68389245D01*
X85822596Y-68389245D01*
X85822599Y-68389247D01*
X86030060Y-68469618D01*
X86248757Y-68510500D01*
X86248759Y-68510500D01*
X86471241Y-68510500D01*
X86471243Y-68510500D01*
X86689940Y-68469618D01*
X86897401Y-68389247D01*
X87086562Y-68272124D01*
X87250981Y-68122236D01*
X87385058Y-67944689D01*
X87484229Y-67745528D01*
X87537016Y-67560000D01*
X92803505Y-67560000D01*
X92856239Y-67745349D01*
X92955368Y-67944425D01*
X93089391Y-68121900D01*
X93253738Y-68271721D01*
X93442820Y-68388797D01*
X93442822Y-68388798D01*
X93650195Y-68469135D01*
X93730000Y-68484052D01*
X93730000Y-67560000D01*
X92803505Y-67560000D01*
X87537016Y-67560000D01*
X87545115Y-67531536D01*
X87565643Y-67310000D01*
X87545115Y-67088464D01*
X87484229Y-66874472D01*
X87418446Y-66742362D01*
X87385061Y-66675316D01*
X87385056Y-66675308D01*
X87250979Y-66497761D01*
X87086562Y-66347876D01*
X87086560Y-66347874D01*
X86897404Y-66230754D01*
X86897395Y-66230750D01*
X86793305Y-66190426D01*
X86703475Y-66155625D01*
X86648075Y-66113054D01*
X86624484Y-66047288D01*
X86640195Y-65979207D01*
X86690219Y-65930428D01*
X86703466Y-65924377D01*
X86897401Y-65849247D01*
X87086562Y-65732124D01*
X87250981Y-65582236D01*
X87385058Y-65404689D01*
X87484229Y-65205528D01*
X87545115Y-64991536D01*
X87565643Y-64770000D01*
X87545115Y-64548464D01*
X87484229Y-64334472D01*
X87484224Y-64334461D01*
X87385061Y-64135316D01*
X87385056Y-64135308D01*
X87250979Y-63957761D01*
X87086562Y-63807876D01*
X87086560Y-63807874D01*
X86897404Y-63690754D01*
X86897395Y-63690750D01*
X86787007Y-63647986D01*
X86703475Y-63615625D01*
X86648075Y-63573054D01*
X86624484Y-63507288D01*
X86640195Y-63439207D01*
X86690219Y-63390428D01*
X86703466Y-63384377D01*
X86897401Y-63309247D01*
X87086562Y-63192124D01*
X87250981Y-63042236D01*
X87385058Y-62864689D01*
X87484229Y-62665528D01*
X87545115Y-62451536D01*
X87565643Y-62230000D01*
X87545115Y-62008464D01*
X87484229Y-61794472D01*
X87484224Y-61794461D01*
X87385061Y-61595316D01*
X87385056Y-61595308D01*
X87250979Y-61417761D01*
X87086562Y-61267876D01*
X87086560Y-61267874D01*
X86897404Y-61150754D01*
X86897398Y-61150752D01*
X86689940Y-61070382D01*
X86471243Y-61029500D01*
X86248757Y-61029500D01*
X86030060Y-61070382D01*
X85898864Y-61121207D01*
X85822601Y-61150752D01*
X85822595Y-61150754D01*
X85633439Y-61267874D01*
X85633437Y-61267876D01*
X85469020Y-61417761D01*
X85334943Y-61595308D01*
X85334938Y-61595316D01*
X85235775Y-61794461D01*
X85235769Y-61794476D01*
X85174885Y-62008462D01*
X85174884Y-62008464D01*
X85154357Y-62229999D01*
X85154357Y-62230000D01*
X85174884Y-62451535D01*
X85174885Y-62451537D01*
X85235769Y-62665523D01*
X85235775Y-62665538D01*
X85334938Y-62864683D01*
X85334943Y-62864691D01*
X85469020Y-63042238D01*
X85633437Y-63192123D01*
X85633439Y-63192125D01*
X85822595Y-63309245D01*
X85822596Y-63309245D01*
X85822599Y-63309247D01*
X86016524Y-63384374D01*
X86071924Y-63426946D01*
X86095515Y-63492713D01*
X86079804Y-63560793D01*
X86029780Y-63609572D01*
X86016533Y-63615622D01*
X85910033Y-63656881D01*
X85822601Y-63690752D01*
X85822595Y-63690754D01*
X85633439Y-63807874D01*
X85633437Y-63807876D01*
X85469020Y-63957761D01*
X85334943Y-64135308D01*
X85334938Y-64135316D01*
X85235775Y-64334461D01*
X85235769Y-64334476D01*
X85174885Y-64548462D01*
X85174884Y-64548464D01*
X85154357Y-64769999D01*
X85154357Y-64770000D01*
X85174884Y-64991535D01*
X85174885Y-64991537D01*
X85235769Y-65205523D01*
X85235775Y-65205538D01*
X85334938Y-65404683D01*
X85334943Y-65404691D01*
X85469020Y-65582238D01*
X85633437Y-65732123D01*
X85633439Y-65732125D01*
X85822595Y-65849245D01*
X85822596Y-65849245D01*
X85822599Y-65849247D01*
X86016524Y-65924374D01*
X86071924Y-65966946D01*
X86095515Y-66032713D01*
X86079804Y-66100793D01*
X86029780Y-66149572D01*
X86016533Y-66155622D01*
X85926695Y-66190426D01*
X85822601Y-66230752D01*
X85822595Y-66230754D01*
X85633439Y-66347874D01*
X85633437Y-66347876D01*
X85469020Y-66497761D01*
X85334943Y-66675308D01*
X85334938Y-66675316D01*
X85235775Y-66874461D01*
X85235769Y-66874476D01*
X85174885Y-67088462D01*
X85174884Y-67088464D01*
X85154357Y-67309999D01*
X85154357Y-67310000D01*
X82530028Y-67310000D01*
X82516207Y-67152023D01*
X82468609Y-66974386D01*
X82459577Y-66940677D01*
X82459576Y-66940676D01*
X82459575Y-66940670D01*
X82367102Y-66742362D01*
X82367100Y-66742359D01*
X82367099Y-66742357D01*
X82241599Y-66563124D01*
X82176236Y-66497761D01*
X82086877Y-66408402D01*
X81907639Y-66282898D01*
X81907640Y-66282898D01*
X81907638Y-66282897D01*
X81808484Y-66236661D01*
X81709330Y-66190425D01*
X81709326Y-66190424D01*
X81709317Y-66190420D01*
X81706907Y-66189775D01*
X81705963Y-66189199D01*
X81704236Y-66188571D01*
X81704362Y-66188224D01*
X81647246Y-66153412D01*
X81616715Y-66090565D01*
X81625009Y-66021189D01*
X81669493Y-65967311D01*
X81704240Y-65951442D01*
X81704236Y-65951429D01*
X81704406Y-65951367D01*
X81706907Y-65950225D01*
X81709317Y-65949579D01*
X81709320Y-65949577D01*
X81709330Y-65949575D01*
X81907639Y-65857102D01*
X82086877Y-65731598D01*
X82241598Y-65576877D01*
X82367102Y-65397639D01*
X82459575Y-65199330D01*
X82516207Y-64987977D01*
X82535277Y-64770000D01*
X82516207Y-64552023D01*
X82459575Y-64340670D01*
X82367102Y-64142362D01*
X82367100Y-64142359D01*
X82367099Y-64142357D01*
X82241599Y-63963124D01*
X82236236Y-63957761D01*
X82086877Y-63808402D01*
X81907639Y-63682898D01*
X81907640Y-63682898D01*
X81907638Y-63682897D01*
X81851845Y-63656881D01*
X81799406Y-63610709D01*
X81780254Y-63543515D01*
X81800470Y-63476634D01*
X81853635Y-63431299D01*
X81904249Y-63420499D01*
X82077872Y-63420499D01*
X82137483Y-63414091D01*
X82272331Y-63363796D01*
X82387546Y-63277546D01*
X82473796Y-63162331D01*
X82524091Y-63027483D01*
X82530500Y-62967873D01*
X82530499Y-61372128D01*
X82524091Y-61312517D01*
X82507440Y-61267874D01*
X82473797Y-61177671D01*
X82473793Y-61177664D01*
X82387547Y-61062455D01*
X82387544Y-61062452D01*
X82272335Y-60976206D01*
X82272328Y-60976202D01*
X82137482Y-60925908D01*
X82137483Y-60925908D01*
X82077883Y-60919501D01*
X82077881Y-60919500D01*
X82077873Y-60919500D01*
X82077864Y-60919500D01*
X80482129Y-60919500D01*
X80482123Y-60919501D01*
X80422516Y-60925908D01*
X80287671Y-60976202D01*
X80287664Y-60976206D01*
X80172455Y-61062452D01*
X80172452Y-61062455D01*
X80086206Y-61177664D01*
X80086202Y-61177671D01*
X80035908Y-61312517D01*
X80029501Y-61372116D01*
X80029501Y-61372123D01*
X80029500Y-61372135D01*
X80029500Y-62967870D01*
X80029501Y-62967876D01*
X80035908Y-63027483D01*
X80086202Y-63162328D01*
X80086206Y-63162335D01*
X80172452Y-63277544D01*
X80172455Y-63277547D01*
X80287664Y-63363793D01*
X80287671Y-63363797D01*
X80422517Y-63414091D01*
X80422516Y-63414091D01*
X80429444Y-63414835D01*
X80482127Y-63420500D01*
X80655750Y-63420499D01*
X80722787Y-63440183D01*
X80768542Y-63492987D01*
X80778486Y-63562145D01*
X80749461Y-63625701D01*
X80708155Y-63656880D01*
X80652363Y-63682897D01*
X80652357Y-63682900D01*
X80473121Y-63808402D01*
X80318402Y-63963121D01*
X80192900Y-64142357D01*
X80192898Y-64142361D01*
X80100426Y-64340668D01*
X80100422Y-64340677D01*
X80043793Y-64552020D01*
X80043793Y-64552024D01*
X80024723Y-64769997D01*
X80024723Y-64770002D01*
X80043793Y-64987975D01*
X80043793Y-64987979D01*
X80100422Y-65199322D01*
X80100424Y-65199326D01*
X80100425Y-65199330D01*
X80103320Y-65205538D01*
X80192897Y-65397638D01*
X80192898Y-65397639D01*
X80318402Y-65576877D01*
X80473123Y-65731598D01*
X80652361Y-65857102D01*
X80850670Y-65949575D01*
X80850679Y-65949577D01*
X80850683Y-65949579D01*
X80853096Y-65950226D01*
X80854040Y-65950801D01*
X80855764Y-65951429D01*
X80855637Y-65951775D01*
X80912756Y-65986591D01*
X80943284Y-66049439D01*
X80934989Y-66118814D01*
X80890502Y-66172692D01*
X80855759Y-66188557D01*
X80855764Y-66188571D01*
X80855597Y-66188631D01*
X80853096Y-66189774D01*
X80850683Y-66190420D01*
X80850668Y-66190426D01*
X80652361Y-66282898D01*
X80652357Y-66282900D01*
X80473121Y-66408402D01*
X80318402Y-66563121D01*
X80192900Y-66742357D01*
X80192898Y-66742361D01*
X80100426Y-66940668D01*
X80100422Y-66940677D01*
X80043793Y-67152020D01*
X80043793Y-67152024D01*
X80024723Y-67369997D01*
X80024723Y-67370002D01*
X73555512Y-67370002D01*
X73564035Y-67357830D01*
X73663903Y-67143663D01*
X73725063Y-66915408D01*
X73745659Y-66680000D01*
X73745248Y-66675308D01*
X73725063Y-66444596D01*
X73725063Y-66444592D01*
X73667766Y-66230753D01*
X73663905Y-66216344D01*
X73663904Y-66216343D01*
X73663903Y-66216337D01*
X73564035Y-66002171D01*
X73548143Y-65979474D01*
X73428494Y-65808597D01*
X73261402Y-65641506D01*
X73261395Y-65641501D01*
X73256576Y-65638127D01*
X73176759Y-65582238D01*
X73067834Y-65505967D01*
X73067830Y-65505965D01*
X73057105Y-65500964D01*
X72853663Y-65406097D01*
X72853659Y-65406096D01*
X72853655Y-65406094D01*
X72625413Y-65344938D01*
X72625403Y-65344936D01*
X72390001Y-65324341D01*
X72389999Y-65324341D01*
X72154596Y-65344936D01*
X72154586Y-65344938D01*
X71926344Y-65406094D01*
X71926335Y-65406098D01*
X71712171Y-65505964D01*
X71712169Y-65505965D01*
X71518597Y-65641505D01*
X71351505Y-65808597D01*
X71215965Y-66002169D01*
X71215964Y-66002171D01*
X71144282Y-66155894D01*
X71118430Y-66211335D01*
X71116098Y-66216335D01*
X71116094Y-66216344D01*
X71054938Y-66444586D01*
X71054936Y-66444596D01*
X71034341Y-66679999D01*
X71034341Y-66680000D01*
X71054936Y-66915403D01*
X71054938Y-66915413D01*
X71116094Y-67143655D01*
X71116096Y-67143659D01*
X71116097Y-67143663D01*
X71207325Y-67339302D01*
X71215965Y-67357830D01*
X71215967Y-67357834D01*
X71351501Y-67551395D01*
X71351506Y-67551402D01*
X71518597Y-67718493D01*
X71518603Y-67718498D01*
X71704158Y-67848425D01*
X71747783Y-67903002D01*
X71754977Y-67972500D01*
X71723454Y-68034855D01*
X71704158Y-68051575D01*
X71518597Y-68181505D01*
X71351505Y-68348597D01*
X71215965Y-68542169D01*
X71215964Y-68542171D01*
X71122401Y-68742816D01*
X71118430Y-68751335D01*
X71116098Y-68756335D01*
X71116094Y-68756344D01*
X71054938Y-68984586D01*
X71054936Y-68984596D01*
X71034341Y-69219999D01*
X71034341Y-69220000D01*
X71054936Y-69455403D01*
X71054938Y-69455413D01*
X71116094Y-69683655D01*
X71116096Y-69683659D01*
X71116097Y-69683663D01*
X71213633Y-69892830D01*
X71215965Y-69897830D01*
X71215967Y-69897834D01*
X71351501Y-70091395D01*
X71351506Y-70091402D01*
X71518597Y-70258493D01*
X71518603Y-70258498D01*
X71704158Y-70388425D01*
X71747783Y-70443002D01*
X71754977Y-70512500D01*
X71723454Y-70574855D01*
X71704158Y-70591575D01*
X71518597Y-70721505D01*
X71351505Y-70888597D01*
X71215965Y-71082169D01*
X71215964Y-71082171D01*
X71122401Y-71282816D01*
X71118430Y-71291335D01*
X71116098Y-71296335D01*
X71116094Y-71296344D01*
X71054938Y-71524586D01*
X71054936Y-71524596D01*
X71034341Y-71759999D01*
X71034341Y-71760000D01*
X71054936Y-71995403D01*
X71054938Y-71995413D01*
X71116094Y-72223655D01*
X71116096Y-72223659D01*
X71116097Y-72223663D01*
X71190391Y-72382987D01*
X71215965Y-72437830D01*
X71215967Y-72437834D01*
X71351501Y-72631395D01*
X71351506Y-72631402D01*
X71518597Y-72798493D01*
X71518603Y-72798498D01*
X71704158Y-72928425D01*
X71747783Y-72983002D01*
X71754977Y-73052500D01*
X71723454Y-73114855D01*
X71704158Y-73131575D01*
X71518597Y-73261505D01*
X71351505Y-73428597D01*
X71215965Y-73622169D01*
X71215964Y-73622171D01*
X71122401Y-73822816D01*
X71118430Y-73831335D01*
X71116098Y-73836335D01*
X71116094Y-73836344D01*
X71054938Y-74064586D01*
X71054936Y-74064596D01*
X71034341Y-74299999D01*
X71034341Y-74300000D01*
X71054936Y-74535403D01*
X71054938Y-74535413D01*
X71116094Y-74763655D01*
X71116096Y-74763659D01*
X71116097Y-74763663D01*
X71190388Y-74922980D01*
X71215965Y-74977830D01*
X71215967Y-74977834D01*
X71351501Y-75171395D01*
X71351506Y-75171402D01*
X71518597Y-75338493D01*
X71518603Y-75338498D01*
X71704158Y-75468425D01*
X71747783Y-75523002D01*
X71754977Y-75592500D01*
X71723454Y-75654855D01*
X71704158Y-75671575D01*
X71518597Y-75801505D01*
X71351505Y-75968597D01*
X71215965Y-76162169D01*
X71215964Y-76162171D01*
X71170346Y-76260000D01*
X71118430Y-76371335D01*
X71116098Y-76376335D01*
X71116094Y-76376344D01*
X71054938Y-76604586D01*
X71054936Y-76604596D01*
X71034341Y-76839999D01*
X71034341Y-76840000D01*
X71054936Y-77075403D01*
X71054938Y-77075413D01*
X71116094Y-77303655D01*
X71116096Y-77303659D01*
X71116097Y-77303663D01*
X71148920Y-77374052D01*
X71215965Y-77517830D01*
X71215967Y-77517834D01*
X71351501Y-77711395D01*
X71351506Y-77711402D01*
X71518597Y-77878493D01*
X71518603Y-77878498D01*
X71704158Y-78008425D01*
X71747783Y-78063002D01*
X71754977Y-78132500D01*
X71723454Y-78194855D01*
X71704158Y-78211575D01*
X71518597Y-78341505D01*
X71351505Y-78508597D01*
X71215965Y-78702169D01*
X71215964Y-78702171D01*
X71122401Y-78902816D01*
X71118430Y-78911335D01*
X71116098Y-78916335D01*
X71116094Y-78916344D01*
X71054938Y-79144586D01*
X71054936Y-79144596D01*
X71034341Y-79379999D01*
X71034341Y-79380000D01*
X71054936Y-79615403D01*
X71054938Y-79615413D01*
X71116094Y-79843655D01*
X71116096Y-79843659D01*
X71116097Y-79843663D01*
X71213633Y-80052830D01*
X71215965Y-80057830D01*
X71215967Y-80057834D01*
X71351501Y-80251395D01*
X71351506Y-80251402D01*
X71518597Y-80418493D01*
X71518603Y-80418498D01*
X71704158Y-80548425D01*
X71747783Y-80603002D01*
X71754977Y-80672500D01*
X71723454Y-80734855D01*
X71704158Y-80751575D01*
X71518597Y-80881505D01*
X71351505Y-81048597D01*
X71215965Y-81242169D01*
X71215964Y-81242171D01*
X71146700Y-81390709D01*
X71118430Y-81451335D01*
X71116098Y-81456335D01*
X71116094Y-81456344D01*
X71054938Y-81684586D01*
X71054936Y-81684596D01*
X71034341Y-81919999D01*
X71034341Y-81920000D01*
X71054936Y-82155403D01*
X71054938Y-82155413D01*
X71116094Y-82383655D01*
X71116096Y-82383659D01*
X71116097Y-82383663D01*
X71193662Y-82550002D01*
X71215965Y-82597830D01*
X71215967Y-82597834D01*
X71351501Y-82791395D01*
X71351506Y-82791402D01*
X71518597Y-82958493D01*
X71518603Y-82958498D01*
X71704158Y-83088425D01*
X71747783Y-83143002D01*
X71754977Y-83212500D01*
X71723454Y-83274855D01*
X71704158Y-83291575D01*
X71518597Y-83421505D01*
X71351505Y-83588597D01*
X71215965Y-83782169D01*
X71215964Y-83782171D01*
X71144282Y-83935894D01*
X71118430Y-83991335D01*
X71116098Y-83996335D01*
X71116094Y-83996344D01*
X71054938Y-84224586D01*
X71054936Y-84224596D01*
X71034341Y-84459999D01*
X71034341Y-84460000D01*
X71054936Y-84695403D01*
X71054938Y-84695413D01*
X71116094Y-84923655D01*
X71116096Y-84923659D01*
X71116097Y-84923663D01*
X71203265Y-85110595D01*
X71215965Y-85137830D01*
X71215967Y-85137834D01*
X71282280Y-85232538D01*
X71351501Y-85331396D01*
X71351506Y-85331402D01*
X71473818Y-85453714D01*
X71507303Y-85515037D01*
X71502319Y-85584729D01*
X71460447Y-85640662D01*
X71429471Y-85657577D01*
X71297912Y-85706646D01*
X71297906Y-85706649D01*
X71182812Y-85792809D01*
X71182809Y-85792812D01*
X71096649Y-85907906D01*
X71096645Y-85907913D01*
X71046403Y-86042620D01*
X71046401Y-86042627D01*
X71040000Y-86102155D01*
X71040000Y-86750000D01*
X71956314Y-86750000D01*
X71930507Y-86790156D01*
X71890000Y-86928111D01*
X71890000Y-87071889D01*
X71930507Y-87209844D01*
X71956314Y-87250000D01*
X71040000Y-87250000D01*
X71040000Y-87897844D01*
X71046401Y-87957372D01*
X71046403Y-87957379D01*
X71096645Y-88092086D01*
X71096649Y-88092093D01*
X71182809Y-88207187D01*
X71182812Y-88207190D01*
X71297906Y-88293350D01*
X71297913Y-88293354D01*
X71429470Y-88342421D01*
X71485403Y-88384292D01*
X71509821Y-88449756D01*
X71494970Y-88518029D01*
X71473819Y-88546284D01*
X71351503Y-88668600D01*
X71215965Y-88862169D01*
X71215964Y-88862171D01*
X71122401Y-89062816D01*
X71118430Y-89071335D01*
X71116098Y-89076335D01*
X71116094Y-89076344D01*
X71054938Y-89304586D01*
X71054936Y-89304596D01*
X71034341Y-89539999D01*
X71034341Y-89540000D01*
X70350500Y-89540000D01*
X70350500Y-58480002D01*
X80024723Y-58480002D01*
X80031944Y-58562538D01*
X80041345Y-58670000D01*
X80043793Y-58697975D01*
X80043793Y-58697979D01*
X80100422Y-58909322D01*
X80100424Y-58909326D01*
X80100425Y-58909330D01*
X80146661Y-59008484D01*
X80192897Y-59107638D01*
X80192898Y-59107639D01*
X80318402Y-59286877D01*
X80473123Y-59441598D01*
X80652361Y-59567102D01*
X80850670Y-59659575D01*
X81062023Y-59716207D01*
X81244926Y-59732208D01*
X81279998Y-59735277D01*
X81280000Y-59735277D01*
X81280002Y-59735277D01*
X81308254Y-59732805D01*
X81497977Y-59716207D01*
X81709330Y-59659575D01*
X81907639Y-59567102D01*
X82086877Y-59441598D01*
X82241598Y-59286877D01*
X82367102Y-59107639D01*
X82459575Y-58909330D01*
X82516207Y-58697977D01*
X82535277Y-58480000D01*
X82530028Y-58420000D01*
X85154357Y-58420000D01*
X85174884Y-58641535D01*
X85174885Y-58641537D01*
X85235769Y-58855523D01*
X85235775Y-58855538D01*
X85334938Y-59054683D01*
X85334943Y-59054691D01*
X85469020Y-59232238D01*
X85633437Y-59382123D01*
X85633439Y-59382125D01*
X85822595Y-59499245D01*
X85822596Y-59499245D01*
X85822599Y-59499247D01*
X86030060Y-59579618D01*
X86248757Y-59620500D01*
X86248759Y-59620500D01*
X86471241Y-59620500D01*
X86471243Y-59620500D01*
X86689940Y-59579618D01*
X86897401Y-59499247D01*
X87086562Y-59382124D01*
X87250981Y-59232236D01*
X87385058Y-59054689D01*
X87484229Y-58855528D01*
X87537016Y-58670000D01*
X92803505Y-58670000D01*
X92856239Y-58855349D01*
X92955368Y-59054425D01*
X93089391Y-59231900D01*
X93253738Y-59381721D01*
X93442820Y-59498797D01*
X93442822Y-59498798D01*
X93650195Y-59579135D01*
X93730000Y-59594052D01*
X93730000Y-58670000D01*
X92803505Y-58670000D01*
X87537016Y-58670000D01*
X87545115Y-58641536D01*
X87565643Y-58420000D01*
X87545115Y-58198464D01*
X87484229Y-57984472D01*
X87418446Y-57852362D01*
X87385061Y-57785316D01*
X87385056Y-57785308D01*
X87250979Y-57607761D01*
X87086562Y-57457876D01*
X87086560Y-57457874D01*
X86897404Y-57340754D01*
X86897395Y-57340750D01*
X86793305Y-57300426D01*
X86703475Y-57265625D01*
X86648075Y-57223054D01*
X86624484Y-57157288D01*
X86640195Y-57089207D01*
X86690219Y-57040428D01*
X86703466Y-57034377D01*
X86897401Y-56959247D01*
X87086562Y-56842124D01*
X87250981Y-56692236D01*
X87385058Y-56514689D01*
X87484229Y-56315528D01*
X87545115Y-56101536D01*
X87565643Y-55880000D01*
X87545115Y-55658464D01*
X87484229Y-55444472D01*
X87484224Y-55444461D01*
X87385061Y-55245316D01*
X87385056Y-55245308D01*
X87250979Y-55067761D01*
X87086562Y-54917876D01*
X87086560Y-54917874D01*
X86897404Y-54800754D01*
X86897395Y-54800750D01*
X86787007Y-54757986D01*
X86703475Y-54725625D01*
X86648075Y-54683054D01*
X86624484Y-54617288D01*
X86640195Y-54549207D01*
X86690219Y-54500428D01*
X86703466Y-54494377D01*
X86897401Y-54419247D01*
X87086562Y-54302124D01*
X87250981Y-54152236D01*
X87385058Y-53974689D01*
X87484229Y-53775528D01*
X87545115Y-53561536D01*
X87565643Y-53340000D01*
X87545115Y-53118464D01*
X87484229Y-52904472D01*
X87484224Y-52904461D01*
X87385061Y-52705316D01*
X87385056Y-52705308D01*
X87250979Y-52527761D01*
X87086562Y-52377876D01*
X87086560Y-52377874D01*
X86897404Y-52260754D01*
X86897398Y-52260752D01*
X86689940Y-52180382D01*
X86471243Y-52139500D01*
X86248757Y-52139500D01*
X86030060Y-52180382D01*
X85898864Y-52231207D01*
X85822601Y-52260752D01*
X85822595Y-52260754D01*
X85633439Y-52377874D01*
X85633437Y-52377876D01*
X85469020Y-52527761D01*
X85334943Y-52705308D01*
X85334938Y-52705316D01*
X85235775Y-52904461D01*
X85235769Y-52904476D01*
X85174885Y-53118462D01*
X85174884Y-53118464D01*
X85154357Y-53339999D01*
X85154357Y-53340000D01*
X85174884Y-53561535D01*
X85174885Y-53561537D01*
X85235769Y-53775523D01*
X85235775Y-53775538D01*
X85334938Y-53974683D01*
X85334943Y-53974691D01*
X85469020Y-54152238D01*
X85633437Y-54302123D01*
X85633439Y-54302125D01*
X85822595Y-54419245D01*
X85822596Y-54419245D01*
X85822599Y-54419247D01*
X86016524Y-54494374D01*
X86071924Y-54536946D01*
X86095515Y-54602713D01*
X86079804Y-54670793D01*
X86029780Y-54719572D01*
X86016533Y-54725622D01*
X85910033Y-54766881D01*
X85822601Y-54800752D01*
X85822595Y-54800754D01*
X85633439Y-54917874D01*
X85633437Y-54917876D01*
X85469020Y-55067761D01*
X85334943Y-55245308D01*
X85334938Y-55245316D01*
X85235775Y-55444461D01*
X85235769Y-55444476D01*
X85174885Y-55658462D01*
X85174884Y-55658464D01*
X85154357Y-55879999D01*
X85154357Y-55880000D01*
X85174884Y-56101535D01*
X85174885Y-56101537D01*
X85235769Y-56315523D01*
X85235775Y-56315538D01*
X85334938Y-56514683D01*
X85334943Y-56514691D01*
X85469020Y-56692238D01*
X85633437Y-56842123D01*
X85633439Y-56842125D01*
X85822595Y-56959245D01*
X85822596Y-56959245D01*
X85822599Y-56959247D01*
X86016524Y-57034374D01*
X86071924Y-57076946D01*
X86095515Y-57142713D01*
X86079804Y-57210793D01*
X86029780Y-57259572D01*
X86016533Y-57265622D01*
X85926695Y-57300426D01*
X85822601Y-57340752D01*
X85822595Y-57340754D01*
X85633439Y-57457874D01*
X85633437Y-57457876D01*
X85469020Y-57607761D01*
X85334943Y-57785308D01*
X85334938Y-57785316D01*
X85235775Y-57984461D01*
X85235769Y-57984476D01*
X85174885Y-58198462D01*
X85174884Y-58198464D01*
X85154357Y-58419999D01*
X85154357Y-58420000D01*
X82530028Y-58420000D01*
X82516207Y-58262023D01*
X82468609Y-58084386D01*
X82459577Y-58050677D01*
X82459576Y-58050676D01*
X82459575Y-58050670D01*
X82367102Y-57852362D01*
X82367100Y-57852359D01*
X82367099Y-57852357D01*
X82241599Y-57673124D01*
X82176236Y-57607761D01*
X82086877Y-57518402D01*
X81907639Y-57392898D01*
X81907640Y-57392898D01*
X81907638Y-57392897D01*
X81808484Y-57346661D01*
X81709330Y-57300425D01*
X81709326Y-57300424D01*
X81709317Y-57300420D01*
X81706907Y-57299775D01*
X81705963Y-57299199D01*
X81704236Y-57298571D01*
X81704362Y-57298224D01*
X81647246Y-57263412D01*
X81616715Y-57200565D01*
X81625009Y-57131189D01*
X81669493Y-57077311D01*
X81704240Y-57061442D01*
X81704236Y-57061429D01*
X81704406Y-57061367D01*
X81706907Y-57060225D01*
X81709317Y-57059579D01*
X81709320Y-57059577D01*
X81709330Y-57059575D01*
X81907639Y-56967102D01*
X82086877Y-56841598D01*
X82241598Y-56686877D01*
X82367102Y-56507639D01*
X82459575Y-56309330D01*
X82516207Y-56097977D01*
X82535277Y-55880000D01*
X82516207Y-55662023D01*
X82459575Y-55450670D01*
X82367102Y-55252362D01*
X82367100Y-55252359D01*
X82367099Y-55252357D01*
X82241599Y-55073124D01*
X82236236Y-55067761D01*
X82086877Y-54918402D01*
X81907639Y-54792898D01*
X81907640Y-54792898D01*
X81907638Y-54792897D01*
X81851845Y-54766881D01*
X81799406Y-54720709D01*
X81780254Y-54653515D01*
X81800470Y-54586634D01*
X81853635Y-54541299D01*
X81904249Y-54530499D01*
X82077872Y-54530499D01*
X82137483Y-54524091D01*
X82272331Y-54473796D01*
X82387546Y-54387546D01*
X82473796Y-54272331D01*
X82524091Y-54137483D01*
X82530500Y-54077873D01*
X82530499Y-52482128D01*
X82524091Y-52422517D01*
X82507440Y-52377874D01*
X82473797Y-52287671D01*
X82473793Y-52287664D01*
X82387547Y-52172455D01*
X82387544Y-52172452D01*
X82272335Y-52086206D01*
X82272328Y-52086202D01*
X82137482Y-52035908D01*
X82137483Y-52035908D01*
X82077883Y-52029501D01*
X82077881Y-52029500D01*
X82077873Y-52029500D01*
X82077864Y-52029500D01*
X80482129Y-52029500D01*
X80482123Y-52029501D01*
X80422516Y-52035908D01*
X80287671Y-52086202D01*
X80287664Y-52086206D01*
X80172455Y-52172452D01*
X80172452Y-52172455D01*
X80086206Y-52287664D01*
X80086202Y-52287671D01*
X80035908Y-52422517D01*
X80029501Y-52482116D01*
X80029501Y-52482123D01*
X80029500Y-52482135D01*
X80029500Y-54077870D01*
X80029501Y-54077876D01*
X80035908Y-54137483D01*
X80086202Y-54272328D01*
X80086206Y-54272335D01*
X80172452Y-54387544D01*
X80172455Y-54387547D01*
X80287664Y-54473793D01*
X80287671Y-54473797D01*
X80422517Y-54524091D01*
X80422516Y-54524091D01*
X80429444Y-54524835D01*
X80482127Y-54530500D01*
X80655750Y-54530499D01*
X80722787Y-54550183D01*
X80768542Y-54602987D01*
X80778486Y-54672145D01*
X80749461Y-54735701D01*
X80708155Y-54766880D01*
X80652363Y-54792897D01*
X80652357Y-54792900D01*
X80473121Y-54918402D01*
X80318402Y-55073121D01*
X80192900Y-55252357D01*
X80192898Y-55252361D01*
X80100426Y-55450668D01*
X80100422Y-55450677D01*
X80043793Y-55662020D01*
X80043793Y-55662024D01*
X80024723Y-55879997D01*
X80024723Y-55880002D01*
X80043793Y-56097975D01*
X80043793Y-56097979D01*
X80100422Y-56309322D01*
X80100424Y-56309326D01*
X80100425Y-56309330D01*
X80103320Y-56315538D01*
X80192897Y-56507638D01*
X80192898Y-56507639D01*
X80318402Y-56686877D01*
X80473123Y-56841598D01*
X80652361Y-56967102D01*
X80850670Y-57059575D01*
X80850679Y-57059577D01*
X80850683Y-57059579D01*
X80853096Y-57060226D01*
X80854040Y-57060801D01*
X80855764Y-57061429D01*
X80855637Y-57061775D01*
X80912756Y-57096591D01*
X80943284Y-57159439D01*
X80934989Y-57228814D01*
X80890502Y-57282692D01*
X80855759Y-57298557D01*
X80855764Y-57298571D01*
X80855597Y-57298631D01*
X80853096Y-57299774D01*
X80850683Y-57300420D01*
X80850668Y-57300426D01*
X80652361Y-57392898D01*
X80652357Y-57392900D01*
X80473121Y-57518402D01*
X80318402Y-57673121D01*
X80192900Y-57852357D01*
X80192898Y-57852361D01*
X80100426Y-58050668D01*
X80100422Y-58050677D01*
X80043793Y-58262020D01*
X80043793Y-58262024D01*
X80024723Y-58479997D01*
X80024723Y-58480002D01*
X70350500Y-58480002D01*
X70350500Y-49590002D01*
X80024723Y-49590002D01*
X80031944Y-49672538D01*
X80041345Y-49780000D01*
X80043793Y-49807975D01*
X80043793Y-49807979D01*
X80100422Y-50019322D01*
X80100424Y-50019326D01*
X80100425Y-50019330D01*
X80146661Y-50118484D01*
X80192897Y-50217638D01*
X80192898Y-50217639D01*
X80318402Y-50396877D01*
X80473123Y-50551598D01*
X80652361Y-50677102D01*
X80850670Y-50769575D01*
X81062023Y-50826207D01*
X81244926Y-50842208D01*
X81279998Y-50845277D01*
X81280000Y-50845277D01*
X81280002Y-50845277D01*
X81308254Y-50842805D01*
X81497977Y-50826207D01*
X81709330Y-50769575D01*
X81907639Y-50677102D01*
X82086877Y-50551598D01*
X82241598Y-50396877D01*
X82367102Y-50217639D01*
X82459575Y-50019330D01*
X82516207Y-49807977D01*
X82535277Y-49590000D01*
X82530028Y-49530000D01*
X85154357Y-49530000D01*
X85174884Y-49751535D01*
X85174885Y-49751537D01*
X85235769Y-49965523D01*
X85235775Y-49965538D01*
X85334938Y-50164683D01*
X85334943Y-50164691D01*
X85469020Y-50342238D01*
X85633437Y-50492123D01*
X85633439Y-50492125D01*
X85822595Y-50609245D01*
X85822596Y-50609245D01*
X85822599Y-50609247D01*
X86030060Y-50689618D01*
X86248757Y-50730500D01*
X86248759Y-50730500D01*
X86471241Y-50730500D01*
X86471243Y-50730500D01*
X86689940Y-50689618D01*
X86897401Y-50609247D01*
X87086562Y-50492124D01*
X87250981Y-50342236D01*
X87385058Y-50164689D01*
X87484229Y-49965528D01*
X87537016Y-49780000D01*
X92803505Y-49780000D01*
X92856239Y-49965349D01*
X92955368Y-50164425D01*
X93089391Y-50341900D01*
X93253738Y-50491721D01*
X93442820Y-50608797D01*
X93442822Y-50608798D01*
X93650195Y-50689135D01*
X93730000Y-50704052D01*
X93730000Y-49780000D01*
X92803505Y-49780000D01*
X87537016Y-49780000D01*
X87545115Y-49751536D01*
X87565643Y-49530000D01*
X87545115Y-49308464D01*
X87484229Y-49094472D01*
X87418446Y-48962362D01*
X87385061Y-48895316D01*
X87385056Y-48895308D01*
X87250979Y-48717761D01*
X87086562Y-48567876D01*
X87086560Y-48567874D01*
X86897404Y-48450754D01*
X86897395Y-48450750D01*
X86793305Y-48410426D01*
X86703475Y-48375625D01*
X86648075Y-48333054D01*
X86624484Y-48267288D01*
X86640195Y-48199207D01*
X86690219Y-48150428D01*
X86703466Y-48144377D01*
X86897401Y-48069247D01*
X87086562Y-47952124D01*
X87250981Y-47802236D01*
X87385058Y-47624689D01*
X87405281Y-47584077D01*
X87484224Y-47425538D01*
X87484223Y-47425538D01*
X87484229Y-47425528D01*
X87545115Y-47211536D01*
X87565643Y-46990000D01*
X87545115Y-46768464D01*
X87484229Y-46554472D01*
X87484224Y-46554461D01*
X87385061Y-46355316D01*
X87385056Y-46355308D01*
X87250979Y-46177761D01*
X87086562Y-46027876D01*
X87086560Y-46027874D01*
X86897404Y-45910754D01*
X86897395Y-45910750D01*
X86803956Y-45874552D01*
X86703475Y-45835625D01*
X86648075Y-45793054D01*
X86624484Y-45727288D01*
X86640195Y-45659207D01*
X86690219Y-45610428D01*
X86703466Y-45604377D01*
X86897401Y-45529247D01*
X87086562Y-45412124D01*
X87250981Y-45262236D01*
X87385058Y-45084689D01*
X87484229Y-44885528D01*
X87545115Y-44671536D01*
X87565643Y-44450000D01*
X87545115Y-44228464D01*
X87484229Y-44014472D01*
X87484224Y-44014461D01*
X87385061Y-43815316D01*
X87385056Y-43815308D01*
X87250979Y-43637761D01*
X87086562Y-43487876D01*
X87086560Y-43487874D01*
X86897404Y-43370754D01*
X86897398Y-43370752D01*
X86689940Y-43290382D01*
X86471243Y-43249500D01*
X86248757Y-43249500D01*
X86030060Y-43290382D01*
X85898864Y-43341207D01*
X85822601Y-43370752D01*
X85822595Y-43370754D01*
X85633439Y-43487874D01*
X85633437Y-43487876D01*
X85469020Y-43637761D01*
X85334943Y-43815308D01*
X85334938Y-43815316D01*
X85235775Y-44014461D01*
X85235769Y-44014476D01*
X85174885Y-44228462D01*
X85174884Y-44228464D01*
X85154357Y-44449999D01*
X85154357Y-44450000D01*
X85174884Y-44671535D01*
X85174885Y-44671537D01*
X85235769Y-44885523D01*
X85235775Y-44885538D01*
X85334938Y-45084683D01*
X85334943Y-45084691D01*
X85469020Y-45262238D01*
X85633437Y-45412123D01*
X85633439Y-45412125D01*
X85822595Y-45529245D01*
X85822596Y-45529245D01*
X85822599Y-45529247D01*
X86016524Y-45604374D01*
X86071924Y-45646946D01*
X86095515Y-45712713D01*
X86079804Y-45780793D01*
X86029780Y-45829572D01*
X86016533Y-45835622D01*
X85910033Y-45876881D01*
X85822601Y-45910752D01*
X85822595Y-45910754D01*
X85633439Y-46027874D01*
X85633437Y-46027876D01*
X85469020Y-46177761D01*
X85334943Y-46355308D01*
X85334938Y-46355316D01*
X85235775Y-46554461D01*
X85235769Y-46554476D01*
X85174885Y-46768462D01*
X85174884Y-46768464D01*
X85154357Y-46989999D01*
X85154357Y-46990000D01*
X85174884Y-47211535D01*
X85174885Y-47211537D01*
X85235769Y-47425523D01*
X85235775Y-47425538D01*
X85334938Y-47624683D01*
X85334943Y-47624691D01*
X85469020Y-47802238D01*
X85633437Y-47952123D01*
X85633439Y-47952125D01*
X85822595Y-48069245D01*
X85822596Y-48069245D01*
X85822599Y-48069247D01*
X86016524Y-48144374D01*
X86071924Y-48186946D01*
X86095515Y-48252713D01*
X86079804Y-48320793D01*
X86029780Y-48369572D01*
X86016533Y-48375622D01*
X85926695Y-48410426D01*
X85822601Y-48450752D01*
X85822595Y-48450754D01*
X85633439Y-48567874D01*
X85633437Y-48567876D01*
X85469020Y-48717761D01*
X85334943Y-48895308D01*
X85334938Y-48895316D01*
X85235775Y-49094461D01*
X85235769Y-49094476D01*
X85174885Y-49308462D01*
X85174884Y-49308464D01*
X85154357Y-49529999D01*
X85154357Y-49530000D01*
X82530028Y-49530000D01*
X82516207Y-49372023D01*
X82468609Y-49194386D01*
X82459577Y-49160677D01*
X82459576Y-49160676D01*
X82459575Y-49160670D01*
X82367102Y-48962362D01*
X82367100Y-48962359D01*
X82367099Y-48962357D01*
X82241599Y-48783124D01*
X82176236Y-48717761D01*
X82086877Y-48628402D01*
X81907639Y-48502898D01*
X81907640Y-48502898D01*
X81907638Y-48502897D01*
X81808484Y-48456661D01*
X81709330Y-48410425D01*
X81709326Y-48410424D01*
X81709317Y-48410420D01*
X81706907Y-48409775D01*
X81705963Y-48409199D01*
X81704236Y-48408571D01*
X81704362Y-48408224D01*
X81647246Y-48373412D01*
X81616715Y-48310565D01*
X81625009Y-48241189D01*
X81669493Y-48187311D01*
X81704240Y-48171442D01*
X81704236Y-48171429D01*
X81704406Y-48171367D01*
X81706907Y-48170225D01*
X81709317Y-48169579D01*
X81709320Y-48169577D01*
X81709330Y-48169575D01*
X81907639Y-48077102D01*
X82086877Y-47951598D01*
X82241598Y-47796877D01*
X82367102Y-47617639D01*
X82459575Y-47419330D01*
X82516207Y-47207977D01*
X82535277Y-46990000D01*
X82516207Y-46772023D01*
X82459575Y-46560670D01*
X82367102Y-46362362D01*
X82367100Y-46362359D01*
X82367099Y-46362357D01*
X82241599Y-46183124D01*
X82236236Y-46177761D01*
X82086877Y-46028402D01*
X81907639Y-45902898D01*
X81907640Y-45902898D01*
X81907638Y-45902897D01*
X81851845Y-45876881D01*
X81799406Y-45830709D01*
X81780254Y-45763515D01*
X81800470Y-45696634D01*
X81853635Y-45651299D01*
X81904249Y-45640499D01*
X82077872Y-45640499D01*
X82137483Y-45634091D01*
X82272331Y-45583796D01*
X82387546Y-45497546D01*
X82473796Y-45382331D01*
X82524091Y-45247483D01*
X82530500Y-45187873D01*
X82530499Y-43592128D01*
X82524091Y-43532517D01*
X82507440Y-43487874D01*
X82473797Y-43397671D01*
X82473793Y-43397664D01*
X82387547Y-43282455D01*
X82387544Y-43282452D01*
X82272335Y-43196206D01*
X82272328Y-43196202D01*
X82137482Y-43145908D01*
X82137483Y-43145908D01*
X82077883Y-43139501D01*
X82077881Y-43139500D01*
X82077873Y-43139500D01*
X82077864Y-43139500D01*
X80482129Y-43139500D01*
X80482123Y-43139501D01*
X80422516Y-43145908D01*
X80287671Y-43196202D01*
X80287664Y-43196206D01*
X80172455Y-43282452D01*
X80172452Y-43282455D01*
X80086206Y-43397664D01*
X80086202Y-43397671D01*
X80035908Y-43532517D01*
X80029501Y-43592116D01*
X80029501Y-43592123D01*
X80029500Y-43592135D01*
X80029500Y-45187870D01*
X80029501Y-45187876D01*
X80035908Y-45247483D01*
X80086202Y-45382328D01*
X80086206Y-45382335D01*
X80172452Y-45497544D01*
X80172455Y-45497547D01*
X80287664Y-45583793D01*
X80287671Y-45583797D01*
X80422517Y-45634091D01*
X80422516Y-45634091D01*
X80429444Y-45634835D01*
X80482127Y-45640500D01*
X80655750Y-45640499D01*
X80722787Y-45660183D01*
X80768542Y-45712987D01*
X80778486Y-45782145D01*
X80749461Y-45845701D01*
X80708155Y-45876880D01*
X80652363Y-45902897D01*
X80652357Y-45902900D01*
X80473121Y-46028402D01*
X80318402Y-46183121D01*
X80192900Y-46362357D01*
X80192898Y-46362361D01*
X80100426Y-46560668D01*
X80100422Y-46560677D01*
X80043793Y-46772020D01*
X80043793Y-46772023D01*
X80024723Y-46990000D01*
X80043202Y-47201226D01*
X80043793Y-47207975D01*
X80043793Y-47207979D01*
X80100422Y-47419322D01*
X80100424Y-47419326D01*
X80100425Y-47419330D01*
X80134630Y-47492682D01*
X80192897Y-47617638D01*
X80192898Y-47617639D01*
X80318402Y-47796877D01*
X80473123Y-47951598D01*
X80652361Y-48077102D01*
X80850670Y-48169575D01*
X80850679Y-48169577D01*
X80850683Y-48169579D01*
X80853096Y-48170226D01*
X80854040Y-48170801D01*
X80855764Y-48171429D01*
X80855637Y-48171775D01*
X80912756Y-48206591D01*
X80943284Y-48269439D01*
X80934989Y-48338814D01*
X80890502Y-48392692D01*
X80855759Y-48408557D01*
X80855764Y-48408571D01*
X80855597Y-48408631D01*
X80853096Y-48409774D01*
X80850683Y-48410420D01*
X80850668Y-48410426D01*
X80652361Y-48502898D01*
X80652357Y-48502900D01*
X80473121Y-48628402D01*
X80318402Y-48783121D01*
X80192900Y-48962357D01*
X80192898Y-48962361D01*
X80100426Y-49160668D01*
X80100422Y-49160677D01*
X80043793Y-49372020D01*
X80043793Y-49372024D01*
X80024723Y-49589997D01*
X80024723Y-49590002D01*
X70350500Y-49590002D01*
X70350500Y-42534500D01*
X70370185Y-42467461D01*
X70422989Y-42421706D01*
X70474500Y-42410500D01*
X103515500Y-42410500D01*
X103582539Y-42430185D01*
G37*
%TD.AperFunction*%
%TD*%
M02*
